<svg xmlns="http://www.w3.org/2000/svg" xmlns:xlink="http://www.w3.org/1999/xlink" width="40" zoomAndPan="magnify" viewBox="0 0 30 30.000001" height="40" preserveAspectRatio="xMidYMid meet" version="1.0"><defs><clipPath id="a6c4c67b97"><path d="M 0.484375 0 L 29.515625 0 L 29.515625 29.03125 L 0.484375 29.03125 Z M 0.484375 0 " clip-rule="nonzero"/></clipPath><clipPath id="e0e375ae0a"><path d="M 15 0 C 6.984375 0 0.484375 6.5 0.484375 14.515625 C 0.484375 22.53125 6.984375 29.03125 15 29.03125 C 23.015625 29.03125 29.515625 22.53125 29.515625 14.515625 C 29.515625 6.5 23.015625 0 15 0 Z M 15 0 " clip-rule="nonzero"/></clipPath><clipPath id="c2d84a2094"><path d="M 8.074219 3.71875 L 21.867188 3.71875 L 21.867188 25.492188 L 8.074219 25.492188 Z M 8.074219 3.71875 " clip-rule="nonzero"/></clipPath></defs><g clip-path="url(#a6c4c67b97)"><g clip-path="url(#e0e375ae0a)"><path fill="#e5e7eb" d="M 0.484375 0 L 29.515625 0 L 29.515625 29.03125 L 0.484375 29.03125 Z M 0.484375 0 " fill-opacity="1" fill-rule="nonzero"/></g></g><g clip-path="url(#c2d84a2094)"><path fill="#1f2937" d="M 11.9375 3.875 C 11.746094 3.71875 11.472656 3.914062 11.554688 4.144531 C 14.027344 11.0625 8.082031 13.738281 8.082031 18.394531 C 8.082031 22.210938 11.183594 25.3125 15 25.3125 C 18.820312 25.3125 21.917969 22.210938 21.917969 18.394531 C 21.917969 13.769531 17.035156 7.941406 11.9375 3.875 Z M 11.9375 3.875 " fill-opacity="1" fill-rule="evenodd"/></g></svg>