<svg xmlns="http://www.w3.org/2000/svg" xmlns:xlink="http://www.w3.org/1999/xlink" width="500" zoomAndPan="magnify" viewBox="0 0 375 374.999991" height="500" preserveAspectRatio="xMidYMid meet" version="1.0"><defs><clipPath id="e9a9b52b93"><path d="M 187.5 0 C 83.945312 0 0 83.945312 0 187.5 C 0 291.054688 83.945312 375 187.5 375 C 291.054688 375 375 291.054688 375 187.5 C 375 83.945312 291.054688 0 187.5 0 Z M 187.5 0 " clip-rule="nonzero"/></clipPath></defs><g clip-path="url(#e9a9b52b93)"><rect x="-37.5" width="450" fill="#e5e7eb" y="-37.499999" height="449.999989" fill-opacity="1"/></g><path fill="#1f2937" d="M 196.980469 216.71875 C 196.089844 281.023438 152.253906 312.832031 180.945312 315.847656 C 240.300781 322.085938 272.488281 297.734375 257.886719 264.136719 C 243.28125 230.542969 218.957031 281.953125 196.980469 216.71875 Z M 166.941406 210.320312 C 110.808594 241.707031 61.34375 219.65625 73.074219 246.007812 C 97.351562 300.53125 134.535156 316.226562 156.332031 286.78125 C 178.125 257.335938 121.4375 261.980469 166.941406 210.320312 Z M 217.539062 193.90625 C 272.78125 226.828125 278.40625 280.691406 295.363281 257.355469 C 330.445312 209.070312 325.453125 169.015625 289.054688 164.871094 C 252.65625 160.714844 285.027344 207.488281 217.539062 193.90625 Z M 157.460938 181.117188 C 102.21875 148.191406 96.589844 94.328125 79.636719 117.671875 C 44.546875 165.953125 49.542969 206 85.945312 210.152344 C 122.34375 214.300781 89.972656 167.53125 157.460938 181.117188 Z M 208.058594 164.695312 C 264.1875 133.3125 313.65625 155.367188 301.921875 129.015625 C 277.644531 74.492188 240.464844 58.792969 218.667969 88.242188 C 196.875 117.6875 253.5625 113.035156 208.058594 164.695312 Z M 178.019531 158.300781 C 178.910156 93.996094 222.746094 62.1875 194.054688 59.171875 C 134.699219 52.9375 102.507812 77.285156 117.113281 110.878906 C 131.71875 144.476562 156.042969 93.0625 178.019531 158.300781 Z M 178.019531 158.300781 " fill-opacity="1" fill-rule="evenodd"/></svg>