<svg xmlns="http://www.w3.org/2000/svg" xmlns:xlink="http://www.w3.org/1999/xlink" width="150" zoomAndPan="magnify" viewBox="0 0 112.5 112.499997" height="150" preserveAspectRatio="xMidYMid meet" version="1.0"><defs><clipPath id="01cb940e60"><path d="M 40 87 L 74 87 L 74 92.269531 L 40 92.269531 Z M 40 87 " clip-rule="nonzero"/></clipPath><clipPath id="4969c68a06"><path d="M 54 19.839844 L 58 19.839844 L 58 23 L 54 23 Z M 54 19.839844 " clip-rule="nonzero"/></clipPath></defs><g clip-path="url(#01cb940e60)"><path fill="#2085b7" d="M 73.796875 89.671875 C 73.796875 91.109375 66.332031 92.273438 57.128906 92.273438 C 47.925781 92.273438 40.464844 91.109375 40.464844 89.671875 C 40.464844 88.234375 47.925781 87.066406 57.128906 87.066406 C 66.332031 87.066406 73.796875 88.234375 73.796875 89.671875 Z M 73.796875 89.671875 " fill-opacity="1" fill-rule="nonzero"/></g><path fill="#d5e9f2" d="M 70.8125 35.738281 C 66.480469 29.4375 55.949219 29.4375 55.949219 29.4375 C 55.949219 29.4375 45.414062 29.4375 41.085938 35.738281 C 37.113281 41.515625 37.148438 49.417969 37.148438 49.417969 L 40.988281 54.335938 L 70.910156 54.335938 L 74.753906 49.417969 C 74.753906 49.417969 74.785156 41.515625 70.8125 35.738281 Z M 70.8125 35.738281 " fill-opacity="1" fill-rule="nonzero"/><path fill="#a8d7e9" d="M 70.816406 35.738281 C 69.117188 33.269531 66.46875 31.765625 63.875 30.851562 C 65.214844 31.6875 66.433594 32.75 67.371094 34.113281 C 71.347656 39.894531 71.308594 47.792969 71.308594 47.792969 L 67.472656 52.714844 L 39.726562 52.714844 L 40.996094 54.335938 L 70.914062 54.335938 L 74.753906 49.417969 C 74.753906 49.417969 74.792969 41.515625 70.816406 35.738281 Z M 70.816406 35.738281 " fill-opacity="1" fill-rule="nonzero"/><path fill="#002b43" d="M 65.496094 37.015625 C 61.460938 33.964844 50.4375 33.964844 46.402344 37.015625 C 42.019531 40.328125 42.167969 48.234375 42.167969 48.234375 L 69.726562 48.234375 C 69.726562 48.234375 69.878906 40.328125 65.496094 37.015625 Z M 65.496094 37.015625 " fill-opacity="1" fill-rule="nonzero"/><path fill="#000f16" d="M 42.285156 48.234375 C 42.554688 45.65625 43.449219 41.339844 46.402344 39.105469 C 50.4375 36.054688 61.460938 36.054688 65.496094 39.105469 C 68.449219 41.339844 69.34375 45.652344 69.613281 48.234375 L 69.726562 48.234375 C 69.726562 48.234375 69.878906 40.328125 65.496094 37.015625 C 61.460938 33.964844 50.4375 33.964844 46.402344 37.015625 C 42.019531 40.328125 42.167969 48.234375 42.167969 48.234375 Z M 42.285156 48.234375 " fill-opacity="1" fill-rule="nonzero"/><path fill="#d5e9f2" d="M 52.652344 27.960938 L 59.246094 27.960938 C 59.410156 27.960938 59.550781 28.019531 59.664062 28.132812 C 59.78125 28.25 59.835938 28.386719 59.835938 28.550781 L 59.835938 30.621094 C 59.835938 30.78125 59.78125 30.921875 59.664062 31.035156 C 59.550781 31.152344 59.410156 31.210938 59.246094 31.210938 L 52.652344 31.210938 C 52.488281 31.210938 52.347656 31.152344 52.234375 31.035156 C 52.117188 30.921875 52.0625 30.78125 52.0625 30.621094 L 52.0625 28.550781 C 52.0625 28.386719 52.117188 28.25 52.234375 28.132812 C 52.347656 28.019531 52.488281 27.960938 52.652344 27.960938 Z M 52.652344 27.960938 " fill-opacity="1" fill-rule="nonzero"/><path fill="#d5e9f2" d="M 54.195312 29.535156 L 55.078125 21.269531 L 56.261719 21.269531 L 57.703125 29.585938 Z M 54.195312 29.535156 " fill-opacity="1" fill-rule="nonzero"/><g clip-path="url(#4969c68a06)"><path fill="#d5e9f2" d="M 57.128906 21.265625 C 57.128906 21.453125 57.09375 21.636719 57.019531 21.808594 C 56.949219 21.984375 56.847656 22.136719 56.710938 22.273438 C 56.578125 22.40625 56.425781 22.507812 56.25 22.582031 C 56.078125 22.652344 55.894531 22.6875 55.707031 22.6875 C 55.515625 22.6875 55.335938 22.652344 55.160156 22.582031 C 54.988281 22.507812 54.832031 22.40625 54.699219 22.273438 C 54.566406 22.136719 54.464844 21.984375 54.390625 21.808594 C 54.320312 21.636719 54.28125 21.453125 54.28125 21.265625 C 54.28125 21.078125 54.320312 20.894531 54.390625 20.71875 C 54.464844 20.546875 54.566406 20.390625 54.699219 20.257812 C 54.832031 20.125 54.988281 20.023438 55.160156 19.949219 C 55.335938 19.878906 55.515625 19.839844 55.707031 19.839844 C 55.894531 19.839844 56.078125 19.878906 56.25 19.949219 C 56.425781 20.023438 56.578125 20.125 56.710938 20.257812 C 56.847656 20.390625 56.949219 20.546875 57.019531 20.71875 C 57.09375 20.894531 57.128906 21.078125 57.128906 21.265625 Z M 57.128906 21.265625 " fill-opacity="1" fill-rule="nonzero"/></g><path fill="#a8d7e9" d="M 56.59375 20.152344 C 56.644531 20.261719 56.683594 20.375 56.707031 20.496094 C 56.730469 20.613281 56.742188 20.734375 56.734375 20.855469 C 56.726562 20.972656 56.707031 21.09375 56.667969 21.207031 C 56.632812 21.324219 56.582031 21.429688 56.519531 21.535156 C 56.453125 21.636719 56.378906 21.730469 56.289062 21.8125 C 56.203125 21.894531 56.105469 21.964844 56 22.023438 C 55.894531 22.082031 55.78125 22.128906 55.664062 22.15625 C 55.546875 22.1875 55.429688 22.203125 55.308594 22.203125 C 54.976562 22.203125 54.679688 22.101562 54.417969 21.890625 C 54.515625 22.082031 54.648438 22.246094 54.816406 22.378906 C 54.984375 22.511719 55.175781 22.597656 55.386719 22.644531 C 55.59375 22.691406 55.804688 22.691406 56.015625 22.640625 C 56.222656 22.59375 56.414062 22.5 56.582031 22.367188 C 56.75 22.234375 56.878906 22.070312 56.972656 21.875 C 57.066406 21.683594 57.113281 21.480469 57.117188 21.265625 C 57.117188 21.050781 57.070312 20.84375 56.980469 20.648438 C 56.890625 20.457031 56.761719 20.289062 56.59375 20.152344 Z M 56.59375 20.152344 " fill-opacity="1" fill-rule="nonzero"/><path fill="#a8d7e9" d="M 40.988281 54.335938 L 70.910156 54.335938 L 74.75 49.417969 L 37.148438 49.417969 Z M 40.988281 54.335938 " fill-opacity="1" fill-rule="nonzero"/><path fill="#a8d7e9" d="M 59.835938 29.652344 C 59.835938 29.859375 59.703125 30.03125 59.542969 30.03125 L 56.246094 30.03125 C 56.082031 30.03125 55.953125 29.863281 55.953125 29.652344 L 55.953125 28.335938 C 55.953125 28.128906 56.082031 27.957031 56.246094 27.957031 L 59.542969 27.957031 C 59.707031 27.957031 59.839844 28.125 59.839844 28.335938 Z M 59.835938 29.652344 " fill-opacity="1" fill-rule="nonzero"/><path fill="#ffffff" d="M 50.058594 32.152344 C 49.585938 31.234375 47.410156 31.757812 46.699219 32.09375 C 46.121094 32.367188 45.074219 32.972656 44.40625 33.613281 C 43.867188 34.039062 43.398438 34.53125 42.988281 35.082031 C 42.648438 35.542969 42.003906 36.488281 42.417969 37.09375 C 42.875 37.757812 43.644531 37.179688 44.023438 36.796875 C 45.019531 35.800781 45.78125 34.730469 47.128906 34.121094 C 47.789062 33.824219 50.625 33.234375 50.058594 32.152344 Z M 50.058594 32.152344 " fill-opacity="1" fill-rule="nonzero"/><path fill="#d5e9f2" d="M 76.34375 65.484375 L 70.496094 55.398438 L 41.402344 55.398438 L 35.554688 65.484375 C 35.554688 65.484375 35.804688 69.6875 37.214844 73.527344 C 39.382812 79.429688 41.449219 81.792969 41.449219 81.792969 L 48.605469 84.554688 L 55.882812 85.222656 L 55.882812 85.238281 C 55.882812 85.238281 55.933594 85.230469 55.949219 85.230469 C 55.964844 85.230469 56.015625 85.238281 56.015625 85.238281 L 56.015625 85.222656 L 63.289062 84.554688 L 70.449219 81.792969 C 70.449219 81.792969 73.046875 78.445312 74.683594 73.523438 C 75.976562 69.644531 76.34375 65.484375 76.34375 65.484375 Z M 76.34375 65.484375 " fill-opacity="1" fill-rule="nonzero"/><path fill="#a8d7e9" d="M 70.496094 55.398438 L 63.605469 55.398438 L 69.453125 65.484375 C 69.453125 65.484375 69.085938 69.644531 67.792969 73.527344 C 66.15625 78.449219 65.421875 80.40625 63.558594 81.792969 C 62.019531 82.941406 56.402344 84.554688 56.402344 84.554688 L 52.503906 84.914062 L 55.882812 85.222656 L 55.882812 85.238281 C 55.882812 85.238281 55.933594 85.230469 55.949219 85.230469 C 55.964844 85.230469 56.015625 85.238281 56.015625 85.238281 L 56.015625 85.222656 L 63.289062 84.554688 L 70.449219 81.792969 C 70.449219 81.792969 73.046875 78.445312 74.683594 73.523438 C 75.976562 69.640625 76.34375 65.480469 76.34375 65.480469 Z M 70.496094 55.398438 " fill-opacity="1" fill-rule="nonzero"/><path fill="#a8d7e9" d="M 35.554688 65.484375 L 76.34375 65.484375 L 74.753906 68.507812 Z M 35.554688 65.484375 " fill-opacity="1" fill-rule="nonzero"/><path fill="#ffffff" d="M 43.742188 72.171875 C 43.625 70.710938 44.625 68.691406 42.953125 67.917969 C 42.101562 67.523438 40.644531 67.359375 39.984375 68.210938 C 39.734375 68.542969 39.605469 68.917969 39.589844 69.332031 C 39.351562 70.375 39.914062 71.902344 40.175781 72.839844 C 40.484375 73.941406 41.558594 77.816406 43.53125 76.761719 C 44.875 76.039062 43.828125 73.257812 43.742188 72.171875 Z M 43.742188 72.171875 " fill-opacity="1" fill-rule="nonzero"/><path fill="#ffffff" d="M 45.886719 57.503906 C 45 56.238281 43.75 56.664062 42.863281 57.582031 C 40.886719 58.785156 38.78125 63.699219 41.777344 64.179688 C 43.5 64.457031 44.027344 62.359375 44.609375 61.222656 C 45.144531 60.183594 46.757812 58.746094 45.886719 57.503906 Z M 45.886719 57.503906 " fill-opacity="1" fill-rule="nonzero"/><path fill="#d5e9f2" d="M 77.554688 64.839844 C 77.554688 64.839844 81.730469 69.742188 83.734375 71.175781 C 85.25 72.265625 86.640625 66.664062 81.433594 61.488281 C 76.34375 56.429688 72.082031 55.496094 72.082031 55.496094 Z M 77.554688 64.839844 " fill-opacity="1" fill-rule="nonzero"/><path fill="#a8d7e9" d="M 81.433594 61.488281 C 76.34375 56.429688 72.082031 55.496094 72.082031 55.496094 L 72.539062 56.273438 C 74.171875 57.171875 76.265625 58.605469 78.527344 60.851562 C 82.023438 64.328125 82.542969 67.996094 82.046875 69.699219 C 82.574219 70.230469 83.136719 70.722656 83.734375 71.175781 C 85.246094 72.265625 86.640625 66.664062 81.433594 61.488281 Z M 81.433594 61.488281 " fill-opacity="1" fill-rule="nonzero"/><path fill="#d5e9f2" d="M 34.601562 64.613281 C 34.601562 64.613281 30.289062 69.394531 28.253906 70.777344 C 26.707031 71.820312 25.46875 66.1875 30.816406 61.15625 C 36.042969 56.238281 40.328125 55.425781 40.328125 55.425781 Z M 34.601562 64.613281 " fill-opacity="1" fill-rule="nonzero"/><path fill="#ffffff" d="M 30.816406 61.15625 C 36.042969 56.238281 40.328125 55.425781 40.328125 55.425781 L 39.851562 56.191406 C 38.195312 57.042969 36.0625 58.417969 33.742188 60.601562 C 30.148438 63.976562 29.527344 67.628906 29.976562 69.347656 C 29.433594 69.863281 28.859375 70.339844 28.253906 70.777344 C 26.707031 71.824219 25.46875 66.1875 30.816406 61.15625 Z M 30.816406 61.15625 " fill-opacity="1" fill-rule="nonzero"/><path fill="#d5e9f2" d="M 41.367188 82.667969 C 41.367188 82.667969 43.964844 89.441406 46.140625 89.664062 C 48.316406 89.886719 48.378906 85.242188 48.378906 85.242188 Z M 41.367188 82.667969 " fill-opacity="1" fill-rule="nonzero"/><path fill="#a8d7e9" d="M 46.628906 84.570312 C 46.605469 85.226562 46.402344 88.433594 44.875 88.839844 C 45.320312 89.308594 45.777344 89.617188 46.214844 89.664062 C 48.390625 89.882812 48.453125 85.242188 48.453125 85.242188 Z M 46.628906 84.570312 " fill-opacity="1" fill-rule="nonzero"/><path fill="#d5e9f2" d="M 71.21875 82.234375 C 71.21875 82.234375 69.144531 89.1875 66.992188 89.574219 C 64.839844 89.960938 64.421875 85.335938 64.421875 85.335938 Z M 71.21875 82.234375 " fill-opacity="1" fill-rule="nonzero"/><path fill="#a8d7e9" d="M 66.117188 84.53125 C 66.191406 85.1875 66.636719 88.367188 68.195312 88.65625 C 67.78125 89.15625 67.351562 89.5 66.917969 89.578125 C 64.765625 89.964844 64.347656 85.339844 64.347656 85.339844 Z M 66.117188 84.53125 " fill-opacity="1" fill-rule="nonzero"/><path fill="#3aedb1" d="M 61.320312 47.054688 C 61.226562 47.054688 61.144531 47.023438 61.074219 46.960938 C 61.007812 46.894531 60.972656 46.8125 60.96875 46.71875 C 60.96875 46.699219 60.90625 45.160156 59.925781 44.347656 C 58.988281 43.574219 57.292969 43.316406 56.46875 43.320312 C 55.699219 43.285156 53.949219 43.574219 53.011719 44.347656 C 52.03125 45.15625 51.96875 46.695312 51.96875 46.71875 C 51.964844 46.816406 51.929688 46.894531 51.859375 46.960938 C 51.792969 47.027344 51.710938 47.058594 51.613281 47.054688 C 51.519531 47.050781 51.441406 47.015625 51.375 46.945312 C 51.308594 46.878906 51.277344 46.792969 51.28125 46.699219 C 51.28125 46.625 51.347656 44.832031 52.574219 43.820312 C 53.824219 42.789062 55.4375 42.632812 56.300781 42.632812 C 57.335938 42.632812 59.109375 42.789062 60.359375 43.820312 C 61.589844 44.832031 61.65625 46.625 61.65625 46.699219 C 61.660156 46.796875 61.628906 46.878906 61.5625 46.945312 C 61.496094 47.015625 61.417969 47.050781 61.320312 47.054688 Z M 61.320312 47.054688 " fill-opacity="1" fill-rule="nonzero"/><path fill="#3aedb1" d="M 50.800781 40.195312 C 50.867188 40.480469 50.652344 40.785156 50.324219 40.863281 L 47.457031 41.527344 C 47.128906 41.601562 46.804688 41.429688 46.738281 41.140625 C 46.671875 40.855469 46.886719 40.554688 47.210938 40.476562 L 50.082031 39.8125 C 50.410156 39.734375 50.730469 39.90625 50.800781 40.195312 Z M 50.800781 40.195312 " fill-opacity="1" fill-rule="nonzero"/><path fill="#3aedb1" d="M 65.480469 41.097656 C 65.421875 41.386719 65.101562 41.570312 64.769531 41.496094 L 61.890625 40.894531 C 61.558594 40.824219 61.339844 40.53125 61.402344 40.238281 C 61.460938 39.949219 61.78125 39.769531 62.113281 39.839844 L 64.992188 40.445312 C 65.324219 40.515625 65.542969 40.804688 65.480469 41.097656 Z M 65.480469 41.097656 " fill-opacity="1" fill-rule="nonzero"/></svg>