<svg xmlns="http://www.w3.org/2000/svg" xmlns:xlink="http://www.w3.org/1999/xlink" width="50" zoomAndPan="magnify" viewBox="0 0 37.5 37.499999" height="50" preserveAspectRatio="xMidYMid meet" version="1.0"><defs><clipPath id="d46aefe924"><path d="M 11 1.789062 L 25 1.789062 L 25 31 L 11 31 Z M 11 1.789062 " clip-rule="nonzero"/></clipPath><clipPath id="27c0add38a"><path d="M 8 1.789062 L 29 1.789062 L 29 35 L 8 35 Z M 8 1.789062 " clip-rule="nonzero"/></clipPath></defs><g clip-path="url(#d46aefe924)"><path fill="#1976d2" d="M 19.941406 7.617188 C 19.96875 7.871094 20.011719 8.605469 19.949219 9.542969 C 20.019531 8.796875 20 8.195312 19.941406 7.617188 Z M 21.433594 16.230469 C 23.542969 15.917969 24.335938 12.707031 19.929688 7.519531 C 19.929688 7.519531 21.523438 10.320312 21.523438 13.371094 C 21.523438 16.230469 18.46875 15.46875 19.261719 12.78125 C 19.308594 12.617188 19.355469 12.460938 19.398438 12.3125 C 18.539062 14.675781 19.582031 16.492188 21.433594 16.230469 Z M 18.519531 21.460938 C 19.550781 20.417969 21.359375 21.511719 21.367188 23.316406 C 21.378906 25.121094 20.332031 26.410156 18.546875 26.6875 C 15.097656 27.230469 12.949219 23.589844 14.796875 18.867188 C 17.453125 12.0625 18.734375 8.320312 17.992188 1.816406 C 17.992188 1.816406 18.246094 6.839844 15.585938 11.472656 C 12.929688 16.101562 10.015625 21.074219 11.59375 25.90625 C 13.167969 30.738281 18.441406 31.871094 22.089844 29.304688 C 27.839844 25.261719 22.585938 16.472656 18.519531 21.460938 Z M 18.519531 21.460938 " fill-opacity="1" fill-rule="nonzero"/></g><g clip-path="url(#27c0add38a)"><path fill="#00529c" d="M 23.46875 17.886719 C 19.101562 17.457031 18.519531 21.460938 18.519531 21.460938 C 22.578125 16.472656 27.839844 25.261719 22.089844 29.304688 C 18.441406 31.867188 13.167969 30.730469 11.59375 25.90625 C 10.015625 21.074219 12.921875 16.101562 15.585938 11.472656 C 18.246094 6.839844 17.992188 1.816406 17.992188 1.816406 C 15.628906 12.375 9.933594 14.832031 8.617188 21.707031 C 7.554688 27.25 10.421875 33.121094 16.234375 34.152344 C 22.050781 35.1875 25.617188 32.453125 27.527344 28.570312 C 29.449219 24.691406 27.832031 18.308594 23.46875 17.886719 Z M 21.523438 13.367188 C 21.523438 10.3125 19.929688 7.511719 19.929688 7.511719 C 19.933594 7.542969 19.933594 7.578125 19.941406 7.609375 C 20 8.195312 20.019531 8.796875 19.949219 9.539062 C 19.875 10.273438 19.710938 11.152344 19.394531 12.296875 C 19.355469 12.449219 19.308594 12.605469 19.257812 12.765625 C 18.46875 15.460938 21.523438 16.230469 21.523438 13.367188 Z M 21.523438 13.367188 " fill-opacity="1" fill-rule="nonzero"/></g></svg>