<svg width="32" height="32" viewBox="0 0 32 32" fill="none" xmlns="http://www.w3.org/2000/svg">
<circle opacity="0.05" cx="16" cy="16" r="16" fill="currentColor"/>
<path fill-rule="evenodd" clip-rule="evenodd" d="M16.0083 6C10.474 6 6 10.5833 6 16.2535C6 20.786 8.86662 24.6226 12.8434 25.9805C13.3406 26.0826 13.5227 25.7599 13.5227 25.4885C13.5227 25.2508 13.5063 24.436 13.5063 23.587C10.7222 24.1983 10.1425 22.3647 10.1425 22.3647C9.69508 21.1764 9.03215 20.871 9.03215 20.871C8.12092 20.2429 9.09852 20.2429 9.09852 20.2429C10.1093 20.3108 10.6397 21.2954 10.6397 21.2954C11.5343 22.857 12.9759 22.4158 13.5559 22.1441C13.6386 21.482 13.9039 21.0237 14.1856 20.7691C11.9651 20.5314 9.62891 19.6487 9.62891 15.7102C9.62891 14.5898 10.0263 13.6731 10.6561 12.9602C10.5567 12.7056 10.2087 11.6529 10.7556 10.2439C10.7556 10.2439 11.6007 9.97228 13.5061 11.2964C14.3219 11.072 15.1632 10.9578 16.0083 10.9569C16.8533 10.9569 17.7148 11.0758 18.5102 11.2964C20.4159 9.97228 21.2609 10.2439 21.2609 10.2439C21.8079 11.6529 21.4596 12.7056 21.3603 12.9602C22.0066 13.6731 22.3876 14.5898 22.3876 15.7102C22.3876 19.6487 20.0514 20.5143 17.8143 20.7691C18.179 21.0916 18.4936 21.7026 18.4936 22.6703C18.4936 24.0453 18.4773 25.1489 18.4773 25.4883C18.4773 25.7599 18.6596 26.0826 19.1566 25.9808C23.1333 24.6224 26 20.786 26 16.2535C26.0163 10.5833 21.526 6 16.0083 6Z" fill="currentColor"/>
</svg>
