<svg width="32" height="32" viewBox="0 0 32 32" fill="none" xmlns="http://www.w3.org/2000/svg">
<circle opacity="0.05" cx="16" cy="16" r="16" fill="currentColor"/>
<path d="M22.942 10.1969C21.6304 9.63054 20.2429 9.22805 18.816 9C18.638 9.29622 18.431 9.69578 18.287 10.0123C16.7714 9.79914 15.2296 9.79914 13.714 10.0123C13.5551 9.66643 13.3765 9.32852 13.179 9C11.7509 9.22842 10.3623 9.63187 9.04997 10.1996C6.43895 13.841 5.73095 17.3919 6.08495 20.892C7.60911 21.954 9.32157 22.7636 11.146 23.2848C11.5559 22.7642 11.9185 22.2133 12.23 21.6376C11.6375 21.4292 11.0662 21.1726 10.523 20.8708C10.666 20.773 10.806 20.6705 10.941 20.5653C14.232 21.9855 17.807 21.9855 21.059 20.5653C21.196 20.6705 21.336 20.773 21.477 20.8708C20.936 21.1716 20.363 21.43 19.767 21.6385C20.078 22.2145 20.4406 22.7655 20.851 23.2857C22.6769 22.7648 24.3905 21.9545 25.9151 20.8911C26.3301 16.8345 25.2061 13.3159 22.942 10.1969ZM12.678 18.7391C11.69 18.7391 10.88 17.8883 10.88 16.852C10.88 15.8157 11.673 14.9631 12.678 14.9631C13.683 14.9631 14.493 15.8139 14.476 16.852C14.477 17.8883 13.683 18.7391 12.678 18.7391ZM19.322 18.7391C18.334 18.7391 17.524 17.8883 17.524 16.852C17.524 15.8157 18.317 14.9631 19.322 14.9631C20.327 14.9631 21.137 15.8139 21.12 16.852C21.12 17.8883 20.327 18.7391 19.322 18.7391Z" fill="currentColor"/>
</svg>
