<svg xmlns="http://www.w3.org/2000/svg" xmlns:xlink="http://www.w3.org/1999/xlink" width="150" zoomAndPan="magnify" viewBox="0 0 112.5 112.499997" height="150" preserveAspectRatio="xMidYMid meet" version="1.0"><defs><clipPath id="46fa00c224"><path d="M 20.492188 11.730469 L 51.898438 11.730469 L 51.898438 110.097656 L 20.492188 110.097656 Z M 20.492188 11.730469 " clip-rule="nonzero"/></clipPath><clipPath id="303113e8ec"><path d="M 29 1.890625 L 91.425781 1.890625 L 91.425781 110 L 29 110 Z M 29 1.890625 " clip-rule="nonzero"/></clipPath></defs><g clip-path="url(#46fa00c224)"><path fill="#ffffff" d="M 51.808594 11.871094 C 46.183594 21.367188 38.519531 33.195312 34.125 43.488281 C 32.84375 46.570312 31.558594 49.824219 30.507812 53.269531 C 29.441406 56.699219 28.449219 60.289062 27.8125 64 C 26.503906 71.40625 26.34375 78.609375 27.824219 84.824219 C 28.542969 87.921875 29.535156 90.824219 30.902344 93.332031 C 31.0625 93.648438 31.207031 93.980469 31.382812 94.28125 C 31.566406 94.582031 31.75 94.878906 31.933594 95.171875 C 32.304688 95.753906 32.632812 96.359375 33.015625 96.90625 C 33.417969 97.445312 33.808594 97.972656 34.191406 98.492188 C 34.386719 98.75 34.566406 99.015625 34.769531 99.257812 C 34.980469 99.496094 35.191406 99.726562 35.394531 99.960938 C 35.808594 100.429688 36.210938 100.882812 36.605469 101.328125 C 37 101.777344 37.449219 102.144531 37.851562 102.542969 C 38.261719 102.9375 38.660156 103.316406 39.046875 103.6875 C 39.441406 104.050781 39.867188 104.355469 40.253906 104.679688 C 40.648438 104.996094 41.027344 105.304688 41.394531 105.597656 C 41.578125 105.746094 41.757812 105.890625 41.9375 106.035156 C 42.125 106.164062 42.308594 106.289062 42.488281 106.410156 C 43.207031 106.90625 43.867188 107.359375 44.460938 107.765625 C 45.042969 108.199219 45.621094 108.480469 46.097656 108.773438 C 46.578125 109.054688 46.988281 109.300781 47.316406 109.492188 C 47.980469 109.886719 48.328125 110.097656 48.328125 110.097656 C 48.328125 110.097656 47.941406 109.976562 47.207031 109.753906 C 46.839844 109.632812 46.382812 109.488281 45.847656 109.320312 C 45.3125 109.136719 44.667969 108.980469 44 108.675781 C 43.316406 108.386719 42.558594 108.066406 41.730469 107.71875 C 41.519531 107.632812 41.308594 107.539062 41.089844 107.445312 C 40.882812 107.335938 40.667969 107.226562 40.453125 107.109375 C 40.019531 106.878906 39.566406 106.636719 39.101562 106.386719 C 38.636719 106.128906 38.136719 105.890625 37.65625 105.585938 C 37.183594 105.269531 36.691406 104.941406 36.1875 104.609375 C 35.691406 104.261719 35.144531 103.945312 34.644531 103.539062 C 34.148438 103.128906 33.632812 102.710938 33.109375 102.28125 C 32.84375 102.0625 32.578125 101.84375 32.308594 101.621094 C 32.046875 101.390625 31.808594 101.132812 31.550781 100.882812 C 31.042969 100.371094 30.527344 99.851562 29.996094 99.324219 C 29.484375 98.777344 29.023438 98.160156 28.523438 97.558594 C 28.273438 97.257812 28.023438 96.949219 27.773438 96.636719 C 27.53125 96.320312 27.320312 95.976562 27.089844 95.640625 C 25.1875 92.984375 23.667969 89.789062 22.523438 86.296875 C 21.390625 82.796875 20.675781 78.960938 20.535156 74.996094 C 20.367188 71.03125 20.671875 66.9375 21.398438 62.847656 C 22.101562 58.746094 23.285156 54.878906 24.605469 51.242188 C 25.917969 47.59375 27.527344 44.234375 29.171875 41.097656 C 35.335938 29.625 51.808594 11.871094 51.808594 11.871094 " fill-opacity="1" fill-rule="nonzero"/></g><g clip-path="url(#303113e8ec)"><path fill="#ffffff" d="M 59.339844 1.898438 C 59.339844 1.898438 59.175781 2.585938 58.855469 3.890625 C 58.695312 4.539062 58.496094 5.34375 58.257812 6.292969 C 57.988281 7.242188 57.675781 8.332031 57.324219 9.5625 C 55.890625 14.46875 53.433594 21.484375 50.042969 29.921875 C 48.375 34.144531 46.496094 38.734375 44.660156 43.652344 C 42.832031 48.566406 41.039062 53.832031 39.882812 59.351562 C 39.742188 60.039062 39.601562 60.730469 39.457031 61.429688 C 39.339844 62.125 39.257812 62.824219 39.152344 63.527344 C 39.082031 64.007812 39.011719 64.488281 38.945312 64.972656 C 38.949219 64.941406 38.949219 64.910156 38.957031 64.878906 C 38.636719 67.273438 38.613281 69.753906 38.625 72.167969 C 38.644531 72.894531 38.699219 73.617188 38.734375 74.34375 C 38.785156 75.074219 38.882812 75.789062 38.949219 76.519531 C 39.308594 79.40625 40.015625 82.242188 41.097656 84.917969 C 41.613281 86.269531 42.292969 87.535156 43.003906 88.785156 C 43.761719 90 44.574219 91.191406 45.519531 92.273438 C 49.257812 96.648438 54.457031 99.457031 59.839844 100.320312 C 65.21875 101.214844 70.675781 100.171875 74.949219 97.605469 C 79.265625 95.058594 82.300781 90.996094 84.023438 86.585938 C 84.890625 84.378906 85.4375 82.082031 85.765625 79.8125 C 86.082031 77.546875 86.234375 75.304688 86.167969 73.144531 C 86.117188 68.824219 85.476562 64.851562 84.757812 61.394531 C 84.007812 57.933594 83.132812 54.976562 82.378906 52.570312 C 81.59375 50.171875 80.949219 48.304688 80.464844 47.058594 C 80 45.800781 79.757812 45.140625 79.757812 45.140625 C 79.757812 45.140625 80.128906 45.738281 80.835938 46.878906 C 81.558594 48.015625 82.550781 49.730469 83.765625 51.984375 C 84.949219 54.257812 86.339844 57.085938 87.671875 60.523438 C 88.972656 63.96875 90.269531 68.019531 90.957031 72.734375 C 91.34375 75.089844 91.503906 77.617188 91.449219 80.277344 C 91.386719 82.9375 91.054688 85.75 90.273438 88.613281 C 89.496094 91.472656 88.253906 94.382812 86.453125 97.109375 C 84.671875 99.847656 82.273438 102.34375 79.417969 104.375 C 77.269531 105.902344 74.828125 107.234375 72.304688 108.023438 C 71.441406 108.292969 70.574219 108.589844 69.679688 108.785156 C 68.792969 109.027344 67.886719 109.167969 66.976562 109.328125 C 66.058594 109.441406 65.140625 109.578125 64.207031 109.613281 C 62.34375 109.738281 60.457031 109.660156 58.570312 109.433594 C 56.679688 109.226562 54.800781 108.796875 52.953125 108.230469 C 51.097656 107.671875 49.292969 106.894531 47.546875 105.980469 C 44.054688 104.148438 40.863281 101.601562 38.230469 98.539062 C 36.902344 97.011719 35.769531 95.355469 34.746094 93.660156 C 33.78125 91.9375 32.898438 90.183594 32.242188 88.375 C 30.875 84.773438 30.097656 81.078125 29.800781 77.480469 C 29.746094 76.578125 29.667969 75.683594 29.644531 74.796875 C 29.644531 73.910156 29.621094 73.027344 29.640625 72.152344 C 29.683594 71.28125 29.722656 70.417969 29.761719 69.554688 C 29.851562 68.675781 29.9375 67.792969 30.023438 66.921875 C 30.207031 64.929688 30.664062 62.917969 31.082031 60.960938 C 31.339844 59.746094 31.683594 58.558594 32.015625 57.367188 C 33.796875 51.257812 36.222656 45.890625 38.632812 41.03125 C 41.058594 36.179688 43.492188 31.824219 45.703125 27.855469 C 50.164062 19.957031 53.667969 13.550781 55.921875 9.015625 C 56.488281 7.882812 56.988281 6.871094 57.421875 6 C 57.835938 5.109375 58.183594 4.359375 58.46875 3.75 C 59.039062 2.539062 59.339844 1.898438 59.339844 1.898438 " fill-opacity="1" fill-rule="nonzero"/></g><path fill="#ffffff" d="M 62.851562 26.222656 C 62.851562 26.222656 63.167969 26.535156 63.769531 27.125 C 64.382812 27.710938 65.226562 28.621094 66.304688 29.828125 C 68.410156 32.257812 71.242188 35.980469 74.011719 41 C 76.792969 46.007812 79.484375 52.308594 81.269531 59.675781 C 82.140625 63.359375 82.769531 67.316406 82.9375 71.503906 C 83.054688 74.351562 82.910156 77.226562 82.421875 80.042969 C 82.28125 80.851562 82.113281 81.652344 81.90625 82.445312 C 81.234375 85.070312 80.109375 87.671875 78.453125 89.898438 C 76.957031 91.910156 75 93.5 72.722656 94.714844 C 72.089844 95.050781 71.4375 95.355469 70.773438 95.636719 C 70.277344 95.84375 69.777344 96.039062 69.265625 96.210938 C 68.8125 96.367188 68.347656 96.507812 67.878906 96.628906 C 67.355469 96.765625 66.824219 96.882812 66.289062 96.980469 C 65.464844 97.128906 64.628906 97.214844 63.792969 97.25 C 61.285156 97.351562 58.816406 96.90625 56.660156 96.078125 C 54.492188 95.25 52.632812 94.070312 51.070312 92.761719 C 49.507812 91.445312 48.226562 90 47.152344 88.539062 C 46.082031 87.070312 45.261719 85.558594 44.550781 84.089844 C 43.894531 82.601562 43.328125 81.164062 42.953125 79.753906 C 42.152344 76.945312 41.832031 74.355469 41.757812 72.09375 C 41.699219 69.832031 41.820312 67.902344 42.070312 66.347656 C 42.160156 65.566406 42.316406 64.886719 42.433594 64.292969 C 42.539062 63.699219 42.671875 63.207031 42.78125 62.808594 C 42.996094 62.011719 43.109375 61.597656 43.109375 61.597656 C 43.109375 61.597656 43.101562 62.027344 43.078125 62.84375 C 43.0625 63.25 43.050781 63.75 43.074219 64.34375 C 43.089844 64.941406 43.085938 65.617188 43.160156 66.382812 C 43.378906 69.417969 44.019531 73.847656 46.257812 78.695312 C 46.792969 79.910156 47.496094 81.117188 48.246094 82.335938 C 49.046875 83.53125 49.921875 84.738281 50.960938 85.847656 C 53.027344 88.058594 55.664062 90.042969 58.699219 90.917969 C 61.3125 91.671875 64.136719 91.476562 66.664062 90.535156 C 67.367188 90.269531 68.050781 89.957031 68.699219 89.589844 C 69.410156 89.195312 70.085938 88.753906 70.761719 88.316406 C 70.734375 88.335938 70.707031 88.351562 70.679688 88.367188 C 71.292969 87.988281 71.835938 87.308594 72.28125 86.769531 C 72.761719 86.191406 73.179688 85.574219 73.539062 84.921875 C 73.757812 84.519531 73.957031 84.105469 74.136719 83.683594 C 75.140625 81.320312 75.660156 78.8125 75.953125 76.296875 C 76.136719 74.726562 76.226562 73.15625 76.253906 71.578125 C 76.28125 67.824219 75.972656 64.148438 75.46875 60.652344 C 74.421875 53.664062 72.683594 47.402344 70.796875 42.277344 C 68.925781 37.140625 66.925781 33.113281 65.394531 30.390625 C 64.613281 29.050781 63.996094 27.988281 63.53125 27.292969 C 63.085938 26.59375 62.851562 26.222656 62.851562 26.222656 " fill-opacity="1" fill-rule="nonzero"/></svg>