<?xml version="1.0" encoding="utf-8"?>
<svg width="554" height="402" viewBox="0 0 554 402" fill="none" xmlns="http://www.w3.org/2000/svg">
  <defs>
    <clipPath id="clip_path_1">
      <rect width="554" height="402" />
    </clipPath>
  </defs>
  <g clip-path="url(#clip_path_1)">
    <path d="M0 0L554 0L554 402L0 402L0 0Z" />
    <g transform="translate(249.706 66.257)">
      <path d="M16.192 0C88.027 22.7872 135.491 91.1142 131.773 166.385C128.055 241.656 74.0889 304.973 0.358002 320.57C0.358002 320.57 0 318.876 0 318.876C72.9619 303.442 126.365 240.785 130.043 166.299C133.722 91.8136 86.7529 24.2001 15.6677 1.65091C15.6677 1.65091 16.1917 0.000907898 16.1917 0.000907898C16.1917 0.000907898 16.192 0 16.192 0Z" fill="#000000" />
    </g>
    <g transform="translate(49.735 62.076)">
      <path d="M1.20805 182.26C-9.09362 96.8867 47.5212 17.7845 131.655 0C131.655 0 132.013 1.695 132.013 1.695C48.7578 19.2946 -7.26561 97.5708 2.92804 182.053C2.92804 182.053 1.20804 182.26 1.20804 182.26C1.20804 182.26 1.20805 182.26 1.20805 182.26Z" fill="#000000" />
    </g>
    <g transform="translate(262.552 50.876)">
      <path d="M6.10352e-05 1.26181C85.9401 -9.17035 166.181 46.0807 187.093 130.088C187.093 130.088 185.515 130.481 185.515 130.481C164.801 47.2704 85.321 -7.45642 0.196014 2.8768C0.196014 2.8768 0 1.2618 0 1.2618C0 1.2618 6.10352e-05 1.26181 6.10352e-05 1.26181Z" fill="#000000" />
    </g>
    <path d="M0.999908 168C0.999908 75.768 75.7679 1 168 1C260.232 1 335 75.768 335 168C335 243.599 284.767 307.466 215.857 328.042C215.857 328.042 203.57 332.05 203.57 332.05C203.57 332.05 205.398 332.433 205.398 332.433C216.778 334.811 228.374 336.006 240 336C332.784 336 408 260.784 408 168C408 75.216 332.784 0 240 0C229.553 0 219.329 0.952999 209.41 2.779C209.41 2.779 209.59 3.762 209.59 3.762C219.622 1.91992 229.8 0.995438 240 0.999985C332.232 0.999985 407 75.768 407 168C407 260.232 332.232 335 240 335C228.861 335 217.978 333.91 207.45 331.83C207.45 331.83 216.143 329 216.143 329C285.465 308.301 336 244.053 336 168C336 75.216 260.784 0 168 0C75.216 0 0 75.216 0 168C0 260.784 75.216 336 168 336C178.095 336 187.982 335.11 197.587 333.403C197.587 333.403 197.413 332.418 197.413 332.418C187.703 334.14 177.861 335.004 168 335C75.7678 335 0.999756 260.232 0.999756 168C0.999756 168 0.999908 168 0.999908 168Z" fill="#000000" fill-opacity="0.1" transform="translate(62.5 40.5)" />
    <path d="M0.999908 168C0.999908 75.768 75.7679 1 168 1C260.232 1 335 75.768 335 168C335 243.599 284.767 307.466 215.857 328.042C215.857 328.042 203.57 332.05 203.57 332.05C203.57 332.05 205.398 332.433 205.398 332.433C216.778 334.811 228.374 336.006 240 336C332.784 336 408 260.784 408 168C408 75.216 332.784 0 240 0C229.553 0 219.329 0.952999 209.41 2.779C209.41 2.779 209.59 3.762 209.59 3.762C219.622 1.91992 229.8 0.995438 240 0.999985C332.232 0.999985 407 75.768 407 168C407 260.232 332.232 335 240 335C228.861 335 217.978 333.91 207.45 331.83C207.45 331.83 216.143 329 216.143 329C285.465 308.301 336 244.053 336 168C336 75.216 260.784 0 168 0C75.216 0 0 75.216 0 168C0 260.784 75.216 336 168 336C178.095 336 187.982 335.11 197.587 333.403C197.587 333.403 197.413 332.418 197.413 332.418C187.703 334.14 177.861 335.004 168 335C75.7678 335 0.999756 260.232 0.999756 168C0.999756 168 0.999908 168 0.999908 168Z" fill="none" stroke-width="1" stroke="#FF960B" stroke-dasharray="3274 3274" transform="translate(62.5 40.5)" />
    <g transform="translate(33.765 93.519)">
      <g transform="translate(77.551 196)">
        <path d="M0.958807 11.625L0.958807 2.89773L2.27557 2.89773L2.27557 10.4915L6.23011 10.4915L6.23011 11.625L0.958807 11.625ZM15.5702 7.26136Q15.5702 8.65483 15.0588 9.66051Q14.5474 10.6662 13.6589 11.2053Q12.7705 11.7443 11.6412 11.7443Q10.5077 11.7443 9.61918 11.2053Q8.73068 10.6662 8.21932 9.66051Q7.70795 8.65483 7.70795 7.26136Q7.70795 5.86364 8.21932 4.86008Q8.73068 3.85653 9.61918 3.31747Q10.5077 2.77841 11.6412 2.77841Q12.7705 2.77841 13.6589 3.31747Q14.5474 3.85653 15.0588 4.86008Q15.5702 5.86364 15.5702 7.26136ZM14.2662 7.26136Q14.2662 6.19602 13.9232 5.4652Q13.5801 4.73438 12.9857 4.35724Q12.3912 3.98011 11.6412 3.98011Q10.8912 3.98011 10.2967 4.35724Q9.70227 4.73438 9.35923 5.4652Q9.01619 6.19602 9.01619 7.26136Q9.01619 8.32244 9.35923 9.0554Q9.70227 9.78835 10.2967 10.1655Q10.8912 10.5426 11.6412 10.5426Q12.3912 10.5426 12.9857 10.1655Q13.5801 9.78835 13.9232 9.0554Q14.2662 8.32244 14.2662 7.26136ZM19.4045 11.625L16.9841 2.89773L18.369 2.89773L20.0693 9.65625L20.1503 9.65625L21.9188 2.89773L23.2909 2.89773L25.0594 9.66051L25.1403 9.66051L26.8364 2.89773L28.2256 2.89773L25.8009 11.625L24.4756 11.625L22.6389 5.08807L22.5707 5.08807L20.7341 11.625L19.4045 11.625ZM38.5705 5.19034Q38.5023 4.58523 38.008 4.25071Q37.5136 3.91619 36.7636 3.91619Q35.9582 3.91619 35.4852 4.28267Q35.0122 4.64915 35.0122 5.20739Q35.0122 5.625 35.2658 5.88707Q35.5193 6.14915 35.8879 6.2983Q36.2565 6.44744 36.5974 6.53693L37.4497 6.75852Q37.8673 6.8608 38.3063 7.03764Q38.7452 7.21449 39.1202 7.49787Q39.4952 7.78125 39.7274 8.20313Q39.9597 8.625 39.9597 9.21307Q39.9597 9.95028 39.5783 10.5298Q39.1969 11.1094 38.4767 11.4396Q37.7565 11.7699 36.7295 11.7699Q35.2636 11.7699 34.3965 11.0838Q33.5293 10.3977 33.4653 9.21307L34.7864 9.21307Q34.846 9.92472 35.4043 10.2699Q35.9625 10.6151 36.721 10.6151Q37.5605 10.6151 38.1081 10.2273Q38.6557 9.83949 38.6557 9.20028Q38.6557 8.8125 38.4362 8.56321Q38.2168 8.31392 37.8439 8.15412Q37.471 7.99432 37.0023 7.87074L35.971 7.58949Q34.9185 7.30398 34.3091 6.75Q33.6997 6.19602 33.6997 5.28409Q33.6997 4.52983 34.1088 3.96733Q34.5179 3.40483 35.2189 3.09162Q35.9199 2.77841 36.7935 2.77841Q37.6798 2.77841 38.3595 3.08949Q39.0392 3.40057 39.4313 3.94602Q39.8233 4.49148 39.8403 5.19034L38.5705 5.19034ZM42.1321 11.625L42.1321 2.89773L43.4489 2.89773L43.4489 10.4915L47.4034 10.4915L47.4034 11.625L42.1321 11.625ZM50.8202 2.89773L50.8202 11.625L49.5034 11.625L49.5034 2.89773L50.8202 2.89773ZM53.3378 11.625L53.3378 2.89773L56.4486 2.89773Q57.4628 2.89773 58.1339 3.26847Q58.8051 3.6392 59.1375 4.27841Q59.4699 4.91761 59.4699 5.72301Q59.4699 6.52841 59.1354 7.16974Q58.8009 7.81108 58.1297 8.18395Q57.4585 8.55682 56.4443 8.55682L54.6545 8.55682L54.6545 11.625L53.3378 11.625ZM54.6545 7.44034L56.325 7.44034Q57.2923 7.44034 57.7185 6.95241Q58.1446 6.46449 58.1446 5.72301Q58.1446 4.98153 57.7163 4.50426Q57.2881 4.02699 56.308 4.02699L54.6545 4.02699L54.6545 7.44034ZM61.6082 11.625L61.6082 2.89773L64.719 2.89773Q65.7332 2.89773 66.4044 3.26847Q67.0756 3.6392 67.408 4.27841Q67.7403 4.91761 67.7403 5.72301Q67.7403 6.52841 67.4058 7.16974Q67.0713 7.81108 66.4001 8.18395Q65.729 8.55682 64.7148 8.55682L62.925 8.55682L62.925 11.625L61.6082 11.625ZM62.925 7.44034L64.5955 7.44034Q65.5628 7.44034 65.9889 6.95241Q66.4151 6.46449 66.4151 5.72301Q66.4151 4.98153 65.9868 4.50426Q65.5585 4.02699 64.5784 4.02699L62.925 4.02699L62.925 7.44034ZM69.6869 11.625L68.2892 11.625L71.4298 2.89773L72.9511 2.89773L76.0918 11.625L74.694 11.625L73.8972 9.31534L70.4881 9.31534L69.6869 11.625ZM70.8716 8.20739L73.5136 8.20739L72.2267 4.48295L72.1585 4.48295L70.8716 8.20739ZM83.446 5.65483Q83.1989 4.87926 82.6215 4.42969Q82.044 3.98011 81.1747 3.98011Q80.4375 3.98011 79.8452 4.35938Q79.2528 4.73864 78.9098 5.46946Q78.5668 6.20028 78.5668 7.2571Q78.5668 8.31818 78.9119 9.05114Q79.2571 9.78409 79.858 10.1634Q80.4588 10.5426 81.2259 10.5426Q82.2742 10.5426 82.9176 9.92259Q83.5611 9.30256 83.5824 8.24574L81.4261 8.24574L81.4261 7.15909L84.8565 7.15909L84.8565 8.15199Q84.8565 9.25142 84.3899 10.0589Q83.9233 10.8665 83.1051 11.3054Q82.2869 11.7443 81.2259 11.7443Q80.0455 11.7443 79.1506 11.201Q78.2557 10.6577 77.7571 9.65199Q77.2585 8.64631 77.2585 7.26563Q77.2585 5.87216 77.7656 4.86648Q78.2727 3.8608 79.1548 3.3196Q80.0369 2.77841 81.1662 2.77841Q82.108 2.77841 82.875 3.14276Q83.6421 3.5071 84.147 4.15483Q84.652 4.80256 84.7969 5.65483L83.446 5.65483ZM87.127 11.625L87.127 2.89773L92.5986 2.89773L92.5986 4.03125L88.4438 4.03125L88.4438 6.69034L92.3131 6.69034L92.3131 7.8196L88.4438 7.8196L88.4438 10.4915L92.6497 10.4915L92.6497 11.625L87.127 11.625Z" fill="#000000" />
      </g>
      <path d="M0 7C0 3.134 3.13401 0 7 0C10.866 0 14 3.134 14 7C14 10.866 10.866 14 7 14C3.13401 14 0 10.866 0 7Z" fill="#000000" fill-rule="evenodd" transform="translate(46.655 196.262)" />
      <g transform="translate(0 38)">
        <path d="M0.958807 11.625L0.958807 2.89773L6.37074 2.89773L6.37074 4.03125L2.27557 4.03125L2.27557 6.69034L5.98295 6.69034L5.98295 7.8196L2.27557 7.8196L2.27557 11.625L0.958807 11.625ZM8.59006 11.625L8.59006 2.89773L14.0616 2.89773L14.0616 4.03125L9.90682 4.03125L9.90682 6.69034L13.7761 6.69034L13.7761 7.8196L9.90682 7.8196L9.90682 10.4915L14.1128 10.4915L14.1128 11.625L8.59006 11.625ZM16.4259 11.625L16.4259 2.89773L21.8974 2.89773L21.8974 4.03125L17.7426 4.03125L17.7426 6.69034L21.6119 6.69034L21.6119 7.8196L17.7426 7.8196L17.7426 10.4915L21.9486 10.4915L21.9486 11.625L16.4259 11.625ZM29.0216 5.19034Q28.9534 4.58523 28.4591 4.25071Q27.9648 3.91619 27.2148 3.91619Q26.4094 3.91619 25.9364 4.28267Q25.4634 4.64915 25.4634 5.20739Q25.4634 5.625 25.7169 5.88707Q25.9705 6.14915 26.3391 6.2983Q26.7077 6.44744 27.0486 6.53693L27.9009 6.75852Q28.3185 6.8608 28.7574 7.03764Q29.1963 7.21449 29.5713 7.49787Q29.9463 7.78125 30.1786 8.20313Q30.4108 8.625 30.4108 9.21307Q30.4108 9.95028 30.0294 10.5298Q29.648 11.1094 28.9278 11.4396Q28.2077 11.7699 27.1807 11.7699Q25.7148 11.7699 24.8476 11.0838Q23.9804 10.3977 23.9165 9.21307L25.2375 9.21307Q25.2972 9.92472 25.8554 10.2699Q26.4136 10.6151 27.1722 10.6151Q28.0116 10.6151 28.5592 10.2273Q29.1068 9.83949 29.1068 9.20028Q29.1068 8.8125 28.8874 8.56321Q28.6679 8.31392 28.295 8.15412Q27.9222 7.99432 27.4534 7.87074L26.4222 7.58949Q25.3696 7.30398 24.7602 6.75Q24.1509 6.19602 24.1509 5.28409Q24.1509 4.52983 24.5599 3.96733Q24.969 3.40483 25.67 3.09162Q26.371 2.77841 27.2446 2.77841Q28.131 2.77841 28.8107 3.08949Q29.4903 3.40057 29.8824 3.94602Q30.2744 4.49148 30.2915 5.19034L29.0216 5.19034Z" fill="#000000" />
      </g>
      <path d="M0 7C0 3.13401 3.13401 0 7 0C10.866 0 14 3.13401 14 7C14 10.866 10.866 14 7 14C3.13401 14 0 10.866 0 7Z" fill="#000000" fill-rule="evenodd" transform="translate(38.655 37.262)" />
      <path d="M0 7C0 3.13401 3.134 0 7 0C10.866 0 14 3.13401 14 7C14 10.866 10.866 14 7 14C3.134 14 0 10.866 0 7Z" fill="#000000" fill-rule="evenodd" transform="translate(340.655 37.262)" />
      <g transform="translate(447.655 163)">
        <path d="M0.958807 11.625L0.958807 2.89773L2.27557 2.89773L2.27557 10.4915L6.23011 10.4915L6.23011 11.625L0.958807 11.625ZM9.64688 2.89773L9.64688 11.625L8.33011 11.625L8.33011 2.89773L9.64688 2.89773ZM19.7455 7.26136Q19.7455 8.46733 19.3555 9.38565Q18.9656 10.304 18.2881 10.875L19.4642 12.4091L18.1176 12.4091L17.3719 11.4418Q16.656 11.7443 15.8165 11.7443Q14.683 11.7443 13.7945 11.2053Q12.906 10.6662 12.3946 9.66051Q11.8832 8.65483 11.8832 7.26136Q11.8832 5.86364 12.3946 4.86008Q12.906 3.85653 13.7945 3.31747Q14.683 2.77841 15.8165 2.77841Q16.9457 2.77841 17.8342 3.31747Q18.7227 3.85653 19.2341 4.86008Q19.7455 5.86364 19.7455 7.26136ZM15.3733 8.79545L16.6688 8.79545L17.5082 9.89063Q17.9429 9.48153 18.1922 8.81889Q18.4415 8.15625 18.4415 7.26136Q18.4415 6.19602 18.0984 5.4652Q17.7554 4.73438 17.1609 4.35724Q16.5665 3.98011 15.8165 3.98011Q15.0665 3.98011 14.472 4.35724Q13.8776 4.73438 13.5345 5.4652Q13.1915 6.19602 13.1915 7.26136Q13.1915 8.32244 13.5345 9.0554Q13.8776 9.78835 14.472 10.1655Q15.0665 10.5426 15.8165 10.5426Q16.2384 10.5426 16.6134 10.4233L15.3733 8.79545ZM27.5983 2.89773L28.9193 2.89773L28.9193 8.63778Q28.9193 9.55398 28.4889 10.2614Q28.0585 10.9688 27.2787 11.3693Q26.4989 11.7699 25.4506 11.7699Q24.4065 11.7699 23.6267 11.3693Q22.8469 10.9688 22.4165 10.2614Q21.9861 9.55398 21.9861 8.63778L21.9861 2.89773L23.3028 2.89773L23.3028 8.53125Q23.3028 9.41761 23.8803 9.9929Q24.4577 10.5682 25.4506 10.5682Q26.4477 10.5682 27.023 9.9929Q27.5983 9.41761 27.5983 8.53125L27.5983 2.89773ZM32.7537 2.89773L32.7537 11.625L31.4369 11.625L31.4369 2.89773L32.7537 2.89773ZM38.0966 11.625L35.2713 11.625L35.2713 2.89773L38.1861 2.89773Q39.473 2.89773 40.3913 3.41974Q41.3097 3.94176 41.8018 4.91548Q42.294 5.8892 42.294 7.24858Q42.294 8.61222 41.7997 9.59233Q41.3054 10.5724 40.3658 11.0987Q39.4261 11.625 38.0966 11.625ZM36.5881 10.4744L38.0241 10.4744Q39.5156 10.4744 40.2571 9.63707Q40.9986 8.79972 40.9986 7.24858Q40.9986 5.70597 40.2678 4.87713Q39.5369 4.0483 38.1051 4.0483L36.5881 4.0483L36.5881 10.4744ZM45.8472 2.89773L45.8472 11.625L44.5304 11.625L44.5304 2.89773L45.8472 2.89773ZM47.9344 4.03125L47.9344 2.89773L54.6886 2.89773L54.6886 4.03125L51.9656 4.03125L51.9656 11.625L50.6531 11.625L50.6531 4.03125L47.9344 4.03125ZM56.1026 2.89773L57.5983 2.89773L59.8781 6.86506L59.9719 6.86506L62.2517 2.89773L63.7474 2.89773L60.5812 8.19886L60.5812 11.625L59.2687 11.625L59.2687 8.19886L56.1026 2.89773Z" fill="#000000" />
      </g>
      <path d="M0 7C0 3.134 3.134 0 7 0C10.866 0 14 3.134 14 7C14 10.866 10.866 14 7 14C3.134 14 0 10.866 0 7Z" fill="#000000" fill-rule="evenodd" transform="translate(419.655 163.262)" />
      <g transform="translate(412.655 0)">
        <path d="M2.27557 2.89773L2.27557 11.625L0.958807 11.625L0.958807 2.89773L2.27557 2.89773ZM11.8372 2.89773L11.8372 11.625L10.627 11.625L6.19091 5.22443L6.10994 5.22443L6.10994 11.625L4.79318 11.625L4.79318 2.89773L6.01193 2.89773L10.4523 9.30682L10.5332 9.30682L10.5332 2.89773L11.8372 2.89773ZM21.6034 5.7358L20.2739 5.7358Q20.1119 4.88778 19.4791 4.43395Q18.8463 3.98011 18.0111 3.98011Q17.2611 3.98011 16.6645 4.35938Q16.0679 4.73864 15.7249 5.46946Q15.3818 6.20028 15.3818 7.26136Q15.3818 8.3267 15.727 9.05966Q16.0722 9.79261 16.6666 10.1676Q17.2611 10.5426 18.0068 10.5426Q18.8335 10.5426 19.4685 10.0952Q20.1034 9.64773 20.2739 8.8125L21.6034 8.81676Q21.4628 9.67756 20.9727 10.3381Q20.4827 10.9986 19.7199 11.3714Q18.9571 11.7443 17.9983 11.7443Q16.8648 11.7443 15.9784 11.2053Q15.092 10.6662 14.5828 9.66051Q14.0736 8.65483 14.0736 7.26136Q14.0736 5.86364 14.5849 4.86008Q15.0963 3.85653 15.9827 3.31747Q16.869 2.77841 17.9983 2.77841Q18.923 2.77841 19.6837 3.12784Q20.4443 3.47727 20.9493 4.13991Q21.4543 4.80256 21.6034 5.7358ZM23.7801 11.625L23.7801 2.89773L29.2517 2.89773L29.2517 4.03125L25.0969 4.03125L25.0969 6.69034L28.9662 6.69034L28.9662 7.8196L25.0969 7.8196L25.0969 10.4915L29.3028 10.4915L29.3028 11.625L23.7801 11.625ZM38.6599 2.89773L38.6599 11.625L37.4497 11.625L33.0136 5.22443L32.9327 5.22443L32.9327 11.625L31.6159 11.625L31.6159 2.89773L32.8347 2.89773L37.275 9.30682L37.356 9.30682L37.356 2.89773L38.6599 2.89773ZM40.7472 4.03125L40.7472 2.89773L47.5014 2.89773L47.5014 4.03125L44.7784 4.03125L44.7784 11.625L43.4659 11.625L43.4659 4.03125L40.7472 4.03125ZM50.9054 2.89773L50.9054 11.625L49.5886 11.625L49.5886 2.89773L50.9054 2.89773ZM54.1858 2.89773L56.6148 10.0057L56.7128 10.0057L59.1418 2.89773L60.5651 2.89773L57.4244 11.625L55.9031 11.625L52.7625 2.89773L54.1858 2.89773ZM62.4222 11.625L62.4222 2.89773L67.8938 2.89773L67.8938 4.03125L63.7389 4.03125L63.7389 6.69034L67.6082 6.69034L67.6082 7.8196L63.7389 7.8196L63.7389 10.4915L67.9449 10.4915L67.9449 11.625L62.4222 11.625ZM75.0179 5.19034Q74.9497 4.58523 74.4554 4.25071Q73.9611 3.91619 73.2111 3.91619Q72.4057 3.91619 71.9327 4.28267Q71.4597 4.64915 71.4597 5.20739Q71.4597 5.625 71.7132 5.88707Q71.9668 6.14915 72.3354 6.2983Q72.704 6.44744 73.0449 6.53693L73.8972 6.75852Q74.3148 6.8608 74.7537 7.03764Q75.1926 7.21449 75.5676 7.49787Q75.9426 7.78125 76.1749 8.20313Q76.4071 8.625 76.4071 9.21307Q76.4071 9.95028 76.0257 10.5298Q75.6443 11.1094 74.9241 11.4396Q74.204 11.7699 73.177 11.7699Q71.7111 11.7699 70.8439 11.0838Q69.9767 10.3977 69.9128 9.21307L71.2338 9.21307Q71.2935 9.92472 71.8517 10.2699Q72.4099 10.6151 73.1685 10.6151Q74.008 10.6151 74.5555 10.2273Q75.1031 9.83949 75.1031 9.20028Q75.1031 8.8125 74.8837 8.56321Q74.6642 8.31392 74.2913 8.15412Q73.9185 7.99432 73.4497 7.87074L72.4185 7.58949Q71.3659 7.30398 70.7565 6.75Q70.1472 6.19602 70.1472 5.28409Q70.1472 4.52983 70.5563 3.96733Q70.9653 3.40483 71.6663 3.09162Q72.3673 2.77841 73.2409 2.77841Q74.1273 2.77841 74.807 3.08949Q75.4866 3.40057 75.8787 3.94602Q76.2707 4.49148 76.2878 5.19034L75.0179 5.19034Z" fill="#000000" />
      </g>
      <path d="M0 7C0 3.13401 3.134 0 7 0C10.866 0 14 3.13401 14 7C14 10.866 10.866 14 7 14C3.134 14 0 10.866 0 7Z" fill="#000000" fill-rule="evenodd" transform="translate(389.655 0.262)" />
    </g>
    <path d="M0 0C2.6443 90.471 76.8159 163 167.927 163C178.022 163 187.909 162.11 197.515 160.403C197.515 160.403 197.34 159.418 197.34 159.418C187.792 161.115 177.963 162 167.927 162C77.3679 162 3.6444 89.919 1.0004 0C1.0004 0 0 0 0 0Z" fill="none" stroke-width="1" stroke="#FF960B" transform="translate(62.029 213.5)" />
    <g transform="translate(33.765 93.519)">
      <g transform="translate(77.551 196)">
        <path d="M0.958807 11.625L0.958807 2.89773L2.27557 2.89773L2.27557 10.4915L6.23011 10.4915L6.23011 11.625L0.958807 11.625ZM15.5702 7.26136Q15.5702 8.65483 15.0588 9.66051Q14.5474 10.6662 13.6589 11.2053Q12.7705 11.7443 11.6412 11.7443Q10.5077 11.7443 9.61918 11.2053Q8.73068 10.6662 8.21932 9.66051Q7.70795 8.65483 7.70795 7.26136Q7.70795 5.86364 8.21932 4.86008Q8.73068 3.85653 9.61918 3.31747Q10.5077 2.77841 11.6412 2.77841Q12.7705 2.77841 13.6589 3.31747Q14.5474 3.85653 15.0588 4.86008Q15.5702 5.86364 15.5702 7.26136ZM14.2662 7.26136Q14.2662 6.19602 13.9232 5.4652Q13.5801 4.73438 12.9857 4.35724Q12.3912 3.98011 11.6412 3.98011Q10.8912 3.98011 10.2967 4.35724Q9.70227 4.73438 9.35923 5.4652Q9.01619 6.19602 9.01619 7.26136Q9.01619 8.32244 9.35923 9.0554Q9.70227 9.78835 10.2967 10.1655Q10.8912 10.5426 11.6412 10.5426Q12.3912 10.5426 12.9857 10.1655Q13.5801 9.78835 13.9232 9.0554Q14.2662 8.32244 14.2662 7.26136ZM19.4045 11.625L16.9841 2.89773L18.369 2.89773L20.0693 9.65625L20.1503 9.65625L21.9188 2.89773L23.2909 2.89773L25.0594 9.66051L25.1403 9.66051L26.8364 2.89773L28.2256 2.89773L25.8009 11.625L24.4756 11.625L22.6389 5.08807L22.5707 5.08807L20.7341 11.625L19.4045 11.625ZM38.5705 5.19034Q38.5023 4.58523 38.008 4.25071Q37.5136 3.91619 36.7636 3.91619Q35.9582 3.91619 35.4852 4.28267Q35.0122 4.64915 35.0122 5.20739Q35.0122 5.625 35.2658 5.88707Q35.5193 6.14915 35.8879 6.2983Q36.2565 6.44744 36.5974 6.53693L37.4497 6.75852Q37.8673 6.8608 38.3063 7.03764Q38.7452 7.21449 39.1202 7.49787Q39.4952 7.78125 39.7274 8.20313Q39.9597 8.625 39.9597 9.21307Q39.9597 9.95028 39.5783 10.5298Q39.1969 11.1094 38.4767 11.4396Q37.7565 11.7699 36.7295 11.7699Q35.2636 11.7699 34.3965 11.0838Q33.5293 10.3977 33.4653 9.21307L34.7864 9.21307Q34.846 9.92472 35.4043 10.2699Q35.9625 10.6151 36.721 10.6151Q37.5605 10.6151 38.1081 10.2273Q38.6557 9.83949 38.6557 9.20028Q38.6557 8.8125 38.4362 8.56321Q38.2168 8.31392 37.8439 8.15412Q37.471 7.99432 37.0023 7.87074L35.971 7.58949Q34.9185 7.30398 34.3091 6.75Q33.6997 6.19602 33.6997 5.28409Q33.6997 4.52983 34.1088 3.96733Q34.5179 3.40483 35.2189 3.09162Q35.9199 2.77841 36.7935 2.77841Q37.6798 2.77841 38.3595 3.08949Q39.0392 3.40057 39.4313 3.94602Q39.8233 4.49148 39.8403 5.19034L38.5705 5.19034ZM42.1321 11.625L42.1321 2.89773L43.4489 2.89773L43.4489 10.4915L47.4034 10.4915L47.4034 11.625L42.1321 11.625ZM50.8202 2.89773L50.8202 11.625L49.5034 11.625L49.5034 2.89773L50.8202 2.89773ZM53.3378 11.625L53.3378 2.89773L56.4486 2.89773Q57.4628 2.89773 58.1339 3.26847Q58.8051 3.6392 59.1375 4.27841Q59.4699 4.91761 59.4699 5.72301Q59.4699 6.52841 59.1354 7.16974Q58.8009 7.81108 58.1297 8.18395Q57.4585 8.55682 56.4443 8.55682L54.6545 8.55682L54.6545 11.625L53.3378 11.625ZM54.6545 7.44034L56.325 7.44034Q57.2923 7.44034 57.7185 6.95241Q58.1446 6.46449 58.1446 5.72301Q58.1446 4.98153 57.7163 4.50426Q57.2881 4.02699 56.308 4.02699L54.6545 4.02699L54.6545 7.44034ZM61.6082 11.625L61.6082 2.89773L64.719 2.89773Q65.7332 2.89773 66.4044 3.26847Q67.0756 3.6392 67.408 4.27841Q67.7403 4.91761 67.7403 5.72301Q67.7403 6.52841 67.4058 7.16974Q67.0713 7.81108 66.4001 8.18395Q65.729 8.55682 64.7148 8.55682L62.925 8.55682L62.925 11.625L61.6082 11.625ZM62.925 7.44034L64.5955 7.44034Q65.5628 7.44034 65.9889 6.95241Q66.4151 6.46449 66.4151 5.72301Q66.4151 4.98153 65.9868 4.50426Q65.5585 4.02699 64.5784 4.02699L62.925 4.02699L62.925 7.44034ZM69.6869 11.625L68.2892 11.625L71.4298 2.89773L72.9511 2.89773L76.0918 11.625L74.694 11.625L73.8972 9.31534L70.4881 9.31534L69.6869 11.625ZM70.8716 8.20739L73.5136 8.20739L72.2267 4.48295L72.1585 4.48295L70.8716 8.20739ZM83.446 5.65483Q83.1989 4.87926 82.6215 4.42969Q82.044 3.98011 81.1747 3.98011Q80.4375 3.98011 79.8452 4.35938Q79.2528 4.73864 78.9098 5.46946Q78.5668 6.20028 78.5668 7.2571Q78.5668 8.31818 78.9119 9.05114Q79.2571 9.78409 79.858 10.1634Q80.4588 10.5426 81.2259 10.5426Q82.2742 10.5426 82.9176 9.92259Q83.5611 9.30256 83.5824 8.24574L81.4261 8.24574L81.4261 7.15909L84.8565 7.15909L84.8565 8.15199Q84.8565 9.25142 84.3899 10.0589Q83.9233 10.8665 83.1051 11.3054Q82.2869 11.7443 81.2259 11.7443Q80.0455 11.7443 79.1506 11.201Q78.2557 10.6577 77.7571 9.65199Q77.2585 8.64631 77.2585 7.26563Q77.2585 5.87216 77.7656 4.86648Q78.2727 3.8608 79.1548 3.3196Q80.0369 2.77841 81.1662 2.77841Q82.108 2.77841 82.875 3.14276Q83.6421 3.5071 84.147 4.15483Q84.652 4.80256 84.7969 5.65483L83.446 5.65483ZM87.127 11.625L87.127 2.89773L92.5986 2.89773L92.5986 4.03125L88.4438 4.03125L88.4438 6.69034L92.3131 6.69034L92.3131 7.8196L88.4438 7.8196L88.4438 10.4915L92.6497 10.4915L92.6497 11.625L87.127 11.625Z" fill="#000000" />
      </g>
      <path d="M0 7C0 3.134 3.13401 0 7 0C10.866 0 14 3.134 14 7C14 10.866 10.866 14 7 14C3.13401 14 0 10.866 0 7Z" fill="#000000" fill-rule="evenodd" transform="translate(46.655 196.262)" />
      <g transform="translate(0 38)">
        <path d="M0.958807 11.625L0.958807 2.89773L6.37074 2.89773L6.37074 4.03125L2.27557 4.03125L2.27557 6.69034L5.98295 6.69034L5.98295 7.8196L2.27557 7.8196L2.27557 11.625L0.958807 11.625ZM8.59006 11.625L8.59006 2.89773L14.0616 2.89773L14.0616 4.03125L9.90682 4.03125L9.90682 6.69034L13.7761 6.69034L13.7761 7.8196L9.90682 7.8196L9.90682 10.4915L14.1128 10.4915L14.1128 11.625L8.59006 11.625ZM16.4259 11.625L16.4259 2.89773L21.8974 2.89773L21.8974 4.03125L17.7426 4.03125L17.7426 6.69034L21.6119 6.69034L21.6119 7.8196L17.7426 7.8196L17.7426 10.4915L21.9486 10.4915L21.9486 11.625L16.4259 11.625ZM29.0216 5.19034Q28.9534 4.58523 28.4591 4.25071Q27.9648 3.91619 27.2148 3.91619Q26.4094 3.91619 25.9364 4.28267Q25.4634 4.64915 25.4634 5.20739Q25.4634 5.625 25.7169 5.88707Q25.9705 6.14915 26.3391 6.2983Q26.7077 6.44744 27.0486 6.53693L27.9009 6.75852Q28.3185 6.8608 28.7574 7.03764Q29.1963 7.21449 29.5713 7.49787Q29.9463 7.78125 30.1786 8.20313Q30.4108 8.625 30.4108 9.21307Q30.4108 9.95028 30.0294 10.5298Q29.648 11.1094 28.9278 11.4396Q28.2077 11.7699 27.1807 11.7699Q25.7148 11.7699 24.8476 11.0838Q23.9804 10.3977 23.9165 9.21307L25.2375 9.21307Q25.2972 9.92472 25.8554 10.2699Q26.4136 10.6151 27.1722 10.6151Q28.0116 10.6151 28.5592 10.2273Q29.1068 9.83949 29.1068 9.20028Q29.1068 8.8125 28.8874 8.56321Q28.6679 8.31392 28.295 8.15412Q27.9222 7.99432 27.4534 7.87074L26.4222 7.58949Q25.3696 7.30398 24.7602 6.75Q24.1509 6.19602 24.1509 5.28409Q24.1509 4.52983 24.5599 3.96733Q24.969 3.40483 25.67 3.09162Q26.371 2.77841 27.2446 2.77841Q28.131 2.77841 28.8107 3.08949Q29.4903 3.40057 29.8824 3.94602Q30.2744 4.49148 30.2915 5.19034L29.0216 5.19034Z" fill="#000000" />
      </g>
      <path d="M0 7C0 3.13401 3.13401 0 7 0C10.866 0 14 3.13401 14 7C14 10.866 10.866 14 7 14C3.13401 14 0 10.866 0 7Z" fill="#000000" fill-rule="evenodd" transform="translate(38.655 37.262)" />
      <g transform="translate(212.126 38)">
        <path d="M6.86506 5.65483Q6.6179 4.87926 6.04048 4.42969Q5.46307 3.98011 4.59375 3.98011Q3.85653 3.98011 3.2642 4.35938Q2.67187 4.73864 2.32884 5.46946Q1.9858 6.20028 1.9858 7.2571Q1.9858 8.31818 2.33097 9.05114Q2.67614 9.78409 3.27699 10.1634Q3.87784 10.5426 4.64489 10.5426Q5.69318 10.5426 6.33665 9.92259Q6.98011 9.30256 7.00142 8.24574L4.84517 8.24574L4.84517 7.15909L8.27557 7.15909L8.27557 8.15199Q8.27557 9.25142 7.80895 10.0589Q7.34233 10.8665 6.52415 11.3054Q5.70597 11.7443 4.64489 11.7443Q3.46449 11.7443 2.5696 11.201Q1.67472 10.6577 1.17614 9.65199Q0.677557 8.64631 0.677557 7.26563Q0.677557 5.87216 1.18466 4.86648Q1.69176 3.8608 2.57386 3.3196Q3.45597 2.77841 4.58523 2.77841Q5.52699 2.77841 6.29403 3.14276Q7.06108 3.5071 7.56605 4.15483Q8.07102 4.80256 8.21591 5.65483L6.86506 5.65483ZM10.546 11.625L10.546 2.89773L11.8628 2.89773L11.8628 10.4915L15.8173 10.4915L15.8173 11.625L10.546 11.625ZM25.1574 7.26136Q25.1574 8.65483 24.646 9.66051Q24.1347 10.6662 23.2462 11.2053Q22.3577 11.7443 21.2284 11.7443Q20.0949 11.7443 19.2064 11.2053Q18.3179 10.6662 17.8065 9.66051Q17.2952 8.65483 17.2952 7.26136Q17.2952 5.86364 17.8065 4.86008Q18.3179 3.85653 19.2064 3.31747Q20.0949 2.77841 21.2284 2.77841Q22.3577 2.77841 23.2462 3.31747Q24.1347 3.85653 24.646 4.86008Q25.1574 5.86364 25.1574 7.26136ZM23.8534 7.26136Q23.8534 6.19602 23.5104 5.4652Q23.1673 4.73438 22.5729 4.35724Q21.9784 3.98011 21.2284 3.98011Q20.4784 3.98011 19.8839 4.35724Q19.2895 4.73438 18.9464 5.4652Q18.6034 6.19602 18.6034 7.26136Q18.6034 8.32244 18.9464 9.0554Q19.2895 9.78835 19.8839 10.1655Q20.4784 10.5426 21.2284 10.5426Q21.9784 10.5426 22.5729 10.1655Q23.1673 9.78835 23.5104 9.0554Q23.8534 8.32244 23.8534 7.26136ZM34.9747 7.26136Q34.9747 8.65483 34.4634 9.66051Q33.952 10.6662 33.0635 11.2053Q32.175 11.7443 31.0457 11.7443Q29.9122 11.7443 29.0237 11.2053Q28.1352 10.6662 27.6239 9.66051Q27.1125 8.65483 27.1125 7.26136Q27.1125 5.86364 27.6239 4.86008Q28.1352 3.85653 29.0237 3.31747Q29.9122 2.77841 31.0457 2.77841Q32.175 2.77841 33.0635 3.31747Q33.952 3.85653 34.4634 4.86008Q34.9747 5.86364 34.9747 7.26136ZM33.6707 7.26136Q33.6707 6.19602 33.3277 5.4652Q32.9847 4.73438 32.3902 4.35724Q31.7957 3.98011 31.0457 3.98011Q30.2957 3.98011 29.7013 4.35724Q29.1068 4.73438 28.7638 5.4652Q28.4207 6.19602 28.4207 7.26136Q28.4207 8.32244 28.7638 9.0554Q29.1068 9.78835 29.7013 10.1655Q30.2957 10.5426 31.0457 10.5426Q31.7957 10.5426 32.3902 10.1655Q32.9847 9.78835 33.3277 9.0554Q33.6707 8.32244 33.6707 7.26136ZM37.2111 2.89773L38.8091 2.89773L41.5875 9.68182L41.6898 9.68182L44.4682 2.89773L46.0662 2.89773L46.0662 11.625L44.8134 11.625L44.8134 5.30966L44.7324 5.30966L42.1585 11.6122L41.1188 11.6122L38.5449 5.3054L38.4639 5.3054L38.4639 11.625L37.2111 11.625L37.2111 2.89773ZM52.3628 11.625L52.3628 2.89773L57.8344 2.89773L57.8344 4.03125L53.6795 4.03125L53.6795 6.69034L57.5489 6.69034L57.5489 7.8196L53.6795 7.8196L53.6795 10.4915L57.8855 10.4915L57.8855 11.625L52.3628 11.625ZM60.1986 2.89773L61.7966 2.89773L64.575 9.68182L64.6773 9.68182L67.4557 2.89773L69.0537 2.89773L69.0537 11.625L67.8008 11.625L67.8008 5.30966L67.7199 5.30966L65.146 11.6122L64.1062 11.6122L61.5324 5.3054L61.4514 5.3054L61.4514 11.625L60.1986 11.625L60.1986 2.89773ZM72.8881 2.89773L72.8881 11.625L71.5713 11.625L71.5713 2.89773L72.8881 2.89773ZM80.1656 5.19034Q80.0974 4.58523 79.6031 4.25071Q79.1088 3.91619 78.3588 3.91619Q77.5534 3.91619 77.0804 4.28267Q76.6074 4.64915 76.6074 5.20739Q76.6074 5.625 76.8609 5.88707Q77.1145 6.14915 77.4831 6.2983Q77.8517 6.44744 78.1926 6.53693L79.0449 6.75852Q79.4625 6.8608 79.9014 7.03764Q80.3403 7.21449 80.7153 7.49787Q81.0903 7.78125 81.3226 8.20313Q81.5548 8.625 81.5548 9.21307Q81.5548 9.95028 81.1734 10.5298Q80.792 11.1094 80.0719 11.4396Q79.3517 11.7699 78.3247 11.7699Q76.8588 11.7699 75.9916 11.0838Q75.1244 10.3977 75.0605 9.21307L76.3815 9.21307Q76.4412 9.92472 76.9994 10.2699Q77.5577 10.6151 78.3162 10.6151Q79.1557 10.6151 79.7033 10.2273Q80.2509 9.83949 80.2509 9.20028Q80.2509 8.8125 80.0314 8.56321Q79.8119 8.31392 79.4391 8.15412Q79.0662 7.99432 78.5974 7.87074L77.5662 7.58949Q76.5136 7.30398 75.9043 6.75Q75.2949 6.19602 75.2949 5.28409Q75.2949 4.52983 75.704 3.96733Q76.1131 3.40483 76.8141 3.09162Q77.5151 2.77841 78.3886 2.77841Q79.275 2.77841 79.9547 3.08949Q80.6344 3.40057 81.0264 3.94602Q81.4185 4.49148 81.4355 5.19034L80.1656 5.19034ZM88.4872 5.19034Q88.419 4.58523 87.9247 4.25071Q87.4304 3.91619 86.6804 3.91619Q85.875 3.91619 85.402 4.28267Q84.929 4.64915 84.929 5.20739Q84.929 5.625 85.1825 5.88707Q85.4361 6.14915 85.8047 6.2983Q86.1733 6.44744 86.5142 6.53693L87.3665 6.75852Q87.7841 6.8608 88.223 7.03764Q88.6619 7.21449 89.0369 7.49787Q89.4119 7.78125 89.6442 8.20313Q89.8764 8.625 89.8764 9.21307Q89.8764 9.95028 89.495 10.5298Q89.1136 11.1094 88.3935 11.4396Q87.6733 11.7699 86.6463 11.7699Q85.1804 11.7699 84.3132 11.0838Q83.446 10.3977 83.3821 9.21307L84.7031 9.21307Q84.7628 9.92472 85.321 10.2699Q85.8793 10.6151 86.6378 10.6151Q87.4773 10.6151 88.0249 10.2273Q88.5724 9.83949 88.5724 9.20028Q88.5724 8.8125 88.353 8.56321Q88.1335 8.31392 87.7607 8.15412Q87.3878 7.99432 86.919 7.87074L85.8878 7.58949Q84.8352 7.30398 84.2259 6.75Q83.6165 6.19602 83.6165 5.28409Q83.6165 4.52983 84.0256 3.96733Q84.4347 3.40483 85.1357 3.09162Q85.8367 2.77841 86.7102 2.77841Q87.5966 2.77841 88.2763 3.08949Q88.956 3.40057 89.348 3.94602Q89.7401 4.49148 89.7571 5.19034L88.4872 5.19034ZM93.3656 2.89773L93.3656 11.625L92.0489 11.625L92.0489 2.89773L93.3656 2.89773ZM103.464 7.26136Q103.464 8.65483 102.953 9.66051Q102.441 10.6662 101.553 11.2053Q100.664 11.7443 99.5352 11.7443Q98.4017 11.7443 97.5132 11.2053Q96.6247 10.6662 96.1134 9.66051Q95.602 8.65483 95.602 7.26136Q95.602 5.86364 96.1134 4.86008Q96.6247 3.85653 97.5132 3.31747Q98.4017 2.77841 99.5352 2.77841Q100.664 2.77841 101.553 3.31747Q102.441 3.85653 102.953 4.86008Q103.464 5.86364 103.464 7.26136ZM102.16 7.26136Q102.16 6.19602 101.817 5.4652Q101.474 4.73438 100.88 4.35724Q100.285 3.98011 99.5352 3.98011Q98.7852 3.98011 98.1908 4.35724Q97.5963 4.73438 97.2533 5.4652Q96.9102 6.19602 96.9102 7.26136Q96.9102 8.32244 97.2533 9.0554Q97.5963 9.78835 98.1908 10.1655Q98.7852 10.5426 99.5352 10.5426Q100.285 10.5426 100.88 10.1655Q101.474 9.78835 101.817 9.0554Q102.16 8.32244 102.16 7.26136ZM112.745 2.89773L112.745 11.625L111.534 11.625L107.098 5.22443L107.017 5.22443L107.017 11.625L105.701 11.625L105.701 2.89773L106.919 2.89773L111.36 9.30682L111.441 9.30682L111.441 2.89773L112.745 2.89773ZM120.022 5.19034Q119.954 4.58523 119.46 4.25071Q118.965 3.91619 118.215 3.91619Q117.41 3.91619 116.937 4.28267Q116.464 4.64915 116.464 5.20739Q116.464 5.625 116.717 5.88707Q116.971 6.14915 117.34 6.2983Q117.708 6.44744 118.049 6.53693L118.901 6.75852Q119.319 6.8608 119.758 7.03764Q120.197 7.21449 120.572 7.49787Q120.947 7.78125 121.179 8.20313Q121.411 8.625 121.411 9.21307Q121.411 9.95028 121.03 10.5298Q120.649 11.1094 119.928 11.4396Q119.208 11.7699 118.181 11.7699Q116.715 11.7699 115.848 11.0838Q114.981 10.3977 114.917 9.21307L116.238 9.21307Q116.298 9.92472 116.856 10.2699Q117.414 10.6151 118.173 10.6151Q119.012 10.6151 119.56 10.2273Q120.107 9.83949 120.107 9.20028Q120.107 8.8125 119.888 8.56321Q119.668 8.31392 119.296 8.15412Q118.923 7.99432 118.454 7.87074L117.423 7.58949Q116.37 7.30398 115.761 6.75Q115.151 6.19602 115.151 5.28409Q115.151 4.52983 115.561 3.96733Q115.97 3.40483 116.671 3.09162Q117.372 2.77841 118.245 2.77841Q119.132 2.77841 119.811 3.08949Q120.491 3.40057 120.883 3.94602Q121.275 4.49148 121.292 5.19034L120.022 5.19034Z" fill="#000000" />
      </g>
      <path d="M0 7C0 3.13401 3.134 0 7 0C10.866 0 14 3.13401 14 7C14 10.866 10.866 14 7 14C3.134 14 0 10.866 0 7Z" fill="#000000" fill-rule="evenodd" transform="translate(340.655 37.262)" />
      <g transform="translate(447.655 163)">
        <path d="M0.958807 11.625L0.958807 2.89773L2.27557 2.89773L2.27557 10.4915L6.23011 10.4915L6.23011 11.625L0.958807 11.625ZM9.64688 2.89773L9.64688 11.625L8.33011 11.625L8.33011 2.89773L9.64688 2.89773ZM19.7455 7.26136Q19.7455 8.46733 19.3555 9.38565Q18.9656 10.304 18.2881 10.875L19.4642 12.4091L18.1176 12.4091L17.3719 11.4418Q16.656 11.7443 15.8165 11.7443Q14.683 11.7443 13.7945 11.2053Q12.906 10.6662 12.3946 9.66051Q11.8832 8.65483 11.8832 7.26136Q11.8832 5.86364 12.3946 4.86008Q12.906 3.85653 13.7945 3.31747Q14.683 2.77841 15.8165 2.77841Q16.9457 2.77841 17.8342 3.31747Q18.7227 3.85653 19.2341 4.86008Q19.7455 5.86364 19.7455 7.26136ZM15.3733 8.79545L16.6688 8.79545L17.5082 9.89063Q17.9429 9.48153 18.1922 8.81889Q18.4415 8.15625 18.4415 7.26136Q18.4415 6.19602 18.0984 5.4652Q17.7554 4.73438 17.1609 4.35724Q16.5665 3.98011 15.8165 3.98011Q15.0665 3.98011 14.472 4.35724Q13.8776 4.73438 13.5345 5.4652Q13.1915 6.19602 13.1915 7.26136Q13.1915 8.32244 13.5345 9.0554Q13.8776 9.78835 14.472 10.1655Q15.0665 10.5426 15.8165 10.5426Q16.2384 10.5426 16.6134 10.4233L15.3733 8.79545ZM27.5983 2.89773L28.9193 2.89773L28.9193 8.63778Q28.9193 9.55398 28.4889 10.2614Q28.0585 10.9688 27.2787 11.3693Q26.4989 11.7699 25.4506 11.7699Q24.4065 11.7699 23.6267 11.3693Q22.8469 10.9688 22.4165 10.2614Q21.9861 9.55398 21.9861 8.63778L21.9861 2.89773L23.3028 2.89773L23.3028 8.53125Q23.3028 9.41761 23.8803 9.9929Q24.4577 10.5682 25.4506 10.5682Q26.4477 10.5682 27.023 9.9929Q27.5983 9.41761 27.5983 8.53125L27.5983 2.89773ZM32.7537 2.89773L32.7537 11.625L31.4369 11.625L31.4369 2.89773L32.7537 2.89773ZM38.0966 11.625L35.2713 11.625L35.2713 2.89773L38.1861 2.89773Q39.473 2.89773 40.3913 3.41974Q41.3097 3.94176 41.8018 4.91548Q42.294 5.8892 42.294 7.24858Q42.294 8.61222 41.7997 9.59233Q41.3054 10.5724 40.3658 11.0987Q39.4261 11.625 38.0966 11.625ZM36.5881 10.4744L38.0241 10.4744Q39.5156 10.4744 40.2571 9.63707Q40.9986 8.79972 40.9986 7.24858Q40.9986 5.70597 40.2678 4.87713Q39.5369 4.0483 38.1051 4.0483L36.5881 4.0483L36.5881 10.4744ZM45.8472 2.89773L45.8472 11.625L44.5304 11.625L44.5304 2.89773L45.8472 2.89773ZM47.9344 4.03125L47.9344 2.89773L54.6886 2.89773L54.6886 4.03125L51.9656 4.03125L51.9656 11.625L50.6531 11.625L50.6531 4.03125L47.9344 4.03125ZM56.1026 2.89773L57.5983 2.89773L59.8781 6.86506L59.9719 6.86506L62.2517 2.89773L63.7474 2.89773L60.5812 8.19886L60.5812 11.625L59.2687 11.625L59.2687 8.19886L56.1026 2.89773Z" fill="#000000" />
      </g>
      <path d="M0 7C0 3.134 3.134 0 7 0C10.866 0 14 3.134 14 7C14 10.866 10.866 14 7 14C3.134 14 0 10.866 0 7Z" fill="#000000" fill-rule="evenodd" transform="translate(419.655 163.262)" />
      <g transform="translate(412.655 0)">
        <path d="M2.27557 2.89773L2.27557 11.625L0.958807 11.625L0.958807 2.89773L2.27557 2.89773ZM11.8372 2.89773L11.8372 11.625L10.627 11.625L6.19091 5.22443L6.10994 5.22443L6.10994 11.625L4.79318 11.625L4.79318 2.89773L6.01193 2.89773L10.4523 9.30682L10.5332 9.30682L10.5332 2.89773L11.8372 2.89773ZM21.6034 5.7358L20.2739 5.7358Q20.1119 4.88778 19.4791 4.43395Q18.8463 3.98011 18.0111 3.98011Q17.2611 3.98011 16.6645 4.35938Q16.0679 4.73864 15.7249 5.46946Q15.3818 6.20028 15.3818 7.26136Q15.3818 8.3267 15.727 9.05966Q16.0722 9.79261 16.6666 10.1676Q17.2611 10.5426 18.0068 10.5426Q18.8335 10.5426 19.4685 10.0952Q20.1034 9.64773 20.2739 8.8125L21.6034 8.81676Q21.4628 9.67756 20.9727 10.3381Q20.4827 10.9986 19.7199 11.3714Q18.9571 11.7443 17.9983 11.7443Q16.8648 11.7443 15.9784 11.2053Q15.092 10.6662 14.5828 9.66051Q14.0736 8.65483 14.0736 7.26136Q14.0736 5.86364 14.5849 4.86008Q15.0963 3.85653 15.9827 3.31747Q16.869 2.77841 17.9983 2.77841Q18.923 2.77841 19.6837 3.12784Q20.4443 3.47727 20.9493 4.13991Q21.4543 4.80256 21.6034 5.7358ZM23.7801 11.625L23.7801 2.89773L29.2517 2.89773L29.2517 4.03125L25.0969 4.03125L25.0969 6.69034L28.9662 6.69034L28.9662 7.8196L25.0969 7.8196L25.0969 10.4915L29.3028 10.4915L29.3028 11.625L23.7801 11.625ZM38.6599 2.89773L38.6599 11.625L37.4497 11.625L33.0136 5.22443L32.9327 5.22443L32.9327 11.625L31.6159 11.625L31.6159 2.89773L32.8347 2.89773L37.275 9.30682L37.356 9.30682L37.356 2.89773L38.6599 2.89773ZM40.7472 4.03125L40.7472 2.89773L47.5014 2.89773L47.5014 4.03125L44.7784 4.03125L44.7784 11.625L43.4659 11.625L43.4659 4.03125L40.7472 4.03125ZM50.9054 2.89773L50.9054 11.625L49.5886 11.625L49.5886 2.89773L50.9054 2.89773ZM54.1858 2.89773L56.6148 10.0057L56.7128 10.0057L59.1418 2.89773L60.5651 2.89773L57.4244 11.625L55.9031 11.625L52.7625 2.89773L54.1858 2.89773ZM62.4222 11.625L62.4222 2.89773L67.8938 2.89773L67.8938 4.03125L63.7389 4.03125L63.7389 6.69034L67.6082 6.69034L67.6082 7.8196L63.7389 7.8196L63.7389 10.4915L67.9449 10.4915L67.9449 11.625L62.4222 11.625ZM75.0179 5.19034Q74.9497 4.58523 74.4554 4.25071Q73.9611 3.91619 73.2111 3.91619Q72.4057 3.91619 71.9327 4.28267Q71.4597 4.64915 71.4597 5.20739Q71.4597 5.625 71.7132 5.88707Q71.9668 6.14915 72.3354 6.2983Q72.704 6.44744 73.0449 6.53693L73.8972 6.75852Q74.3148 6.8608 74.7537 7.03764Q75.1926 7.21449 75.5676 7.49787Q75.9426 7.78125 76.1749 8.20313Q76.4071 8.625 76.4071 9.21307Q76.4071 9.95028 76.0257 10.5298Q75.6443 11.1094 74.9241 11.4396Q74.204 11.7699 73.177 11.7699Q71.7111 11.7699 70.8439 11.0838Q69.9767 10.3977 69.9128 9.21307L71.2338 9.21307Q71.2935 9.92472 71.8517 10.2699Q72.4099 10.6151 73.1685 10.6151Q74.008 10.6151 74.5555 10.2273Q75.1031 9.83949 75.1031 9.20028Q75.1031 8.8125 74.8837 8.56321Q74.6642 8.31392 74.2913 8.15412Q73.9185 7.99432 73.4497 7.87074L72.4185 7.58949Q71.3659 7.30398 70.7565 6.75Q70.1472 6.19602 70.1472 5.28409Q70.1472 4.52983 70.5563 3.96733Q70.9653 3.40483 71.6663 3.09162Q72.3673 2.77841 73.2409 2.77841Q74.1273 2.77841 74.807 3.08949Q75.4866 3.40057 75.8787 3.94602Q76.2707 4.49148 76.2878 5.19034L75.0179 5.19034Z" fill="#000000" />
      </g>
      <path d="M0 7C0 3.13401 3.134 0 7 0C10.866 0 14 3.13401 14 7C14 10.866 10.866 14 7 14C3.134 14 0 10.866 0 7Z" fill="#000000" fill-rule="evenodd" transform="translate(389.655 0.262)" />
    </g>
    <g transform="translate(-15 -12)">
      <path d="M0 8C0 3.58172 3.58172 0 8 0C12.4183 0 16 3.58172 16 8C16 12.4183 12.4183 16 8 16C3.58172 16 0 12.4183 0 8Z" fill="#FFFFFF" fill-rule="evenodd" transform="translate(7 4)" />
      <path d="M12 24C18.627 24 24 18.627 24 12C24 5.373 18.627 0 12 0C5.373 0 0 5.373 0 12C0 18.627 5.373 24 12 24C12 24 12 24 12 24ZM9.293 16.293C9.03304 16.5441 8.92879 16.9159 9.0203 17.2655C9.11182 17.6151 9.38486 17.8882 9.73449 17.9797C10.0841 18.0712 10.4559 17.967 10.707 17.707C10.707 17.707 15.525 12.89 15.525 12.89C15.9154 12.4995 15.9154 11.8665 15.525 11.476C15.525 11.476 10.707 6.658 10.707 6.658C10.4559 6.39804 10.0841 6.29379 9.73449 6.3853C9.38486 6.47682 9.11182 6.74986 9.0203 7.09949C8.92879 7.44912 9.03304 7.82093 9.293 8.072C9.293 8.072 13.403 12.183 13.403 12.183L9.293 16.293C9.293 16.293 9.293 16.293 9.293 16.293Z" fill="#FF960B" fill-rule="evenodd" />
    </g>
    <path d="M0 20C0 14.4771 1.95262 9.76311 5.85786 5.85786C9.76311 1.95262 14.4772 0 20 0L125 0C130.523 0 135.237 1.95262 139.142 5.85786C143.047 9.76311 145 14.4771 145 20C145 25.5229 143.047 30.2369 139.142 34.1421C135.237 38.0474 130.523 40 125 40L20 40C14.4772 40 9.76311 38.0474 5.85786 34.1421C1.95262 30.2369 0 25.5229 0 20L0 20Z" fill="#000000" fill-rule="evenodd" transform="translate(143 28)" />
    <g transform="translate(157 41.739)">
      <path d="M6.8267 5.07955L4.53835 11.625L2.4929 11.625L0.204545 5.07955L2.12216 5.07955L3.48153 9.76278L3.54972 9.76278L4.90483 5.07955L6.8267 5.07955ZM10.5213 11.7528Q9.51563 11.7528 8.78693 11.3416Q8.05824 10.9304 7.66619 10.174Q7.27415 9.41761 7.27415 8.3821Q7.27415 7.37216 7.66619 6.60938Q8.05824 5.84659 8.77202 5.42045Q9.4858 4.99432 10.4489 4.99432Q11.3139 4.99432 12.0107 5.3608Q12.7074 5.72727 13.1165 6.46662Q13.5256 7.20597 13.5256 8.31818L13.5256 8.81676L9.06818 8.81676L9.06818 8.82102Q9.06818 9.55398 9.46875 9.97585Q9.86932 10.3977 10.5511 10.3977Q11.0071 10.3977 11.3395 10.206Q11.6719 10.0142 11.8082 9.6392L13.4872 9.75Q13.2955 10.6619 12.5156 11.2074Q11.7358 11.7528 10.5213 11.7528ZM9.06818 7.69176L11.8168 7.69176Q11.8125 7.10795 11.4418 6.72869Q11.071 6.34943 10.4787 6.34943Q9.87358 6.34943 9.4858 6.74148Q9.09801 7.13352 9.06818 7.69176ZM20.5313 5.71875Q20.3565 5.10511 19.8857 4.75781Q19.4148 4.41051 18.7031 4.41051Q17.7017 4.41051 17.0817 5.14986Q16.4616 5.8892 16.4616 7.25284Q16.4616 8.62074 17.071 9.36648Q17.6804 10.1122 18.7202 10.1122Q19.6406 10.1122 20.1669 9.63281Q20.6932 9.15341 20.7102 8.34375L18.8352 8.34375L18.8352 6.95455L22.4872 6.95455L22.4872 8.05398Q22.4872 9.20028 22.0014 10.0291Q21.5156 10.858 20.6655 11.3011Q19.8153 11.7443 18.7116 11.7443Q17.4844 11.7443 16.5554 11.201Q15.6264 10.6577 15.1087 9.65412Q14.5909 8.65057 14.5909 7.26989Q14.5909 5.85511 15.1321 4.84943Q15.6733 3.84375 16.598 3.31108Q17.5227 2.77841 18.6733 2.77841Q19.6619 2.77841 20.4631 3.15341Q21.2642 3.52841 21.7756 4.19105Q22.2869 4.85369 22.4063 5.71875L20.5313 5.71875ZM23.8722 11.625L23.8722 2.89773L25.7173 2.89773L25.7173 10.1037L29.4588 10.1037L29.4588 11.625L23.8722 11.625ZM38.3608 7.26136Q38.3608 8.68892 37.8217 9.69034Q37.2827 10.6918 36.358 11.218Q35.4332 11.7443 34.2741 11.7443Q33.1108 11.7443 32.1861 11.2159Q31.2614 10.6875 30.7244 9.68395Q30.1875 8.6804 30.1875 7.26136Q30.1875 5.83381 30.7244 4.83239Q31.2614 3.83097 32.1861 3.30469Q33.1108 2.77841 34.2741 2.77841Q35.4332 2.77841 36.358 3.30469Q37.2827 3.83097 37.8217 4.83239Q38.3608 5.83381 38.3608 7.26136ZM36.4901 7.26136Q36.4901 5.87216 35.8849 5.14133Q35.2798 4.41051 34.2741 4.41051Q33.2685 4.41051 32.6634 5.14133Q32.0582 5.87216 32.0582 7.26136Q32.0582 8.64631 32.6634 9.37926Q33.2685 10.1122 34.2741 10.1122Q35.2798 10.1122 35.8849 9.37926Q36.4901 8.64631 36.4901 7.26136ZM47.7443 7.26136Q47.7443 8.68892 47.2053 9.69034Q46.6662 10.6918 45.7415 11.218Q44.8168 11.7443 43.6577 11.7443Q42.4943 11.7443 41.5696 11.2159Q40.6449 10.6875 40.108 9.68395Q39.571 8.6804 39.571 7.26136Q39.571 5.83381 40.108 4.83239Q40.6449 3.83097 41.5696 3.30469Q42.4943 2.77841 43.6577 2.77841Q44.8168 2.77841 45.7415 3.30469Q46.6662 3.83097 47.2053 4.83239Q47.7443 5.83381 47.7443 7.26136ZM45.8736 7.26136Q45.8736 5.87216 45.2685 5.14133Q44.6634 4.41051 43.6577 4.41051Q42.652 4.41051 42.0469 5.14133Q41.4418 5.87216 41.4418 7.26136Q41.4418 8.64631 42.0469 9.37926Q42.652 10.1122 43.6577 10.1122Q44.6634 10.1122 45.2685 9.37926Q45.8736 8.64631 45.8736 7.26136ZM49.108 2.89773L51.3835 2.89773L53.7869 8.76136L53.8892 8.76136L56.2926 2.89773L58.5682 2.89773L58.5682 11.625L56.7784 11.625L56.7784 5.9446L56.706 5.9446L54.4474 11.5824L53.2287 11.5824L50.9702 5.9233L50.8977 5.9233L50.8977 11.625L49.108 11.625L49.108 2.89773ZM64.4446 2.89773L66.554 9.52841L66.6349 9.52841L68.7486 2.89773L70.794 2.89773L67.7855 11.625L65.4077 11.625L62.3949 2.89773L64.4446 2.89773ZM79.3722 7.26136Q79.3722 8.68892 78.8331 9.69034Q78.294 10.6918 77.3693 11.218Q76.4446 11.7443 75.2855 11.7443Q74.1222 11.7443 73.1974 11.2159Q72.2727 10.6875 71.7358 9.68395Q71.1989 8.6804 71.1989 7.26136Q71.1989 5.83381 71.7358 4.83239Q72.2727 3.83097 73.1974 3.30469Q74.1222 2.77841 75.2855 2.77841Q76.4446 2.77841 77.3693 3.30469Q78.294 3.83097 78.8331 4.83239Q79.3722 5.83381 79.3722 7.26136ZM77.5014 7.26136Q77.5014 5.87216 76.8963 5.14133Q76.2912 4.41051 75.2855 4.41051Q74.2798 4.41051 73.6747 5.14133Q73.0696 5.87216 73.0696 7.26136Q73.0696 8.64631 73.6747 9.37926Q74.2798 10.1122 75.2855 10.1122Q76.2912 10.1122 76.8963 9.37926Q77.5014 8.64631 77.5014 7.26136ZM80.0156 4.41903L80.0156 2.89773L87.1832 2.89773L87.1832 4.41903L84.5114 4.41903L84.5114 11.625L82.6875 11.625L82.6875 4.41903L80.0156 4.41903ZM88.3679 11.625L88.3679 2.89773L94.2486 2.89773L94.2486 4.41903L90.2131 4.41903L90.2131 6.49858L93.946 6.49858L93.946 8.01989L90.2131 8.01989L90.2131 10.1037L94.2656 10.1037L94.2656 11.625L88.3679 11.625ZM95.7188 11.625L95.7188 2.89773L99.1619 2.89773Q100.649 2.89773 101.469 3.6733Q102.29 4.44886 102.29 5.74858Q102.29 6.64347 101.891 7.27841Q101.493 7.91335 100.747 8.23295L102.601 11.625L100.564 11.625L98.9105 8.53125L97.5639 8.53125L97.5639 11.625L95.7188 11.625ZM97.5639 7.0483L98.8168 7.0483Q100.389 7.0483 100.389 5.74858Q100.389 4.40625 98.8083 4.40625L97.5639 4.40625L97.5639 7.0483ZM108.328 5.40767Q108.277 4.89205 107.887 4.60653Q107.497 4.32102 106.837 4.32102Q106.159 4.32102 105.797 4.59801Q105.435 4.875 105.435 5.29688Q105.426 5.76563 105.837 6.00639Q106.249 6.24716 106.815 6.37926L107.599 6.56676Q108.358 6.73722 108.948 7.06108Q109.538 7.38494 109.877 7.89418Q110.216 8.40341 110.216 9.1321Q110.212 10.3295 109.319 11.0391Q108.426 11.7486 106.828 11.7486Q105.239 11.7486 104.293 11.0241Q103.347 10.2997 103.313 8.88494L105.098 8.88494Q105.145 9.54119 105.616 9.87145Q106.087 10.2017 106.807 10.2017Q107.51 10.2017 107.93 9.90341Q108.349 9.60511 108.354 9.12784Q108.349 8.68466 107.966 8.44602Q107.582 8.20739 106.871 8.03693L105.92 7.7983Q104.817 7.53409 104.178 6.95881Q103.538 6.38352 103.543 5.42045Q103.538 4.62784 103.967 4.03338Q104.395 3.43892 105.145 3.10866Q105.895 2.77841 106.849 2.77841Q107.821 2.77841 108.548 3.1108Q109.274 3.44318 109.679 4.03551Q110.084 4.62784 110.097 5.40767L108.328 5.40767Z" fill="#000000" />
    </g>
    <path d="M0 20C0 14.4772 1.95262 9.76311 5.85786 5.85786C9.76311 1.95262 14.4772 0 20 0L85 0C90.5229 0 95.2369 1.95262 99.1421 5.85786C103.047 9.76311 105 14.4772 105 20C105 25.5229 103.047 30.2369 99.1421 34.1421C95.2369 38.0474 90.5229 40 85 40L20 40C14.4772 40 9.76311 38.0474 5.85786 34.1421C1.95262 30.2369 0 25.5229 0 20L0 20Z" fill="#000000" fill-rule="evenodd" transform="translate(1 206)" />
    <g transform="translate(25 218.739)">
      <path d="M0.426136 4.41903L0.426136 2.89773L7.59375 2.89773L7.59375 4.41903L4.92188 4.41903L4.92188 11.625L3.09801 11.625L3.09801 4.41903L0.426136 4.41903ZM8.77841 11.625L8.77841 2.89773L12.2216 2.89773Q13.7088 2.89773 14.5291 3.6733Q15.3494 4.44886 15.3494 5.74858Q15.3494 6.64347 14.951 7.27841Q14.5526 7.91335 13.8068 8.23295L15.6605 11.625L13.6236 11.625L11.9702 8.53125L10.6236 8.53125L10.6236 11.625L8.77841 11.625ZM10.6236 7.0483L11.8764 7.0483Q13.4489 7.0483 13.4489 5.74858Q13.4489 4.40625 11.8679 4.40625L10.6236 4.40625L10.6236 7.0483ZM18.1577 11.625L16.1804 11.625L19.1932 2.89773L21.571 2.89773L24.5795 11.625L22.6023 11.625L21.9545 9.63494L18.8054 9.63494L18.1577 11.625ZM19.2741 8.1946L21.4901 8.1946L20.4162 4.89205L20.348 4.89205L19.2741 8.1946ZM28.7216 11.625L25.6278 11.625L25.6278 2.89773L28.7472 2.89773Q30.0639 2.89773 31.0163 3.41974Q31.9688 3.94176 32.4801 4.91761Q32.9915 5.89347 32.9915 7.25284Q32.9915 8.61648 32.478 9.59659Q31.9645 10.5767 31.0078 11.1009Q30.0511 11.625 28.7216 11.625ZM27.473 10.044L28.6449 10.044Q29.8764 10.044 30.5135 9.37926Q31.1506 8.71449 31.1506 7.25284Q31.1506 5.79972 30.5135 5.1392Q29.8764 4.47869 28.6491 4.47869L27.473 4.47869L27.473 10.044ZM34.3551 11.625L34.3551 2.89773L40.2358 2.89773L40.2358 4.41903L36.2003 4.41903L36.2003 6.49858L39.9332 6.49858L39.9332 8.01989L36.2003 8.01989L36.2003 10.1037L40.2528 10.1037L40.2528 11.625L34.3551 11.625ZM41.706 11.625L41.706 2.89773L45.1492 2.89773Q46.6364 2.89773 47.4567 3.6733Q48.277 4.44886 48.277 5.74858Q48.277 6.64347 47.8786 7.27841Q47.4801 7.91335 46.7344 8.23295L48.5881 11.625L46.5511 11.625L44.8977 8.53125L43.5511 8.53125L43.5511 11.625L41.706 11.625ZM43.5511 7.0483L44.804 7.0483Q46.3764 7.0483 46.3764 5.74858Q46.3764 4.40625 44.7955 4.40625L43.5511 4.40625L43.5511 7.0483ZM54.3153 5.40767Q54.2642 4.89205 53.8743 4.60653Q53.4844 4.32102 52.8239 4.32102Q52.1463 4.32102 51.7841 4.59801Q51.4219 4.875 51.4219 5.29688Q51.4134 5.76563 51.8246 6.00639Q52.2358 6.24716 52.8026 6.37926L53.5867 6.56676Q54.3452 6.73722 54.9354 7.06108Q55.5256 7.38494 55.8643 7.89418Q56.2031 8.40341 56.2031 9.1321Q56.1989 10.3295 55.3061 11.0391Q54.4134 11.7486 52.8153 11.7486Q51.2259 11.7486 50.2798 11.0241Q49.3338 10.2997 49.2997 8.88494L51.0852 8.88494Q51.1321 9.54119 51.603 9.87145Q52.0739 10.2017 52.794 10.2017Q53.4972 10.2017 53.9169 9.90341Q54.3367 9.60511 54.3409 9.12784Q54.3367 8.68466 53.9531 8.44602Q53.5696 8.20739 52.858 8.03693L51.9077 7.7983Q50.804 7.53409 50.1648 6.95881Q49.5256 6.38352 49.5298 5.42045Q49.5256 4.62784 49.9538 4.03338Q50.3821 3.43892 51.1321 3.10866Q51.8821 2.77841 52.8367 2.77841Q53.8082 2.77841 54.5348 3.1108Q55.2614 3.44318 55.6662 4.03551Q56.071 4.62784 56.0838 5.40767L54.3153 5.40767Z" fill="#000000" />
    </g>
    <path d="M0 20C0 14.4772 1.95261 9.76311 5.85785 5.85786C9.76309 1.95262 14.4771 0 20 0L103 0C108.523 0 113.237 1.95262 117.142 5.85786C121.047 9.76311 123 14.4772 123 20C123 25.5229 121.047 30.2369 117.142 34.1421C113.237 38.0474 108.523 40 103 40L20 40C14.4771 40 9.76309 38.0474 5.85785 34.1421C1.95261 30.2369 0 25.5229 0 20L0 20Z" fill="#000000" fill-rule="evenodd" transform="translate(431 149)" />
    <g transform="translate(455 161.739)">
      <path d="M0.758523 11.625L0.758523 2.89773L4.2017 2.89773Q5.1946 2.89773 5.89347 3.27486Q6.59233 3.65199 6.96094 4.31889Q7.32955 4.9858 7.32955 5.85511Q7.32955 6.72443 6.95455 7.38707Q6.57955 8.04972 5.87003 8.42258Q5.16051 8.79545 4.15483 8.79545L2.60369 8.79545L2.60369 11.625L0.758523 11.625ZM2.60369 7.31676L3.85653 7.31676Q4.64915 7.31676 5.03906 6.9098Q5.42898 6.50284 5.42898 5.85511Q5.42898 5.20313 5.03906 4.80469Q4.64915 4.40625 3.84801 4.40625L2.60369 4.40625L2.60369 7.31676ZM8.53125 11.625L8.53125 2.89773L11.9744 2.89773Q13.4616 2.89773 14.282 3.6733Q15.1023 4.44886 15.1023 5.74858Q15.1023 6.64347 14.7038 7.27841Q14.3054 7.91335 13.5597 8.23295L15.4134 11.625L13.3764 11.625L11.723 8.53125L10.3764 8.53125L10.3764 11.625L8.53125 11.625ZM10.3764 7.0483L11.6293 7.0483Q13.2017 7.0483 13.2017 5.74858Q13.2017 4.40625 11.6207 4.40625L10.3764 4.40625L10.3764 7.0483ZM24.4261 7.26136Q24.4261 8.68892 23.8871 9.69034Q23.348 10.6918 22.4233 11.218Q21.4986 11.7443 20.3395 11.7443Q19.1761 11.7443 18.2514 11.2159Q17.3267 10.6875 16.7898 9.68395Q16.2528 8.6804 16.2528 7.26136Q16.2528 5.83381 16.7898 4.83239Q17.3267 3.83097 18.2514 3.30469Q19.1761 2.77841 20.3395 2.77841Q21.4986 2.77841 22.4233 3.30469Q23.348 3.83097 23.8871 4.83239Q24.4261 5.83381 24.4261 7.26136ZM22.5554 7.26136Q22.5554 5.87216 21.9503 5.14133Q21.3452 4.41051 20.3395 4.41051Q19.3338 4.41051 18.7287 5.14133Q18.1236 5.87216 18.1236 7.26136Q18.1236 8.64631 18.7287 9.37926Q19.3338 10.1122 20.3395 10.1122Q21.3452 10.1122 21.9503 9.37926Q22.5554 8.64631 22.5554 7.26136ZM25.0696 4.41903L25.0696 2.89773L32.2372 2.89773L32.2372 4.41903L29.5653 4.41903L29.5653 11.625L27.7415 11.625L27.7415 4.41903L25.0696 4.41903ZM41.054 7.26136Q41.054 8.68892 40.5149 9.69034Q39.9759 10.6918 39.0511 11.218Q38.1264 11.7443 36.9673 11.7443Q35.804 11.7443 34.8793 11.2159Q33.9545 10.6875 33.4176 9.68395Q32.8807 8.6804 32.8807 7.26136Q32.8807 5.83381 33.4176 4.83239Q33.9545 3.83097 34.8793 3.30469Q35.804 2.77841 36.9673 2.77841Q38.1264 2.77841 39.0511 3.30469Q39.9759 3.83097 40.5149 4.83239Q41.054 5.83381 41.054 7.26136ZM39.1832 7.26136Q39.1832 5.87216 38.5781 5.14133Q37.973 4.41051 36.9673 4.41051Q35.9617 4.41051 35.3565 5.14133Q34.7514 5.87216 34.7514 7.26136Q34.7514 8.64631 35.3565 9.37926Q35.9617 10.1122 36.9673 10.1122Q37.973 10.1122 38.5781 9.37926Q39.1832 8.64631 39.1832 7.26136ZM50.1179 5.95313L48.2514 5.95313Q48.1449 5.23295 47.6378 4.82173Q47.1307 4.41051 46.3722 4.41051Q45.358 4.41051 44.7464 5.15412Q44.1349 5.89773 44.1349 7.26136Q44.1349 8.65909 44.7507 9.38565Q45.3665 10.1122 46.3594 10.1122Q47.0966 10.1122 47.608 9.72656Q48.1193 9.34091 48.2514 8.64205L50.1179 8.65057Q50.0199 9.4517 49.5469 10.1591Q49.0739 10.8665 48.2621 11.3054Q47.4503 11.7443 46.3295 11.7443Q45.1619 11.7443 44.2436 11.2159Q43.3253 10.6875 42.7947 9.68608Q42.2642 8.68466 42.2642 7.26136Q42.2642 5.83381 42.8011 4.83239Q43.3381 3.83097 44.2585 3.30469Q45.179 2.77841 46.3295 2.77841Q47.3395 2.77841 48.1513 3.15128Q48.9631 3.52415 49.4808 4.23366Q49.9986 4.94318 50.1179 5.95313ZM59.4631 7.26136Q59.4631 8.68892 58.924 9.69034Q58.3849 10.6918 57.4602 11.218Q56.5355 11.7443 55.3764 11.7443Q54.2131 11.7443 53.2884 11.2159Q52.3636 10.6875 51.8267 9.68395Q51.2898 8.6804 51.2898 7.26136Q51.2898 5.83381 51.8267 4.83239Q52.3636 3.83097 53.2884 3.30469Q54.2131 2.77841 55.3764 2.77841Q56.5355 2.77841 57.4602 3.30469Q58.3849 3.83097 58.924 4.83239Q59.4631 5.83381 59.4631 7.26136ZM57.5923 7.26136Q57.5923 5.87216 56.9872 5.14133Q56.3821 4.41051 55.3764 4.41051Q54.3707 4.41051 53.7656 5.14133Q53.1605 5.87216 53.1605 7.26136Q53.1605 8.64631 53.7656 9.37926Q54.3707 10.1122 55.3764 10.1122Q56.3821 10.1122 56.9872 9.37926Q57.5923 8.64631 57.5923 7.26136ZM60.8267 11.625L60.8267 2.89773L62.6719 2.89773L62.6719 10.1037L66.4134 10.1037L66.4134 11.625L60.8267 11.625ZM72.3707 5.40767Q72.3196 4.89205 71.9297 4.60653Q71.5398 4.32102 70.8793 4.32102Q70.2017 4.32102 69.8395 4.59801Q69.4773 4.875 69.4773 5.29688Q69.4688 5.76563 69.88 6.00639Q70.2912 6.24716 70.858 6.37926L71.6421 6.56676Q72.4006 6.73722 72.9908 7.06108Q73.581 7.38494 73.9197 7.89418Q74.2585 8.40341 74.2585 9.1321Q74.2543 10.3295 73.3615 11.0391Q72.4688 11.7486 70.8707 11.7486Q69.2813 11.7486 68.3352 11.0241Q67.3892 10.2997 67.3551 8.88494L69.1406 8.88494Q69.1875 9.54119 69.6584 9.87145Q70.1293 10.2017 70.8494 10.2017Q71.5526 10.2017 71.9723 9.90341Q72.3921 9.60511 72.3963 9.12784Q72.3921 8.68466 72.0085 8.44602Q71.625 8.20739 70.9134 8.03693L69.9631 7.7983Q68.8594 7.53409 68.2202 6.95881Q67.581 6.38352 67.5852 5.42045Q67.581 4.62784 68.0092 4.03338Q68.4375 3.43892 69.1875 3.10866Q69.9375 2.77841 70.8921 2.77841Q71.8636 2.77841 72.5902 3.1108Q73.3168 3.44318 73.7216 4.03551Q74.1264 4.62784 74.1392 5.40767L72.3707 5.40767Z" fill="#000000" />
    </g>
    <path d="M0 20C0 14.4771 1.95262 9.76309 5.85786 5.85785C9.76311 1.95261 14.4772 0 20 0L52 0C57.5229 0 62.2369 1.95261 66.1422 5.85785C70.0474 9.76309 72 14.4771 72 20C72 25.5229 70.0474 30.2369 66.1422 34.1422C62.2369 38.0474 57.5229 40 52 40L20 40C14.4772 40 9.76311 38.0474 5.85786 34.1422C1.95262 30.2369 0 25.5229 0 20L0 20Z" fill="#000000" fill-rule="evenodd" transform="translate(222 357)" />
    <g transform="translate(246 369.739)">
      <path d="M0.758523 11.625L0.758523 2.89773L2.60369 2.89773L2.60369 10.1037L6.34517 10.1037L6.34517 11.625L0.758523 11.625ZM7.56818 11.625L7.56818 2.89773L11.0114 2.89773Q12.0043 2.89773 12.7031 3.27486Q13.402 3.65199 13.7706 4.31889Q14.1392 4.9858 14.1392 5.85511Q14.1392 6.72443 13.7642 7.38707Q13.3892 8.04972 12.6797 8.42258Q11.9702 8.79545 10.9645 8.79545L9.41335 8.79545L9.41335 11.625L7.56818 11.625ZM9.41335 7.31676L10.6662 7.31676Q11.4588 7.31676 11.8487 6.9098Q12.2386 6.50284 12.2386 5.85511Q12.2386 5.20313 11.8487 4.80469Q11.4588 4.40625 10.6577 4.40625L9.41335 4.40625L9.41335 7.31676ZM16.8281 2.89773L16.8281 3.81818Q16.8281 4.20597 16.6768 4.61506Q16.5256 5.02415 16.2763 5.38423Q16.027 5.74432 15.7244 5.99574L14.9233 5.52273Q15.1364 5.18182 15.3004 4.77486Q15.4645 4.3679 15.4645 3.8267L15.4645 2.89773L16.8281 2.89773ZM22.6705 6.94602L21.0085 7.0483Q20.9403 6.73295 20.6634 6.5071Q20.3864 6.28125 19.9134 6.28125Q19.4915 6.28125 19.1996 6.4581Q18.9077 6.63494 18.9119 6.92898Q18.9077 7.16335 19.0973 7.32528Q19.2869 7.48722 19.7429 7.58523L20.9276 7.82386Q22.8153 8.21165 22.8196 9.59659Q22.8196 10.2401 22.4425 10.7259Q22.0653 11.2116 21.4091 11.4822Q20.7528 11.7528 19.9048 11.7528Q18.6051 11.7528 17.8338 11.2095Q17.0625 10.6662 16.9347 9.72869L18.7202 9.63494Q18.8054 10.0355 19.1143 10.2401Q19.4233 10.4446 19.9091 10.4446Q20.3864 10.4446 20.6783 10.2571Q20.9702 10.0696 20.9744 9.77983Q20.9616 9.29403 20.1349 9.12784L19.0014 8.90199Q17.1009 8.52273 17.1094 7.03125Q17.1051 6.08523 17.8658 5.53977Q18.6264 4.99432 19.8835 4.99432Q21.1236 4.99432 21.8374 5.51847Q22.5511 6.04261 22.6705 6.94602Z" fill="#000000" />
    </g>
  </g>
</svg>