<svg xmlns="http://www.w3.org/2000/svg" xmlns:xlink="http://www.w3.org/1999/xlink" width="383" zoomAndPan="magnify" viewBox="0 0 287.25 299.999988" height="400" preserveAspectRatio="xMidYMid meet" version="1.0"><path fill="#ff690b" d="M 149.882812 170.457031 C 149.261719 215.46875 118.578125 237.734375 138.660156 239.84375 C 180.210938 244.210938 202.742188 227.164062 192.519531 203.648438 C 182.292969 180.132812 165.269531 216.121094 149.882812 170.457031 Z M 128.855469 165.976562 C 89.566406 187.945312 54.9375 172.511719 63.152344 190.957031 C 80.144531 229.125 106.171875 240.109375 121.429688 219.5 C 136.683594 198.886719 97.003906 202.136719 128.855469 165.976562 Z M 164.273438 154.488281 C 202.945312 177.53125 206.882812 215.234375 218.75 198.898438 C 243.308594 165.101562 239.816406 137.0625 214.335938 134.164062 C 188.855469 131.253906 211.515625 163.992188 164.273438 154.488281 Z M 122.222656 145.535156 C 83.550781 122.484375 79.609375 84.78125 67.746094 101.121094 C 43.183594 134.917969 46.679688 162.953125 72.160156 165.859375 C 97.636719 168.765625 74.980469 136.023438 122.222656 145.535156 Z M 157.640625 134.039062 C 196.929688 112.070312 231.558594 127.511719 223.34375 109.0625 C 206.347656 70.898438 180.324219 59.90625 165.066406 80.523438 C 149.8125 101.132812 189.492188 97.878906 157.640625 134.039062 Z M 136.613281 129.5625 C 137.234375 84.546875 167.917969 62.28125 147.835938 60.171875 C 106.285156 55.808594 83.753906 72.851562 93.976562 96.367188 C 104.203125 119.886719 121.226562 83.898438 136.613281 129.5625 Z M 136.613281 129.5625 " fill-opacity="1" fill-rule="evenodd"/><path fill="#fd9e2b" d="M 149.882812 170.457031 C 149.261719 215.46875 118.578125 237.734375 138.660156 239.84375 C 180.210938 244.210938 202.742188 227.164062 192.519531 203.648438 C 182.292969 180.132812 165.269531 216.121094 149.882812 170.457031 Z M 128.855469 165.976562 C 89.566406 187.945312 54.9375 172.511719 63.152344 190.957031 C 80.144531 229.125 106.171875 240.109375 121.429688 219.5 C 136.683594 198.886719 97.003906 202.136719 128.855469 165.976562 Z M 164.273438 154.488281 C 202.945312 177.53125 206.882812 215.234375 218.75 198.898438 C 243.308594 165.101562 239.816406 137.0625 214.335938 134.164062 C 188.855469 131.253906 211.515625 163.992188 164.273438 154.488281 Z M 122.222656 145.535156 C 83.550781 122.484375 79.609375 84.78125 67.746094 101.121094 C 43.183594 134.917969 46.679688 162.953125 72.160156 165.859375 C 97.636719 168.765625 74.980469 136.023438 122.222656 145.535156 Z M 157.640625 134.039062 C 196.929688 112.070312 231.558594 127.511719 223.34375 109.0625 C 206.347656 70.898438 180.324219 59.90625 165.066406 80.523438 C 149.8125 101.132812 189.492188 97.878906 157.640625 134.039062 Z M 136.613281 129.5625 C 137.234375 84.546875 167.917969 62.28125 147.835938 60.171875 C 106.285156 55.808594 83.753906 72.851562 93.976562 96.367188 C 104.203125 119.886719 121.226562 83.898438 136.613281 129.5625 Z M 136.613281 129.5625 " fill-opacity="1" fill-rule="evenodd"/></svg>