<svg xmlns="http://www.w3.org/2000/svg" xmlns:xlink="http://www.w3.org/1999/xlink" width="400" zoomAndPan="magnify" viewBox="0 0 300 287.25" height="383" preserveAspectRatio="xMidYMid meet" version="1.0"><path fill="#1976d2" d="M 133.785156 92.554688 C 136.578125 92.554688 138.855469 90.277344 138.855469 87.539062 C 138.855469 84.804688 136.578125 82.46875 133.785156 82.46875 C 130.992188 82.46875 128.769531 84.75 128.769531 87.539062 C 128.769531 90.332031 130.992188 92.554688 133.785156 92.554688 Z M 133.785156 85.316406 C 134.980469 85.316406 136.007812 86.285156 136.007812 87.539062 C 136.007812 88.738281 135.039062 89.761719 133.785156 89.761719 C 132.585938 89.761719 131.5625 88.792969 131.5625 87.539062 C 131.617188 86.34375 132.585938 85.316406 133.785156 85.316406 Z M 116.402344 131.253906 C 113.609375 131.253906 111.328125 133.535156 111.328125 136.269531 C 111.328125 139.0625 113.609375 141.285156 116.402344 141.285156 C 119.195312 141.285156 121.417969 139.003906 121.417969 136.269531 C 121.472656 133.476562 119.195312 131.253906 116.402344 131.253906 Z M 116.402344 138.492188 C 115.203125 138.492188 114.179688 137.523438 114.179688 136.269531 C 114.179688 135.074219 115.148438 134.046875 116.402344 134.046875 C 117.597656 134.046875 118.625 135.015625 118.625 136.269531 C 118.625 137.523438 117.65625 138.492188 116.402344 138.492188 Z M 136.578125 191.324219 C 133.785156 191.324219 131.5625 193.605469 131.5625 196.398438 C 131.5625 199.1875 133.839844 201.410156 136.578125 201.410156 C 139.371094 201.410156 141.59375 199.132812 141.59375 196.398438 C 141.59375 193.660156 139.371094 191.324219 136.578125 191.324219 Z M 136.578125 198.5625 C 135.378906 198.5625 134.355469 197.59375 134.355469 196.339844 C 134.355469 195.085938 135.324219 194.117188 136.578125 194.117188 C 137.773438 194.117188 138.800781 195.085938 138.800781 196.339844 C 138.800781 197.59375 137.773438 198.5625 136.578125 198.5625 Z M 129.679688 118.429688 C 129.679688 115.636719 127.402344 113.359375 124.664062 113.359375 C 121.875 113.359375 119.59375 115.636719 119.59375 118.429688 C 119.59375 121.222656 121.875 123.445312 124.664062 123.445312 C 127.402344 123.445312 129.679688 121.222656 129.679688 118.429688 Z M 122.441406 118.429688 C 122.441406 117.234375 123.410156 116.207031 124.664062 116.207031 C 125.863281 116.207031 126.886719 117.175781 126.886719 118.429688 C 126.886719 119.628906 125.917969 120.652344 124.664062 120.652344 C 123.410156 120.652344 122.441406 119.628906 122.441406 118.429688 Z M 147.40625 189.613281 C 150.769531 189.613281 153.5625 186.878906 153.5625 183.460938 C 153.5625 180.097656 150.824219 177.304688 147.40625 177.304688 C 143.984375 177.304688 141.25 180.039062 141.25 183.460938 C 141.308594 186.820312 144.042969 189.613281 147.40625 189.613281 Z M 147.40625 180.152344 C 149.230469 180.152344 150.710938 181.636719 150.710938 183.460938 C 150.710938 185.28125 149.230469 186.765625 147.40625 186.765625 C 145.582031 186.765625 144.101562 185.28125 144.101562 183.460938 C 144.15625 181.636719 145.640625 180.152344 147.40625 180.152344 Z M 241.613281 174.851562 C 239.222656 164.082031 237.339844 153.652344 239.449219 150.746094 C 239.789062 150.234375 240.246094 150.003906 240.988281 149.949219 C 241.5 149.890625 241.898438 149.605469 242.128906 149.148438 C 242.355469 148.695312 242.296875 148.179688 242.011719 147.726562 C 241.957031 147.667969 238.023438 142.027344 230.730469 144.761719 C 227.253906 137.296875 223.320312 130.742188 220.414062 125.839844 C 219.214844 123.84375 218.191406 122.078125 217.335938 120.652344 C 214.257812 115.125 216.425781 111.933594 216.480469 111.820312 C 216.878906 111.304688 216.878906 110.566406 216.425781 110.054688 C 216.023438 109.539062 215.285156 109.367188 214.714844 109.710938 C 212.949219 110.621094 211.464844 111.589844 210.15625 112.617188 C 208.332031 110.792969 203.429688 105.4375 198.242188 95.863281 C 193.796875 87.539062 194.367188 83.378906 195.449219 82.183594 C 195.851562 81.785156 196.304688 81.671875 196.875 81.898438 C 197.332031 82.125 197.902344 82.011719 198.300781 81.726562 C 198.699219 81.441406 198.925781 80.929688 198.871094 80.417969 C 198.8125 79.847656 198.128906 74.773438 195.164062 72.78125 C 194.195312 72.09375 193 71.867188 191.804688 72.039062 C 190.890625 71.296875 188.953125 70.101562 186.503906 70.15625 C 185.25 70.214844 184.109375 70.558594 183.027344 71.183594 C 181.773438 69.703125 178.410156 65.257812 174.761719 56.59375 C 173.453125 53.515625 173.28125 51.007812 174.25 49.753906 C 175.046875 48.785156 176.246094 48.84375 176.757812 48.898438 C 177.953125 49.070312 178.980469 49.8125 179.320312 50.78125 C 179.492188 51.238281 179.890625 51.578125 180.347656 51.636719 C 180.804688 51.75 181.316406 51.578125 181.660156 51.292969 C 185.421875 47.703125 185.191406 42.460938 183.027344 39.210938 C 181.203125 36.417969 178.296875 35.335938 175.558594 36.476562 C 172.3125 37.84375 170.203125 37.613281 169.347656 36.988281 C 169.175781 36.875 168.605469 36.476562 168.664062 35.335938 C 168.722656 34.082031 169.460938 33.570312 169.859375 33.339844 C 170.261719 33.113281 170.660156 33.113281 170.886719 33.113281 C 170.945312 33.113281 171 33.113281 171 33.113281 C 171.285156 33.738281 171.914062 34.082031 172.597656 33.910156 C 173.222656 33.796875 173.738281 33.226562 173.738281 32.542969 C 173.738281 32.371094 173.792969 28.667969 171.34375 26.386719 C 169.859375 25.019531 167.921875 24.507812 165.472656 24.734375 C 161.253906 25.191406 156.695312 28.554688 154.1875 33.167969 C 151.109375 38.8125 151.222656 45.539062 154.585938 52.089844 C 159.144531 61.152344 159.089844 66.625 157.609375 67.648438 C 156.640625 68.277344 155.839844 67.648438 155.554688 67.367188 C 155.101562 66.910156 154.871094 66.28125 155.042969 65.996094 C 155.328125 65.597656 155.328125 65.027344 155.101562 64.574219 C 154.871094 64.117188 154.414062 63.832031 153.902344 63.773438 C 153.789062 63.773438 150.597656 63.605469 148.660156 65.769531 C 147.40625 67.195312 147.0625 69.132812 147.519531 71.582031 C 149.058594 79.390625 157.152344 82.980469 161.882812 84.464844 C 164.21875 85.148438 165.585938 86.570312 165.699219 88.222656 C 165.757812 89.308594 165.246094 90.21875 164.789062 90.503906 C 164.046875 90.847656 163.25 90.847656 162.566406 90.503906 C 161.824219 90.105469 161.367188 89.421875 161.199219 88.453125 C 161.085938 87.824219 160.515625 87.3125 159.886719 87.3125 C 159.261719 87.253906 158.632812 87.710938 158.460938 88.339844 C 158.234375 89.023438 153.789062 105.550781 180.40625 119.683594 C 177.269531 122.421875 176.128906 126.238281 177.15625 130.171875 C 176.128906 130.570312 175.105469 131.3125 174.191406 132.335938 C 172.425781 134.445312 171.113281 138.035156 171.855469 142.367188 C 156.296875 122.933594 151.792969 113.929688 149.058594 104.238281 C 148.203125 101.277344 148.433594 98.996094 149.6875 97.855469 C 150.484375 97.117188 151.625 97.058594 152.363281 97.34375 C 152.648438 97.457031 153.164062 97.742188 153.164062 98.199219 C 153.21875 98.710938 153.5625 99.222656 154.074219 99.394531 C 154.585938 99.566406 155.15625 99.453125 155.554688 99.109375 C 156.980469 97.742188 157.492188 95.632812 156.808594 93.46875 C 156.125 91.132812 153.902344 88.339844 149.742188 87.597656 C 146.550781 87.085938 141.820312 88.453125 138.285156 92.785156 C 135.378906 96.316406 131.449219 104.46875 136.863281 119.457031 C 134.695312 120.710938 133.15625 122.589844 132.472656 124.8125 C 131.960938 126.582031 131.734375 129.257812 133.441406 132.566406 C 129.851562 134.046875 122.386719 138.835938 123.128906 153.195312 C 123.582031 162.316406 130.195312 167.273438 136.121094 168.128906 C 140.511719 168.753906 144.042969 167.046875 145.125 163.910156 C 145.296875 163.453125 145.183594 162.941406 144.898438 162.542969 C 144.554688 162.144531 144.101562 161.972656 143.585938 162.03125 C 141.707031 162.257812 141.25 161.515625 141.078125 161.230469 C 140.394531 160.09375 140.738281 157.925781 141.820312 156.5 C 142.675781 155.363281 144.726562 154.222656 147.234375 154.449219 C 150.199219 154.679688 156.070312 156.785156 162.394531 168.640625 C 168.039062 179.128906 168.039062 191.4375 167.867188 194.914062 C 164.730469 194.574219 161.824219 196.167969 161.710938 196.226562 C 161.253906 196.511719 160.96875 196.964844 160.96875 197.535156 C 160.96875 198.050781 161.3125 198.5625 161.824219 198.789062 C 163.535156 199.589844 164.503906 200.671875 164.503906 201.867188 C 164.5625 202.949219 163.820312 204.148438 162.738281 204.71875 C 162.222656 205.003906 161.199219 205.34375 160.117188 204.605469 C 157.722656 202.894531 151.507812 199.472656 145.640625 204.433594 C 141.195312 208.195312 142.617188 213.949219 143.988281 216.515625 C 144.269531 217.027344 144.839844 217.3125 145.410156 217.257812 C 145.980469 217.199219 146.492188 216.742188 146.609375 216.171875 C 146.777344 215.433594 147.632812 215.089844 148.148438 214.976562 C 149.914062 214.578125 152.648438 215.203125 154.359375 217.257812 C 156.582031 219.933594 156.582031 224.210938 154.300781 229.28125 C 148.316406 242.84375 128.597656 240.90625 124.324219 240.339844 C 124.265625 239.027344 124.097656 237.945312 123.867188 237.203125 C 125.917969 235.09375 131.617188 228.027344 128.3125 217.027344 C 125.863281 208.878906 118.851562 205.515625 113.382812 205.855469 C 108.652344 206.140625 105.175781 209.050781 104.433594 213.496094 C 104.375 213.949219 104.492188 214.40625 104.777344 214.691406 C 105.058594 215.035156 105.515625 215.148438 105.972656 215.148438 C 106.597656 215.089844 107.113281 215.71875 107.398438 216.058594 C 108.535156 217.710938 108.992188 220.902344 107.566406 223.753906 C 106.371094 226.089844 103.523438 228.9375 96.625 229.167969 C 96.398438 229.167969 96.113281 229.167969 95.882812 229.167969 C 83.574219 229.167969 79.242188 218.679688 77.988281 214.292969 C 78.671875 214.40625 79.355469 214.464844 79.984375 214.464844 C 83.460938 214.464844 86.082031 212.753906 87.277344 209.789062 C 91.4375 209.960938 94.402344 208.933594 96.167969 206.597656 C 98.792969 203.179688 97.59375 198.449219 97.539062 198.277344 C 97.421875 197.878906 97.136719 197.535156 96.738281 197.367188 C 96.339844 197.195312 95.882812 197.195312 95.542969 197.367188 C 94.914062 197.652344 94.347656 197.820312 93.832031 197.820312 C 92.125 197.820312 91.324219 196.167969 91.097656 195.65625 C 90.527344 194.289062 90.527344 192.234375 91.839844 191.039062 C 92.75 190.183594 93.777344 189.785156 95.03125 189.785156 C 97.539062 189.785156 100.101562 191.382812 101.414062 192.351562 C 102.667969 193.261719 104.71875 193.832031 106.941406 193.832031 C 111.214844 193.832031 114.976562 191.953125 116.972656 188.816406 C 119.765625 184.429688 117.828125 179.984375 116.402344 178.214844 C 116.003906 177.761719 115.375 177.589844 114.804688 177.761719 C 114.234375 177.988281 113.835938 178.5 113.835938 179.070312 C 113.78125 179.355469 112.984375 180.039062 112.070312 180.039062 C 111.160156 180.039062 110.589844 179.355469 110.417969 177.929688 C 110.132812 175.878906 110.816406 174.738281 111.957031 173.03125 C 113.382812 170.808594 115.207031 167.957031 115.261719 162.199219 C 115.320312 157.984375 114.40625 154.90625 112.527344 152.96875 C 111.101562 151.542969 109.164062 150.746094 106.828125 150.746094 C 104.320312 150.746094 102.269531 151.601562 102.152344 151.65625 C 101.699219 151.828125 101.414062 152.226562 101.300781 152.742188 C 101.242188 153.195312 101.355469 153.710938 101.699219 154.050781 C 103.007812 155.246094 103.179688 157.355469 102.269531 159.636719 C 101.070312 162.65625 97.824219 165.792969 94.175781 165.222656 C 92.292969 164.9375 89.730469 162.886719 88.246094 158.953125 C 86.308594 153.878906 83.859375 139.460938 103.523438 115.238281 C 131.050781 81.386719 140.910156 64.574219 144.839844 31.515625 C 146.4375 17.953125 145.011719 8.492188 140.511719 3.417969 C 138.003906 0.457031 134.808594 0 133.214844 0 C 132.816406 0 132.472656 0 132.132812 0.0585938 C 128.828125 0.457031 126.203125 2.335938 124.949219 5.1875 C 123.695312 8.09375 124.152344 11.570312 126.148438 14.304688 C 126.433594 14.703125 126.832031 14.875 127.289062 14.875 C 128.085938 14.875 128.710938 14.25 128.710938 13.449219 C 128.710938 13.335938 128.710938 13.222656 128.65625 13.164062 C 128.65625 12.710938 128.828125 12.308594 129.109375 12.027344 C 129.511719 11.570312 130.195312 11.339844 130.878906 11.339844 C 131.449219 11.339844 133.386719 11.570312 133.839844 14.53125 C 134.355469 17.726562 132.53125 18.75 129.054688 20.460938 C 127.574219 21.144531 126.089844 21.886719 124.78125 22.96875 C 121.589844 25.589844 122.101562 30.492188 122.785156 33.339844 C 122.558594 33.339844 122.328125 33.339844 122.101562 33.339844 C 119.765625 33.339844 117.710938 33.96875 116.175781 35.164062 C 113.550781 37.160156 112.128906 39.554688 111.898438 42.289062 C 111.445312 47.019531 114.863281 50.835938 115.035156 51.007812 C 115.433594 51.464844 116.058594 51.578125 116.628906 51.351562 C 117.199219 51.121094 117.542969 50.550781 117.484375 49.925781 C 117.429688 48.84375 117.710938 47.929688 118.339844 47.304688 C 119.082031 46.507812 120.21875 46.105469 121.589844 46.105469 C 123.011719 46.105469 124.382812 46.621094 125.179688 47.53125 C 125.863281 48.273438 126.148438 49.242188 126.035156 50.382812 C 124.550781 65.597656 102.953125 90.277344 88.648438 106.578125 L 86.539062 108.96875 C 70.351562 127.433594 59.863281 145.101562 57.925781 174.570312 C 52.628906 203.292969 59.636719 235.890625 74.285156 250.484375 C 78.160156 254.359375 81.976562 256.980469 85.683594 258.175781 C 98.277344 274.132812 124.210938 285.078125 145.925781 285.078125 C 151.222656 285.078125 156.296875 284.449219 160.914062 283.027344 C 164.21875 282 167.183594 280.859375 169.691406 279.664062 C 169.746094 279.664062 169.746094 279.664062 169.804688 279.664062 C 169.859375 279.664062 169.859375 279.664062 169.917969 279.664062 C 170.316406 279.664062 209.753906 276.757812 229.703125 242.332031 C 239.222656 225.917969 241.160156 213.835938 240.359375 205.515625 C 241.671875 202.324219 245.261719 191.496094 241.613281 174.851562 Z M 149.628906 152.113281 C 148.886719 151.941406 148.203125 151.828125 147.519531 151.769531 C 143.644531 151.488281 140.792969 153.308594 139.597656 154.964844 C 138.058594 156.957031 137.261719 160.433594 138.6875 162.828125 C 139.027344 163.453125 139.769531 164.308594 141.078125 164.765625 C 139.882812 165.449219 138.171875 165.621094 136.578125 165.394531 C 131.617188 164.707031 126.433594 160.664062 126.089844 153.140625 C 125.234375 136.953125 135.496094 134.957031 135.949219 134.902344 C 136.40625 134.84375 136.804688 134.503906 137.035156 134.046875 C 137.203125 133.589844 137.203125 133.078125 136.917969 132.679688 C 135.265625 130.226562 134.753906 127.835938 135.378906 125.726562 C 135.949219 123.902344 137.316406 122.421875 139.371094 121.566406 C 140.054688 121.28125 140.394531 120.480469 140.167969 119.742188 C 134.582031 105.378906 138.058594 97.914062 140.679688 94.722656 C 143.472656 91.300781 147.179688 90.164062 149.457031 90.5625 C 152.308594 91.074219 153.847656 92.898438 154.300781 94.4375 C 154.414062 94.722656 154.414062 95.007812 154.472656 95.292969 C 154.1875 95.121094 153.902344 94.949219 153.5625 94.835938 C 151.679688 94.09375 149.457031 94.492188 147.976562 95.917969 C 146.777344 97 145.011719 99.679688 146.550781 105.152344 C 147.746094 109.484375 149.34375 113.699219 152.023438 118.660156 C 147.347656 126.695312 151.28125 133.703125 153.105469 136.328125 C 151.910156 137.921875 152.023438 139.746094 152.535156 141.171875 C 151.394531 141.683594 150.371094 142.652344 149.742188 143.964844 C 148.601562 145.902344 148.261719 148.808594 149.628906 152.113281 Z M 164.960938 167.386719 C 161.199219 160.378906 157.492188 156.386719 154.132812 154.164062 C 154.132812 154.164062 154.132812 154.164062 154.132812 154.109375 C 151.167969 150.402344 151.167969 146.984375 152.078125 145.160156 C 152.59375 144.078125 153.503906 143.507812 154.414062 143.5625 C 154.929688 143.621094 155.5 143.28125 155.726562 142.824219 C 156.011719 142.3125 155.953125 141.742188 155.613281 141.285156 C 155.441406 141.058594 153.960938 138.890625 155.726562 137.464844 C 156.011719 137.238281 156.238281 136.839844 156.238281 136.441406 C 156.238281 136.042969 156.125 135.640625 155.839844 135.359375 C 155.785156 135.300781 150.253906 129.203125 153.503906 121.566406 C 157.777344 128.804688 164.332031 137.863281 175.273438 150.972656 C 178.636719 155.078125 181.429688 159.523438 183.597656 164.308594 C 182.171875 164.765625 180.917969 165.507812 179.890625 166.53125 C 178.410156 163.054688 176.871094 160.261719 175.21875 157.925781 C 174.761719 157.300781 173.851562 157.128906 173.222656 157.585938 C 172.597656 158.039062 172.425781 158.953125 172.882812 159.578125 C 174.707031 162.144531 176.300781 165.222656 177.953125 169.269531 C 176.128906 172.972656 176.472656 177.761719 178.980469 182.375 C 179.265625 182.890625 179.777344 183.175781 180.347656 183.117188 C 180.917969 183.058594 181.375 182.660156 181.542969 182.148438 C 181.542969 182.089844 181.601562 182.035156 181.660156 181.976562 C 183.480469 193.945312 180.003906 202.664062 180.003906 202.78125 C 179.949219 202.835938 179.949219 202.949219 179.949219 203.007812 C 179.550781 203.234375 179.152344 203.40625 178.75 203.519531 C 177.554688 203.804688 176.472656 203.464844 175.617188 202.550781 C 175.617188 202.550781 175.617188 202.496094 175.675781 202.496094 C 176.015625 201.867188 183.597656 186.59375 172.253906 166.132812 C 171.855469 165.449219 171 165.222656 170.316406 165.5625 C 169.632812 165.960938 169.40625 166.816406 169.746094 167.5 C 178.125 182.605469 175.390625 194.800781 173.851562 199.304688 C 173.050781 197.765625 172.082031 196.625 170.828125 195.882812 C 170.886719 193.773438 171.570312 179.699219 164.960938 167.386719 Z M 188.898438 151.769531 C 187.242188 148.066406 190.378906 146.300781 191.402344 145.84375 C 195.28125 144.078125 203.085938 144.933594 207.703125 154.734375 C 208.101562 155.589844 208.503906 156.5 208.902344 157.414062 C 207.589844 157.300781 206.394531 157.585938 205.59375 157.8125 C 203.03125 155.132812 199.210938 154.222656 195.394531 155.304688 C 191.234375 156.5 188.210938 159.75 187.359375 163.796875 C 187.074219 163.796875 186.84375 163.796875 186.558594 163.796875 C 185.019531 160.261719 183.140625 156.902344 180.917969 153.710938 C 183.652344 154.507812 186.390625 154.164062 188.097656 153.59375 C 188.496094 153.480469 188.78125 153.195312 188.953125 152.796875 C 189.066406 152.570312 189.066406 152.113281 188.898438 151.769531 Z M 205.824219 171.492188 C 205.824219 171.546875 208.101562 177.246094 207.703125 188.019531 C 207.363281 188.359375 207.078125 188.703125 206.792969 189.042969 C 204.285156 192.292969 203.714844 196.851562 205.367188 200.273438 C 205.539062 200.613281 205.824219 200.898438 206.164062 201.011719 C 205.765625 203.007812 205.308594 205.058594 204.796875 207.167969 C 203.257812 205.800781 201.320312 205.058594 199.210938 204.886719 C 203.429688 188.132812 199.78125 177.476562 199.609375 177.019531 C 199.328125 176.277344 198.527344 175.878906 197.789062 176.164062 C 197.046875 176.449219 196.648438 177.246094 196.933594 177.988281 C 196.988281 178.101562 200.578125 188.644531 196.191406 205.171875 C 194.027344 205.6875 192.03125 206.828125 190.605469 208.363281 C 190.550781 207.511719 190.378906 206.710938 190.207031 205.914062 C 189.980469 204.886719 189.695312 203.976562 189.296875 203.121094 C 194.425781 183.34375 188.496094 179.300781 185.703125 178.5 C 183.824219 177.929688 181.945312 178.386719 180.574219 179.242188 C 179.152344 175.652344 179.265625 172.230469 180.972656 169.722656 C 182.511719 167.445312 185.191406 166.363281 188.269531 166.761719 C 188.667969 166.816406 189.066406 166.703125 189.351562 166.476562 C 189.636719 166.246094 189.867188 165.847656 189.867188 165.507812 C 190.148438 162.03125 192.601562 159.125 196.078125 158.097656 C 199.15625 157.1875 202.117188 158.039062 204 160.433594 C 204.457031 161.003906 205.195312 161.117188 205.824219 160.777344 C 205.878906 160.71875 207.875 159.636719 209.925781 160.546875 C 212.035156 161.460938 213.632812 164.253906 214.601562 168.527344 C 216.425781 176.390625 216.539062 182.433594 216.539062 184.828125 C 214.371094 184.769531 212.320312 185.113281 210.609375 185.96875 C 210.667969 175.9375 208.558594 170.578125 208.503906 170.351562 C 208.21875 169.609375 207.363281 169.269531 206.621094 169.554688 C 205.878906 169.953125 205.539062 170.808594 205.824219 171.492188 Z M 198.355469 224.894531 C 199.609375 224.210938 201.605469 224.09375 203.144531 225.292969 C 205.253906 226.945312 205.765625 230.363281 204.625 235.039062 C 201.832031 246.265625 189.011719 253.273438 183.082031 255.898438 C 183.253906 254.699219 183.3125 253.445312 183.3125 252.191406 C 185.476562 250.824219 193.742188 245.296875 200.578125 236.292969 C 201.035156 235.664062 200.921875 234.753906 200.296875 234.296875 C 199.667969 233.839844 198.757812 233.953125 198.300781 234.582031 C 192.65625 241.992188 185.933594 247.007812 182.914062 249.058594 C 182.796875 248.660156 182.742188 248.203125 182.628906 247.804688 C 182.511719 247.460938 182.398438 247.0625 182.285156 246.722656 C 184.394531 244.898438 190.949219 238.855469 196.191406 229.167969 C 196.25 229.109375 196.25 229.054688 196.25 228.9375 C 196.476562 228.65625 196.589844 228.371094 196.535156 227.96875 C 196.417969 226.148438 197.730469 225.234375 198.355469 224.894531 Z M 180.972656 244.042969 C 180.121094 242.503906 178.980469 241.136719 177.726562 239.996094 C 177.78125 239.9375 177.78125 239.9375 177.839844 239.882812 C 182.628906 233.386719 186.105469 227.402344 188.210938 221.984375 C 189.125 224.324219 190.890625 226.316406 193.34375 228.425781 C 188.78125 236.460938 183.3125 241.875 180.972656 244.042969 Z M 184.449219 181.121094 C 184.621094 181.121094 184.792969 181.179688 184.964844 181.238281 C 187.925781 182.089844 189.980469 187.390625 187.242188 199.644531 C 185.988281 198.105469 184.734375 197.308594 184.449219 197.136719 C 185.136719 193.089844 185.476562 187.5625 184.449219 181.121094 Z M 147.632812 212.296875 C 146.949219 212.46875 146.378906 212.695312 145.867188 213.039062 C 145.46875 211.214844 145.410156 208.59375 147.691406 206.710938 C 151.851562 203.179688 156.355469 205.402344 158.691406 206.996094 C 160.34375 208.195312 162.453125 208.308594 164.277344 207.339844 C 166.269531 206.257812 167.582031 204.089844 167.523438 201.925781 C 167.46875 200.957031 167.183594 199.417969 165.699219 197.992188 C 166.613281 197.820312 167.695312 197.765625 168.664062 198.105469 C 169.976562 198.5625 171 199.757812 171.683594 201.527344 C 173.394531 206.085938 176.8125 206.996094 179.4375 206.371094 C 181.773438 205.800781 184.050781 203.804688 184.851562 201.128906 C 185.820312 202.210938 186.902344 203.917969 187.472656 206.484375 C 188.097656 209.332031 188.097656 213.378906 186.21875 218.964844 C 181.714844 218.226562 178.582031 219.992188 176.472656 221.871094 C 175.390625 221.015625 173.90625 220.503906 172.425781 220.390625 C 170.714844 220.277344 169.121094 220.789062 167.808594 221.757812 C 165.074219 218.167969 161.199219 218.28125 158.578125 219.136719 C 158.121094 217.484375 157.378906 216.34375 156.695312 215.546875 C 154.132812 212.410156 150.140625 211.671875 147.632812 212.296875 Z M 124.324219 243.300781 C 125.75 243.472656 128.257812 243.757812 131.332031 243.757812 C 139.710938 243.757812 152.078125 241.707031 157.039062 230.535156 C 158.578125 227.058594 159.03125 224.265625 158.976562 221.984375 C 160.230469 221.472656 164.046875 220.390625 166.214844 224.609375 C 166.441406 225.0625 166.839844 225.347656 167.351562 225.347656 C 167.410156 225.347656 167.46875 225.347656 167.46875 225.347656 C 167.921875 225.347656 168.320312 225.179688 168.605469 224.835938 C 169.804688 223.355469 171.230469 223.070312 172.253906 223.183594 C 173.621094 223.238281 174.820312 223.925781 175.160156 224.550781 C 175.390625 224.894531 175.789062 225.179688 176.1875 225.179688 C 176.644531 225.234375 177.042969 225.0625 177.328125 224.777344 C 179.035156 223.070312 181.429688 221.300781 185.078125 221.644531 C 183.199219 226.203125 180.175781 231.675781 175.390625 238.113281 C 175.332031 238.171875 175.332031 238.171875 175.332031 238.230469 C 174.589844 237.773438 173.738281 237.375 172.9375 237.03125 C 173.792969 235.777344 175.046875 233.785156 175.675781 232.074219 C 175.902344 231.332031 175.503906 230.535156 174.761719 230.25 C 174.019531 230.023438 173.222656 230.421875 172.9375 231.160156 C 172.3125 232.984375 170.660156 235.324219 170.03125 236.175781 C 167.582031 235.664062 165.414062 235.722656 163.421875 236.175781 C 164.789062 234.410156 165.816406 232.757812 166.328125 231.730469 C 166.667969 231.046875 166.382812 230.191406 165.699219 229.792969 C 165.015625 229.453125 164.160156 229.738281 163.761719 230.421875 C 162.738281 232.414062 159.144531 237.601562 155.269531 240.339844 C 142.5625 249.515625 127.855469 246.4375 123.753906 245.296875 C 124.097656 244.726562 124.210938 243.984375 124.324219 243.300781 Z M 121.875 249.683594 C 122.214844 249.171875 122.5 248.601562 122.785156 248.089844 C 124.722656 248.660156 129.109375 249.742188 134.695312 249.742188 C 139.539062 249.742188 145.238281 248.945312 150.9375 246.320312 C 150.824219 246.835938 151.054688 247.347656 151.453125 247.691406 C 151.964844 248.089844 152.761719 248.089844 153.277344 247.632812 C 154.132812 246.890625 154.984375 246.777344 155.898438 247.347656 C 156.296875 247.574219 156.640625 247.917969 156.980469 248.316406 C 142.5625 256.011719 126.203125 251.167969 121.875 249.683594 Z M 158.175781 250.882812 C 158.234375 251.453125 158.234375 252.019531 158.121094 252.589844 C 157.550781 255.613281 154.414062 257.664062 149.285156 258.40625 C 133.898438 260.570312 122.5 256.238281 117.996094 254.128906 C 118.796875 253.445312 119.480469 252.761719 120.105469 252.078125 C 121.875 252.761719 129.394531 255.496094 138.855469 255.496094 C 144.839844 255.441406 151.625 254.359375 158.175781 250.882812 Z M 60.664062 178.558594 C 60.71875 177.246094 60.777344 175.992188 60.890625 174.738281 C 60.890625 174.683594 60.890625 174.683594 60.890625 174.625 C 60.890625 174.511719 60.890625 174.398438 60.890625 174.285156 C 62.828125 145.730469 73.085938 128.574219 88.761719 110.621094 L 90.871094 108.230469 C 106.257812 90.675781 127.402344 66.566406 128.941406 50.4375 C 129.109375 48.5 128.597656 46.734375 127.34375 45.367188 C 125.976562 43.882812 123.925781 43.03125 121.644531 43.03125 C 119.535156 43.03125 117.597656 43.828125 116.34375 45.136719 C 116.058594 45.480469 115.773438 45.820312 115.546875 46.164062 C 115.035156 45.082031 114.691406 43.714844 114.804688 42.289062 C 114.976562 40.40625 116.058594 38.699219 117.996094 37.160156 C 119.308594 36.132812 120.960938 35.960938 122.15625 35.960938 C 123.46875 35.960938 124.496094 36.191406 124.496094 36.191406 C 125.007812 36.304688 125.578125 36.191406 125.917969 35.792969 C 126.261719 35.390625 126.375 34.824219 126.203125 34.308594 C 125.464844 32.429688 124.152344 27.015625 126.660156 24.960938 C 127.6875 24.109375 129.054688 23.480469 130.363281 22.855469 C 133.558594 21.316406 137.601562 19.378906 136.75 13.90625 C 136.121094 9.800781 133.214844 8.320312 130.933594 8.320312 C 129.511719 8.320312 128.140625 8.832031 127.230469 9.800781 C 127.003906 8.605469 127.058594 7.351562 127.574219 6.210938 C 128.425781 4.273438 130.136719 3.078125 132.472656 2.792969 C 132.703125 2.851562 132.929688 2.851562 133.214844 2.851562 C 134.355469 2.851562 136.578125 3.191406 138.628906 5.472656 C 141.363281 8.550781 144.15625 15.503906 142.277344 31.347656 C 138.402344 63.71875 128.710938 80.300781 101.582031 113.644531 C 80.953125 139.003906 83.6875 154.621094 85.855469 160.148438 C 87.5625 164.59375 90.699219 167.671875 94.0625 168.183594 C 94.460938 168.242188 94.914062 168.300781 95.316406 168.300781 C 100.046875 168.300781 103.75 164.421875 105.175781 160.832031 C 106.199219 158.324219 106.199219 155.875 105.230469 153.9375 C 105.746094 153.824219 106.371094 153.765625 107 153.765625 C 108.535156 153.765625 109.734375 154.222656 110.644531 155.132812 C 111.957031 156.5 112.640625 158.894531 112.582031 162.316406 C 112.527344 167.273438 110.988281 169.609375 109.734375 171.660156 C 108.480469 173.597656 107.339844 175.367188 107.796875 178.5 C 108.421875 182.71875 111.386719 183.058594 112.296875 183.058594 C 113.4375 183.058594 114.519531 182.660156 115.375 182.035156 C 115.832031 183.402344 116.117188 185.398438 114.804688 187.449219 C 112.640625 190.867188 108.421875 191.097656 107.167969 191.097656 C 105.230469 191.097656 103.921875 190.640625 103.292969 190.183594 C 101.699219 189.042969 98.5625 187.105469 95.257812 187.105469 C 93.320312 187.105469 91.554688 187.789062 90.128906 189.101562 C 88.132812 190.925781 87.5625 194.058594 88.703125 196.851562 C 89.84375 199.703125 92.464844 201.296875 95.257812 200.726562 C 95.316406 201.980469 95.199219 203.75 94.175781 205.058594 C 92.863281 206.769531 90.300781 207.394531 86.652344 207.054688 C 85.96875 206.996094 85.285156 207.453125 85.113281 208.136719 C 84.371094 211.15625 82.035156 211.785156 80.210938 211.785156 C 76.90625 211.785156 72.917969 209.675781 69.554688 206.199219 C 65.964844 202.496094 60.035156 193.945312 60.664062 178.558594 Z M 64.539062 227.800781 C 64.480469 227.6875 64.425781 227.628906 64.367188 227.515625 C 60.777344 217.085938 58.894531 204.773438 59.125 192.292969 C 60.035156 195.996094 61.347656 199.074219 62.773438 201.582031 C 62.714844 202.894531 62.601562 212.808594 65.621094 220.847656 C 65.847656 221.417969 66.363281 221.757812 66.933594 221.757812 C 67.101562 221.757812 67.273438 221.703125 67.445312 221.644531 C 68.1875 221.359375 68.527344 220.5625 68.242188 219.820312 C 66.476562 215.203125 65.847656 209.789062 65.679688 206.027344 C 66.304688 206.828125 66.933594 207.511719 67.503906 208.136719 C 67.957031 208.59375 68.414062 209.050781 68.925781 209.503906 C 68.925781 209.5625 68.925781 209.5625 68.925781 209.617188 C 68.984375 210.074219 69.894531 221.1875 76.277344 228.3125 C 76.5625 228.65625 76.964844 228.769531 77.363281 228.769531 C 77.703125 228.769531 78.046875 228.65625 78.332031 228.425781 C 78.902344 227.914062 78.957031 227 78.445312 226.433594 C 74.398438 221.929688 72.800781 215.433594 72.175781 211.957031 C 73.144531 212.582031 74.113281 213.09375 75.140625 213.496094 C 75.824219 216.515625 80.210938 232.757812 97.023438 232.1875 C 99.074219 232.132812 100.785156 231.847656 102.269531 231.390625 C 101.527344 233.214844 99.644531 234.46875 98.449219 235.152344 C 94.515625 237.375 89.046875 238 86.480469 236.519531 C 86.082031 236.292969 85.511719 236.292969 85.113281 236.519531 C 84.601562 236.804688 79.984375 239.140625 76.847656 234.582031 C 76.507812 234.070312 75.878906 233.839844 75.253906 234.011719 C 74.855469 234.125 67.957031 236.0625 64.539062 227.800781 Z M 87.394531 255.613281 C 87.109375 255.382812 86.707031 255.269531 86.367188 255.269531 C 83.175781 254.128906 79.871094 251.792969 76.394531 248.316406 C 73.085938 245.011719 70.238281 240.792969 67.789062 235.835938 C 70.636719 237.316406 73.488281 237.144531 74.96875 236.976562 C 76.964844 239.425781 79.414062 240.222656 81.636719 240.222656 C 83.175781 240.222656 84.601562 239.824219 85.683594 239.367188 C 89.273438 240.90625 95.257812 240.222656 99.761719 237.660156 C 103.179688 235.722656 105.175781 233.042969 105.34375 230.136719 C 108.082031 228.65625 109.5625 226.660156 110.246094 225.234375 C 112.242188 221.246094 111.445312 216.972656 109.847656 214.691406 C 109.277344 213.835938 108.535156 213.210938 107.738281 212.867188 C 108.652344 210.53125 110.816406 209.105469 113.667969 208.933594 C 118.167969 208.648438 123.753906 211.726562 125.691406 218.109375 C 129.054688 229.28125 121.757812 235.664062 121.417969 235.949219 C 120.960938 236.347656 120.789062 236.976562 121.019531 237.601562 C 121.074219 237.660156 124.152344 245.636719 115.433594 252.589844 C 106.882812 259.429688 99.929688 253.617188 99.644531 253.332031 C 99.359375 253.105469 99.019531 252.992188 98.621094 252.992188 C 98.222656 252.992188 97.878906 253.21875 97.652344 253.503906 C 97.652344 253.503906 95.371094 256.066406 91.152344 256.238281 C 90.015625 256.125 88.703125 255.953125 87.394531 255.613281 Z M 160.171875 280.175781 C 139.371094 286.503906 106.144531 276.128906 90.242188 258.917969 C 90.414062 258.917969 90.640625 258.917969 90.8125 258.917969 C 90.984375 258.917969 91.152344 258.917969 91.324219 258.917969 C 93.492188 258.859375 95.257812 258.289062 96.625 257.605469 C 99.019531 259.945312 115.890625 275.558594 141.480469 276.1875 L 141.535156 276.1875 C 142.332031 276.1875 142.960938 275.558594 142.960938 274.820312 C 142.960938 274.019531 142.332031 273.394531 141.59375 273.335938 C 119.878906 272.824219 104.375 260.683594 99.816406 256.636719 C 101.582031 257.605469 104.433594 258.746094 107.910156 258.574219 C 107.96875 258.632812 108.023438 258.691406 108.136719 258.746094 C 108.820312 259.203125 122.84375 268.035156 140.394531 268.035156 C 143.246094 268.035156 146.210938 267.808594 149.230469 267.238281 C 150.027344 267.125 150.539062 266.382812 150.371094 265.585938 C 150.253906 264.789062 149.457031 264.273438 148.714844 264.445312 C 132.703125 267.351562 117.769531 260.683594 112.128906 257.71875 C 113.210938 257.320312 114.351562 256.75 115.546875 256.011719 C 119.136719 257.890625 131.960938 263.761719 149.800781 261.253906 C 158.460938 260.058594 160.570312 255.667969 161.027344 253.160156 C 161.652344 249.96875 160.117188 246.378906 157.492188 244.839844 C 156.980469 244.554688 156.410156 244.328125 155.839844 244.214844 C 156.410156 243.585938 157.039062 242.902344 157.835938 242.21875 C 158.007812 242.105469 158.175781 241.933594 158.347656 241.761719 C 161.140625 239.597656 165.1875 237.832031 170.429688 239.199219 C 176.757812 240.792969 179.09375 245.753906 179.890625 248.542969 C 181.203125 253.21875 180.289062 258.519531 177.726562 261.195312 C 177.269531 261.652344 177.214844 262.394531 177.554688 262.964844 C 177.554688 263.019531 177.839844 263.476562 178.066406 264.160156 C 178.066406 264.332031 178.066406 264.503906 178.066406 264.671875 C 178.125 264.84375 178.183594 265.015625 178.238281 265.128906 C 178.351562 266.097656 178.351562 267.296875 177.839844 268.664062 C 176.644531 271.855469 172.652344 276.414062 160.171875 280.175781 Z M 227.253906 240.792969 C 212.664062 265.925781 187.300781 273.566406 175.730469 275.84375 C 177.382812 274.535156 178.636719 273.109375 179.550781 271.625 C 182 271.171875 213.917969 264.21875 228.335938 229.453125 C 228.621094 228.710938 228.277344 227.914062 227.539062 227.570312 C 226.796875 227.285156 226 227.628906 225.65625 228.371094 C 213.402344 257.949219 188.042969 266.496094 180.859375 268.378906 C 181.089844 267.296875 181.144531 266.328125 181.089844 265.472656 C 185.363281 264.273438 198.472656 259.773438 208.84375 248.03125 C 209.355469 247.460938 209.300781 246.550781 208.730469 246.039062 C 208.160156 245.523438 207.25 245.582031 206.734375 246.152344 C 197.046875 257.09375 184.566406 261.480469 180.460938 262.679688 C 180.460938 262.621094 180.40625 262.566406 180.40625 262.449219 C 181.089844 261.539062 181.660156 260.511719 182.113281 259.429688 C 187.699219 257.207031 203.941406 249.628906 207.363281 235.722656 C 209.300781 227.914062 206.621094 224.4375 204.910156 223.070312 C 202.6875 221.359375 199.554688 221.074219 197.046875 222.386719 C 195.734375 223.070312 194.765625 224.152344 194.195312 225.347656 C 190.148438 221.472656 189.464844 218.507812 191.003906 213.210938 C 191.859375 210.304688 194.597656 208.082031 197.730469 207.738281 C 200.636719 207.453125 203.144531 208.707031 204.511719 211.214844 C 204.683594 211.558594 205.027344 211.785156 205.367188 211.898438 C 205.710938 212.011719 206.109375 211.957031 206.449219 211.785156 C 206.507812 211.785156 209.925781 209.902344 213.117188 210.929688 C 214.828125 211.5 216.195312 212.753906 217.222656 214.75 C 216.425781 218.738281 215 221.359375 214.941406 221.417969 C 214.542969 222.101562 214.769531 222.957031 215.457031 223.355469 C 216.140625 223.753906 216.992188 223.523438 217.394531 222.839844 C 217.5625 222.5 222.179688 214.292969 219.84375 204.035156 C 218.648438 198.90625 215.683594 195.65625 211.808594 195.371094 C 210.097656 195.257812 208.503906 195.710938 207.25 196.625 C 207.078125 194.628906 207.703125 192.464844 208.957031 190.8125 C 211.066406 188.074219 214.65625 187.105469 219.046875 188.074219 C 219.386719 188.132812 219.730469 188.074219 220.070312 187.90625 C 220.128906 187.90625 223.605469 185.910156 226.910156 187.050781 C 228.847656 187.675781 230.386719 189.273438 231.527344 191.835938 C 231.640625 192.007812 231.753906 192.179688 231.925781 192.351562 C 232.039062 192.464844 247.371094 206.140625 227.253906 240.792969 Z M 207.417969 208.363281 C 208.273438 205.117188 208.957031 201.925781 209.472656 198.789062 C 209.472656 198.734375 209.472656 198.675781 209.472656 198.621094 C 210.097656 198.335938 210.839844 198.164062 211.636719 198.21875 C 214.203125 198.449219 216.195312 200.785156 217.109375 204.71875 C 217.5625 206.769531 217.734375 208.707031 217.679688 210.53125 C 216.59375 209.449219 215.398438 208.648438 213.972656 208.195312 C 211.523438 207.511719 209.128906 207.851562 207.417969 208.363281 Z M 239.222656 199.53125 C 238.253906 196.339844 236.882812 194.058594 235.800781 192.519531 C 235.800781 190.980469 235.6875 176.792969 232.835938 168.984375 C 232.554688 168.242188 231.753906 167.84375 231.015625 168.128906 C 230.273438 168.414062 229.875 169.210938 230.160156 169.953125 C 231.984375 175.023438 232.609375 183.289062 232.835938 188.304688 C 231.527344 186.308594 229.816406 185 227.824219 184.3125 C 224.289062 183.175781 220.871094 184.429688 219.445312 185.054688 C 219.5 182.605469 219.386719 176.277344 217.449219 167.898438 C 216.425781 163.453125 214.769531 160.378906 212.433594 158.722656 C 211.808594 156.957031 211.066406 155.191406 210.269531 153.480469 C 205.425781 143.109375 196.304688 140.429688 190.207031 143.164062 C 186.671875 144.761719 185.019531 147.839844 185.761719 151.203125 C 183.367188 151.542969 178.523438 151.429688 175.84375 145.503906 C 173.566406 140.371094 174.648438 136.269531 176.472656 134.160156 C 177.441406 133.019531 178.410156 132.621094 178.808594 132.734375 C 179.320312 132.851562 179.890625 132.679688 180.234375 132.28125 C 180.574219 131.882812 180.691406 131.3125 180.460938 130.796875 C 178.351562 125.839844 181.03125 122.761719 182.855469 121.394531 C 185.476562 119.34375 188.554688 119.058594 189.410156 119.683594 C 190.035156 120.199219 190.949219 120.027344 191.402344 119.457031 C 191.859375 118.828125 191.804688 117.917969 191.175781 117.460938 C 189.410156 116.09375 186.160156 116.320312 183.140625 117.859375 C 164.617188 108.515625 161.3125 98.199219 160.96875 92.839844 C 161.085938 92.898438 161.253906 93.011719 161.367188 93.070312 C 162.851562 93.808594 164.5625 93.867188 166.097656 93.125 C 167.753906 92.328125 168.835938 90.277344 168.664062 88.109375 C 168.550781 86.742188 167.808594 83.324219 162.792969 81.785156 C 158.691406 80.53125 151.625 77.511719 150.371094 71.125 C 150.085938 69.589844 150.253906 68.449219 150.824219 67.707031 C 151.167969 67.308594 151.679688 67.023438 152.191406 66.851562 C 152.363281 67.765625 152.820312 68.675781 153.5625 69.417969 C 155.15625 70.957031 157.378906 71.242188 159.144531 70.042969 C 162.679688 67.707031 161.882812 60.355469 157.09375 50.835938 C 154.1875 45.082031 154.074219 39.324219 156.695312 34.539062 C 159.089844 30.148438 163.078125 27.871094 165.757812 27.585938 C 167.351562 27.414062 168.550781 27.699219 169.40625 28.496094 C 169.976562 29.007812 170.316406 29.636719 170.542969 30.261719 C 170.316406 30.261719 170.144531 30.320312 169.917969 30.320312 C 167.980469 30.660156 165.984375 32.316406 165.871094 35.109375 C 165.757812 36.875 166.441406 38.355469 167.753906 39.269531 C 169.746094 40.636719 172.996094 40.578125 176.699219 39.039062 C 178.808594 38.183594 180.289062 40.121094 180.691406 40.75 C 181.945312 42.628906 182.226562 45.480469 180.804688 47.816406 C 179.890625 46.847656 178.636719 46.222656 177.214844 45.992188 C 175.160156 45.707031 173.222656 46.390625 172.027344 47.929688 C 170.828125 49.414062 169.917969 52.320312 172.140625 57.621094 C 175.84375 66.511719 179.378906 71.183594 180.804688 72.894531 C 179.550781 73.804688 173.394531 79.390625 181.488281 93.980469 C 181.886719 94.664062 182.742188 94.894531 183.425781 94.550781 C 184.109375 94.152344 184.335938 93.296875 183.996094 92.613281 C 176.644531 79.390625 182.34375 75.34375 182.570312 75.230469 C 182.683594 75.171875 182.796875 75.058594 182.855469 75.003906 C 184.050781 73.691406 185.304688 73.007812 186.617188 72.949219 C 186.675781 72.949219 186.675781 72.949219 186.730469 72.949219 C 188.78125 72.949219 190.433594 74.546875 190.433594 74.546875 C 190.777344 74.886719 191.347656 75.058594 191.859375 74.886719 C 192.542969 74.660156 193.113281 74.773438 193.625 75.117188 C 194.652344 75.800781 195.335938 77.511719 195.734375 78.933594 C 194.878906 79.046875 194.027344 79.503906 193.398438 80.1875 C 190.71875 83.09375 191.632812 89.421875 195.792969 97.117188 C 201.09375 106.917969 206.050781 112.445312 208.101562 114.5 C 207.589844 115.066406 207.132812 115.582031 206.734375 116.152344 C 203.773438 113.53125 194.996094 105.378906 191.121094 96.714844 C 190.777344 95.976562 189.980469 95.691406 189.238281 95.976562 C 188.496094 96.316406 188.210938 97.117188 188.496094 97.855469 C 192.828125 107.488281 202.460938 116.207031 205.195312 118.601562 C 205.027344 118.886719 204.910156 119.171875 204.796875 119.457031 C 201.832031 118.03125 194.3125 114.269531 187.527344 108.628906 C 186.902344 108.113281 186.046875 108.230469 185.535156 108.800781 C 185.019531 109.425781 185.136719 110.28125 185.703125 110.792969 C 193 116.890625 200.921875 120.765625 203.828125 122.136719 C 203.714844 122.707031 203.601562 123.21875 203.488281 123.675781 C 202.859375 127.777344 203.886719 131.765625 206.050781 133.933594 C 206.621094 134.503906 207.53125 134.445312 208.046875 133.933594 C 208.617188 133.363281 208.558594 132.449219 208.046875 131.9375 C 206.792969 130.742188 205.710938 127.777344 206.28125 124.1875 C 206.679688 121.792969 208.046875 117.574219 212.832031 114.15625 C 212.664062 116.152344 213.003906 118.828125 214.769531 122.078125 C 215.625 123.558594 216.652344 125.328125 217.847656 127.378906 C 220.753906 132.222656 224.6875 138.71875 228.050781 146.070312 C 227.9375 146.128906 227.878906 146.1875 227.765625 146.242188 C 226.738281 146.871094 225.941406 147.554688 225.257812 148.292969 C 223.890625 145.386719 221.324219 140.429688 217.960938 137.125 C 217.394531 136.554688 216.480469 136.554688 215.96875 137.125 C 215.398438 137.695312 215.398438 138.605469 215.96875 139.117188 C 219.730469 142.878906 222.578125 149.207031 223.378906 151.085938 C 222.578125 152.96875 222.523438 154.679688 222.636719 155.703125 C 221.953125 156.214844 221.269531 156.957031 220.640625 157.753906 C 218.816406 152.570312 214.371094 142.140625 206.449219 137.066406 C 205.765625 136.667969 204.910156 136.839844 204.457031 137.523438 C 204.054688 138.207031 204.226562 139.0625 204.910156 139.519531 C 214.203125 145.445312 218.476562 160.09375 218.875 161.515625 C 218.246094 163.910156 218.363281 166.875 220.015625 170.292969 C 220.355469 170.976562 221.210938 171.261719 221.953125 170.921875 C 222.636719 170.578125 222.921875 169.722656 222.578125 168.984375 C 218.875 161.574219 224.746094 157.699219 224.972656 157.527344 C 225.484375 157.1875 225.714844 156.558594 225.601562 155.988281 C 225.601562 155.933594 224.574219 151.601562 229.304688 148.636719 C 233.636719 145.902344 236.597656 146.871094 238.136719 148.011719 C 237.738281 148.292969 237.339844 148.695312 237 149.09375 C 234.660156 152.285156 235.117188 159.179688 238.707031 175.480469 C 241.214844 186.308594 240.359375 194.574219 239.222656 199.53125 Z M 170.945312 154.964844 C 171.515625 154.449219 171.570312 153.539062 171.058594 152.96875 C 169.632812 151.371094 167.808594 149.320312 165.871094 146.355469 C 165.414062 145.730469 164.5625 145.503906 163.875 145.957031 C 163.25 146.414062 163.023438 147.269531 163.476562 147.953125 C 165.585938 151.085938 167.410156 153.195312 168.890625 154.847656 C 169.175781 155.191406 169.574219 155.304688 169.976562 155.304688 C 170.316406 155.304688 170.660156 155.191406 170.945312 154.964844 Z M 161.140625 270.65625 C 158.121094 271.570312 155.101562 272.253906 152.023438 272.652344 C 151.222656 272.765625 150.710938 273.507812 150.824219 274.25 C 150.9375 274.933594 151.507812 275.445312 152.25 275.445312 C 152.308594 275.445312 152.363281 275.445312 152.476562 275.445312 C 155.613281 274.988281 158.804688 274.25 161.9375 273.335938 C 162.679688 273.109375 163.136719 272.3125 162.90625 271.570312 C 162.679688 270.886719 161.882812 270.429688 161.140625 270.65625 Z M 216.195312 233.953125 C 215.511719 233.613281 214.65625 233.953125 214.316406 234.636719 C 213.574219 236.234375 212.71875 237.773438 211.808594 239.253906 C 211.410156 239.9375 211.636719 240.792969 212.261719 241.191406 C 212.492188 241.308594 212.777344 241.421875 213.003906 241.421875 C 213.460938 241.421875 213.972656 241.191406 214.203125 240.738281 C 215.171875 239.199219 216.023438 237.546875 216.824219 235.835938 C 217.222656 235.09375 216.9375 234.296875 216.195312 233.953125 Z M 229.875 215.089844 C 229.359375 217.257812 228.792969 219.363281 228.164062 221.359375 C 227.9375 222.101562 228.335938 222.898438 229.078125 223.125 C 229.191406 223.183594 229.359375 223.183594 229.476562 223.183594 C 230.101562 223.183594 230.671875 222.785156 230.84375 222.15625 C 231.46875 220.046875 232.097656 217.882812 232.609375 215.660156 C 232.78125 214.917969 232.324219 214.121094 231.527344 213.949219 C 230.84375 213.835938 230.101562 214.347656 229.875 215.089844 Z M 177.78125 97.683594 C 177.382812 97 176.527344 96.773438 175.84375 97.171875 C 175.160156 97.570312 174.933594 98.425781 175.332031 99.109375 C 176.414062 100.933594 177.667969 102.757812 179.207031 104.46875 C 179.492188 104.808594 179.890625 104.980469 180.289062 104.980469 C 180.632812 104.980469 180.972656 104.867188 181.203125 104.636719 C 181.828125 104.125 181.886719 103.214844 181.375 102.644531 C 179.949219 101.046875 178.75 99.339844 177.78125 97.683594 Z M 199.441406 134.332031 C 197.21875 133.988281 194.878906 134.105469 192.542969 134.671875 C 191.804688 134.84375 191.289062 135.640625 191.460938 136.382812 C 191.632812 137.066406 192.203125 137.464844 192.828125 137.464844 C 192.941406 137.464844 193.058594 137.464844 193.171875 137.410156 C 195.164062 136.953125 197.101562 136.839844 198.984375 137.125 C 199.78125 137.238281 200.464844 136.726562 200.578125 135.925781 C 200.75 135.1875 200.179688 134.445312 199.441406 134.332031 Z M 133.726562 52.035156 C 133.839844 52.035156 133.898438 52.035156 134.011719 52.035156 C 134.695312 52.035156 135.265625 51.578125 135.378906 50.894531 C 136.0625 47.417969 136.347656 44.113281 136.121094 41.148438 C 136.0625 40.351562 135.4375 39.78125 134.640625 39.835938 C 133.839844 39.894531 133.273438 40.578125 133.328125 41.320312 C 133.5 44.054688 133.273438 47.132812 132.644531 50.382812 C 132.472656 51.121094 132.988281 51.863281 133.726562 52.035156 Z M 70.066406 163.96875 C 70.125 163.96875 70.125 163.96875 70.179688 163.96875 C 70.921875 163.96875 71.546875 163.398438 71.605469 162.65625 C 71.777344 159.863281 72.0625 157.070312 72.515625 154.394531 C 73.316406 149.320312 75.878906 143.5625 79.1875 137.75 C 73.601562 154.394531 78.21875 164.59375 78.5 165.277344 C 78.730469 165.792969 79.242188 166.078125 79.8125 166.078125 C 80.039062 166.078125 80.210938 166.019531 80.441406 165.960938 C 81.125 165.621094 81.464844 164.765625 81.125 164.082031 C 81.007812 163.855469 71.035156 141.742188 100.445312 108.800781 C 116.972656 90.277344 127.972656 73.691406 133.101562 59.558594 C 133.386719 58.816406 132.988281 58.019531 132.246094 57.734375 C 131.503906 57.449219 130.707031 57.847656 130.421875 58.589844 C 125.464844 72.378906 114.636719 88.679688 98.335938 106.917969 C 96.796875 108.628906 95.371094 110.335938 94.003906 111.992188 C 93.890625 112.046875 93.777344 112.160156 93.660156 112.277344 C 84.371094 123.902344 71.832031 140.941406 69.726562 153.9375 C 69.269531 156.730469 68.984375 159.636719 68.757812 162.484375 C 68.640625 163.226562 69.269531 163.910156 70.066406 163.96875 Z M 70.523438 176.792969 C 71.320312 176.675781 71.832031 175.992188 71.777344 175.195312 C 71.777344 175.195312 71.433594 172.574219 71.433594 168.414062 C 71.433594 167.617188 70.808594 166.988281 70.011719 166.988281 C 69.210938 166.988281 68.585938 167.617188 68.585938 168.414062 C 68.585938 172.746094 68.925781 175.421875 68.984375 175.539062 C 69.097656 176.277344 69.667969 176.792969 70.410156 176.792969 C 70.410156 176.792969 70.464844 176.792969 70.523438 176.792969 Z M 70.523438 176.792969 " fill-opacity="1" fill-rule="nonzero"/></svg>