<svg xmlns="http://www.w3.org/2000/svg" xmlns:xlink="http://www.w3.org/1999/xlink" width="500" zoomAndPan="magnify" viewBox="0 0 375 374.999991" height="500" preserveAspectRatio="xMidYMid meet" version="1.0"><defs><clipPath id="8951511135"><path d="M 112 18.136719 L 250 18.136719 L 250 311 L 112 311 Z M 112 18.136719 " clip-rule="nonzero"/></clipPath><clipPath id="0a8a17d898"><path d="M 85 18.136719 L 288 18.136719 L 288 349 L 85 349 Z M 85 18.136719 " clip-rule="nonzero"/></clipPath></defs><g clip-path="url(#8951511135)"><path fill="#1976d2" d="M 202.078125 77.191406 C 202.34375 79.765625 202.804688 87.222656 202.144531 96.726562 C 202.871094 89.136719 202.671875 83.066406 202.078125 77.191406 Z M 217.191406 164.496094 C 238.574219 161.328125 246.625 128.796875 201.949219 76.203125 C 201.949219 76.203125 218.117188 104.578125 218.117188 135.527344 C 218.117188 164.496094 187.164062 156.777344 195.214844 129.523438 C 195.679688 127.871094 196.140625 126.289062 196.601562 124.769531 C 187.890625 148.726562 198.449219 167.136719 217.191406 164.496094 Z M 187.695312 217.488281 C 198.121094 206.929688 216.464844 218.015625 216.53125 236.292969 C 216.664062 254.574219 206.039062 267.640625 187.957031 270.476562 C 152.984375 275.953125 131.207031 239.066406 149.949219 191.222656 C 176.871094 122.261719 189.871094 84.320312 182.347656 18.394531 C 182.347656 18.394531 184.921875 69.339844 157.933594 116.257812 C 131.007812 163.175781 101.511719 213.59375 117.480469 262.558594 C 133.449219 311.523438 186.902344 323.007812 223.855469 297.003906 C 282.125 256.027344 228.871094 166.9375 187.695312 217.488281 Z M 187.695312 217.488281 " fill-opacity="1" fill-rule="nonzero"/></g><g clip-path="url(#0a8a17d898)"><path fill="#00529c" d="M 237.847656 181.257812 C 193.566406 176.902344 187.695312 217.488281 187.695312 217.488281 C 228.804688 166.9375 282.125 256.027344 223.855469 297.003906 C 186.902344 322.941406 133.449219 311.457031 117.480469 262.558594 C 101.511719 213.59375 130.941406 163.175781 157.933594 116.257812 C 184.921875 69.339844 182.347656 18.394531 182.347656 18.394531 C 158.394531 125.429688 100.652344 150.308594 87.324219 219.996094 C 76.566406 276.152344 105.601562 335.675781 164.53125 346.101562 C 223.460938 356.59375 259.625 328.878906 278.957031 289.550781 C 298.425781 250.21875 282.058594 185.546875 237.847656 181.257812 Z M 218.117188 135.460938 C 218.117188 104.511719 201.949219 76.136719 201.949219 76.136719 C 202.015625 76.464844 202.015625 76.796875 202.078125 77.125 C 202.671875 83.066406 202.871094 89.136719 202.144531 96.660156 C 201.417969 104.117188 199.769531 113.023438 196.535156 124.640625 C 196.140625 126.15625 195.679688 127.742188 195.152344 129.390625 C 187.164062 156.710938 218.117188 164.496094 218.117188 135.460938 Z M 218.117188 135.460938 " fill-opacity="1" fill-rule="nonzero"/></g></svg>