<?xml version="1.0" encoding="utf-8"?>
<svg width="321.735" height="315.946" viewBox="0 0 321.735 315.946" fill="none" xmlns="http://www.w3.org/2000/svg">
  <defs>
    <linearGradient id="gradient_1" gradientUnits="userSpaceOnUse" x1="160.867" y1="0" x2="160.867" y2="315.946">
      <stop offset="0.185" stop-color="#952D00" />
      <stop offset="1" stop-color="#FF690B" />
    </linearGradient>
  </defs>
  <path d="M172.449 193.657C171.366 272.214 117.814 311.068 152.86 314.75C225.371 322.375 264.694 292.625 246.855 251.584C229.011 210.542 199.298 273.349 172.449 193.657ZM135.756 185.844C67.1833 224.183 6.75624 197.245 21.0896 229.438C50.7406 296.042 96.1677 315.219 122.793 279.245C149.418 243.277 80.1677 248.948 135.756 185.844ZM197.564 165.792C265.048 206.006 271.923 271.808 292.636 243.297C335.496 184.313 329.397 135.381 284.933 130.318C240.465 125.24 280.011 182.381 197.564 165.792ZM124.173 150.167C56.6885 109.943 49.8135 44.1411 29.1 72.6567C-13.7646 131.641 -7.66043 180.563 36.8083 185.636C81.2719 190.704 41.7302 133.568 124.173 150.167ZM185.985 130.105C254.553 91.7661 314.985 118.709 300.652 86.5161C270.991 19.9119 225.574 0.72963 198.944 36.7088C172.324 72.6828 241.574 66.9953 185.985 130.105ZM149.288 122.292C150.376 43.7348 203.928 4.87547 168.876 1.19318C96.3656 -6.42141 57.0427 23.3234 74.8812 64.3651C92.725 105.407 122.439 42.5994 149.288 122.292Z" fill="url(#gradient_1)" fill-rule="evenodd" transform="translate(0 -0)" />
</svg>