<svg xmlns="http://www.w3.org/2000/svg" xmlns:xlink="http://www.w3.org/1999/xlink" width="600" zoomAndPan="magnify" viewBox="0 0 450 48.75" height="65" preserveAspectRatio="xMidYMid meet" version="1.0"><defs><g/></defs><g fill="currentcolor" fill-opacity="1"><g transform="translate(19.201209, 42.034438)"><g><path d="M 17 -18.890625 L 30.34375 -18.890625 L 30.34375 -1.453125 C 28.570312 -0.867188 26.734375 -0.40625 24.828125 -0.0625 C 22.929688 0.28125 20.78125 0.453125 18.375 0.453125 C 15.03125 0.453125 12.191406 -0.203125 9.859375 -1.515625 C 7.535156 -2.835938 5.765625 -4.785156 4.546875 -7.359375 C 3.335938 -9.929688 2.734375 -13.097656 2.734375 -16.859375 C 2.734375 -20.390625 3.410156 -23.441406 4.765625 -26.015625 C 6.128906 -28.585938 8.117188 -30.578125 10.734375 -31.984375 C 13.347656 -33.398438 16.539062 -34.109375 20.3125 -34.109375 C 22.09375 -34.109375 23.847656 -33.914062 25.578125 -33.53125 C 27.304688 -33.15625 28.878906 -32.660156 30.296875 -32.046875 L 27.921875 -26.34375 C 26.898438 -26.863281 25.726562 -27.296875 24.40625 -27.640625 C 23.082031 -27.992188 21.703125 -28.171875 20.265625 -28.171875 C 18.191406 -28.171875 16.390625 -27.695312 14.859375 -26.75 C 13.335938 -25.800781 12.160156 -24.472656 11.328125 -22.765625 C 10.492188 -21.054688 10.078125 -19.039062 10.078125 -16.71875 C 10.078125 -14.53125 10.375 -12.585938 10.96875 -10.890625 C 11.570312 -9.191406 12.515625 -7.863281 13.796875 -6.90625 C 15.085938 -5.945312 16.769531 -5.46875 18.84375 -5.46875 C 19.851562 -5.46875 20.707031 -5.519531 21.40625 -5.625 C 22.101562 -5.726562 22.757812 -5.832031 23.375 -5.9375 L 23.375 -12.953125 L 17 -12.953125 Z M 17 -18.890625 "/></g></g></g><g fill="currentcolor" fill-opacity="1"><g transform="translate(53.315943, 42.034438)"><g><path d="M 4.234375 0 L 4.234375 -33.625 L 11.359375 -33.625 L 11.359375 -5.890625 L 25 -5.890625 L 25 0 Z M 4.234375 0 "/></g></g></g><g fill="currentcolor" fill-opacity="1"><g transform="translate(79.931418, 42.034438)"><g><path d="M 34.75 -16.859375 C 34.75 -14.265625 34.425781 -11.90625 33.78125 -9.78125 C 33.144531 -7.664062 32.171875 -5.835938 30.859375 -4.296875 C 29.546875 -2.765625 27.882812 -1.585938 25.875 -0.765625 C 23.863281 0.046875 21.488281 0.453125 18.75 0.453125 C 16 0.453125 13.617188 0.046875 11.609375 -0.765625 C 9.609375 -1.585938 7.953125 -2.765625 6.640625 -4.296875 C 5.328125 -5.835938 4.347656 -7.671875 3.703125 -9.796875 C 3.054688 -11.929688 2.734375 -14.300781 2.734375 -16.90625 C 2.734375 -20.382812 3.304688 -23.414062 4.453125 -26 C 5.597656 -28.582031 7.359375 -30.585938 9.734375 -32.015625 C 12.109375 -33.441406 15.128906 -34.15625 18.796875 -34.15625 C 22.441406 -34.15625 25.441406 -33.441406 27.796875 -32.015625 C 30.148438 -30.585938 31.894531 -28.578125 33.03125 -25.984375 C 34.175781 -23.398438 34.75 -20.359375 34.75 -16.859375 Z M 10.21875 -16.859375 C 10.21875 -14.515625 10.507812 -12.492188 11.09375 -10.796875 C 11.6875 -9.109375 12.609375 -7.804688 13.859375 -6.890625 C 15.117188 -5.972656 16.75 -5.515625 18.75 -5.515625 C 20.769531 -5.515625 22.410156 -5.972656 23.671875 -6.890625 C 24.929688 -7.804688 25.847656 -9.109375 26.421875 -10.796875 C 26.992188 -12.492188 27.28125 -14.515625 27.28125 -16.859375 C 27.28125 -20.390625 26.617188 -23.164062 25.296875 -25.1875 C 23.984375 -27.207031 21.816406 -28.21875 18.796875 -28.21875 C 16.785156 -28.21875 15.144531 -27.757812 13.875 -26.84375 C 12.613281 -25.9375 11.6875 -24.632812 11.09375 -22.9375 C 10.507812 -21.25 10.21875 -19.222656 10.21875 -16.859375 Z M 10.21875 -16.859375 "/></g></g></g><g fill="currentcolor" fill-opacity="1"><g transform="translate(117.427717, 42.034438)"><g><path d="M 34.75 -16.859375 C 34.75 -14.265625 34.425781 -11.90625 33.78125 -9.78125 C 33.144531 -7.664062 32.171875 -5.835938 30.859375 -4.296875 C 29.546875 -2.765625 27.882812 -1.585938 25.875 -0.765625 C 23.863281 0.046875 21.488281 0.453125 18.75 0.453125 C 16 0.453125 13.617188 0.046875 11.609375 -0.765625 C 9.609375 -1.585938 7.953125 -2.765625 6.640625 -4.296875 C 5.328125 -5.835938 4.347656 -7.671875 3.703125 -9.796875 C 3.054688 -11.929688 2.734375 -14.300781 2.734375 -16.90625 C 2.734375 -20.382812 3.304688 -23.414062 4.453125 -26 C 5.597656 -28.582031 7.359375 -30.585938 9.734375 -32.015625 C 12.109375 -33.441406 15.128906 -34.15625 18.796875 -34.15625 C 22.441406 -34.15625 25.441406 -33.441406 27.796875 -32.015625 C 30.148438 -30.585938 31.894531 -28.578125 33.03125 -25.984375 C 34.175781 -23.398438 34.75 -20.359375 34.75 -16.859375 Z M 10.21875 -16.859375 C 10.21875 -14.515625 10.507812 -12.492188 11.09375 -10.796875 C 11.6875 -9.109375 12.609375 -7.804688 13.859375 -6.890625 C 15.117188 -5.972656 16.75 -5.515625 18.75 -5.515625 C 20.769531 -5.515625 22.410156 -5.972656 23.671875 -6.890625 C 24.929688 -7.804688 25.847656 -9.109375 26.421875 -10.796875 C 26.992188 -12.492188 27.28125 -14.515625 27.28125 -16.859375 C 27.28125 -20.390625 26.617188 -23.164062 25.296875 -25.1875 C 23.984375 -27.207031 21.816406 -28.21875 18.796875 -28.21875 C 16.785156 -28.21875 15.144531 -27.757812 13.875 -26.84375 C 12.613281 -25.9375 11.6875 -24.632812 11.09375 -22.9375 C 10.507812 -21.25 10.21875 -19.222656 10.21875 -16.859375 Z M 10.21875 -16.859375 "/></g></g></g><g fill="currentcolor" fill-opacity="1"><g transform="translate(154.924015, 42.034438)"><g><path d="M 18.46875 0 L 10.375 -26.390625 L 10.171875 -26.390625 C 10.203125 -25.753906 10.25 -24.800781 10.3125 -23.53125 C 10.382812 -22.269531 10.453125 -20.925781 10.515625 -19.5 C 10.578125 -18.070312 10.609375 -16.785156 10.609375 -15.640625 L 10.609375 0 L 4.234375 0 L 4.234375 -33.625 L 13.9375 -33.625 L 21.90625 -7.90625 L 22.03125 -7.90625 L 30.484375 -33.625 L 40.1875 -33.625 L 40.1875 0 L 33.53125 0 L 33.53125 -15.921875 C 33.53125 -16.972656 33.550781 -18.1875 33.59375 -19.5625 C 33.632812 -20.945312 33.6875 -22.265625 33.75 -23.515625 C 33.8125 -24.765625 33.859375 -25.707031 33.890625 -26.34375 L 33.671875 -26.34375 L 25 0 Z M 18.46875 0 "/></g></g></g><g fill="currentcolor" fill-opacity="1"><g transform="translate(199.344481, 42.034438)"><g/></g></g><g fill="currentcolor" fill-opacity="1"><g transform="translate(211.582537, 42.034438)"><g><path d="M 11.25 0 L 4.234375 0 L 4.234375 -33.625 L 23.515625 -33.625 L 23.515625 -27.78125 L 11.25 -27.78125 L 11.25 -19.109375 L 22.65625 -19.109375 L 22.65625 -13.296875 L 11.25 -13.296875 Z M 11.25 0 "/></g></g></g><g fill="currentcolor" fill-opacity="1"><g transform="translate(237.43888, 42.034438)"><g><path d="M 4.234375 0 L 4.234375 -33.625 L 11.359375 -33.625 L 11.359375 0 Z M 4.234375 0 "/></g></g></g><g fill="currentcolor" fill-opacity="1"><g transform="translate(253.035492, 42.034438)"><g><path d="M 34.0625 0 L 25 0 L 10.375 -25.4375 L 10.171875 -25.4375 C 10.234375 -24.382812 10.285156 -23.320312 10.328125 -22.25 C 10.367188 -21.175781 10.410156 -20.101562 10.453125 -19.03125 C 10.503906 -17.96875 10.554688 -16.898438 10.609375 -15.828125 L 10.609375 0 L 4.234375 0 L 4.234375 -33.625 L 13.21875 -33.625 L 27.828125 -8.4375 L 28 -8.4375 C 27.96875 -9.476562 27.925781 -10.515625 27.875 -11.546875 C 27.832031 -12.578125 27.789062 -13.601562 27.75 -14.625 C 27.707031 -15.65625 27.675781 -16.6875 27.65625 -17.71875 L 27.65625 -33.625 L 34.0625 -33.625 Z M 34.0625 0 "/></g></g></g><g fill="currentcolor" fill-opacity="1"><g transform="translate(291.33693, 42.034438)"><g><path d="M 24.8125 0 L 22.375 -8 L 10.125 -8 L 7.6875 0 L 0 0 L 11.875 -33.765625 L 20.59375 -33.765625 L 32.5 0 Z M 20.671875 -13.984375 L 18.234375 -21.8125 C 18.085938 -22.332031 17.882812 -23 17.625 -23.8125 C 17.375 -24.632812 17.125 -25.472656 16.875 -26.328125 C 16.625 -27.179688 16.421875 -27.921875 16.265625 -28.546875 C 16.109375 -27.921875 15.894531 -27.140625 15.625 -26.203125 C 15.363281 -25.273438 15.109375 -24.394531 14.859375 -23.5625 C 14.609375 -22.738281 14.429688 -22.15625 14.328125 -21.8125 L 11.921875 -13.984375 Z M 20.671875 -13.984375 "/></g></g></g><g fill="currentcolor" fill-opacity="1"><g transform="translate(323.84141, 42.034438)"><g><path d="M 34.0625 0 L 25 0 L 10.375 -25.4375 L 10.171875 -25.4375 C 10.234375 -24.382812 10.285156 -23.320312 10.328125 -22.25 C 10.367188 -21.175781 10.410156 -20.101562 10.453125 -19.03125 C 10.503906 -17.96875 10.554688 -16.898438 10.609375 -15.828125 L 10.609375 0 L 4.234375 0 L 4.234375 -33.625 L 13.21875 -33.625 L 27.828125 -8.4375 L 28 -8.4375 C 27.96875 -9.476562 27.925781 -10.515625 27.875 -11.546875 C 27.832031 -12.578125 27.789062 -13.601562 27.75 -14.625 C 27.707031 -15.65625 27.675781 -16.6875 27.65625 -17.71875 L 27.65625 -33.625 L 34.0625 -33.625 Z M 34.0625 0 "/></g></g></g><g fill="currentcolor" fill-opacity="1"><g transform="translate(362.142864, 42.034438)"><g><path d="M 18.515625 -28.171875 C 17.148438 -28.171875 15.941406 -27.90625 14.890625 -27.375 C 13.835938 -26.851562 12.953125 -26.09375 12.234375 -25.09375 C 11.523438 -24.09375 10.988281 -22.890625 10.625 -21.484375 C 10.257812 -20.078125 10.078125 -18.488281 10.078125 -16.71875 C 10.078125 -14.34375 10.367188 -12.316406 10.953125 -10.640625 C 11.546875 -8.960938 12.460938 -7.679688 13.703125 -6.796875 C 14.953125 -5.910156 16.554688 -5.46875 18.515625 -5.46875 C 19.878906 -5.46875 21.25 -5.617188 22.625 -5.921875 C 24 -6.234375 25.488281 -6.675781 27.09375 -7.25 L 27.09375 -1.265625 C 25.601562 -0.648438 24.140625 -0.210938 22.703125 0.046875 C 21.265625 0.316406 19.644531 0.453125 17.84375 0.453125 C 14.382812 0.453125 11.535156 -0.257812 9.296875 -1.6875 C 7.066406 -3.125 5.414062 -5.132812 4.34375 -7.71875 C 3.269531 -10.300781 2.734375 -13.316406 2.734375 -16.765625 C 2.734375 -19.316406 3.078125 -21.648438 3.765625 -23.765625 C 4.460938 -25.878906 5.476562 -27.707031 6.8125 -29.25 C 8.144531 -30.800781 9.789062 -32 11.75 -32.84375 C 13.71875 -33.6875 15.972656 -34.109375 18.515625 -34.109375 C 20.191406 -34.109375 21.867188 -33.894531 23.546875 -33.46875 C 25.222656 -33.050781 26.828125 -32.476562 28.359375 -31.75 L 26.0625 -25.953125 C 24.800781 -26.546875 23.535156 -27.0625 22.265625 -27.5 C 20.992188 -27.945312 19.742188 -28.171875 18.515625 -28.171875 Z M 18.515625 -28.171875 "/></g></g></g><g fill="currentcolor" fill-opacity="1"><g transform="translate(392.162895, 42.034438)"><g><path d="M 23.59375 0 L 4.234375 0 L 4.234375 -33.625 L 23.59375 -33.625 L 23.59375 -27.78125 L 11.359375 -27.78125 L 11.359375 -20.40625 L 22.75 -20.40625 L 22.75 -14.5625 L 11.359375 -14.5625 L 11.359375 -5.890625 L 23.59375 -5.890625 Z M 23.59375 0 "/></g></g></g><g fill="currentcolor" fill-opacity="1"><g transform="translate(418.55362, 42.034438)"><g/></g></g></svg>