<svg xmlns="http://www.w3.org/2000/svg" xmlns:xlink="http://www.w3.org/1999/xlink" width="800" zoomAndPan="magnify" viewBox="0 0 600 48.75" height="65" preserveAspectRatio="xMidYMid meet" version="1.0"><defs><g/></defs><g fill="#000000" fill-opacity="1"><g transform="translate(207.11585, 41.785715)"><g><path d="M 19.8125 0.96875 C 29.046875 0.96875 36.453125 -6.53125 36.453125 -16.125 C 36.453125 -20.15625 34.609375 -21.90625 31.796875 -21.90625 L 22.046875 -21.90625 C 19.1875 -21.90625 17.453125 -20.265625 17.453125 -17.359375 C 17.453125 -14.59375 19.1875 -12.921875 22.109375 -12.921875 L 26.4375 -12.921875 C 25.9375 -10 23.078125 -7.96875 19.609375 -7.96875 C 14.453125 -7.96875 11.328125 -12.296875 11.328125 -18.171875 C 11.328125 -24.25 15.0625 -28.375 19.859375 -28.375 C 23.53125 -28.375 25.3125 -26.90625 26.390625 -25.984375 C 27.46875 -25.0625 28.484375 -24.703125 29.8125 -24.703125 C 32.46875 -24.703125 34.046875 -26.390625 34.046875 -28.640625 C 34.046875 -31.09375 32.71875 -33.078125 30.53125 -34.5 C 27.765625 -36.296875 23.78125 -37.3125 19.5 -37.3125 C 8.875 -37.3125 0.96875 -29.359375 0.96875 -17.8125 C 0.96875 -8.53125 7.046875 0.96875 19.8125 0.96875 Z M 2.75 -18.28125 C 2.453125 -18.28125 2.34375 -18.53125 2.34375 -19.09375 C 2.34375 -27.203125 8.9375 -35.9375 19.1875 -35.9375 C 19.90625 -35.9375 20.265625 -35.734375 20.265625 -35.328125 C 20.265625 -34.921875 19.90625 -34.609375 18.984375 -34.609375 C 9.296875 -34.609375 3.9375 -25.9375 3.171875 -18.9375 C 3.109375 -18.484375 3.0625 -18.28125 2.75 -18.28125 Z M 19.140625 -16.84375 C 18.84375 -16.84375 18.6875 -17.203125 18.6875 -17.609375 C 18.6875 -19.296875 19.90625 -20.71875 22.25 -20.71875 L 32 -20.71875 C 32.421875 -20.71875 32.765625 -20.46875 32.765625 -20.21875 C 32.765625 -19.90625 32.421875 -19.65625 32 -19.65625 L 22.71875 -19.65625 C 20.578125 -19.65625 19.75 -18.53125 19.5 -17.453125 C 19.453125 -17.09375 19.390625 -16.84375 19.140625 -16.84375 Z M 20.671875 -6.03125 C 20.375 -6.03125 20.15625 -6.234375 20.15625 -6.53125 C 20.15625 -6.84375 20.3125 -6.9375 20.78125 -7 C 22.453125 -7.203125 23.984375 -7.8125 25.21875 -8.78125 C 26.03125 -9.4375 26.75 -10.3125 27.109375 -10.96875 C 27.46875 -11.640625 27.671875 -11.84375 27.828125 -11.84375 C 28.03125 -11.84375 28.28125 -11.6875 28.28125 -11.390625 C 28.28125 -10.96875 28.078125 -10.5625 27.875 -10.15625 C 26.84375 -8.109375 23.578125 -6.03125 20.671875 -6.03125 Z M 20.671875 -6.03125 "/></g></g></g><g fill="#000000" fill-opacity="1"><g transform="translate(244.836628, 41.785715)"><g><path d="M 6.578125 0 L 20.375 0 C 23.078125 0 25.015625 -1.78125 25.015625 -4.484375 C 25.015625 -7.34375 23.125 -8.9375 20.265625 -8.9375 L 11.53125 -8.9375 L 11.53125 -31.796875 C 11.53125 -34.859375 9.546875 -36.65625 6.734375 -36.65625 C 3.875 -36.65625 1.890625 -34.859375 1.890625 -31.796875 L 1.890625 -4.75 C 1.890625 -2.046875 4.03125 0 6.578125 0 Z M 3.515625 -29.96875 C 3.21875 -29.96875 3.0625 -30.53125 3.0625 -31.703125 C 3.0625 -34.09375 4.75 -35.484375 6.9375 -35.484375 C 7.203125 -35.484375 7.34375 -35.328125 7.34375 -35.171875 C 7.34375 -35.0625 7.25 -34.921875 7 -34.8125 C 5.15625 -34.203125 4.140625 -33.1875 3.9375 -30.578125 C 3.875 -30.21875 3.78125 -29.96875 3.515625 -29.96875 Z M 13.015625 -6.6875 C 12.609375 -6.6875 12.25 -6.9375 12.25 -7.25 C 12.25 -7.5625 12.609375 -7.765625 13.015625 -7.765625 L 20.015625 -7.765625 C 20.421875 -7.765625 20.78125 -7.5 20.78125 -7.25 C 20.78125 -6.9375 20.421875 -6.6875 20.015625 -6.6875 Z M 13.015625 -6.6875 "/></g></g></g><g fill="#000000" fill-opacity="1"><g transform="translate(269.337272, 41.785715)"><g><path d="M 19.609375 0.96875 C 30.984375 0.96875 38.1875 -6.53125 38.1875 -18.171875 C 38.1875 -30.171875 30.625 -37.3125 19.609375 -37.3125 C 8.375 -37.3125 0.96875 -30.015625 0.96875 -18.21875 C 0.96875 -6.328125 8.46875 0.96875 19.609375 0.96875 Z M 2.75 -18.28125 C 2.453125 -18.28125 2.34375 -18.53125 2.34375 -19.09375 C 2.34375 -27.96875 8.578125 -35.9375 19.1875 -35.9375 C 20.625 -35.9375 21.140625 -35.6875 21.140625 -35.21875 C 21.140625 -34.859375 20.515625 -34.609375 18.984375 -34.609375 C 8.578125 -34.609375 3.671875 -26.34375 3.171875 -18.9375 C 3.109375 -18.484375 3.0625 -18.28125 2.75 -18.28125 Z M 19.546875 -7.96875 C 14.75 -7.96875 11.328125 -11.796875 11.328125 -18.171875 C 11.328125 -24.25 14.5 -28.375 19.546875 -28.375 C 25.015625 -28.375 27.828125 -23.9375 27.828125 -17.921875 C 27.828125 -12 24.75 -7.96875 19.546875 -7.96875 Z M 21.078125 -5.921875 C 20.515625 -5.921875 20.375 -6.125 20.375 -6.375 C 20.375 -6.6875 20.515625 -6.796875 20.984375 -6.84375 C 22.671875 -7.046875 24.453125 -7.703125 26.078125 -9.234375 C 27.359375 -10.46875 28.28125 -12.359375 28.6875 -13.6875 C 28.84375 -14.1875 29.046875 -14.390625 29.25 -14.390625 C 29.5625 -14.390625 29.90625 -14.1875 29.90625 -13.828125 C 29.90625 -13.421875 29.765625 -13.015625 29.609375 -12.609375 C 28.375 -9.296875 25.78125 -7 21.640625 -5.96875 C 21.4375 -5.921875 21.234375 -5.921875 21.078125 -5.921875 Z M 21.078125 -5.921875 "/></g></g></g><g fill="#000000" fill-opacity="1"><g transform="translate(308.487251, 41.785715)"><g><path d="M 19.609375 0.96875 C 30.984375 0.96875 38.1875 -6.53125 38.1875 -18.171875 C 38.1875 -30.171875 30.625 -37.3125 19.609375 -37.3125 C 8.375 -37.3125 0.96875 -30.015625 0.96875 -18.21875 C 0.96875 -6.328125 8.46875 0.96875 19.609375 0.96875 Z M 2.75 -18.28125 C 2.453125 -18.28125 2.34375 -18.53125 2.34375 -19.09375 C 2.34375 -27.96875 8.578125 -35.9375 19.1875 -35.9375 C 20.625 -35.9375 21.140625 -35.6875 21.140625 -35.21875 C 21.140625 -34.859375 20.515625 -34.609375 18.984375 -34.609375 C 8.578125 -34.609375 3.671875 -26.34375 3.171875 -18.9375 C 3.109375 -18.484375 3.0625 -18.28125 2.75 -18.28125 Z M 19.546875 -7.96875 C 14.75 -7.96875 11.328125 -11.796875 11.328125 -18.171875 C 11.328125 -24.25 14.5 -28.375 19.546875 -28.375 C 25.015625 -28.375 27.828125 -23.9375 27.828125 -17.921875 C 27.828125 -12 24.75 -7.96875 19.546875 -7.96875 Z M 21.078125 -5.921875 C 20.515625 -5.921875 20.375 -6.125 20.375 -6.375 C 20.375 -6.6875 20.515625 -6.796875 20.984375 -6.84375 C 22.671875 -7.046875 24.453125 -7.703125 26.078125 -9.234375 C 27.359375 -10.46875 28.28125 -12.359375 28.6875 -13.6875 C 28.84375 -14.1875 29.046875 -14.390625 29.25 -14.390625 C 29.5625 -14.390625 29.90625 -14.1875 29.90625 -13.828125 C 29.90625 -13.421875 29.765625 -13.015625 29.609375 -12.609375 C 28.375 -9.296875 25.78125 -7 21.640625 -5.96875 C 21.4375 -5.921875 21.234375 -5.921875 21.078125 -5.921875 Z M 21.078125 -5.921875 "/></g></g></g><g fill="#000000" fill-opacity="1"><g transform="translate(347.637231, 41.785715)"><g><path d="M 5.40625 0.3125 C 7.90625 0.3125 9.953125 -0.25 10.828125 -5.96875 L 12.765625 -18.53125 L 12.859375 -18.53125 L 17.359375 -3.78125 C 18.21875 -0.875 19.609375 0.3125 22.671875 0.3125 C 25.515625 0.3125 26.953125 -0.96875 27.71875 -3.421875 L 32.421875 -18.53125 L 32.515625 -18.53125 L 34.359375 -6.578125 C 35.125 -1.734375 35.9375 0.3125 39.8125 0.3125 C 42.78125 0.3125 44.46875 -1.9375 44.46875 -4.34375 C 44.46875 -4.953125 44.359375 -6.640625 43.90625 -9.09375 L 40.015625 -29.96875 C 39.109375 -35.015625 37.15625 -36.65625 33.53125 -36.65625 C 29.203125 -36.65625 27.96875 -33.640625 25.515625 -25.734375 L 22.71875 -16.75 L 22.609375 -16.75 L 18.984375 -27.875 C 17.15625 -33.484375 15.984375 -36.65625 11.328125 -36.65625 C 8.265625 -36.65625 6.125 -34.96875 5.203125 -30.015625 L 2.34375 -14.796875 C 1.015625 -7.65625 0.765625 -5.203125 0.765625 -4.34375 C 0.765625 -1.984375 2.453125 0.3125 5.40625 0.3125 Z M 24.609375 -15.265625 C 24.34375 -15.265625 24.203125 -15.421875 24.203125 -15.875 C 24.203125 -16.390625 24.34375 -17.203125 24.75 -18.421875 L 28.484375 -30.328125 C 29.65625 -34.046875 31.796875 -35.625 33.640625 -35.625 C 34.40625 -35.625 34.65625 -35.421875 34.65625 -35.125 C 34.65625 -34.71875 34.453125 -34.71875 33.890625 -34.71875 C 31.59375 -34.71875 30.328125 -32.359375 29.609375 -30.0625 L 25.515625 -17.09375 C 25.015625 -15.515625 24.859375 -15.265625 24.609375 -15.265625 Z M 2.453125 -4.390625 C 2.1875 -4.390625 2.046875 -4.640625 2.046875 -5.359375 C 2.046875 -5.875 2.09375 -6.578125 2.296875 -7.5625 L 6.328125 -29.5625 C 7.140625 -33.890625 9.140625 -35.484375 11.234375 -35.484375 C 12 -35.484375 12.609375 -35.328125 12.609375 -34.96875 C 12.609375 -34.8125 12.5625 -34.65625 12.296875 -34.65625 C 12.25 -34.65625 12.25 -34.65625 12.203125 -34.65625 L 11.6875 -34.71875 C 9.4375 -34.71875 7.96875 -32.15625 7.453125 -29.453125 L 3.21875 -6.328125 C 2.90625 -4.59375 2.75 -4.390625 2.453125 -4.390625 Z M 2.453125 -4.390625 "/></g></g></g></svg>