<svg xmlns="http://www.w3.org/2000/svg" xmlns:xlink="http://www.w3.org/1999/xlink" width="600" zoomAndPan="magnify" viewBox="12 12 450 50" height="65" preserveAspectRatio="xMidYMid meet" version="1.0"><defs><g/></defs><g fill="currentcolor" fill-opacity="1"><g transform="translate(9.000002, 62.647659)"><g><path d="M 42.3125 0 L 32.859375 0 L 32.859375 -19.3125 L 15.125 -19.3125 L 15.125 0 L 5.640625 0 L 5.640625 -44.765625 L 15.125 -44.765625 L 15.125 -27.21875 L 32.859375 -27.21875 L 32.859375 -44.765625 L 42.3125 -44.765625 Z M 42.3125 0 "/></g></g></g><g fill="currentcolor" fill-opacity="1"><g transform="translate(56.963418, 62.647659)"><g><path d="M 19.5625 -26.328125 L 28.90625 -44.765625 L 39.125 -44.765625 L 24.28125 -17.421875 L 24.28125 0 L 14.84375 0 L 14.84375 -17.109375 L 0 -44.765625 L 10.28125 -44.765625 Z M 19.5625 -26.328125 "/></g></g></g><g fill="currentcolor" fill-opacity="1"><g transform="translate(96.080924, 62.647659)"><g><path d="M 42.765625 -22.8125 C 42.765625 -15.4375 40.664062 -9.789062 36.46875 -5.875 C 32.28125 -1.957031 26.226562 0 18.3125 0 L 5.640625 0 L 5.640625 -44.765625 L 19.6875 -44.765625 C 26.988281 -44.765625 32.660156 -42.832031 36.703125 -38.96875 C 40.742188 -35.113281 42.765625 -29.726562 42.765625 -22.8125 Z M 32.90625 -22.5625 C 32.90625 -32.175781 28.660156 -36.984375 20.171875 -36.984375 L 15.125 -36.984375 L 15.125 -7.84375 L 19.203125 -7.84375 C 28.335938 -7.84375 32.90625 -12.75 32.90625 -22.5625 Z M 32.90625 -22.5625 "/></g></g></g><g fill="currentcolor" fill-opacity="1"><g transform="translate(142.483224, 62.647659)"><g><path d="M 15.125 -24.890625 L 18.1875 -24.890625 C 21.1875 -24.890625 23.398438 -25.390625 24.828125 -26.390625 C 26.253906 -27.390625 26.96875 -28.960938 26.96875 -31.109375 C 26.96875 -33.234375 26.238281 -34.742188 24.78125 -35.640625 C 23.320312 -36.535156 21.0625 -36.984375 18 -36.984375 L 15.125 -36.984375 Z M 15.125 -17.171875 L 15.125 0 L 5.640625 0 L 5.640625 -44.765625 L 18.671875 -44.765625 C 24.753906 -44.765625 29.253906 -43.65625 32.171875 -41.4375 C 35.097656 -39.226562 36.5625 -35.867188 36.5625 -31.359375 C 36.5625 -28.722656 35.832031 -26.378906 34.375 -24.328125 C 32.925781 -22.273438 30.878906 -20.664062 28.234375 -19.5 C 34.960938 -9.4375 39.347656 -2.9375 41.390625 0 L 30.859375 0 L 20.171875 -17.171875 Z M 15.125 -17.171875 "/></g></g></g><g fill="currentcolor" fill-opacity="1"><g transform="translate(183.865749, 62.647659)"><g><path d="M 46.265625 -22.4375 C 46.265625 -15.03125 44.425781 -9.335938 40.75 -5.359375 C 37.070312 -1.378906 31.804688 0.609375 24.953125 0.609375 C 18.097656 0.609375 12.832031 -1.378906 9.15625 -5.359375 C 5.476562 -9.335938 3.640625 -15.050781 3.640625 -22.5 C 3.640625 -29.945312 5.484375 -35.632812 9.171875 -39.5625 C 12.859375 -43.5 18.140625 -45.46875 25.015625 -45.46875 C 31.890625 -45.46875 37.148438 -43.488281 40.796875 -39.53125 C 44.441406 -35.570312 46.265625 -29.875 46.265625 -22.4375 Z M 13.59375 -22.4375 C 13.59375 -17.4375 14.539062 -13.671875 16.4375 -11.140625 C 18.332031 -8.609375 21.171875 -7.34375 24.953125 -7.34375 C 32.523438 -7.34375 36.3125 -12.375 36.3125 -22.4375 C 36.3125 -32.519531 32.546875 -37.5625 25.015625 -37.5625 C 21.234375 -37.5625 18.382812 -36.289062 16.46875 -33.75 C 14.550781 -31.207031 13.59375 -27.4375 13.59375 -22.4375 Z M 13.59375 -22.4375 "/></g></g></g><g fill="currentcolor" fill-opacity="1"><g transform="translate(233.757404, 62.647659)"><g><path d="M 24.578125 0 L 13.8125 -35.125 L 13.53125 -35.125 C 13.914062 -27.976562 14.109375 -23.207031 14.109375 -20.8125 L 14.109375 0 L 5.640625 0 L 5.640625 -44.765625 L 18.546875 -44.765625 L 29.140625 -10.53125 L 29.328125 -10.53125 L 40.5625 -44.765625 L 53.484375 -44.765625 L 53.484375 0 L 44.640625 0 L 44.640625 -21.1875 C 44.640625 -22.1875 44.65625 -23.335938 44.6875 -24.640625 C 44.71875 -25.953125 44.851562 -29.425781 45.09375 -35.0625 L 44.828125 -35.0625 L 33.28125 0 Z M 24.578125 0 "/></g></g></g><g fill="currentcolor" fill-opacity="1"><g transform="translate(292.86227, 62.647659)"><g><path d="M 31.40625 0 L 5.640625 0 L 5.640625 -44.765625 L 31.40625 -44.765625 L 31.40625 -36.984375 L 15.125 -36.984375 L 15.125 -27.15625 L 30.28125 -27.15625 L 30.28125 -19.375 L 15.125 -19.375 L 15.125 -7.84375 L 31.40625 -7.84375 Z M 31.40625 0 "/></g></g></g><g fill="currentcolor" fill-opacity="1"><g transform="translate(327.970168, 62.647659)"><g><path d="M 22.90625 0 L 13.40625 0 L 13.40625 -36.859375 L 1.25 -36.859375 L 1.25 -44.765625 L 35.0625 -44.765625 L 35.0625 -36.859375 L 22.90625 -36.859375 Z M 22.90625 0 "/></g></g></g><g fill="currentcolor" fill-opacity="1"><g transform="translate(364.271703, 62.647659)"><g><path d="M 31.40625 0 L 5.640625 0 L 5.640625 -44.765625 L 31.40625 -44.765625 L 31.40625 -36.984375 L 15.125 -36.984375 L 15.125 -27.15625 L 30.28125 -27.15625 L 30.28125 -19.375 L 15.125 -19.375 L 15.125 -7.84375 L 31.40625 -7.84375 Z M 31.40625 0 "/></g></g></g><g fill="currentcolor" fill-opacity="1"><g transform="translate(399.3796, 62.647659)"><g><path d="M 15.125 -24.890625 L 18.1875 -24.890625 C 21.1875 -24.890625 23.398438 -25.390625 24.828125 -26.390625 C 26.253906 -27.390625 26.96875 -28.960938 26.96875 -31.109375 C 26.96875 -33.234375 26.238281 -34.742188 24.78125 -35.640625 C 23.320312 -36.535156 21.0625 -36.984375 18 -36.984375 L 15.125 -36.984375 Z M 15.125 -17.171875 L 15.125 0 L 5.640625 0 L 5.640625 -44.765625 L 18.671875 -44.765625 C 24.753906 -44.765625 29.253906 -43.65625 32.171875 -41.4375 C 35.097656 -39.226562 36.5625 -35.867188 36.5625 -31.359375 C 36.5625 -28.722656 35.832031 -26.378906 34.375 -24.328125 C 32.925781 -22.273438 30.878906 -20.664062 28.234375 -19.5 C 34.960938 -9.4375 39.347656 -2.9375 41.390625 0 L 30.859375 0 L 20.171875 -17.171875 Z M 15.125 -17.171875 "/></g></g></g></svg>