<svg xmlns="http://www.w3.org/2000/svg" xmlns:xlink="http://www.w3.org/1999/xlink" width="400" zoomAndPan="magnify" viewBox="0 0 300 48.75" height="65" preserveAspectRatio="xMidYMid meet" version="1.0"><defs><g/></defs><g fill="#000000" fill-opacity="1"><g transform="translate(62.119802, 41.039541)"><g><path d="M 17.859375 -16.578125 L 28.921875 -16.578125 L 28.921875 -1.234375 C 27.265625 -0.671875 25.554688 -0.253906 23.796875 0.015625 C 22.046875 0.296875 20.085938 0.4375 17.921875 0.4375 C 14.628906 0.4375 11.851562 -0.21875 9.59375 -1.53125 C 7.34375 -2.84375 5.628906 -4.710938 4.453125 -7.140625 C 3.285156 -9.578125 2.703125 -12.472656 2.703125 -15.828125 C 2.703125 -19.109375 3.347656 -21.96875 4.640625 -24.40625 C 5.929688 -26.84375 7.800781 -28.734375 10.25 -30.078125 C 12.695312 -31.429688 15.640625 -32.109375 19.078125 -32.109375 C 20.835938 -32.109375 22.503906 -31.945312 24.078125 -31.625 C 25.660156 -31.300781 27.132812 -30.84375 28.5 -30.25 L 27.09375 -27.046875 C 25.914062 -27.546875 24.625 -27.976562 23.21875 -28.34375 C 21.8125 -28.707031 20.359375 -28.890625 18.859375 -28.890625 C 16.273438 -28.890625 14.0625 -28.351562 12.21875 -27.28125 C 10.382812 -26.207031 8.976562 -24.695312 8 -22.75 C 7.019531 -20.800781 6.53125 -18.492188 6.53125 -15.828125 C 6.53125 -13.179688 6.957031 -10.878906 7.8125 -8.921875 C 8.664062 -6.972656 9.992188 -5.457031 11.796875 -4.375 C 13.597656 -3.289062 15.921875 -2.75 18.765625 -2.75 C 20.203125 -2.75 21.429688 -2.832031 22.453125 -3 C 23.472656 -3.164062 24.40625 -3.363281 25.25 -3.59375 L 25.25 -13.296875 L 17.859375 -13.296875 Z M 17.859375 -16.578125 "/></g></g></g><g fill="#000000" fill-opacity="1"><g transform="translate(94.356531, 41.039541)"><g><path d="M 4.328125 0 L 4.328125 -31.65625 L 8.015625 -31.65625 L 8.015625 -3.296875 L 22.0625 -3.296875 L 22.0625 0 Z M 4.328125 0 "/></g></g></g><g fill="#000000" fill-opacity="1"><g transform="translate(117.500296, 41.039541)"><g><path d="M 31.78125 -15.875 C 31.78125 -13.4375 31.46875 -11.21875 30.84375 -9.21875 C 30.226562 -7.21875 29.3125 -5.5 28.09375 -4.0625 C 26.875 -2.625 25.359375 -1.515625 23.546875 -0.734375 C 21.742188 0.046875 19.65625 0.4375 17.28125 0.4375 C 14.820312 0.4375 12.679688 0.046875 10.859375 -0.734375 C 9.035156 -1.515625 7.519531 -2.625 6.3125 -4.0625 C 5.101562 -5.507812 4.195312 -7.234375 3.59375 -9.234375 C 3 -11.242188 2.703125 -13.472656 2.703125 -15.921875 C 2.703125 -19.148438 3.234375 -21.984375 4.296875 -24.421875 C 5.367188 -26.859375 6.988281 -28.753906 9.15625 -30.109375 C 11.332031 -31.472656 14.0625 -32.15625 17.34375 -32.15625 C 20.476562 -32.15625 23.113281 -31.484375 25.25 -30.140625 C 27.394531 -28.796875 29.019531 -26.90625 30.125 -24.46875 C 31.226562 -22.039062 31.78125 -19.175781 31.78125 -15.875 Z M 6.578125 -15.875 C 6.578125 -13.1875 6.957031 -10.859375 7.71875 -8.890625 C 8.488281 -6.929688 9.664062 -5.414062 11.25 -4.34375 C 12.832031 -3.28125 14.84375 -2.75 17.28125 -2.75 C 19.726562 -2.75 21.734375 -3.28125 23.296875 -4.34375 C 24.867188 -5.414062 26.03125 -6.929688 26.78125 -8.890625 C 27.53125 -10.859375 27.90625 -13.1875 27.90625 -15.875 C 27.90625 -19.957031 27.050781 -23.148438 25.34375 -25.453125 C 23.632812 -27.753906 20.96875 -28.90625 17.34375 -28.90625 C 14.882812 -28.90625 12.863281 -28.378906 11.28125 -27.328125 C 9.695312 -26.273438 8.515625 -24.773438 7.734375 -22.828125 C 6.960938 -20.890625 6.578125 -18.570312 6.578125 -15.875 Z M 6.578125 -15.875 "/></g></g></g><g fill="#000000" fill-opacity="1"><g transform="translate(151.988615, 41.039541)"><g><path d="M 31.78125 -15.875 C 31.78125 -13.4375 31.46875 -11.21875 30.84375 -9.21875 C 30.226562 -7.21875 29.3125 -5.5 28.09375 -4.0625 C 26.875 -2.625 25.359375 -1.515625 23.546875 -0.734375 C 21.742188 0.046875 19.65625 0.4375 17.28125 0.4375 C 14.820312 0.4375 12.679688 0.046875 10.859375 -0.734375 C 9.035156 -1.515625 7.519531 -2.625 6.3125 -4.0625 C 5.101562 -5.507812 4.195312 -7.234375 3.59375 -9.234375 C 3 -11.242188 2.703125 -13.472656 2.703125 -15.921875 C 2.703125 -19.148438 3.234375 -21.984375 4.296875 -24.421875 C 5.367188 -26.859375 6.988281 -28.753906 9.15625 -30.109375 C 11.332031 -31.472656 14.0625 -32.15625 17.34375 -32.15625 C 20.476562 -32.15625 23.113281 -31.484375 25.25 -30.140625 C 27.394531 -28.796875 29.019531 -26.90625 30.125 -24.46875 C 31.226562 -22.039062 31.78125 -19.175781 31.78125 -15.875 Z M 6.578125 -15.875 C 6.578125 -13.1875 6.957031 -10.859375 7.71875 -8.890625 C 8.488281 -6.929688 9.664062 -5.414062 11.25 -4.34375 C 12.832031 -3.28125 14.84375 -2.75 17.28125 -2.75 C 19.726562 -2.75 21.734375 -3.28125 23.296875 -4.34375 C 24.867188 -5.414062 26.03125 -6.929688 26.78125 -8.890625 C 27.53125 -10.859375 27.90625 -13.1875 27.90625 -15.875 C 27.90625 -19.957031 27.050781 -23.148438 25.34375 -25.453125 C 23.632812 -27.753906 20.96875 -28.90625 17.34375 -28.90625 C 14.882812 -28.90625 12.863281 -28.378906 11.28125 -27.328125 C 9.695312 -26.273438 8.515625 -24.773438 7.734375 -22.828125 C 6.960938 -20.890625 6.578125 -18.570312 6.578125 -15.875 Z M 6.578125 -15.875 "/></g></g></g><g fill="#000000" fill-opacity="1"><g transform="translate(186.476934, 41.039541)"><g><path d="M 18.25 0 L 7.625 -28.015625 L 7.453125 -28.015625 C 7.503906 -27.421875 7.550781 -26.695312 7.59375 -25.84375 C 7.644531 -25 7.679688 -24.070312 7.703125 -23.0625 C 7.734375 -22.0625 7.75 -21.039062 7.75 -20 L 7.75 0 L 4.328125 0 L 4.328125 -31.65625 L 9.78125 -31.65625 L 19.8125 -5.328125 L 19.96875 -5.328125 L 30.140625 -31.65625 L 35.546875 -31.65625 L 35.546875 0 L 31.921875 0 L 31.921875 -20.265625 C 31.921875 -21.203125 31.929688 -22.144531 31.953125 -23.09375 C 31.984375 -24.039062 32.019531 -24.9375 32.0625 -25.78125 C 32.101562 -26.625 32.148438 -27.351562 32.203125 -27.96875 L 32.03125 -27.96875 L 21.265625 0 Z M 18.25 0 "/></g></g></g><g fill="#000000" fill-opacity="1"><g transform="translate(226.359573, 41.039541)"><g/></g></g></svg>