<svg xmlns="http://www.w3.org/2000/svg" xmlns:xlink="http://www.w3.org/1999/xlink" width="400" zoomAndPan="magnify" viewBox="0 0 300 67.499998" height="90" preserveAspectRatio="xMidYMid meet" version="1.0"><defs><g/></defs><g fill="#000000" fill-opacity="1"><g transform="translate(22.537526, 58.069849)"><g><path d="M 23.484375 -26.09375 L 41.921875 -26.09375 L 41.921875 -2 C 39.484375 -1.195312 36.953125 -0.554688 34.328125 -0.078125 C 31.703125 0.398438 28.722656 0.640625 25.390625 0.640625 C 20.773438 0.640625 16.851562 -0.269531 13.625 -2.09375 C 10.40625 -3.914062 7.957031 -6.609375 6.28125 -10.171875 C 4.613281 -13.734375 3.78125 -18.109375 3.78125 -23.296875 C 3.78125 -28.171875 4.71875 -32.382812 6.59375 -35.9375 C 8.46875 -39.5 11.210938 -42.253906 14.828125 -44.203125 C 18.441406 -46.160156 22.851562 -47.140625 28.0625 -47.140625 C 30.519531 -47.140625 32.945312 -46.875 35.34375 -46.34375 C 37.738281 -45.8125 39.910156 -45.125 41.859375 -44.28125 L 38.578125 -36.390625 C 37.160156 -37.109375 35.539062 -37.710938 33.71875 -38.203125 C 31.894531 -38.691406 29.988281 -38.9375 28 -38.9375 C 25.132812 -38.9375 22.648438 -38.28125 20.546875 -36.96875 C 18.441406 -35.65625 16.8125 -33.816406 15.65625 -31.453125 C 14.5 -29.085938 13.921875 -26.304688 13.921875 -23.109375 C 13.921875 -20.078125 14.332031 -17.390625 15.15625 -15.046875 C 15.988281 -12.703125 17.289062 -10.867188 19.0625 -9.546875 C 20.84375 -8.222656 23.164062 -7.5625 26.03125 -7.5625 C 27.425781 -7.5625 28.601562 -7.628906 29.5625 -7.765625 C 30.53125 -7.910156 31.441406 -8.054688 32.296875 -8.203125 L 32.296875 -17.890625 L 23.484375 -17.890625 Z M 23.484375 -26.09375 "/></g></g></g><g fill="#000000" fill-opacity="1"><g transform="translate(69.666443, 58.069849)"><g><path d="M 5.84375 0 L 5.84375 -46.46875 L 15.703125 -46.46875 L 15.703125 -8.140625 L 34.546875 -8.140625 L 34.546875 0 Z M 5.84375 0 "/></g></g></g><g fill="#000000" fill-opacity="1"><g transform="translate(106.435263, 58.069849)"><g><path d="M 48.03125 -23.296875 C 48.03125 -19.710938 47.582031 -16.453125 46.6875 -13.515625 C 45.800781 -10.585938 44.453125 -8.0625 42.640625 -5.9375 C 40.828125 -3.820312 38.53125 -2.195312 35.75 -1.0625 C 32.976562 0.0703125 29.695312 0.640625 25.90625 0.640625 C 22.113281 0.640625 18.828125 0.0703125 16.046875 -1.0625 C 13.273438 -2.195312 10.984375 -3.820312 9.171875 -5.9375 C 7.359375 -8.0625 6.003906 -10.59375 5.109375 -13.53125 C 4.222656 -16.476562 3.78125 -19.753906 3.78125 -23.359375 C 3.78125 -28.171875 4.566406 -32.359375 6.140625 -35.921875 C 7.722656 -39.492188 10.15625 -42.265625 13.4375 -44.234375 C 16.726562 -46.210938 20.90625 -47.203125 25.96875 -47.203125 C 31.007812 -47.203125 35.15625 -46.210938 38.40625 -44.234375 C 41.664062 -42.265625 44.082031 -39.488281 45.65625 -35.90625 C 47.238281 -32.332031 48.03125 -28.128906 48.03125 -23.296875 Z M 14.109375 -23.296875 C 14.109375 -20.054688 14.515625 -17.265625 15.328125 -14.921875 C 16.148438 -12.578125 17.425781 -10.773438 19.15625 -9.515625 C 20.894531 -8.253906 23.144531 -7.625 25.90625 -7.625 C 28.695312 -7.625 30.960938 -8.253906 32.703125 -9.515625 C 34.441406 -10.773438 35.707031 -12.578125 36.5 -14.921875 C 37.300781 -17.265625 37.703125 -20.054688 37.703125 -23.296875 C 37.703125 -28.171875 36.789062 -32.003906 34.96875 -34.796875 C 33.144531 -37.597656 30.144531 -39 25.96875 -39 C 23.1875 -39 20.921875 -38.367188 19.171875 -37.109375 C 17.429688 -35.847656 16.148438 -34.046875 15.328125 -31.703125 C 14.515625 -29.359375 14.109375 -26.554688 14.109375 -23.296875 Z M 14.109375 -23.296875 "/></g></g></g><g fill="#000000" fill-opacity="1"><g transform="translate(158.235752, 58.069849)"><g><path d="M 48.03125 -23.296875 C 48.03125 -19.710938 47.582031 -16.453125 46.6875 -13.515625 C 45.800781 -10.585938 44.453125 -8.0625 42.640625 -5.9375 C 40.828125 -3.820312 38.53125 -2.195312 35.75 -1.0625 C 32.976562 0.0703125 29.695312 0.640625 25.90625 0.640625 C 22.113281 0.640625 18.828125 0.0703125 16.046875 -1.0625 C 13.273438 -2.195312 10.984375 -3.820312 9.171875 -5.9375 C 7.359375 -8.0625 6.003906 -10.59375 5.109375 -13.53125 C 4.222656 -16.476562 3.78125 -19.753906 3.78125 -23.359375 C 3.78125 -28.171875 4.566406 -32.359375 6.140625 -35.921875 C 7.722656 -39.492188 10.15625 -42.265625 13.4375 -44.234375 C 16.726562 -46.210938 20.90625 -47.203125 25.96875 -47.203125 C 31.007812 -47.203125 35.15625 -46.210938 38.40625 -44.234375 C 41.664062 -42.265625 44.082031 -39.488281 45.65625 -35.90625 C 47.238281 -32.332031 48.03125 -28.128906 48.03125 -23.296875 Z M 14.109375 -23.296875 C 14.109375 -20.054688 14.515625 -17.265625 15.328125 -14.921875 C 16.148438 -12.578125 17.425781 -10.773438 19.15625 -9.515625 C 20.894531 -8.253906 23.144531 -7.625 25.90625 -7.625 C 28.695312 -7.625 30.960938 -8.253906 32.703125 -9.515625 C 34.441406 -10.773438 35.707031 -12.578125 36.5 -14.921875 C 37.300781 -17.265625 37.703125 -20.054688 37.703125 -23.296875 C 37.703125 -28.171875 36.789062 -32.003906 34.96875 -34.796875 C 33.144531 -37.597656 30.144531 -39 25.96875 -39 C 23.1875 -39 20.921875 -38.367188 19.171875 -37.109375 C 17.429688 -35.847656 16.148438 -34.046875 15.328125 -31.703125 C 14.515625 -29.359375 14.109375 -26.554688 14.109375 -23.296875 Z M 14.109375 -23.296875 "/></g></g></g><g fill="#000000" fill-opacity="1"><g transform="translate(210.036242, 58.069849)"><g><path d="M 25.515625 0 L 14.328125 -36.453125 L 14.046875 -36.453125 C 14.085938 -35.585938 14.15625 -34.28125 14.25 -32.53125 C 14.34375 -30.78125 14.429688 -28.921875 14.515625 -26.953125 C 14.609375 -24.984375 14.65625 -23.203125 14.65625 -21.609375 L 14.65625 0 L 5.84375 0 L 5.84375 -46.46875 L 19.265625 -46.46875 L 30.265625 -10.9375 L 30.453125 -10.9375 L 42.109375 -46.46875 L 55.53125 -46.46875 L 55.53125 0 L 46.34375 0 L 46.34375 -22 C 46.34375 -23.457031 46.367188 -25.140625 46.421875 -27.046875 C 46.472656 -28.953125 46.539062 -30.769531 46.625 -32.5 C 46.707031 -34.226562 46.769531 -35.523438 46.8125 -36.390625 L 46.53125 -36.390625 L 34.546875 0 Z M 25.515625 0 "/></g></g></g><g fill="#000000" fill-opacity="1"><g transform="translate(271.404983, 58.069849)"><g/></g></g></svg>