<svg xmlns="http://www.w3.org/2000/svg" xmlns:xlink="http://www.w3.org/1999/xlink" width="500" zoomAndPan="magnify" viewBox="0 0 375 97.5" height="130" preserveAspectRatio="xMidYMid meet" version="1.0"><defs><g/></defs><g fill="#000000" fill-opacity="1"><g transform="translate(59.63123, 74.07987)"><g><path d="M 27.265625 1.328125 C 39.984375 1.328125 50.171875 -9 50.171875 -22.203125 C 50.171875 -27.75 47.640625 -30.140625 43.78125 -30.140625 L 30.359375 -30.140625 C 26.421875 -30.140625 24.03125 -27.890625 24.03125 -23.890625 C 24.03125 -20.09375 26.421875 -17.78125 30.421875 -17.78125 L 36.390625 -17.78125 C 35.6875 -13.765625 31.765625 -10.96875 26.984375 -10.96875 C 19.890625 -10.96875 15.59375 -16.9375 15.59375 -25.015625 C 15.59375 -33.375 20.734375 -39.0625 27.328125 -39.0625 C 32.390625 -39.0625 34.859375 -37.03125 36.328125 -35.765625 C 37.796875 -34.5 39.203125 -34.015625 41.03125 -34.015625 C 44.6875 -34.015625 46.859375 -36.328125 46.859375 -39.421875 C 46.859375 -42.796875 45.046875 -45.53125 42.015625 -47.5 C 38.21875 -49.953125 32.75 -51.359375 26.84375 -51.359375 C 12.21875 -51.359375 1.328125 -40.40625 1.328125 -24.515625 C 1.328125 -11.734375 9.703125 1.328125 27.265625 1.328125 Z M 3.796875 -25.15625 C 3.375 -25.15625 3.234375 -25.5 3.234375 -26.28125 C 3.234375 -37.453125 12.296875 -49.46875 26.421875 -49.46875 C 27.40625 -49.46875 27.890625 -49.1875 27.890625 -48.625 C 27.890625 -48.0625 27.40625 -47.640625 26.140625 -47.640625 C 12.78125 -47.640625 5.40625 -35.6875 4.359375 -26.0625 C 4.28125 -25.4375 4.21875 -25.15625 3.796875 -25.15625 Z M 26.34375 -23.1875 C 25.921875 -23.1875 25.71875 -23.671875 25.71875 -24.234375 C 25.71875 -26.5625 27.40625 -28.53125 30.640625 -28.53125 L 44.0625 -28.53125 C 44.625 -28.53125 45.109375 -28.171875 45.109375 -27.828125 C 45.109375 -27.40625 44.625 -27.046875 44.0625 -27.046875 L 31.265625 -27.046875 C 28.3125 -27.046875 27.1875 -25.5 26.84375 -24.03125 C 26.765625 -23.53125 26.703125 -23.1875 26.34375 -23.1875 Z M 28.453125 -8.296875 C 28.03125 -8.296875 27.75 -8.578125 27.75 -9 C 27.75 -9.421875 27.96875 -9.5625 28.59375 -9.625 C 30.921875 -9.90625 33.03125 -10.75 34.71875 -12.078125 C 35.828125 -13 36.8125 -14.1875 37.3125 -15.109375 C 37.796875 -16.015625 38.078125 -16.296875 38.296875 -16.296875 C 38.578125 -16.296875 38.921875 -16.09375 38.921875 -15.671875 C 38.921875 -15.109375 38.640625 -14.546875 38.359375 -13.984375 C 36.953125 -11.171875 32.46875 -8.296875 28.453125 -8.296875 Z M 28.453125 -8.296875 "/></g></g></g><g fill="#000000" fill-opacity="1"><g transform="translate(111.559651, 74.07987)"><g><path d="M 9.0625 0 L 28.03125 0 C 31.765625 0 34.4375 -2.453125 34.4375 -6.1875 C 34.4375 -10.125 31.828125 -12.296875 27.890625 -12.296875 L 15.875 -12.296875 L 15.875 -43.78125 C 15.875 -47.984375 13.140625 -50.453125 9.28125 -50.453125 C 5.34375 -50.453125 2.59375 -47.984375 2.59375 -43.78125 L 2.59375 -6.53125 C 2.59375 -2.8125 5.546875 0 9.0625 0 Z M 4.84375 -41.25 C 4.421875 -41.25 4.21875 -42.015625 4.21875 -43.640625 C 4.21875 -46.9375 6.53125 -48.828125 9.5625 -48.828125 C 9.90625 -48.828125 10.125 -48.625 10.125 -48.40625 C 10.125 -48.265625 9.984375 -48.0625 9.625 -47.921875 C 7.09375 -47.078125 5.6875 -45.671875 5.40625 -42.09375 C 5.34375 -41.59375 5.203125 -41.25 4.84375 -41.25 Z M 17.921875 -9.203125 C 17.359375 -9.203125 16.859375 -9.5625 16.859375 -9.984375 C 16.859375 -10.40625 17.359375 -10.6875 17.921875 -10.6875 L 27.546875 -10.6875 C 28.109375 -10.6875 28.59375 -10.328125 28.59375 -9.984375 C 28.59375 -9.5625 28.109375 -9.203125 27.546875 -9.203125 Z M 17.921875 -9.203125 "/></g></g></g><g fill="#000000" fill-opacity="1"><g transform="translate(145.288527, 74.07987)"><g><path d="M 26.984375 1.328125 C 42.65625 1.328125 52.5625 -9 52.5625 -25.015625 C 52.5625 -41.53125 42.15625 -51.359375 26.984375 -51.359375 C 11.53125 -51.359375 1.328125 -41.3125 1.328125 -25.078125 C 1.328125 -8.71875 11.671875 1.328125 26.984375 1.328125 Z M 3.796875 -25.15625 C 3.375 -25.15625 3.234375 -25.5 3.234375 -26.28125 C 3.234375 -38.5 11.796875 -49.46875 26.421875 -49.46875 C 28.390625 -49.46875 29.09375 -49.109375 29.09375 -48.484375 C 29.09375 -47.984375 28.25 -47.640625 26.140625 -47.640625 C 11.796875 -47.640625 5.0625 -36.25 4.359375 -26.0625 C 4.28125 -25.4375 4.21875 -25.15625 3.796875 -25.15625 Z M 26.90625 -10.96875 C 20.3125 -10.96875 15.59375 -16.234375 15.59375 -25.015625 C 15.59375 -33.375 19.953125 -39.0625 26.90625 -39.0625 C 34.4375 -39.0625 38.296875 -32.953125 38.296875 -24.65625 C 38.296875 -16.515625 34.078125 -10.96875 26.90625 -10.96875 Z M 29.015625 -8.15625 C 28.25 -8.15625 28.03125 -8.4375 28.03125 -8.78125 C 28.03125 -9.203125 28.25 -9.34375 28.875 -9.421875 C 31.203125 -9.703125 33.65625 -10.609375 35.90625 -12.71875 C 37.65625 -14.40625 38.921875 -17 39.484375 -18.828125 C 39.703125 -19.53125 39.984375 -19.8125 40.265625 -19.8125 C 40.6875 -19.8125 41.171875 -19.53125 41.171875 -19.046875 C 41.171875 -18.484375 40.96875 -17.921875 40.75 -17.359375 C 39.0625 -12.78125 35.484375 -9.625 29.796875 -8.21875 C 29.515625 -8.15625 29.234375 -8.15625 29.015625 -8.15625 Z M 29.015625 -8.15625 "/></g></g></g><g fill="#000000" fill-opacity="1"><g transform="translate(199.184454, 74.07987)"><g><path d="M 26.984375 1.328125 C 42.65625 1.328125 52.5625 -9 52.5625 -25.015625 C 52.5625 -41.53125 42.15625 -51.359375 26.984375 -51.359375 C 11.53125 -51.359375 1.328125 -41.3125 1.328125 -25.078125 C 1.328125 -8.71875 11.671875 1.328125 26.984375 1.328125 Z M 3.796875 -25.15625 C 3.375 -25.15625 3.234375 -25.5 3.234375 -26.28125 C 3.234375 -38.5 11.796875 -49.46875 26.421875 -49.46875 C 28.390625 -49.46875 29.09375 -49.109375 29.09375 -48.484375 C 29.09375 -47.984375 28.25 -47.640625 26.140625 -47.640625 C 11.796875 -47.640625 5.0625 -36.25 4.359375 -26.0625 C 4.28125 -25.4375 4.21875 -25.15625 3.796875 -25.15625 Z M 26.90625 -10.96875 C 20.3125 -10.96875 15.59375 -16.234375 15.59375 -25.015625 C 15.59375 -33.375 19.953125 -39.0625 26.90625 -39.0625 C 34.4375 -39.0625 38.296875 -32.953125 38.296875 -24.65625 C 38.296875 -16.515625 34.078125 -10.96875 26.90625 -10.96875 Z M 29.015625 -8.15625 C 28.25 -8.15625 28.03125 -8.4375 28.03125 -8.78125 C 28.03125 -9.203125 28.25 -9.34375 28.875 -9.421875 C 31.203125 -9.703125 33.65625 -10.609375 35.90625 -12.71875 C 37.65625 -14.40625 38.921875 -17 39.484375 -18.828125 C 39.703125 -19.53125 39.984375 -19.8125 40.265625 -19.8125 C 40.6875 -19.8125 41.171875 -19.53125 41.171875 -19.046875 C 41.171875 -18.484375 40.96875 -17.921875 40.75 -17.359375 C 39.0625 -12.78125 35.484375 -9.625 29.796875 -8.21875 C 29.515625 -8.15625 29.234375 -8.15625 29.015625 -8.15625 Z M 29.015625 -8.15625 "/></g></g></g><g fill="#000000" fill-opacity="1"><g transform="translate(253.08038, 74.07987)"><g><path d="M 7.453125 0.421875 C 10.890625 0.421875 13.703125 -0.34375 14.890625 -8.21875 L 17.5625 -25.5 L 17.703125 -25.5 L 23.890625 -5.203125 C 25.078125 -1.1875 26.984375 0.421875 31.203125 0.421875 C 35.125 0.421875 37.09375 -1.328125 38.15625 -4.703125 L 44.625 -25.5 L 44.765625 -25.5 L 47.28125 -9.0625 C 48.34375 -2.390625 49.46875 0.421875 54.8125 0.421875 C 58.875 0.421875 61.203125 -2.671875 61.203125 -5.96875 C 61.203125 -6.8125 61.0625 -9.140625 60.421875 -12.5 L 55.09375 -41.25 C 53.828125 -48.203125 51.15625 -50.453125 46.171875 -50.453125 C 40.1875 -50.453125 38.5 -46.3125 35.125 -35.40625 L 31.265625 -23.046875 L 31.125 -23.046875 L 26.140625 -38.359375 C 23.609375 -46.09375 22 -50.453125 15.59375 -50.453125 C 11.390625 -50.453125 8.4375 -48.125 7.171875 -41.3125 L 3.234375 -20.375 C 1.40625 -10.546875 1.046875 -7.171875 1.046875 -5.96875 C 1.046875 -2.734375 3.375 0.421875 7.453125 0.421875 Z M 33.875 -21.015625 C 33.515625 -21.015625 33.3125 -21.21875 33.3125 -21.859375 C 33.3125 -22.5625 33.515625 -23.671875 34.078125 -25.359375 L 39.203125 -41.734375 C 40.828125 -46.859375 43.78125 -49.046875 46.3125 -49.046875 C 47.359375 -49.046875 47.703125 -48.765625 47.703125 -48.34375 C 47.703125 -47.78125 47.421875 -47.78125 46.65625 -47.78125 C 43.5 -47.78125 41.734375 -44.546875 40.75 -41.390625 L 35.125 -23.53125 C 34.4375 -21.359375 34.21875 -21.015625 33.875 -21.015625 Z M 3.375 -6.046875 C 3.015625 -6.046875 2.8125 -6.390625 2.8125 -7.375 C 2.8125 -8.078125 2.875 -9.0625 3.15625 -10.40625 L 8.71875 -40.6875 C 9.84375 -46.65625 12.578125 -48.828125 15.453125 -48.828125 C 16.515625 -48.828125 17.359375 -48.625 17.359375 -48.125 C 17.359375 -47.921875 17.28125 -47.703125 16.9375 -47.703125 C 16.859375 -47.703125 16.859375 -47.703125 16.796875 -47.703125 L 16.09375 -47.78125 C 13 -47.78125 10.96875 -44.265625 10.265625 -40.546875 L 4.421875 -8.71875 C 4 -6.328125 3.796875 -6.046875 3.375 -6.046875 Z M 3.375 -6.046875 "/></g></g></g></svg>