<svg xmlns="http://www.w3.org/2000/svg" xmlns:xlink="http://www.w3.org/1999/xlink" width="326" zoomAndPan="magnify" viewBox="0 0 244.5 187.499995" height="250" preserveAspectRatio="xMidYMid meet" version="1.0"><defs><clipPath id="fe8b8f0bbf"><path d="M 79 31 L 163 31 L 163 156.28125 L 79 156.28125 Z M 79 31 " clip-rule="nonzero"/></clipPath></defs><g clip-path="url(#fe8b8f0bbf)"><path fill="#ffffff" d="M 159.6875 98.0625 C 158.117188 94.671875 156.570312 92.175781 155.347656 90.132812 C 154.125 88.113281 153.152344 86.539062 152.628906 84.917969 C 151.953125 82.847656 151.953125 80.800781 152.652344 79.804688 C 152.902344 79.457031 153.203125 79.28125 153.601562 79.28125 C 153.824219 79.28125 154.050781 79.132812 154.148438 78.933594 C 154.25 78.730469 154.222656 78.484375 154.101562 78.285156 C 153.203125 77.0625 151.703125 76.5625 150.109375 76.960938 C 149.433594 77.136719 148.738281 77.484375 148.089844 78.007812 C 147.464844 77.285156 146.867188 76.660156 146.292969 76.0625 C 145.019531 74.742188 143.921875 73.59375 142.925781 71.574219 C 141.976562 69.601562 141.703125 67.582031 142.277344 66.507812 C 142.476562 66.136719 142.75 65.910156 143.148438 65.859375 C 143.375 65.835938 143.574219 65.660156 143.648438 65.4375 C 143.722656 65.210938 143.671875 64.988281 143.5 64.8125 C 142.449219 63.714844 140.902344 63.417969 139.359375 64.039062 C 138.632812 64.339844 137.910156 64.863281 137.3125 65.5625 C 136.039062 62.917969 134.269531 60.597656 131.875 58.476562 C 128.332031 55.285156 128.707031 54.5625 128.757812 54.484375 C 128.878906 54.3125 129.03125 54.238281 129.230469 54.238281 C 129.554688 54.210938 129.929688 54.410156 130.078125 54.585938 C 130.578125 55.160156 131.324219 55.757812 132.746094 55.234375 C 133.320312 55.035156 133.644531 55.382812 133.695312 55.460938 C 133.84375 55.660156 134.117188 55.757812 134.367188 55.683594 C 134.617188 55.609375 134.792969 55.410156 134.816406 55.160156 C 135.015625 53.0625 134.167969 51.890625 133.394531 51.269531 C 132.023438 50.171875 130.128906 50.097656 128.929688 50.496094 C 128.28125 50.71875 127.882812 50.394531 127.734375 50.070312 C 127.609375 49.773438 127.660156 49.347656 128.183594 49.074219 C 128.53125 48.898438 128.804688 48.847656 129.03125 48.949219 C 129.355469 49.074219 129.554688 49.421875 129.605469 49.546875 C 129.703125 49.796875 129.953125 49.972656 130.226562 49.945312 C 130.503906 49.921875 130.726562 49.722656 130.777344 49.449219 C 131.074219 47.824219 130.601562 46.828125 130.128906 46.253906 C 129.480469 45.457031 128.480469 45.007812 127.285156 44.984375 C 126.011719 44.957031 125.238281 45.382812 124.789062 45.78125 C 124.367188 45.53125 123.71875 45.28125 122.820312 45.429688 C 122.667969 45.457031 122.519531 45.480469 122.394531 45.53125 C 120.898438 42.636719 121.648438 38.972656 122.917969 37.972656 C 123.34375 37.625 123.742188 37.671875 124.214844 38.074219 C 125.140625 38.894531 126.238281 39.121094 127.433594 38.746094 C 127.660156 38.671875 127.957031 38.621094 128.132812 38.722656 C 128.308594 38.820312 128.40625 39.144531 128.457031 39.394531 C 128.507812 39.59375 128.632812 39.742188 128.804688 39.820312 C 128.980469 39.894531 129.179688 39.894531 129.355469 39.820312 C 130.328125 39.320312 130.925781 38.246094 130.925781 36.976562 C 130.925781 35.054688 129.652344 33.257812 127.507812 32.160156 C 125.863281 31.3125 121.671875 30.613281 119.152344 32.636719 C 118.128906 32.410156 116.957031 32.734375 115.910156 33.507812 C 114.4375 34.605469 112.019531 37.550781 112.417969 44.882812 C 112.640625 48.875 113.566406 51.992188 115.210938 54.835938 C 114.664062 54.761719 114.089844 54.8125 113.566406 54.984375 C 112.566406 55.359375 111.84375 56.183594 111.621094 57.179688 C 111.121094 59.5 112.59375 59.972656 112.667969 60 C 112.867188 60.050781 113.066406 60.023438 113.242188 59.898438 C 113.539062 59.675781 113.839844 59.726562 114.136719 60.074219 C 114.460938 60.449219 114.613281 61.070312 114.3125 61.347656 C 113.613281 61.996094 112.019531 61.945312 111.496094 61.894531 C 111.292969 61.871094 111.121094 61.917969 110.96875 62.070312 C 110.847656 62.195312 110.769531 62.394531 110.769531 62.566406 C 110.796875 62.867188 110.347656 63.242188 109.847656 63.664062 C 108.777344 64.5625 107.152344 65.910156 107.601562 68.730469 C 108.152344 72.371094 111.070312 73.167969 112.542969 73.09375 C 112.839844 73.070312 113.117188 72.84375 113.140625 72.519531 C 113.164062 72.222656 112.964844 71.949219 112.667969 71.871094 C 112.566406 71.796875 112.417969 71.273438 112.691406 70.550781 C 112.941406 69.925781 114.089844 67.90625 118.328125 68.429688 C 123.167969 69.027344 126.734375 74.914062 128.132812 77.632812 C 122.570312 75.6875 114.910156 75.164062 107.402344 78.507812 C 102.765625 80.578125 97.078125 84.820312 96.054688 93.351562 C 94.480469 94.148438 92.859375 96.269531 92.710938 98.710938 C 92.535156 101.40625 94.53125 104.375 98.699219 104.898438 C 98.949219 104.949219 99.195312 104.800781 99.320312 104.601562 C 99.445312 104.375 99.421875 104.101562 99.273438 103.925781 C 98.148438 102.453125 98.472656 101.03125 98.773438 100.308594 C 99.222656 99.238281 100.019531 98.589844 100.445312 98.539062 C 101.292969 98.4375 101.589844 99.363281 101.617188 99.460938 C 101.667969 99.660156 101.839844 99.835938 102.039062 99.910156 C 102.238281 99.984375 102.464844 99.910156 102.640625 99.785156 C 103.089844 99.386719 103.539062 99.363281 104.1875 99.363281 C 104.933594 99.363281 105.855469 99.335938 106.753906 98.539062 C 107.429688 97.941406 107.878906 96.867188 107.878906 95.84375 C 107.878906 94.921875 107.527344 94.125 106.90625 93.550781 C 105.484375 92.277344 105.632812 91.480469 106.304688 90.679688 C 106.753906 90.132812 107.527344 89.882812 108.152344 90.082031 C 109.023438 90.332031 109.625 91.304688 109.847656 92.851562 C 110.121094 94.820312 111.269531 96.417969 113.140625 97.515625 C 115.410156 98.8125 118.679688 99.160156 120.75 98.3125 C 120.972656 98.214844 121.121094 98.015625 121.121094 97.789062 C 121.148438 97.566406 121.023438 97.339844 120.824219 97.214844 C 117.582031 95.320312 117.40625 92.703125 118.230469 91.03125 C 118.726562 90.007812 119.75 89.183594 120.75 89.582031 C 122.945312 90.480469 122.621094 92.75 122.59375 92.851562 C 122.570312 93.050781 122.621094 93.273438 122.792969 93.398438 C 122.945312 93.550781 123.167969 93.597656 123.367188 93.550781 C 123.941406 93.398438 124.664062 93.597656 125.214844 94.046875 C 125.886719 94.570312 126.238281 95.34375 126.238281 96.269531 C 126.238281 97.265625 126.5625 98.039062 127.210938 98.589844 C 128.15625 99.386719 129.730469 99.636719 131.875 99.3125 C 132.074219 99.285156 132.222656 99.160156 132.324219 99.011719 C 132.421875 98.835938 132.421875 98.636719 132.347656 98.464844 C 131.898438 97.367188 132.171875 96.195312 133.046875 95.46875 C 134.09375 94.597656 136.164062 94.324219 138.808594 96.09375 C 142.625 98.664062 144.371094 101.929688 145.070312 105.074219 C 144.496094 104.476562 143.847656 104.175781 143.273438 104.101562 C 142.226562 103.976562 141.351562 104.574219 141.152344 105.546875 C 141.128906 105.722656 141.152344 105.898438 141.277344 106.046875 C 141.378906 106.195312 141.550781 106.269531 141.726562 106.296875 C 141.925781 106.320312 142.277344 106.671875 142.351562 107.09375 C 142.402344 107.34375 142.277344 107.394531 142.199219 107.445312 C 141.652344 107.644531 141.351562 107.519531 140.730469 107.144531 C 140.230469 106.871094 139.605469 106.519531 138.707031 106.421875 C 137.511719 106.320312 136.164062 107.070312 135.515625 108.242188 C 134.96875 109.214844 135.042969 110.261719 135.664062 111.109375 C 135.765625 111.234375 135.914062 111.335938 136.089844 111.359375 C 136.265625 111.382812 136.414062 111.335938 136.5625 111.234375 C 136.839844 111.011719 137.113281 110.960938 137.386719 111.058594 C 138.058594 111.308594 138.683594 112.332031 138.910156 113.53125 C 137.835938 113.953125 136.789062 114.777344 136.039062 116.175781 C 135.941406 116.375 135.941406 116.597656 136.039062 116.773438 C 136.140625 116.945312 136.339844 117.070312 136.5625 117.070312 C 138.410156 117.121094 139.308594 118.492188 139.757812 119.816406 C 139.632812 119.714844 139.507812 119.640625 139.382812 119.542969 C 137.761719 118.492188 135.964844 118.742188 135.339844 118.894531 C 131.675781 117.421875 128.707031 118.84375 127.734375 120.964844 C 127.109375 122.308594 127.535156 123.65625 128.730469 124.257812 C 128.929688 124.355469 129.15625 124.355469 129.328125 124.230469 C 129.503906 124.105469 129.605469 123.90625 129.605469 123.707031 C 129.628906 123.65625 129.828125 123.484375 130.277344 123.457031 C 131.125 123.382812 132.398438 123.832031 133.394531 125.277344 C 134.566406 127 134.816406 131.988281 132.273438 136.554688 C 130.703125 139.347656 127.78125 142.464844 122.371094 143.710938 C 122.84375 143.214844 123.292969 142.589844 123.640625 141.917969 C 125.140625 139.074219 125.015625 135.628906 123.292969 132.710938 C 121.371094 129.445312 118.628906 129.742188 117.53125 129.992188 C 117.007812 129.394531 115.785156 128.273438 113.691406 128.148438 C 110.695312 127.972656 109.425781 129.867188 109.300781 131.191406 C 109.125 132.960938 110.421875 133.660156 111.121094 133.808594 C 111.445312 133.859375 111.742188 133.660156 111.84375 133.335938 C 111.867188 133.210938 112.441406 132.9375 113.214844 133.109375 C 113.8125 133.234375 115.160156 133.808594 114.738281 136.277344 C 114.710938 136.453125 114.585938 137.027344 114.261719 137.75 C 113.863281 137.726562 113.464844 137.777344 113.140625 137.851562 C 112.742188 136.902344 111.867188 136.128906 110.769531 135.78125 C 109.222656 135.28125 107.601562 135.679688 106.480469 136.878906 C 105.484375 137.925781 104.957031 137.976562 104.835938 137.976562 C 104.734375 137.976562 104.683594 137.925781 104.683594 137.925781 C 104.558594 137.699219 104.308594 137.601562 104.0625 137.625 C 103.8125 137.652344 103.613281 137.824219 103.539062 138.074219 C 103.238281 139.097656 103.785156 140.371094 104.808594 141.042969 C 105.808594 141.71875 106.953125 141.667969 107.925781 140.894531 C 108.203125 140.667969 108.5 140.621094 108.777344 140.769531 C 109.101562 140.917969 109.324219 141.269531 109.398438 141.667969 C 108.726562 141.792969 108.003906 141.816406 107.253906 141.742188 C 102.191406 141.292969 99.96875 138.648438 99.570312 138.074219 C 99.871094 137.75 100.121094 137.402344 100.292969 137.027344 C 100.84375 135.855469 100.644531 134.609375 99.796875 133.609375 C 99.621094 133.410156 99.320312 133.335938 99.046875 133.460938 C 98.796875 133.585938 98.648438 133.859375 98.699219 134.132812 C 98.699219 134.183594 98.625 134.382812 98.398438 134.582031 C 98.050781 134.933594 97.601562 135.105469 97.324219 134.980469 C 96.925781 134.808594 96.675781 134.507812 96.628906 134.183594 C 96.601562 133.933594 96.703125 133.683594 96.925781 133.511719 C 97.699219 132.863281 98.050781 132.214844 98 131.539062 C 97.972656 131.265625 97.898438 131.066406 97.800781 130.867188 C 98.25 130.46875 98.597656 129.917969 98.796875 129.269531 C 99.046875 128.421875 99.195312 126.652344 97.5 124.480469 C 96.578125 123.308594 95.332031 122.683594 93.984375 122.683594 C 92.859375 122.683594 91.789062 123.160156 91.113281 123.933594 C 90.589844 124.53125 90.367188 125.277344 90.464844 126.003906 C 90.492188 126.175781 90.589844 126.351562 90.742188 126.449219 C 90.890625 126.550781 91.089844 126.574219 91.265625 126.527344 C 91.839844 126.351562 92.238281 126.5 92.488281 127 C 92.785156 127.597656 92.710938 128.421875 92.3125 128.921875 C 92.0625 129.246094 91.589844 129.445312 91.039062 129.445312 C 90.390625 129.445312 88.097656 129.09375 85.703125 124.703125 C 81.0625 116.199219 81.4375 108.042969 81.4375 107.96875 C 81.460938 107.617188 81.1875 107.34375 80.863281 107.320312 C 80.511719 107.292969 80.238281 107.542969 80.1875 107.890625 C 78.765625 123.957031 82.609375 131.988281 86.074219 135.90625 C 87.171875 137.152344 88.421875 138.148438 89.71875 138.875 C 91.390625 143.5625 96.476562 148.226562 102.140625 149.722656 C 102.164062 149.75 102.191406 149.800781 102.214844 149.824219 C 105.082031 153.390625 113.464844 156.085938 121.621094 156.085938 C 124.765625 156.085938 127.882812 155.6875 130.675781 154.761719 C 136.914062 152.71875 141.304688 150.097656 144.023438 146.730469 C 144.046875 146.730469 144.070312 146.707031 144.097656 146.707031 C 164.726562 136.429688 165.226562 109.988281 159.6875 98.0625 Z M 137.8125 109.839844 C 137.335938 109.664062 136.863281 109.664062 136.414062 109.839844 C 136.3125 109.4375 136.4375 109.089844 136.589844 108.816406 C 136.988281 108.09375 137.859375 107.566406 138.585938 107.644531 C 139.207031 107.691406 139.632812 107.941406 140.082031 108.191406 C 140.753906 108.566406 141.503906 108.988281 142.625 108.566406 C 143.324219 108.292969 143.699219 107.644531 143.574219 106.894531 C 143.5 106.347656 143.148438 105.746094 142.675781 105.371094 C 142.824219 105.296875 143 105.296875 143.125 105.324219 C 144.070312 105.449219 145.519531 106.84375 145.320312 110.085938 C 145.320312 110.1875 145.320312 110.261719 145.367188 110.335938 C 145.195312 112.207031 144.796875 113.78125 144.496094 114.753906 C 143.824219 113.953125 142.824219 113.40625 141.652344 113.207031 C 141.179688 113.128906 140.628906 113.105469 140.082031 113.179688 C 139.757812 111.558594 138.859375 110.238281 137.8125 109.839844 Z M 113.414062 131.863281 C 112.441406 131.664062 111.496094 131.914062 110.96875 132.414062 C 110.722656 132.261719 110.472656 131.9375 110.523438 131.289062 C 110.597656 130.566406 111.320312 129.21875 113.589844 129.371094 C 115.785156 129.496094 116.707031 130.964844 116.734375 131.015625 C 116.882812 131.289062 117.230469 131.390625 117.507812 131.265625 C 117.628906 131.214844 120.300781 130.117188 122.171875 133.3125 C 123.667969 135.855469 123.792969 138.847656 122.496094 141.292969 C 121.671875 142.863281 120.375 143.9375 119.128906 144.136719 C 118.355469 144.1875 117.53125 144.210938 116.683594 144.210938 C 116.78125 144.011719 116.859375 143.8125 116.933594 143.636719 C 117.65625 141.816406 117.582031 140.019531 116.757812 139.046875 C 116.332031 138.550781 115.882812 138.226562 115.4375 138.023438 C 115.761719 137.277344 115.882812 136.703125 115.910156 136.453125 C 116.457031 133.558594 114.910156 132.164062 113.414062 131.863281 Z M 107.105469 142.988281 C 107.402344 143.015625 107.726562 143.039062 108.003906 143.039062 C 108.328125 143.039062 108.652344 143.015625 108.949219 142.988281 C 108.675781 143.339844 108.277344 143.636719 107.753906 143.886719 C 104.609375 145.457031 99.394531 143.3125 97.101562 139.621094 C 97.648438 139.421875 98.125 139.199219 98.574219 138.898438 C 99.222656 139.722656 101.742188 142.515625 107.105469 142.988281 Z M 86.925781 135.03125 C 84.902344 132.761719 82.785156 129.019531 81.710938 122.933594 C 83.03125 127.722656 85.527344 132.863281 90.21875 134.160156 C 90.265625 134.183594 90.316406 134.183594 90.390625 134.183594 C 90.664062 134.183594 90.914062 134.007812 90.988281 133.734375 C 91.089844 133.410156 90.890625 133.0625 90.566406 132.960938 C 85.925781 131.6875 83.632812 125.777344 82.507812 120.863281 C 83.058594 122.285156 83.707031 123.757812 84.53125 125.253906 C 87.171875 130.117188 89.917969 130.640625 90.964844 130.640625 C 91.914062 130.640625 92.734375 130.269531 93.234375 129.617188 C 93.910156 128.746094 94.035156 127.398438 93.535156 126.402344 C 93.160156 125.652344 92.511719 125.203125 91.714844 125.179688 C 91.789062 124.980469 91.886719 124.828125 91.988281 124.730469 C 92.4375 124.230469 93.160156 123.933594 93.933594 123.933594 C 94.90625 123.933594 95.804688 124.40625 96.476562 125.253906 C 97.851562 126.976562 97.75 128.296875 97.574219 128.921875 C 97.375 129.617188 96.925781 130.019531 96.601562 130.144531 C 96.378906 130.21875 96.226562 130.417969 96.203125 130.667969 C 96.179688 130.917969 96.304688 131.140625 96.503906 131.265625 C 96.503906 131.265625 96.726562 131.414062 96.753906 131.640625 C 96.777344 131.863281 96.527344 132.214844 96.128906 132.5625 C 95.554688 133.035156 95.304688 133.683594 95.378906 134.359375 C 95.480469 135.105469 96.027344 135.78125 96.800781 136.128906 C 97.027344 136.230469 97.25 136.277344 97.5 136.277344 C 98.222656 136.277344 98.871094 135.878906 99.296875 135.429688 C 99.347656 135.78125 99.296875 136.15625 99.121094 136.503906 C 98.625 137.625 96.878906 138.921875 93.785156 138.824219 C 92.960938 138.824219 89.96875 138.472656 86.925781 135.03125 Z M 91.339844 139.597656 C 92.164062 139.894531 92.984375 140.046875 93.757812 140.070312 C 93.882812 140.070312 93.984375 140.070312 94.109375 140.070312 C 94.730469 140.070312 95.304688 140.019531 95.878906 139.921875 C 98.148438 143.9375 104.136719 147.082031 108.328125 144.984375 C 109.796875 144.238281 110.644531 143.113281 110.644531 141.867188 C 110.644531 140.894531 110.121094 140.019531 109.324219 139.648438 C 108.625 139.296875 107.828125 139.398438 107.179688 139.921875 C 106.480469 140.46875 105.882812 140.269531 105.507812 140.019531 C 105.207031 139.820312 104.984375 139.523438 104.835938 139.222656 C 105.582031 139.246094 106.429688 138.722656 107.378906 137.75 C 108.175781 136.929688 109.300781 136.628906 110.398438 136.976562 C 111.320312 137.277344 112.019531 137.976562 112.117188 138.75 C 112.144531 138.949219 112.269531 139.121094 112.441406 139.199219 C 112.617188 139.296875 112.816406 139.296875 113.015625 139.199219 C 113.089844 139.171875 114.6875 138.425781 115.882812 139.871094 C 116.308594 140.394531 116.433594 141.71875 115.859375 143.214844 C 115.285156 144.660156 113.316406 148.078125 107.230469 148.875 C 100.867188 149.675781 93.882812 144.761719 91.339844 139.597656 Z M 130.203125 153.566406 C 121.597656 156.382812 109.050781 154.015625 104.210938 150.097656 C 104.734375 150.148438 105.234375 150.199219 105.757812 150.199219 C 106.28125 150.199219 106.828125 150.171875 107.355469 150.097656 C 107.527344 150.074219 107.703125 150.046875 107.878906 150.023438 C 107.878906 150.023438 107.902344 150.046875 107.902344 150.046875 C 108.128906 150.148438 112.742188 152.292969 118.953125 152.292969 C 120.273438 152.292969 121.671875 152.195312 123.09375 151.96875 C 123.441406 151.917969 123.667969 151.59375 123.617188 151.246094 C 123.566406 150.898438 123.242188 150.671875 122.894531 150.722656 C 117.382812 151.621094 112.46875 150.347656 110.023438 149.523438 C 111.121094 149.199219 112.066406 148.777344 112.839844 148.300781 C 113.242188 148.378906 115.0625 148.675781 117.582031 148.675781 C 121.597656 148.675781 127.359375 147.929688 131.898438 144.285156 C 132.171875 144.0625 132.199219 143.6875 132 143.414062 C 131.773438 143.140625 131.398438 143.113281 131.125 143.3125 C 125.464844 147.851562 117.457031 147.578125 114.339844 147.253906 C 115.035156 146.65625 115.585938 146.03125 115.984375 145.433594 C 116.382812 145.457031 116.757812 145.457031 117.132812 145.457031 C 117.753906 145.457031 118.328125 145.433594 118.902344 145.410156 C 118.929688 145.410156 118.953125 145.410156 118.953125 145.410156 C 118.976562 145.410156 118.976562 145.410156 119.003906 145.410156 C 119.128906 145.410156 119.253906 145.382812 119.351562 145.359375 C 127.757812 144.660156 131.675781 140.019531 133.320312 137.101562 C 135.914062 132.460938 135.964844 126.851562 134.394531 124.503906 C 132.921875 122.335938 130.828125 121.835938 129.480469 122.261719 C 129.179688 122.359375 128.957031 122.484375 128.757812 122.660156 C 128.507812 122.210938 128.707031 121.613281 128.804688 121.414062 C 129.40625 120.113281 131.601562 118.59375 134.96875 120.039062 C 135.09375 120.089844 135.242188 120.113281 135.390625 120.066406 C 135.417969 120.066406 137.164062 119.566406 138.632812 120.515625 C 139.257812 120.914062 139.730469 121.511719 140.105469 122.308594 C 140.128906 122.386719 140.15625 122.433594 140.179688 122.484375 C 140.429688 123.109375 140.628906 123.855469 140.730469 124.703125 C 140.777344 125.054688 141.078125 125.277344 141.429688 125.253906 C 141.777344 125.203125 142 124.90625 141.976562 124.554688 C 141.851562 123.582031 141.628906 122.734375 141.328125 121.984375 C 141.277344 119.992188 140.40625 116.597656 137.5625 115.875 C 138.660156 114.476562 140.230469 114.152344 141.402344 114.328125 C 142.800781 114.550781 143.847656 115.476562 144.046875 116.648438 C 144.097656 116.972656 144.394531 117.195312 144.71875 117.148438 C 145.042969 117.121094 147.8125 116.949219 148.238281 120.714844 C 148.261719 121.011719 148.535156 121.261719 148.835938 121.261719 C 149.957031 121.289062 150.707031 121.8125 151.179688 122.910156 C 152.402344 125.828125 150.90625 132.214844 147.214844 136.753906 C 147.089844 133.933594 145.691406 131.714844 143.097656 130.117188 C 142.972656 129.144531 142.277344 128.097656 141.328125 127.597656 C 140.105469 126.949219 138.261719 127.222656 137.136719 129.046875 C 137.011719 129.269531 137.011719 129.519531 137.164062 129.742188 C 137.3125 129.941406 137.5625 130.042969 137.8125 129.992188 C 138.382812 129.867188 138.832031 129.917969 139.109375 130.144531 C 139.257812 130.292969 139.308594 130.46875 139.308594 130.566406 C 139.28125 130.765625 139.207031 130.839844 139.15625 130.890625 C 139.007812 131.015625 138.707031 131.015625 138.609375 131.015625 C 138.335938 130.964844 138.085938 131.117188 137.960938 131.363281 C 137.859375 131.589844 137.886719 131.839844 138.035156 132.015625 C 138.035156 132.089844 138.011719 132.214844 138.011719 132.339844 C 137.960938 132.710938 137.910156 133.210938 138.109375 133.761719 C 138.382812 134.433594 138.859375 134.957031 139.433594 135.183594 C 139.882812 135.355469 140.355469 135.355469 140.777344 135.15625 C 141.453125 134.855469 141.550781 135.058594 141.675781 135.304688 C 141.753906 135.457031 141.753906 135.679688 141.628906 135.832031 C 141.453125 136.03125 141.027344 136.078125 140.503906 135.90625 C 139.53125 135.605469 138.535156 135.804688 137.636719 136.453125 C 136.5625 137.226562 135.765625 138.625 135.714844 139.746094 C 135.714844 139.972656 135.839844 140.195312 136.039062 140.320312 C 136.238281 140.421875 136.488281 140.421875 136.6875 140.269531 C 137.910156 139.398438 138.882812 139.746094 139.332031 140.296875 C 139.558594 140.570312 139.683594 140.96875 139.480469 141.167969 C 138.910156 141.71875 138.285156 141.367188 138.183594 141.292969 C 138.011719 141.167969 137.785156 141.144531 137.585938 141.242188 C 137.386719 141.316406 137.261719 141.492188 137.210938 141.691406 C 137.1875 141.84375 137.0625 142.015625 136.8125 142.140625 C 136.636719 142.242188 136.339844 142.316406 135.988281 142.140625 C 135.339844 141.867188 134.84375 141.964844 134.542969 142.117188 C 133.917969 142.390625 133.46875 143.089844 133.171875 144.160156 C 133.121094 144.335938 133.144531 144.535156 133.269531 144.710938 C 133.394531 144.859375 133.570312 144.960938 133.746094 144.960938 C 134.144531 144.960938 134.445312 145.210938 134.542969 145.558594 C 134.667969 146.058594 134.417969 146.832031 133.320312 147.503906 C 132.347656 148.101562 131 148.054688 130.027344 147.878906 C 129.703125 147.828125 129.378906 148.054688 129.304688 148.402344 C 129.253906 148.75 129.480469 149.050781 129.828125 149.125 C 131.550781 149.398438 132.921875 149.226562 133.96875 148.578125 C 135.640625 147.527344 135.964844 146.183594 135.714844 145.257812 C 135.539062 144.636719 135.117188 144.136719 134.542969 143.914062 C 134.691406 143.589844 134.867188 143.363281 135.015625 143.289062 C 135.066406 143.265625 135.167969 143.214844 135.441406 143.339844 C 136.089844 143.613281 136.761719 143.613281 137.363281 143.3125 C 137.660156 143.164062 137.910156 142.9375 138.085938 142.691406 C 138.707031 142.863281 139.53125 142.839844 140.28125 142.140625 C 140.953125 141.515625 140.929688 140.421875 140.230469 139.570312 C 139.605469 138.796875 138.535156 138.324219 137.285156 138.648438 C 137.535156 138.226562 137.886719 137.800781 138.285156 137.5 C 138.859375 137.078125 139.480469 136.953125 140.082031 137.128906 C 141.503906 137.550781 142.199219 137.003906 142.5 136.652344 C 142.925781 136.15625 143.023438 135.382812 142.726562 134.78125 C 142.449219 134.207031 141.753906 133.359375 140.207031 134.058594 C 140.082031 134.109375 139.957031 134.109375 139.832031 134.058594 C 139.582031 133.960938 139.332031 133.683594 139.183594 133.3125 C 139.082031 133.0625 139.109375 132.785156 139.15625 132.511719 C 139.15625 132.414062 139.183594 132.3125 139.183594 132.214844 C 139.382812 132.164062 139.605469 132.0625 139.832031 131.914062 C 140.179688 131.640625 140.40625 131.242188 140.453125 130.742188 C 140.503906 130.191406 140.28125 129.644531 139.855469 129.246094 C 139.683594 129.09375 139.433594 128.921875 139.03125 128.820312 C 139.605469 128.496094 140.207031 128.496094 140.65625 128.746094 C 141.378906 129.121094 141.828125 129.96875 141.800781 130.492188 C 141.777344 130.714844 141.925781 130.941406 142.125 131.066406 C 143.125 131.640625 146.21875 133.4375 145.894531 137.925781 C 145.519531 145.234375 140.503906 150.199219 130.203125 153.566406 Z M 145.417969 144.535156 C 146.019531 143.464844 146.464844 142.316406 146.765625 141.117188 C 147.886719 140.320312 154.148438 135.457031 156.496094 125.429688 C 156.570312 125.105469 156.371094 124.753906 156.019531 124.679688 C 155.695312 124.605469 155.347656 124.804688 155.273438 125.152344 C 153.5 132.785156 149.234375 137.351562 147.140625 139.222656 C 147.164062 139.097656 147.164062 138.949219 147.191406 138.824219 C 147.214844 138.796875 147.265625 138.773438 147.289062 138.722656 C 151.605469 134.183594 154.023438 126.476562 152.378906 122.535156 C 151.804688 121.1875 150.78125 120.363281 149.460938 120.164062 C 149.261719 119.019531 148.859375 118.195312 148.386719 117.621094 C 149.210938 115.402344 153.152344 103.578125 146.34375 95.394531 C 146.117188 95.121094 145.742188 95.097656 145.46875 95.320312 C 145.195312 95.542969 145.167969 95.917969 145.394531 96.195312 C 151.304688 103.328125 148.386719 113.78125 147.390625 116.722656 C 147.214844 116.621094 147.039062 116.523438 146.890625 116.449219 C 146.316406 116.175781 145.769531 116.074219 145.367188 116.050781 C 146.042969 114.203125 149.933594 102.128906 139.53125 95.070312 C 136.339844 92.902344 133.695312 93.351562 132.273438 94.496094 C 131.152344 95.421875 130.703125 96.792969 130.976562 98.164062 C 129.605469 98.289062 128.582031 98.113281 128.03125 97.640625 C 127.660156 97.339844 127.484375 96.867188 127.484375 96.242188 C 127.484375 94.945312 126.933594 93.824219 125.960938 93.050781 C 125.339844 92.550781 124.589844 92.277344 123.84375 92.253906 C 123.792969 91.003906 123.21875 89.257812 121.199219 88.410156 C 119.726562 87.8125 117.980469 88.660156 117.105469 90.429688 C 116.085938 92.476562 116.359375 95.296875 119.003906 97.441406 C 117.457031 97.640625 115.386719 97.367188 113.738281 96.394531 C 112.667969 95.769531 111.34375 94.621094 111.046875 92.652344 C 110.644531 89.882812 109.25 89.109375 108.453125 88.882812 C 107.328125 88.558594 106.082031 88.960938 105.308594 89.882812 C 104.035156 91.402344 104.285156 92.949219 106.03125 94.496094 C 106.480469 94.894531 106.582031 95.46875 106.582031 95.84375 C 106.582031 96.519531 106.28125 97.242188 105.882812 97.617188 C 105.308594 98.113281 104.785156 98.113281 104.109375 98.113281 C 103.585938 98.113281 103.011719 98.113281 102.441406 98.386719 C 102.039062 97.765625 101.34375 97.167969 100.246094 97.316406 C 99.246094 97.441406 98.148438 98.488281 97.601562 99.835938 C 97.101562 101.007812 97.101562 102.28125 97.550781 103.425781 C 94.929688 102.628906 93.832031 100.609375 93.933594 98.835938 C 94.082031 96.742188 95.554688 94.894531 96.851562 94.398438 C 97.078125 94.324219 97.226562 94.125 97.25 93.875 C 98.074219 85.691406 103.488281 81.625 107.902344 79.679688 C 115.710938 76.214844 123.640625 77.085938 129.003906 79.304688 C 129.082031 79.355469 129.15625 79.382812 129.253906 79.40625 C 131.074219 80.179688 132.574219 81.128906 133.644531 82.101562 C 133.894531 82.324219 134.292969 82.300781 134.519531 82.050781 C 134.742188 81.800781 134.71875 81.402344 134.46875 81.175781 C 133.320312 80.152344 131.722656 79.15625 129.828125 78.332031 C 129.128906 76.738281 124.964844 68.03125 118.480469 67.234375 C 113.441406 66.609375 111.621094 69.203125 111.34375 70.824219 C 111.292969 71.148438 111.269531 71.449219 111.320312 71.722656 C 110.371094 71.449219 109.148438 70.675781 108.824219 68.578125 C 108.5 66.433594 109.597656 65.535156 110.644531 64.640625 C 111.171875 64.214844 111.695312 63.765625 111.917969 63.191406 C 112.765625 63.21875 114.238281 63.140625 115.160156 62.292969 C 116.035156 61.496094 115.808594 60.148438 115.085938 59.300781 C 114.488281 58.578125 113.640625 58.378906 112.917969 58.703125 C 112.792969 58.503906 112.714844 58.128906 112.867188 57.480469 C 112.992188 56.882812 113.414062 56.40625 114.015625 56.183594 C 114.710938 55.933594 115.535156 56.082031 116.207031 56.582031 C 116.285156 56.632812 116.359375 56.679688 116.433594 56.679688 C 118.078125 59 120.273438 61.195312 122.96875 63.640625 C 129.179688 69.253906 131.972656 77.558594 132 77.660156 C 132.074219 77.910156 132.324219 78.082031 132.597656 78.082031 C 132.671875 78.082031 132.722656 78.082031 132.796875 78.058594 C 133.121094 77.960938 133.296875 77.609375 133.195312 77.285156 C 133.070312 76.9375 130.277344 68.578125 123.816406 62.742188 C 117.304688 56.882812 114.136719 52.691406 113.714844 44.859375 C 113.316406 37.847656 115.683594 35.304688 116.707031 34.53125 C 117.679688 33.78125 118.605469 33.734375 119.152344 33.933594 C 119.375 34.007812 119.625 33.957031 119.777344 33.808594 C 121.847656 31.863281 125.710938 32.636719 126.984375 33.285156 C 128.707031 34.15625 129.730469 35.554688 129.730469 37 C 129.730469 37.472656 129.605469 37.921875 129.378906 38.246094 C 129.230469 37.996094 129.03125 37.796875 128.804688 37.671875 C 128.355469 37.398438 127.78125 37.375 127.109375 37.597656 C 126.3125 37.847656 125.664062 37.722656 125.089844 37.199219 C 124.167969 36.375 123.09375 36.328125 122.195312 37.050781 C 120.375 38.496094 119.625 42.886719 121.371094 46.203125 C 121.046875 46.503906 120.773438 46.851562 120.574219 47.277344 C 119.703125 49 119.851562 51.59375 120.921875 53.5625 C 121.097656 53.863281 121.472656 53.988281 121.773438 53.8125 C 122.070312 53.636719 122.195312 53.265625 122.019531 52.964844 C 121.148438 51.316406 121 49.222656 121.695312 47.824219 C 121.921875 47.378906 122.34375 46.804688 123.09375 46.679688 C 123.992188 46.554688 124.464844 47.027344 124.464844 47.054688 C 124.589844 47.203125 124.789062 47.277344 124.988281 47.277344 C 125.1875 47.253906 125.363281 47.128906 125.464844 46.953125 C 125.464844 46.953125 125.960938 46.230469 127.308594 46.253906 C 128.132812 46.28125 128.78125 46.554688 129.203125 47.078125 C 129.378906 47.300781 129.503906 47.550781 129.578125 47.851562 C 129.554688 47.851562 129.53125 47.824219 129.503906 47.824219 C 129.105469 47.675781 128.457031 47.578125 127.632812 48 C 126.4375 48.597656 126.285156 49.773438 126.609375 50.570312 C 126.984375 51.46875 128.03125 52.140625 129.355469 51.691406 C 130.253906 51.394531 131.699219 51.492188 132.648438 52.242188 C 133.195312 52.664062 133.496094 53.265625 133.59375 54.011719 C 133.222656 53.914062 132.796875 53.914062 132.347656 54.085938 C 131.601562 54.363281 131.375 54.160156 131.050781 53.8125 C 130.703125 53.414062 130.003906 52.988281 129.203125 53.015625 C 128.632812 53.039062 128.132812 53.289062 127.78125 53.761719 C 126.734375 55.183594 128.855469 57.429688 131.074219 59.425781 C 133.519531 61.621094 135.316406 64.066406 136.539062 66.832031 C 136.164062 67.605469 135.941406 68.503906 135.941406 69.503906 C 135.941406 69.527344 135.941406 69.578125 135.941406 69.601562 C 134.144531 66.261719 131.277344 62.042969 127.308594 59.550781 C 127.011719 59.375 126.636719 59.449219 126.460938 59.75 C 126.285156 60.050781 126.363281 60.421875 126.660156 60.597656 C 132.523438 64.3125 136.015625 72.320312 136.863281 74.441406 C 136.914062 74.566406 136.960938 74.691406 137.011719 74.816406 C 137.039062 74.914062 137.0625 74.964844 137.0625 74.964844 C 137.085938 75.015625 137.085938 75.039062 137.113281 75.089844 C 137.6875 76.4375 138.484375 77.734375 139.480469 78.933594 C 138.460938 79.804688 137.6875 81.453125 137.511719 83.199219 C 137.285156 85.515625 138.085938 87.6875 139.78125 89.308594 C 139.90625 89.433594 140.054688 89.484375 140.207031 89.484375 C 140.378906 89.484375 140.53125 89.410156 140.65625 89.285156 C 140.902344 89.035156 140.878906 88.636719 140.628906 88.410156 C 138.734375 86.589844 138.632812 84.445312 138.734375 83.320312 C 138.910156 81.675781 139.605469 80.429688 140.304688 79.855469 C 140.503906 80.078125 140.703125 80.277344 140.929688 80.476562 C 141.054688 80.601562 141.203125 80.652344 141.351562 80.652344 C 141.527344 80.652344 141.675781 80.578125 141.800781 80.453125 C 142.050781 80.203125 142.027344 79.804688 141.777344 79.582031 C 140.179688 78.035156 139.007812 76.363281 138.234375 74.566406 C 138.234375 74.566406 138.234375 74.542969 138.234375 74.542969 C 138.210938 74.464844 138.085938 74.117188 137.859375 73.542969 C 137.4375 72.246094 137.210938 70.875 137.210938 69.453125 C 137.210938 67.234375 138.558594 65.6875 139.882812 65.164062 C 140.605469 64.863281 141.304688 64.863281 141.875 65.113281 C 141.628906 65.3125 141.402344 65.585938 141.226562 65.910156 C 140.480469 67.359375 140.730469 69.726562 141.875 72.097656 C 142.949219 74.292969 144.097656 75.515625 145.445312 76.910156 C 146.019531 77.511719 146.617188 78.132812 147.238281 78.882812 C 146.617188 79.679688 146.140625 80.679688 145.992188 81.898438 C 145.542969 85.242188 147.265625 88.113281 149.261719 91.429688 C 149.933594 92.550781 150.65625 93.722656 151.332031 95.019531 C 151.480469 95.320312 151.878906 95.445312 152.179688 95.269531 C 152.476562 95.121094 152.601562 94.722656 152.429688 94.421875 C 151.730469 93.101562 151.007812 91.929688 150.332031 90.78125 C 148.386719 87.539062 146.839844 84.96875 147.214844 82.050781 C 147.515625 79.828125 149.035156 78.507812 150.433594 78.160156 C 151.179688 77.960938 151.878906 78.035156 152.429688 78.359375 C 152.152344 78.53125 151.90625 78.78125 151.679688 79.082031 C 150.730469 80.402344 150.683594 82.796875 151.503906 85.292969 C 152.078125 87.039062 153.078125 88.683594 154.347656 90.753906 C 155.273438 92.253906 156.34375 94.023438 157.492188 96.242188 C 156.769531 95.945312 156.171875 95.96875 155.871094 96.019531 C 154.648438 96.21875 153.675781 97.191406 153.675781 98.265625 C 153.675781 98.589844 153.925781 98.863281 154.273438 98.886719 C 155.046875 98.9375 155.371094 99.386719 155.398438 99.785156 C 155.421875 100.285156 155.046875 100.882812 154.125 101.03125 C 153.25 101.183594 152.578125 101.730469 152.230469 102.578125 C 151.753906 103.777344 152.027344 105.347656 152.953125 106.59375 C 153.125 106.820312 153.425781 106.894531 153.675781 106.792969 C 153.925781 106.695312 154.097656 106.421875 154.074219 106.144531 C 154.023438 105.722656 154.398438 105.371094 154.773438 105.273438 C 155.023438 105.199219 155.472656 105.148438 155.796875 105.746094 C 156.171875 106.445312 156.195312 107.21875 155.847656 107.667969 C 155.570312 108.066406 155.074219 108.066406 154.722656 108.015625 C 152.628906 107.667969 151.054688 108.539062 150.308594 110.511719 C 149.910156 111.585938 150.007812 112.78125 150.582031 113.703125 C 151.132812 114.578125 152.054688 115.078125 153.175781 115.175781 C 153.402344 115.199219 153.625 115.078125 153.75 114.902344 C 153.875 114.703125 153.875 114.476562 153.773438 114.277344 C 153.527344 113.828125 153.773438 113.378906 153.875 113.230469 C 154.148438 112.832031 154.574219 112.605469 154.949219 112.632812 C 155.421875 112.683594 155.722656 113.15625 155.894531 113.554688 C 156.894531 115.972656 154.996094 118.492188 154.972656 118.519531 C 154.773438 118.792969 154.824219 119.167969 155.074219 119.390625 C 155.195312 119.492188 155.320312 119.515625 155.445312 119.515625 C 155.621094 119.515625 155.820312 119.441406 155.945312 119.265625 C 156.046875 119.140625 158.316406 116.148438 157.042969 113.054688 C 156.46875 111.707031 155.570312 111.410156 155.074219 111.359375 C 154.25 111.285156 153.351562 111.707031 152.851562 112.480469 C 152.601562 112.855469 152.453125 113.28125 152.429688 113.703125 C 152.105469 113.554688 151.828125 113.332031 151.628906 113.007812 C 151.257812 112.433594 151.207031 111.632812 151.480469 110.9375 C 152.003906 109.539062 153.003906 108.964844 154.523438 109.238281 C 155.496094 109.390625 156.34375 109.089844 156.84375 108.390625 C 157.441406 107.542969 157.46875 106.269531 156.894531 105.148438 C 156.394531 104.199219 155.421875 103.777344 154.425781 104.074219 C 154.023438 104.199219 153.675781 104.425781 153.402344 104.699219 C 153.226562 104.101562 153.226562 103.503906 153.402344 103.027344 C 153.574219 102.578125 153.898438 102.328125 154.347656 102.230469 C 156.019531 101.929688 156.695312 100.707031 156.644531 99.6875 C 156.59375 98.789062 155.996094 98.0625 155.121094 97.765625 C 155.320312 97.515625 155.644531 97.289062 156.070312 97.242188 C 156.59375 97.167969 158.390625 97.191406 159.664062 101.15625 C 159.664062 101.183594 159.6875 101.230469 159.710938 101.257812 C 163.601562 113.28125 162.132812 134.757812 145.417969 144.535156 Z M 89.890625 106.246094 C 91.339844 106.246094 92.535156 105.074219 92.535156 103.601562 C 92.535156 102.15625 91.363281 100.957031 89.890625 100.957031 C 88.445312 100.957031 87.25 102.128906 87.25 103.601562 C 87.25 105.074219 88.445312 106.246094 89.890625 106.246094 Z M 89.890625 102.203125 C 90.664062 102.203125 91.289062 102.828125 91.289062 103.601562 C 91.289062 104.375 90.664062 105 89.890625 105 C 89.121094 105 88.496094 104.375 88.496094 103.601562 C 88.496094 102.855469 89.121094 102.203125 89.890625 102.203125 Z M 90.191406 90.730469 C 91.464844 90.730469 92.511719 89.683594 92.511719 88.410156 C 92.511719 87.136719 91.464844 86.089844 90.191406 86.089844 C 88.917969 86.089844 87.871094 87.136719 87.871094 88.410156 C 87.871094 89.683594 88.917969 90.730469 90.191406 90.730469 Z M 90.191406 87.3125 C 90.789062 87.3125 91.289062 87.8125 91.289062 88.410156 C 91.289062 89.007812 90.789062 89.507812 90.191406 89.507812 C 89.59375 89.507812 89.09375 89.007812 89.09375 88.410156 C 89.121094 87.8125 89.59375 87.3125 90.191406 87.3125 Z M 94.855469 82.5 C 96.054688 82.5 97.027344 81.527344 97.027344 80.328125 C 97.027344 79.132812 96.054688 78.160156 94.855469 78.160156 C 93.660156 78.160156 92.6875 79.132812 92.6875 80.328125 C 92.6875 81.527344 93.660156 82.5 94.855469 82.5 Z M 94.855469 79.40625 C 95.378906 79.40625 95.78125 79.828125 95.78125 80.328125 C 95.78125 80.851562 95.355469 81.25 94.855469 81.25 C 94.332031 81.25 93.933594 80.828125 93.933594 80.328125 C 93.933594 79.804688 94.332031 79.40625 94.855469 79.40625 Z M 106.65625 61.695312 C 107.851562 61.695312 108.824219 60.722656 108.824219 59.523438 C 108.824219 58.328125 107.851562 57.355469 106.65625 57.355469 C 105.457031 57.355469 104.484375 58.328125 104.484375 59.523438 C 104.484375 60.722656 105.457031 61.695312 106.65625 61.695312 Z M 106.65625 58.601562 C 107.179688 58.601562 107.578125 59.027344 107.578125 59.523438 C 107.578125 60.050781 107.152344 60.449219 106.65625 60.449219 C 106.132812 60.449219 105.730469 60.023438 105.730469 59.523438 C 105.730469 59.027344 106.132812 58.601562 106.65625 58.601562 Z M 124.691406 81.875 C 123.566406 81.875 122.667969 82.773438 122.667969 83.894531 C 122.667969 85.019531 123.566406 85.917969 124.691406 85.917969 C 125.8125 85.917969 126.710938 85.019531 126.710938 83.894531 C 126.710938 82.796875 125.8125 81.875 124.691406 81.875 Z M 124.691406 84.667969 C 124.265625 84.667969 123.917969 84.320312 123.917969 83.894531 C 123.917969 83.472656 124.265625 83.121094 124.691406 83.121094 C 125.113281 83.121094 125.464844 83.472656 125.464844 83.894531 C 125.464844 84.320312 125.113281 84.667969 124.691406 84.667969 Z M 132.097656 86.390625 C 130.902344 86.390625 129.929688 87.363281 129.929688 88.558594 C 129.929688 89.757812 130.902344 90.730469 132.097656 90.730469 C 133.296875 90.730469 134.269531 89.757812 134.269531 88.558594 C 134.292969 87.363281 133.296875 86.390625 132.097656 86.390625 Z M 132.097656 89.484375 C 131.574219 89.484375 131.175781 89.058594 131.175781 88.558594 C 131.175781 88.035156 131.601562 87.636719 132.097656 87.636719 C 132.621094 87.636719 133.023438 88.0625 133.023438 88.558594 C 133.046875 89.058594 132.621094 89.484375 132.097656 89.484375 Z M 124.390625 129.542969 C 124.390625 130.816406 125.4375 131.863281 126.710938 131.863281 C 127.984375 131.863281 129.03125 130.816406 129.03125 129.542969 C 129.03125 128.273438 127.984375 127.222656 126.710938 127.222656 C 125.4375 127.199219 124.390625 128.246094 124.390625 129.542969 Z M 126.710938 128.445312 C 127.308594 128.445312 127.808594 128.945312 127.808594 129.542969 C 127.808594 130.144531 127.308594 130.640625 126.710938 130.640625 C 126.113281 130.640625 125.613281 130.144531 125.613281 129.542969 C 125.636719 128.945312 126.113281 128.445312 126.710938 128.445312 Z M 129.628906 116.722656 C 129.628906 115.648438 128.757812 114.777344 127.683594 114.777344 C 126.609375 114.777344 125.738281 115.648438 125.738281 116.722656 C 125.738281 117.796875 126.609375 118.667969 127.683594 118.667969 C 128.757812 118.667969 129.628906 117.796875 129.628906 116.722656 Z M 126.984375 116.722656 C 126.984375 116.347656 127.308594 116.023438 127.683594 116.023438 C 128.058594 116.023438 128.382812 116.347656 128.382812 116.722656 C 128.382812 117.097656 128.058594 117.421875 127.683594 117.421875 C 127.308594 117.421875 126.984375 117.121094 126.984375 116.722656 Z M 124.140625 124.378906 C 124.140625 123.308594 123.269531 122.433594 122.195312 122.433594 C 121.121094 122.433594 120.25 123.308594 120.25 124.378906 C 120.25 125.453125 121.121094 126.328125 122.195312 126.328125 C 123.269531 126.328125 124.140625 125.453125 124.140625 124.378906 Z M 121.496094 124.378906 C 121.496094 124.007812 121.820312 123.683594 122.195312 123.683594 C 122.570312 123.683594 122.894531 124.007812 122.894531 124.378906 C 122.894531 124.753906 122.570312 125.078125 122.195312 125.078125 C 121.820312 125.078125 121.496094 124.78125 121.496094 124.378906 Z M 134.890625 112.605469 C 134.890625 111.335938 133.84375 110.285156 132.574219 110.285156 C 131.300781 110.285156 130.253906 111.335938 130.253906 112.605469 C 130.253906 113.878906 131.300781 114.925781 132.574219 114.925781 C 133.871094 114.953125 134.890625 113.902344 134.890625 112.605469 Z M 131.5 112.605469 C 131.5 112.007812 132 111.507812 132.597656 111.507812 C 133.195312 111.507812 133.695312 112.007812 133.695312 112.605469 C 133.695312 113.207031 133.195312 113.703125 132.597656 113.703125 C 131.972656 113.703125 131.5 113.207031 131.5 112.605469 Z M 88.796875 108.417969 C 88.796875 109.4375 89.617188 110.285156 90.664062 110.285156 C 91.714844 110.285156 92.535156 109.464844 92.535156 108.417969 C 92.535156 107.394531 91.714844 106.546875 90.664062 106.546875 C 89.617188 106.546875 88.796875 107.394531 88.796875 108.417969 Z M 91.289062 108.417969 C 91.289062 108.765625 91.015625 109.039062 90.664062 109.039062 C 90.316406 109.039062 90.042969 108.765625 90.042969 108.417969 C 90.042969 108.066406 90.316406 107.792969 90.664062 107.792969 C 91.015625 107.792969 91.289062 108.09375 91.289062 108.417969 Z M 110.996094 107.691406 C 110.996094 106.671875 110.171875 105.820312 109.125 105.820312 C 108.101562 105.820312 107.253906 106.644531 107.253906 107.691406 C 107.253906 108.742188 108.078125 109.5625 109.125 109.5625 C 110.148438 109.5625 110.996094 108.714844 110.996094 107.691406 Z M 108.5 107.691406 C 108.5 107.34375 108.777344 107.070312 109.125 107.070312 C 109.472656 107.070312 109.75 107.34375 109.75 107.691406 C 109.75 108.042969 109.472656 108.316406 109.125 108.316406 C 108.777344 108.316406 108.5 108.042969 108.5 107.691406 Z M 100.445312 114.726562 C 102.316406 114.726562 103.835938 113.207031 103.835938 111.335938 C 103.835938 109.464844 102.316406 107.941406 100.445312 107.941406 C 98.574219 107.941406 97.050781 109.464844 97.050781 111.335938 C 97.050781 113.207031 98.574219 114.726562 100.445312 114.726562 Z M 100.445312 109.191406 C 101.617188 109.191406 102.589844 110.164062 102.589844 111.335938 C 102.589844 112.507812 101.617188 113.480469 100.445312 113.480469 C 99.273438 113.480469 98.300781 112.507812 98.300781 111.335938 C 98.300781 110.164062 99.273438 109.191406 100.445312 109.191406 Z M 100.445312 109.191406 " fill-opacity="1" fill-rule="nonzero"/></g></svg>