<svg xmlns="http://www.w3.org/2000/svg" xmlns:xlink="http://www.w3.org/1999/xlink" width="326" zoomAndPan="magnify" viewBox="0 0 244.5 187.499995" height="250" preserveAspectRatio="xMidYMid meet" version="1.0"><defs><clipPath id="9802548bd9"><path d="M 83 34.328125 L 161 34.328125 L 161 152.515625 L 83 152.515625 Z M 83 34.328125 " clip-rule="nonzero"/></clipPath></defs><g clip-path="url(#9802548bd9)"><path fill="#ffffff" d="M 115.300781 72.558594 C 116.453125 72.558594 117.394531 71.617188 117.394531 70.488281 C 117.394531 69.355469 116.453125 68.390625 115.300781 68.390625 C 114.148438 68.390625 113.230469 69.332031 113.230469 70.488281 C 113.230469 71.640625 114.148438 72.558594 115.300781 72.558594 Z M 115.300781 69.570312 C 115.796875 69.570312 116.21875 69.96875 116.21875 70.488281 C 116.21875 70.980469 115.820312 71.40625 115.300781 71.40625 C 114.808594 71.40625 114.382812 71.003906 114.382812 70.488281 C 114.40625 69.992188 114.808594 69.570312 115.300781 69.570312 Z M 108.121094 88.542969 C 106.96875 88.542969 106.027344 89.484375 106.027344 90.613281 C 106.027344 91.765625 106.96875 92.683594 108.121094 92.683594 C 109.273438 92.683594 110.191406 91.742188 110.191406 90.613281 C 110.214844 89.460938 109.273438 88.542969 108.121094 88.542969 Z M 108.121094 91.53125 C 107.628906 91.53125 107.203125 91.132812 107.203125 90.613281 C 107.203125 90.121094 107.605469 89.695312 108.121094 89.695312 C 108.617188 89.695312 109.039062 90.097656 109.039062 90.613281 C 109.039062 91.132812 108.640625 91.53125 108.121094 91.53125 Z M 116.453125 113.355469 C 115.300781 113.355469 114.382812 114.296875 114.382812 115.449219 C 114.382812 116.601562 115.324219 117.519531 116.453125 117.519531 C 117.609375 117.519531 118.527344 116.578125 118.527344 115.449219 C 118.527344 114.320312 117.609375 113.355469 116.453125 113.355469 Z M 116.453125 116.34375 C 115.960938 116.34375 115.535156 115.941406 115.535156 115.425781 C 115.535156 114.90625 115.9375 114.507812 116.453125 114.507812 C 116.949219 114.507812 117.371094 114.90625 117.371094 115.425781 C 117.371094 115.941406 116.949219 116.34375 116.453125 116.34375 Z M 113.605469 83.246094 C 113.605469 82.09375 112.664062 81.152344 111.535156 81.152344 C 110.382812 81.152344 109.441406 82.09375 109.441406 83.246094 C 109.441406 84.398438 110.382812 85.316406 111.535156 85.316406 C 112.664062 85.316406 113.605469 84.398438 113.605469 83.246094 Z M 110.617188 83.246094 C 110.617188 82.75 111.015625 82.328125 111.535156 82.328125 C 112.03125 82.328125 112.453125 82.726562 112.453125 83.246094 C 112.453125 83.738281 112.054688 84.164062 111.535156 84.164062 C 111.015625 84.164062 110.617188 83.738281 110.617188 83.246094 Z M 120.925781 112.648438 C 122.316406 112.648438 123.46875 111.519531 123.46875 110.105469 C 123.46875 108.714844 122.339844 107.5625 120.925781 107.5625 C 119.515625 107.5625 118.386719 108.691406 118.386719 110.105469 C 118.410156 111.492188 119.539062 112.648438 120.925781 112.648438 Z M 120.925781 108.738281 C 121.679688 108.738281 122.292969 109.351562 122.292969 110.105469 C 122.292969 110.859375 121.679688 111.46875 120.925781 111.46875 C 120.175781 111.46875 119.5625 110.859375 119.5625 110.105469 C 119.585938 109.351562 120.199219 108.738281 120.925781 108.738281 Z M 159.839844 106.550781 C 158.851562 102.101562 158.074219 97.792969 158.945312 96.59375 C 159.085938 96.382812 159.273438 96.289062 159.582031 96.261719 C 159.792969 96.238281 159.957031 96.121094 160.050781 95.933594 C 160.144531 95.746094 160.121094 95.535156 160.003906 95.34375 C 159.980469 95.320312 158.355469 92.992188 155.34375 94.121094 C 153.90625 91.039062 152.28125 88.332031 151.082031 86.304688 C 150.589844 85.480469 150.164062 84.753906 149.8125 84.164062 C 148.539062 81.878906 149.433594 80.5625 149.457031 80.515625 C 149.625 80.304688 149.625 79.996094 149.433594 79.785156 C 149.269531 79.574219 148.964844 79.503906 148.730469 79.644531 C 148 80.019531 147.386719 80.421875 146.84375 80.84375 C 146.09375 80.089844 144.066406 77.878906 141.925781 73.925781 C 140.089844 70.488281 140.324219 68.769531 140.773438 68.273438 C 140.9375 68.109375 141.125 68.0625 141.359375 68.15625 C 141.546875 68.25 141.785156 68.203125 141.949219 68.085938 C 142.113281 67.96875 142.207031 67.757812 142.183594 67.542969 C 142.160156 67.308594 141.878906 65.214844 140.652344 64.390625 C 140.253906 64.109375 139.757812 64.011719 139.265625 64.085938 C 138.890625 63.777344 138.089844 63.285156 137.074219 63.308594 C 136.558594 63.332031 136.085938 63.472656 135.640625 63.730469 C 135.121094 63.117188 133.734375 61.28125 132.226562 57.703125 C 131.683594 56.433594 131.613281 55.398438 132.015625 54.878906 C 132.34375 54.480469 132.839844 54.503906 133.050781 54.527344 C 133.546875 54.597656 133.96875 54.902344 134.109375 55.304688 C 134.179688 55.492188 134.34375 55.632812 134.535156 55.65625 C 134.722656 55.703125 134.933594 55.632812 135.074219 55.515625 C 136.628906 54.03125 136.535156 51.867188 135.640625 50.523438 C 134.886719 49.371094 133.6875 48.925781 132.554688 49.394531 C 131.214844 49.960938 130.34375 49.867188 129.992188 49.605469 C 129.917969 49.558594 129.683594 49.394531 129.707031 48.925781 C 129.730469 48.40625 130.039062 48.195312 130.203125 48.101562 C 130.367188 48.007812 130.53125 48.007812 130.625 48.007812 C 130.648438 48.007812 130.671875 48.007812 130.671875 48.007812 C 130.789062 48.265625 131.050781 48.40625 131.332031 48.335938 C 131.589844 48.289062 131.804688 48.054688 131.804688 47.769531 C 131.804688 47.699219 131.828125 46.171875 130.8125 45.226562 C 130.203125 44.664062 129.402344 44.453125 128.390625 44.546875 C 126.648438 44.734375 124.765625 46.121094 123.730469 48.03125 C 122.457031 50.359375 122.503906 53.136719 123.894531 55.84375 C 125.777344 59.585938 125.753906 61.847656 125.140625 62.269531 C 124.742188 62.53125 124.410156 62.269531 124.292969 62.152344 C 124.105469 61.964844 124.011719 61.707031 124.082031 61.589844 C 124.199219 61.425781 124.199219 61.1875 124.105469 61 C 124.011719 60.8125 123.824219 60.695312 123.609375 60.671875 C 123.5625 60.671875 122.246094 60.601562 121.445312 61.496094 C 120.925781 62.082031 120.785156 62.882812 120.972656 63.894531 C 121.609375 67.121094 124.953125 68.605469 126.90625 69.214844 C 127.871094 69.5 128.4375 70.085938 128.484375 70.769531 C 128.507812 71.214844 128.296875 71.59375 128.105469 71.710938 C 127.800781 71.851562 127.472656 71.851562 127.1875 71.710938 C 126.882812 71.546875 126.695312 71.265625 126.625 70.863281 C 126.578125 70.605469 126.339844 70.394531 126.082031 70.394531 C 125.824219 70.371094 125.566406 70.558594 125.496094 70.816406 C 125.398438 71.097656 123.5625 77.925781 134.558594 83.765625 C 133.261719 84.894531 132.792969 86.472656 133.214844 88.09375 C 132.792969 88.261719 132.367188 88.566406 131.992188 88.988281 C 131.261719 89.859375 130.71875 91.34375 131.027344 93.132812 C 124.601562 85.105469 122.738281 81.386719 121.609375 77.382812 C 121.257812 76.160156 121.351562 75.21875 121.867188 74.746094 C 122.199219 74.441406 122.667969 74.417969 122.976562 74.535156 C 123.09375 74.582031 123.304688 74.699219 123.304688 74.890625 C 123.328125 75.101562 123.46875 75.3125 123.683594 75.382812 C 123.894531 75.453125 124.128906 75.40625 124.292969 75.265625 C 124.882812 74.699219 125.09375 73.828125 124.8125 72.933594 C 124.527344 71.96875 123.609375 70.816406 121.894531 70.511719 C 120.574219 70.296875 118.621094 70.863281 117.160156 72.652344 C 115.960938 74.113281 114.335938 77.476562 116.574219 83.667969 C 115.679688 84.1875 115.042969 84.964844 114.761719 85.882812 C 114.546875 86.613281 114.453125 87.71875 115.160156 89.082031 C 113.675781 89.695312 110.59375 91.671875 110.898438 97.605469 C 111.085938 101.371094 113.820312 103.417969 116.265625 103.773438 C 118.078125 104.03125 119.539062 103.324219 119.984375 102.03125 C 120.054688 101.84375 120.007812 101.628906 119.890625 101.464844 C 119.75 101.300781 119.5625 101.230469 119.351562 101.253906 C 118.574219 101.347656 118.386719 101.042969 118.316406 100.925781 C 118.03125 100.453125 118.171875 99.558594 118.621094 98.972656 C 118.972656 98.5 119.820312 98.027344 120.855469 98.125 C 122.082031 98.21875 124.503906 99.089844 127.117188 103.984375 C 129.449219 108.316406 129.449219 113.402344 129.378906 114.835938 C 128.082031 114.695312 126.882812 115.355469 126.835938 115.378906 C 126.648438 115.496094 126.53125 115.683594 126.53125 115.917969 C 126.53125 116.132812 126.671875 116.34375 126.882812 116.4375 C 127.589844 116.765625 127.988281 117.214844 127.988281 117.707031 C 128.011719 118.15625 127.707031 118.648438 127.261719 118.886719 C 127.046875 119.003906 126.625 119.144531 126.175781 118.839844 C 125.1875 118.132812 122.621094 116.71875 120.199219 118.769531 C 118.363281 120.320312 118.949219 122.699219 119.515625 123.757812 C 119.632812 123.96875 119.867188 124.089844 120.105469 124.066406 C 120.339844 124.042969 120.550781 123.851562 120.597656 123.617188 C 120.667969 123.3125 121.023438 123.171875 121.234375 123.121094 C 121.964844 122.957031 123.09375 123.21875 123.800781 124.066406 C 124.71875 125.171875 124.71875 126.9375 123.777344 129.03125 C 121.304688 134.632812 113.160156 133.832031 111.394531 133.597656 C 111.371094 133.058594 111.300781 132.609375 111.207031 132.304688 C 112.054688 131.433594 114.40625 128.515625 113.042969 123.96875 C 112.03125 120.605469 109.132812 119.214844 106.875 119.355469 C 104.921875 119.472656 103.484375 120.675781 103.179688 122.511719 C 103.15625 122.699219 103.203125 122.886719 103.320312 123.003906 C 103.4375 123.148438 103.625 123.195312 103.8125 123.195312 C 104.074219 123.171875 104.285156 123.429688 104.402344 123.570312 C 104.875 124.253906 105.0625 125.570312 104.472656 126.75 C 103.980469 127.714844 102.800781 128.890625 99.953125 128.984375 C 99.859375 128.984375 99.742188 128.984375 99.648438 128.984375 C 94.5625 128.984375 92.773438 124.652344 92.253906 122.839844 C 92.539062 122.886719 92.820312 122.910156 93.078125 122.910156 C 94.515625 122.910156 95.597656 122.203125 96.09375 120.980469 C 97.8125 121.050781 99.035156 120.628906 99.765625 119.664062 C 100.847656 118.25 100.351562 116.296875 100.328125 116.226562 C 100.28125 116.0625 100.164062 115.917969 100 115.847656 C 99.835938 115.777344 99.648438 115.777344 99.507812 115.847656 C 99.246094 115.964844 99.011719 116.039062 98.800781 116.039062 C 98.09375 116.039062 97.765625 115.355469 97.667969 115.144531 C 97.433594 114.578125 97.433594 113.730469 97.976562 113.234375 C 98.351562 112.882812 98.777344 112.71875 99.292969 112.71875 C 100.328125 112.71875 101.390625 113.378906 101.929688 113.777344 C 102.449219 114.152344 103.296875 114.390625 104.214844 114.390625 C 105.980469 114.390625 107.53125 113.613281 108.355469 112.316406 C 109.511719 110.503906 108.710938 108.667969 108.121094 107.941406 C 107.957031 107.75 107.699219 107.679688 107.460938 107.75 C 107.226562 107.84375 107.0625 108.058594 107.0625 108.292969 C 107.039062 108.410156 106.710938 108.691406 106.332031 108.691406 C 105.957031 108.691406 105.71875 108.410156 105.648438 107.820312 C 105.53125 106.972656 105.816406 106.503906 106.285156 105.796875 C 106.875 104.878906 107.628906 103.703125 107.652344 101.324219 C 107.675781 99.582031 107.296875 98.3125 106.519531 97.511719 C 105.933594 96.921875 105.132812 96.59375 104.167969 96.59375 C 103.132812 96.59375 102.285156 96.945312 102.238281 96.96875 C 102.046875 97.039062 101.929688 97.207031 101.882812 97.417969 C 101.859375 97.605469 101.90625 97.816406 102.046875 97.957031 C 102.589844 98.453125 102.660156 99.324219 102.285156 100.265625 C 101.789062 101.511719 100.449219 102.808594 98.941406 102.574219 C 98.164062 102.453125 97.105469 101.605469 96.492188 99.984375 C 95.691406 97.886719 94.679688 91.933594 102.800781 81.925781 C 114.171875 67.945312 118.242188 61 119.867188 47.347656 C 120.527344 41.746094 119.9375 37.835938 118.078125 35.742188 C 117.042969 34.515625 115.726562 34.328125 115.066406 34.328125 C 114.902344 34.328125 114.761719 34.328125 114.617188 34.351562 C 113.253906 34.515625 112.171875 35.292969 111.652344 36.472656 C 111.136719 37.671875 111.324219 39.109375 112.148438 40.238281 C 112.265625 40.402344 112.429688 40.472656 112.617188 40.472656 C 112.949219 40.472656 113.207031 40.214844 113.207031 39.882812 C 113.207031 39.835938 113.207031 39.789062 113.183594 39.765625 C 113.183594 39.578125 113.253906 39.414062 113.371094 39.296875 C 113.535156 39.109375 113.816406 39.015625 114.101562 39.015625 C 114.335938 39.015625 115.136719 39.109375 115.324219 40.332031 C 115.535156 41.648438 114.785156 42.074219 113.347656 42.78125 C 112.734375 43.0625 112.125 43.367188 111.582031 43.816406 C 110.265625 44.898438 110.476562 46.921875 110.757812 48.101562 C 110.664062 48.101562 110.570312 48.101562 110.476562 48.101562 C 109.511719 48.101562 108.664062 48.359375 108.027344 48.855469 C 106.945312 49.675781 106.355469 50.667969 106.261719 51.796875 C 106.074219 53.75 107.484375 55.328125 107.558594 55.398438 C 107.722656 55.585938 107.980469 55.632812 108.214844 55.539062 C 108.453125 55.445312 108.59375 55.210938 108.570312 54.949219 C 108.546875 54.503906 108.664062 54.125 108.921875 53.867188 C 109.226562 53.539062 109.699219 53.375 110.265625 53.375 C 110.851562 53.375 111.417969 53.585938 111.746094 53.960938 C 112.03125 54.269531 112.148438 54.667969 112.101562 55.140625 C 111.488281 61.425781 102.566406 71.617188 96.65625 78.347656 L 95.785156 79.339844 C 89.101562 86.964844 84.769531 94.261719 83.96875 106.433594 C 81.78125 118.296875 84.675781 131.761719 90.726562 137.789062 C 92.324219 139.390625 93.902344 140.472656 95.433594 140.964844 C 100.636719 147.558594 111.347656 152.078125 120.316406 152.078125 C 122.503906 152.078125 124.601562 151.820312 126.507812 151.230469 C 127.871094 150.804688 129.097656 150.335938 130.132812 149.839844 C 130.15625 149.839844 130.15625 149.839844 130.179688 149.839844 C 130.203125 149.839844 130.203125 149.839844 130.226562 149.839844 C 130.390625 149.839844 146.679688 148.640625 154.917969 134.421875 C 158.851562 127.644531 159.652344 122.652344 159.320312 119.214844 C 159.863281 117.898438 161.347656 113.425781 159.839844 106.550781 Z M 121.84375 97.15625 C 121.539062 97.085938 121.257812 97.039062 120.972656 97.015625 C 119.375 96.898438 118.195312 97.652344 117.703125 98.335938 C 117.066406 99.160156 116.738281 100.59375 117.324219 101.582031 C 117.46875 101.84375 117.773438 102.195312 118.316406 102.382812 C 117.820312 102.667969 117.113281 102.738281 116.453125 102.644531 C 114.40625 102.359375 112.265625 100.6875 112.125 97.582031 C 111.769531 90.894531 116.007812 90.074219 116.195312 90.050781 C 116.382812 90.027344 116.550781 89.882812 116.644531 89.695312 C 116.714844 89.507812 116.714844 89.296875 116.597656 89.132812 C 115.914062 88.117188 115.703125 87.128906 115.960938 86.257812 C 116.195312 85.503906 116.761719 84.894531 117.609375 84.539062 C 117.890625 84.421875 118.03125 84.09375 117.9375 83.789062 C 115.632812 77.855469 117.066406 74.769531 118.148438 73.453125 C 119.304688 72.039062 120.832031 71.570312 121.773438 71.734375 C 122.953125 71.945312 123.585938 72.699219 123.777344 73.335938 C 123.824219 73.453125 123.824219 73.570312 123.847656 73.6875 C 123.730469 73.617188 123.609375 73.546875 123.46875 73.5 C 122.691406 73.195312 121.773438 73.359375 121.164062 73.949219 C 120.667969 74.394531 119.9375 75.5 120.574219 77.761719 C 121.070312 79.550781 121.726562 81.292969 122.835938 83.339844 C 120.902344 86.660156 122.527344 89.554688 123.28125 90.636719 C 122.789062 91.296875 122.835938 92.050781 123.046875 92.636719 C 122.574219 92.851562 122.152344 93.25 121.894531 93.792969 C 121.421875 94.59375 121.28125 95.792969 121.84375 97.15625 Z M 128.179688 103.46875 C 126.625 100.570312 125.09375 98.921875 123.707031 98.003906 C 123.707031 98.003906 123.707031 98.003906 123.707031 97.980469 C 122.480469 96.453125 122.480469 95.039062 122.859375 94.285156 C 123.070312 93.839844 123.445312 93.605469 123.824219 93.628906 C 124.035156 93.652344 124.269531 93.507812 124.363281 93.320312 C 124.480469 93.109375 124.457031 92.875 124.316406 92.683594 C 124.246094 92.589844 123.632812 91.695312 124.363281 91.109375 C 124.480469 91.015625 124.578125 90.847656 124.578125 90.683594 C 124.578125 90.519531 124.527344 90.355469 124.410156 90.238281 C 124.386719 90.214844 122.105469 87.695312 123.445312 84.539062 C 125.210938 87.53125 127.917969 91.273438 132.4375 96.6875 C 133.828125 98.382812 134.980469 100.21875 135.875 102.195312 C 135.285156 102.382812 134.769531 102.691406 134.34375 103.113281 C 133.734375 101.679688 133.097656 100.523438 132.414062 99.558594 C 132.226562 99.300781 131.851562 99.230469 131.589844 99.417969 C 131.332031 99.605469 131.261719 99.984375 131.449219 100.242188 C 132.203125 101.300781 132.863281 102.574219 133.546875 104.242188 C 132.792969 105.773438 132.933594 107.75 133.96875 109.65625 C 134.085938 109.871094 134.296875 109.988281 134.535156 109.964844 C 134.769531 109.941406 134.957031 109.777344 135.027344 109.5625 C 135.027344 109.539062 135.050781 109.515625 135.074219 109.492188 C 135.828125 114.4375 134.390625 118.039062 134.390625 118.085938 C 134.367188 118.109375 134.367188 118.15625 134.367188 118.179688 C 134.203125 118.273438 134.039062 118.34375 133.875 118.390625 C 133.378906 118.507812 132.933594 118.367188 132.578125 117.992188 C 132.578125 117.992188 132.578125 117.96875 132.601562 117.96875 C 132.746094 117.707031 135.875 111.398438 131.191406 102.949219 C 131.027344 102.667969 130.671875 102.574219 130.390625 102.714844 C 130.109375 102.878906 130.015625 103.230469 130.15625 103.515625 C 133.617188 109.753906 132.484375 114.789062 131.851562 116.648438 C 131.519531 116.015625 131.121094 115.542969 130.601562 115.238281 C 130.625 114.367188 130.910156 108.550781 128.179688 103.46875 Z M 138.066406 97.015625 C 137.382812 95.488281 138.675781 94.757812 139.101562 94.570312 C 140.703125 93.839844 143.925781 94.191406 145.832031 98.242188 C 145.996094 98.59375 146.164062 98.972656 146.328125 99.347656 C 145.785156 99.300781 145.292969 99.417969 144.960938 99.511719 C 143.902344 98.40625 142.324219 98.027344 140.75 98.476562 C 139.03125 98.972656 137.78125 100.3125 137.429688 101.984375 C 137.3125 101.984375 137.21875 101.984375 137.101562 101.984375 C 136.464844 100.523438 135.6875 99.136719 134.769531 97.816406 C 135.898438 98.148438 137.027344 98.003906 137.734375 97.769531 C 137.898438 97.722656 138.019531 97.605469 138.089844 97.441406 C 138.136719 97.347656 138.136719 97.15625 138.066406 97.015625 Z M 145.054688 105.160156 C 145.054688 105.183594 145.996094 107.539062 145.832031 111.988281 C 145.691406 112.128906 145.574219 112.269531 145.457031 112.414062 C 144.421875 113.753906 144.183594 115.636719 144.867188 117.050781 C 144.9375 117.191406 145.054688 117.308594 145.199219 117.355469 C 145.03125 118.179688 144.84375 119.027344 144.632812 119.898438 C 143.996094 119.332031 143.195312 119.027344 142.324219 118.957031 C 144.066406 112.035156 142.5625 107.632812 142.492188 107.445312 C 142.371094 107.140625 142.042969 106.972656 141.738281 107.09375 C 141.429688 107.210938 141.265625 107.539062 141.382812 107.84375 C 141.40625 107.890625 142.890625 112.246094 141.078125 119.074219 C 140.183594 119.285156 139.359375 119.757812 138.769531 120.390625 C 138.746094 120.039062 138.675781 119.710938 138.605469 119.378906 C 138.511719 118.957031 138.394531 118.578125 138.230469 118.226562 C 140.347656 110.058594 137.898438 108.386719 136.746094 108.058594 C 135.96875 107.820312 135.191406 108.011719 134.628906 108.363281 C 134.039062 106.878906 134.085938 105.46875 134.792969 104.433594 C 135.429688 103.492188 136.535156 103.042969 137.804688 103.207031 C 137.96875 103.230469 138.136719 103.183594 138.253906 103.089844 C 138.371094 102.996094 138.464844 102.832031 138.464844 102.691406 C 138.582031 101.253906 139.59375 100.054688 141.03125 99.628906 C 142.300781 99.253906 143.527344 99.605469 144.304688 100.59375 C 144.492188 100.832031 144.796875 100.878906 145.054688 100.734375 C 145.078125 100.710938 145.902344 100.265625 146.75 100.640625 C 147.621094 101.019531 148.28125 102.171875 148.679688 103.9375 C 149.433594 107.1875 149.480469 109.679688 149.480469 110.671875 C 148.585938 110.648438 147.738281 110.789062 147.035156 111.140625 C 147.058594 106.996094 146.1875 104.785156 146.164062 104.691406 C 146.046875 104.386719 145.691406 104.242188 145.386719 104.363281 C 145.078125 104.527344 144.9375 104.878906 145.054688 105.160156 Z M 141.972656 127.21875 C 142.492188 126.9375 143.3125 126.890625 143.949219 127.382812 C 144.820312 128.066406 145.03125 129.480469 144.5625 131.410156 C 143.410156 136.046875 138.113281 138.941406 135.664062 140.023438 C 135.734375 139.53125 135.757812 139.011719 135.757812 138.496094 C 136.652344 137.929688 140.066406 135.644531 142.890625 131.925781 C 143.078125 131.667969 143.03125 131.292969 142.773438 131.101562 C 142.515625 130.914062 142.136719 130.960938 141.949219 131.222656 C 139.617188 134.28125 136.839844 136.351562 135.59375 137.199219 C 135.546875 137.035156 135.523438 136.847656 135.476562 136.683594 C 135.429688 136.539062 135.382812 136.375 135.335938 136.234375 C 136.207031 135.480469 138.914062 132.988281 141.078125 128.984375 C 141.101562 128.960938 141.101562 128.9375 141.101562 128.890625 C 141.195312 128.773438 141.242188 128.65625 141.21875 128.488281 C 141.171875 127.738281 141.714844 127.359375 141.972656 127.21875 Z M 134.792969 135.128906 C 134.441406 134.492188 133.96875 133.929688 133.449219 133.457031 C 133.472656 133.433594 133.472656 133.433594 133.496094 133.410156 C 135.476562 130.726562 136.910156 128.253906 137.78125 126.019531 C 138.160156 126.984375 138.890625 127.808594 139.902344 128.679688 C 138.019531 131.996094 135.757812 134.234375 134.792969 135.128906 Z M 136.230469 109.140625 C 136.300781 109.140625 136.371094 109.164062 136.441406 109.1875 C 137.664062 109.539062 138.511719 111.730469 137.382812 116.789062 C 136.863281 116.15625 136.347656 115.824219 136.230469 115.753906 C 136.511719 114.082031 136.652344 111.800781 136.230469 109.140625 Z M 121.023438 122.015625 C 120.738281 122.085938 120.503906 122.179688 120.292969 122.324219 C 120.128906 121.570312 120.105469 120.488281 121.046875 119.710938 C 122.761719 118.25 124.625 119.167969 125.589844 119.828125 C 126.269531 120.320312 127.140625 120.367188 127.894531 119.96875 C 128.71875 119.519531 129.261719 118.625 129.238281 117.730469 C 129.214844 117.332031 129.097656 116.695312 128.484375 116.109375 C 128.859375 116.039062 129.308594 116.015625 129.707031 116.15625 C 130.25 116.34375 130.671875 116.835938 130.957031 117.566406 C 131.660156 119.449219 133.074219 119.828125 134.15625 119.570312 C 135.121094 119.332031 136.0625 118.507812 136.394531 117.402344 C 136.792969 117.851562 137.242188 118.554688 137.476562 119.617188 C 137.734375 120.792969 137.734375 122.464844 136.957031 124.769531 C 135.097656 124.464844 133.804688 125.195312 132.933594 125.972656 C 132.484375 125.617188 131.875 125.40625 131.261719 125.359375 C 130.554688 125.3125 129.894531 125.523438 129.355469 125.925781 C 128.226562 124.441406 126.625 124.488281 125.542969 124.839844 C 125.351562 124.160156 125.046875 123.6875 124.765625 123.359375 C 123.707031 122.0625 122.058594 121.757812 121.023438 122.015625 Z M 111.394531 134.824219 C 111.980469 134.894531 113.019531 135.011719 114.289062 135.011719 C 117.75 135.011719 122.859375 134.164062 124.90625 129.550781 C 125.542969 128.113281 125.730469 126.960938 125.707031 126.019531 C 126.222656 125.804688 127.800781 125.359375 128.695312 127.101562 C 128.789062 127.289062 128.953125 127.40625 129.167969 127.40625 C 129.191406 127.40625 129.214844 127.40625 129.214844 127.40625 C 129.402344 127.40625 129.566406 127.335938 129.683594 127.195312 C 130.179688 126.582031 130.765625 126.464844 131.191406 126.511719 C 131.757812 126.535156 132.25 126.820312 132.390625 127.078125 C 132.484375 127.21875 132.652344 127.335938 132.816406 127.335938 C 133.003906 127.359375 133.167969 127.289062 133.285156 127.171875 C 133.992188 126.464844 134.980469 125.734375 136.488281 125.878906 C 135.710938 127.761719 134.464844 130.019531 132.484375 132.679688 C 132.460938 132.703125 132.460938 132.703125 132.460938 132.726562 C 132.15625 132.539062 131.804688 132.375 131.472656 132.234375 C 131.828125 131.714844 132.34375 130.890625 132.601562 130.183594 C 132.699219 129.878906 132.53125 129.550781 132.226562 129.433594 C 131.921875 129.335938 131.589844 129.503906 131.472656 129.808594 C 131.214844 130.5625 130.53125 131.527344 130.273438 131.878906 C 129.261719 131.667969 128.367188 131.691406 127.542969 131.878906 C 128.105469 131.148438 128.53125 130.46875 128.742188 130.042969 C 128.882812 129.761719 128.765625 129.410156 128.484375 129.242188 C 128.203125 129.101562 127.847656 129.21875 127.683594 129.503906 C 127.261719 130.328125 125.777344 132.46875 124.175781 133.597656 C 118.925781 137.386719 112.851562 136.117188 111.160156 135.644531 C 111.300781 135.410156 111.347656 135.105469 111.394531 134.824219 Z M 110.382812 137.460938 C 110.523438 137.246094 110.640625 137.011719 110.757812 136.800781 C 111.558594 137.035156 113.371094 137.484375 115.679688 137.484375 C 117.679688 137.484375 120.03125 137.152344 122.386719 136.070312 C 122.339844 136.28125 122.433594 136.492188 122.597656 136.636719 C 122.8125 136.800781 123.140625 136.800781 123.351562 136.613281 C 123.707031 136.304688 124.058594 136.257812 124.433594 136.492188 C 124.601562 136.589844 124.742188 136.730469 124.882812 136.894531 C 118.925781 140.070312 112.171875 138.070312 110.382812 137.460938 Z M 125.375 137.953125 C 125.398438 138.1875 125.398438 138.425781 125.351562 138.660156 C 125.117188 139.90625 123.824219 140.753906 121.703125 141.0625 C 115.347656 141.957031 110.640625 140.167969 108.78125 139.296875 C 109.109375 139.011719 109.394531 138.730469 109.652344 138.449219 C 110.382812 138.730469 113.488281 139.859375 117.394531 139.859375 C 119.867188 139.835938 122.667969 139.390625 125.375 137.953125 Z M 85.097656 108.082031 C 85.121094 107.539062 85.144531 107.019531 85.195312 106.503906 C 85.195312 106.480469 85.195312 106.480469 85.195312 106.457031 C 85.195312 106.410156 85.195312 106.363281 85.195312 106.316406 C 85.992188 94.523438 90.230469 87.4375 96.703125 80.019531 L 97.574219 79.03125 C 103.929688 71.78125 112.664062 61.824219 113.300781 55.164062 C 113.371094 54.363281 113.160156 53.632812 112.640625 53.066406 C 112.078125 52.457031 111.230469 52.101562 110.289062 52.101562 C 109.417969 52.101562 108.617188 52.433594 108.097656 52.972656 C 107.980469 53.113281 107.863281 53.253906 107.769531 53.398438 C 107.558594 52.949219 107.414062 52.382812 107.460938 51.796875 C 107.53125 51.019531 107.980469 50.3125 108.78125 49.675781 C 109.320312 49.253906 110.003906 49.183594 110.5 49.183594 C 111.039062 49.183594 111.464844 49.277344 111.464844 49.277344 C 111.675781 49.324219 111.910156 49.277344 112.054688 49.113281 C 112.195312 48.949219 112.242188 48.710938 112.171875 48.5 C 111.863281 47.722656 111.324219 45.488281 112.359375 44.640625 C 112.78125 44.285156 113.347656 44.027344 113.890625 43.769531 C 115.207031 43.132812 116.878906 42.332031 116.527344 40.074219 C 116.265625 38.378906 115.066406 37.765625 114.125 37.765625 C 113.535156 37.765625 112.972656 37.976562 112.59375 38.378906 C 112.5 37.882812 112.523438 37.367188 112.734375 36.894531 C 113.089844 36.09375 113.792969 35.601562 114.761719 35.484375 C 114.855469 35.507812 114.949219 35.507812 115.066406 35.507812 C 115.535156 35.507812 116.453125 35.648438 117.300781 36.589844 C 118.433594 37.859375 119.585938 40.730469 118.808594 47.277344 C 117.207031 60.648438 113.207031 67.496094 102 81.269531 C 93.480469 91.742188 94.609375 98.195312 95.503906 100.476562 C 96.210938 102.3125 97.503906 103.585938 98.894531 103.796875 C 99.058594 103.820312 99.246094 103.84375 99.410156 103.84375 C 101.367188 103.84375 102.894531 102.242188 103.484375 100.761719 C 103.90625 99.722656 103.90625 98.710938 103.507812 97.910156 C 103.71875 97.863281 103.980469 97.839844 104.238281 97.839844 C 104.875 97.839844 105.367188 98.027344 105.742188 98.40625 C 106.285156 98.972656 106.566406 99.960938 106.542969 101.371094 C 106.519531 103.417969 105.886719 104.386719 105.367188 105.230469 C 104.847656 106.03125 104.378906 106.761719 104.566406 108.058594 C 104.824219 109.800781 106.050781 109.941406 106.425781 109.941406 C 106.898438 109.941406 107.34375 109.777344 107.699219 109.515625 C 107.886719 110.082031 108.003906 110.90625 107.460938 111.753906 C 106.566406 113.164062 104.824219 113.257812 104.308594 113.257812 C 103.507812 113.257812 102.964844 113.070312 102.707031 112.882812 C 102.046875 112.414062 100.753906 111.613281 99.386719 111.613281 C 98.585938 111.613281 97.859375 111.894531 97.269531 112.4375 C 96.445312 113.1875 96.210938 114.484375 96.679688 115.636719 C 97.152344 116.8125 98.234375 117.472656 99.386719 117.238281 C 99.410156 117.753906 99.363281 118.484375 98.941406 119.027344 C 98.398438 119.734375 97.339844 119.992188 95.832031 119.851562 C 95.550781 119.828125 95.269531 120.015625 95.199219 120.296875 C 94.890625 121.546875 93.925781 121.804688 93.171875 121.804688 C 91.808594 121.804688 90.160156 120.933594 88.773438 119.496094 C 87.289062 117.96875 84.839844 114.4375 85.097656 108.082031 Z M 86.699219 128.417969 C 86.675781 128.371094 86.652344 128.347656 86.628906 128.300781 C 85.144531 123.992188 84.371094 118.910156 84.464844 113.753906 C 84.839844 115.285156 85.382812 116.554688 85.96875 117.589844 C 85.945312 118.132812 85.898438 122.226562 87.148438 125.546875 C 87.242188 125.78125 87.453125 125.925781 87.6875 125.925781 C 87.757812 125.925781 87.828125 125.902344 87.902344 125.878906 C 88.207031 125.757812 88.347656 125.429688 88.230469 125.125 C 87.5 123.21875 87.242188 120.980469 87.171875 119.425781 C 87.429688 119.757812 87.6875 120.039062 87.925781 120.296875 C 88.113281 120.488281 88.300781 120.675781 88.511719 120.863281 C 88.511719 120.886719 88.511719 120.886719 88.511719 120.910156 C 88.535156 121.097656 88.914062 125.6875 91.550781 128.632812 C 91.667969 128.773438 91.832031 128.820312 91.996094 128.820312 C 92.136719 128.820312 92.277344 128.773438 92.398438 128.679688 C 92.632812 128.464844 92.65625 128.089844 92.445312 127.855469 C 90.773438 125.996094 90.113281 123.3125 89.855469 121.875 C 90.253906 122.132812 90.65625 122.347656 91.078125 122.511719 C 91.359375 123.757812 93.171875 130.46875 100.117188 130.230469 C 100.964844 130.207031 101.671875 130.089844 102.285156 129.902344 C 101.976562 130.65625 101.199219 131.171875 100.707031 131.457031 C 99.082031 132.375 96.824219 132.632812 95.761719 132.019531 C 95.597656 131.925781 95.363281 131.925781 95.199219 132.019531 C 94.984375 132.140625 93.078125 133.105469 91.785156 131.222656 C 91.644531 131.007812 91.382812 130.914062 91.125 130.984375 C 90.960938 131.03125 88.113281 131.832031 86.699219 128.417969 Z M 96.140625 139.90625 C 96.023438 139.8125 95.855469 139.765625 95.714844 139.765625 C 94.398438 139.296875 93.03125 138.328125 91.597656 136.894531 C 90.230469 135.527344 89.054688 133.785156 88.042969 131.738281 C 89.21875 132.351562 90.394531 132.28125 91.007812 132.210938 C 91.832031 133.222656 92.84375 133.550781 93.761719 133.550781 C 94.398438 133.550781 94.984375 133.386719 95.433594 133.199219 C 96.917969 133.832031 99.386719 133.550781 101.246094 132.492188 C 102.660156 131.691406 103.484375 130.585938 103.554688 129.382812 C 104.683594 128.773438 105.296875 127.949219 105.578125 127.359375 C 106.402344 125.710938 106.074219 123.945312 105.414062 123.003906 C 105.179688 122.652344 104.875 122.394531 104.542969 122.253906 C 104.921875 121.285156 105.816406 120.699219 106.992188 120.628906 C 108.851562 120.511719 111.160156 121.78125 111.957031 124.417969 C 113.347656 129.03125 110.335938 131.667969 110.191406 131.785156 C 110.003906 131.949219 109.933594 132.210938 110.027344 132.46875 C 110.050781 132.492188 111.324219 135.789062 107.722656 138.660156 C 104.191406 141.484375 101.320312 139.082031 101.199219 138.964844 C 101.082031 138.871094 100.941406 138.824219 100.777344 138.824219 C 100.613281 138.824219 100.472656 138.917969 100.375 139.035156 C 100.375 139.035156 99.433594 140.09375 97.691406 140.167969 C 97.222656 140.117188 96.679688 140.046875 96.140625 139.90625 Z M 126.199219 150.054688 C 117.609375 152.664062 103.882812 148.382812 97.316406 141.273438 C 97.386719 141.273438 97.480469 141.273438 97.550781 141.273438 C 97.621094 141.273438 97.691406 141.273438 97.765625 141.273438 C 98.660156 141.25 99.386719 141.011719 99.953125 140.730469 C 100.941406 141.695312 107.910156 148.144531 118.480469 148.40625 L 118.503906 148.40625 C 118.832031 148.40625 119.089844 148.144531 119.089844 147.839844 C 119.089844 147.511719 118.832031 147.25 118.527344 147.226562 C 109.558594 147.015625 103.15625 142.003906 101.269531 140.332031 C 102 140.730469 103.179688 141.203125 104.613281 141.132812 C 104.636719 141.15625 104.660156 141.179688 104.707031 141.203125 C 104.992188 141.390625 110.78125 145.039062 118.03125 145.039062 C 119.210938 145.039062 120.433594 144.945312 121.679688 144.710938 C 122.011719 144.664062 122.222656 144.355469 122.152344 144.027344 C 122.105469 143.695312 121.773438 143.484375 121.46875 143.554688 C 114.855469 144.757812 108.6875 142.003906 106.355469 140.777344 C 106.804688 140.613281 107.273438 140.378906 107.769531 140.070312 C 109.25 140.847656 114.546875 143.273438 121.917969 142.238281 C 125.496094 141.742188 126.367188 139.929688 126.554688 138.894531 C 126.8125 137.578125 126.175781 136.09375 125.09375 135.457031 C 124.882812 135.339844 124.648438 135.246094 124.410156 135.199219 C 124.648438 134.941406 124.90625 134.65625 125.234375 134.375 C 125.304688 134.328125 125.375 134.257812 125.445312 134.1875 C 126.601562 133.292969 128.273438 132.5625 130.4375 133.128906 C 133.050781 133.785156 134.015625 135.835938 134.34375 136.988281 C 134.886719 138.917969 134.511719 141.109375 133.449219 142.214844 C 133.261719 142.402344 133.238281 142.707031 133.378906 142.945312 C 133.378906 142.96875 133.496094 143.15625 133.59375 143.4375 C 133.59375 143.507812 133.59375 143.578125 133.59375 143.648438 C 133.617188 143.722656 133.640625 143.792969 133.664062 143.839844 C 133.710938 144.238281 133.710938 144.734375 133.496094 145.296875 C 133.003906 146.617188 131.355469 148.5 126.199219 150.054688 Z M 153.90625 133.785156 C 147.882812 144.167969 137.40625 147.324219 132.628906 148.265625 C 133.308594 147.722656 133.828125 147.132812 134.203125 146.523438 C 135.214844 146.332031 148.398438 143.460938 154.355469 129.101562 C 154.472656 128.796875 154.332031 128.464844 154.023438 128.324219 C 153.71875 128.207031 153.390625 128.347656 153.25 128.65625 C 148.1875 140.871094 137.710938 144.402344 134.746094 145.179688 C 134.839844 144.734375 134.863281 144.332031 134.839844 143.980469 C 136.605469 143.484375 142.019531 141.625 146.304688 136.777344 C 146.515625 136.539062 146.492188 136.164062 146.257812 135.953125 C 146.019531 135.742188 145.644531 135.765625 145.433594 136 C 141.429688 140.519531 136.277344 142.332031 134.582031 142.828125 C 134.582031 142.800781 134.558594 142.777344 134.558594 142.730469 C 134.839844 142.355469 135.074219 141.933594 135.261719 141.484375 C 137.570312 140.566406 144.28125 137.433594 145.691406 131.691406 C 146.492188 128.464844 145.386719 127.03125 144.679688 126.464844 C 143.761719 125.757812 142.46875 125.640625 141.429688 126.183594 C 140.890625 126.464844 140.488281 126.914062 140.253906 127.40625 C 138.582031 125.804688 138.300781 124.582031 138.9375 122.394531 C 139.289062 121.191406 140.417969 120.273438 141.714844 120.132812 C 142.914062 120.015625 143.949219 120.535156 144.515625 121.570312 C 144.585938 121.710938 144.726562 121.804688 144.867188 121.851562 C 145.007812 121.898438 145.175781 121.875 145.316406 121.804688 C 145.339844 121.804688 146.75 121.027344 148.070312 121.453125 C 148.777344 121.6875 149.339844 122.203125 149.765625 123.027344 C 149.433594 124.675781 148.847656 125.757812 148.824219 125.78125 C 148.65625 126.066406 148.753906 126.417969 149.035156 126.582031 C 149.316406 126.75 149.671875 126.652344 149.835938 126.371094 C 149.90625 126.230469 151.8125 122.839844 150.847656 118.601562 C 150.351562 116.484375 149.128906 115.144531 147.527344 115.023438 C 146.820312 114.976562 146.164062 115.167969 145.644531 115.542969 C 145.574219 114.71875 145.832031 113.824219 146.351562 113.140625 C 147.222656 112.011719 148.703125 111.613281 150.519531 112.011719 C 150.660156 112.035156 150.800781 112.011719 150.941406 111.941406 C 150.964844 111.941406 152.402344 111.117188 153.765625 111.589844 C 154.566406 111.847656 155.203125 112.507812 155.671875 113.566406 C 155.71875 113.636719 155.765625 113.707031 155.835938 113.777344 C 155.882812 113.824219 162.21875 119.472656 153.90625 133.785156 Z M 145.714844 120.390625 C 146.070312 119.050781 146.351562 117.730469 146.5625 116.4375 C 146.5625 116.414062 146.5625 116.390625 146.5625 116.367188 C 146.820312 116.25 147.128906 116.179688 147.457031 116.203125 C 148.515625 116.296875 149.339844 117.261719 149.71875 118.886719 C 149.90625 119.734375 149.976562 120.535156 149.953125 121.285156 C 149.503906 120.839844 149.011719 120.511719 148.421875 120.320312 C 147.410156 120.039062 146.421875 120.179688 145.714844 120.390625 Z M 158.851562 116.742188 C 158.449219 115.425781 157.886719 114.484375 157.4375 113.847656 C 157.4375 113.210938 157.390625 107.351562 156.214844 104.125 C 156.097656 103.820312 155.765625 103.65625 155.460938 103.773438 C 155.15625 103.890625 154.988281 104.21875 155.109375 104.527344 C 155.859375 106.621094 156.121094 110.035156 156.214844 112.105469 C 155.671875 111.28125 154.964844 110.742188 154.144531 110.457031 C 152.683594 109.988281 151.269531 110.503906 150.683594 110.765625 C 150.707031 109.753906 150.660156 107.140625 149.859375 103.679688 C 149.433594 101.84375 148.753906 100.570312 147.785156 99.890625 C 147.527344 99.160156 147.222656 98.429688 146.890625 97.722656 C 144.890625 93.4375 141.125 92.332031 138.605469 93.460938 C 137.148438 94.121094 136.464844 95.394531 136.769531 96.78125 C 135.78125 96.921875 133.78125 96.875 132.675781 94.425781 C 131.734375 92.308594 132.179688 90.613281 132.933594 89.742188 C 133.332031 89.273438 133.734375 89.105469 133.898438 89.15625 C 134.109375 89.203125 134.34375 89.132812 134.488281 88.964844 C 134.628906 88.800781 134.675781 88.566406 134.582031 88.355469 C 133.710938 86.304688 134.816406 85.035156 135.570312 84.46875 C 136.652344 83.621094 137.921875 83.503906 138.277344 83.765625 C 138.535156 83.976562 138.914062 83.90625 139.101562 83.667969 C 139.289062 83.410156 139.265625 83.035156 139.007812 82.84375 C 138.277344 82.28125 136.933594 82.375 135.6875 83.011719 C 128.035156 79.148438 126.671875 74.890625 126.53125 72.675781 C 126.578125 72.699219 126.648438 72.746094 126.695312 72.769531 C 127.308594 73.078125 128.011719 73.101562 128.648438 72.792969 C 129.332031 72.464844 129.777344 71.617188 129.707031 70.722656 C 129.660156 70.15625 129.355469 68.746094 127.285156 68.109375 C 125.589844 67.589844 122.667969 66.34375 122.152344 63.707031 C 122.035156 63.070312 122.105469 62.601562 122.339844 62.296875 C 122.480469 62.128906 122.691406 62.011719 122.90625 61.941406 C 122.976562 62.320312 123.164062 62.695312 123.46875 63 C 124.128906 63.636719 125.046875 63.753906 125.777344 63.261719 C 127.234375 62.296875 126.90625 59.257812 124.929688 55.328125 C 123.730469 52.949219 123.683594 50.570312 124.765625 48.59375 C 125.753906 46.78125 127.402344 45.839844 128.507812 45.722656 C 129.167969 45.652344 129.660156 45.769531 130.015625 46.097656 C 130.25 46.3125 130.390625 46.570312 130.484375 46.828125 C 130.390625 46.828125 130.320312 46.851562 130.226562 46.851562 C 129.425781 46.992188 128.601562 47.675781 128.554688 48.828125 C 128.507812 49.558594 128.789062 50.171875 129.332031 50.546875 C 130.15625 51.113281 131.496094 51.089844 133.027344 50.453125 C 133.898438 50.101562 134.511719 50.902344 134.675781 51.160156 C 135.191406 51.9375 135.3125 53.113281 134.722656 54.078125 C 134.34375 53.679688 133.828125 53.421875 133.238281 53.328125 C 132.390625 53.207031 131.589844 53.492188 131.097656 54.125 C 130.601562 54.738281 130.226562 55.9375 131.144531 58.128906 C 132.675781 61.800781 134.132812 63.730469 134.722656 64.4375 C 134.203125 64.8125 131.660156 67.121094 135.003906 73.148438 C 135.167969 73.429688 135.523438 73.523438 135.804688 73.382812 C 136.085938 73.21875 136.179688 72.863281 136.039062 72.582031 C 133.003906 67.121094 135.359375 65.449219 135.453125 65.402344 C 135.5 65.378906 135.546875 65.332031 135.570312 65.308594 C 136.0625 64.765625 136.582031 64.484375 137.125 64.460938 C 137.148438 64.460938 137.148438 64.460938 137.171875 64.460938 C 138.019531 64.460938 138.699219 65.121094 138.699219 65.121094 C 138.839844 65.261719 139.078125 65.332031 139.289062 65.261719 C 139.570312 65.167969 139.808594 65.214844 140.019531 65.355469 C 140.441406 65.636719 140.726562 66.34375 140.890625 66.933594 C 140.535156 66.980469 140.183594 67.167969 139.925781 67.449219 C 138.816406 68.652344 139.195312 71.265625 140.914062 74.441406 C 143.101562 78.492188 145.152344 80.773438 145.996094 81.621094 C 145.785156 81.855469 145.597656 82.070312 145.433594 82.304688 C 144.207031 81.222656 140.582031 77.855469 138.984375 74.277344 C 138.839844 73.972656 138.511719 73.851562 138.207031 73.972656 C 137.898438 74.113281 137.78125 74.441406 137.898438 74.746094 C 139.6875 78.726562 143.667969 82.328125 144.796875 83.316406 C 144.726562 83.433594 144.679688 83.550781 144.632812 83.667969 C 143.410156 83.082031 140.300781 81.527344 137.5 79.195312 C 137.242188 78.984375 136.886719 79.03125 136.675781 79.265625 C 136.464844 79.527344 136.511719 79.878906 136.746094 80.089844 C 139.757812 82.609375 143.03125 84.210938 144.230469 84.777344 C 144.183594 85.011719 144.136719 85.222656 144.089844 85.410156 C 143.832031 87.105469 144.257812 88.753906 145.152344 89.648438 C 145.386719 89.882812 145.761719 89.859375 145.972656 89.648438 C 146.210938 89.414062 146.1875 89.035156 145.972656 88.824219 C 145.457031 88.332031 145.007812 87.105469 145.246094 85.625 C 145.410156 84.632812 145.972656 82.894531 147.953125 81.480469 C 147.882812 82.304688 148.023438 83.410156 148.753906 84.753906 C 149.105469 85.363281 149.527344 86.09375 150.023438 86.941406 C 151.222656 88.941406 152.847656 91.625 154.238281 94.664062 C 154.191406 94.6875 154.167969 94.710938 154.121094 94.734375 C 153.695312 94.992188 153.367188 95.273438 153.082031 95.582031 C 152.519531 94.378906 151.460938 92.332031 150.070312 90.96875 C 149.835938 90.730469 149.457031 90.730469 149.246094 90.96875 C 149.011719 91.203125 149.011719 91.578125 149.246094 91.789062 C 150.800781 93.34375 151.976562 95.957031 152.308594 96.734375 C 151.976562 97.511719 151.953125 98.21875 152 98.640625 C 151.71875 98.851562 151.4375 99.160156 151.175781 99.488281 C 150.421875 97.347656 148.585938 93.039062 145.316406 90.945312 C 145.03125 90.777344 144.679688 90.847656 144.492188 91.132812 C 144.328125 91.414062 144.398438 91.765625 144.679688 91.957031 C 148.515625 94.402344 150.28125 100.453125 150.445312 101.042969 C 150.1875 102.03125 150.234375 103.253906 150.917969 104.667969 C 151.058594 104.949219 151.414062 105.066406 151.71875 104.925781 C 152 104.785156 152.117188 104.433594 151.976562 104.125 C 150.445312 101.066406 152.871094 99.464844 152.964844 99.394531 C 153.175781 99.253906 153.273438 98.996094 153.226562 98.757812 C 153.226562 98.734375 152.800781 96.945312 154.753906 95.722656 C 156.542969 94.59375 157.769531 94.992188 158.402344 95.464844 C 158.238281 95.582031 158.074219 95.746094 157.933594 95.910156 C 156.96875 97.230469 157.15625 100.078125 158.640625 106.808594 C 159.675781 111.28125 159.320312 114.695312 158.851562 116.742188 Z M 130.648438 98.335938 C 130.886719 98.125 130.910156 97.746094 130.695312 97.511719 C 130.109375 96.851562 129.355469 96.003906 128.554688 94.78125 C 128.367188 94.523438 128.011719 94.425781 127.730469 94.617188 C 127.472656 94.804688 127.378906 95.15625 127.566406 95.441406 C 128.4375 96.734375 129.191406 97.605469 129.800781 98.289062 C 129.917969 98.429688 130.085938 98.476562 130.25 98.476562 C 130.390625 98.476562 130.53125 98.429688 130.648438 98.335938 Z M 126.601562 146.121094 C 125.351562 146.5 124.105469 146.78125 122.835938 146.945312 C 122.503906 146.992188 122.292969 147.296875 122.339844 147.605469 C 122.386719 147.886719 122.621094 148.097656 122.929688 148.097656 C 122.953125 148.097656 122.976562 148.097656 123.023438 148.097656 C 124.316406 147.910156 125.636719 147.605469 126.929688 147.226562 C 127.234375 147.132812 127.425781 146.804688 127.332031 146.5 C 127.234375 146.214844 126.90625 146.027344 126.601562 146.121094 Z M 149.339844 130.960938 C 149.058594 130.820312 148.703125 130.960938 148.5625 131.246094 C 148.257812 131.902344 147.90625 132.539062 147.527344 133.152344 C 147.363281 133.433594 147.457031 133.785156 147.714844 133.953125 C 147.808594 134 147.929688 134.046875 148.023438 134.046875 C 148.210938 134.046875 148.421875 133.953125 148.515625 133.761719 C 148.917969 133.128906 149.269531 132.445312 149.597656 131.738281 C 149.765625 131.433594 149.648438 131.101562 149.339844 130.960938 Z M 154.992188 123.171875 C 154.777344 124.066406 154.542969 124.9375 154.285156 125.757812 C 154.191406 126.066406 154.355469 126.394531 154.660156 126.488281 C 154.707031 126.511719 154.777344 126.511719 154.824219 126.511719 C 155.085938 126.511719 155.320312 126.347656 155.390625 126.089844 C 155.648438 125.21875 155.910156 124.324219 156.121094 123.40625 C 156.191406 123.097656 156.003906 122.769531 155.671875 122.699219 C 155.390625 122.652344 155.085938 122.863281 154.992188 123.171875 Z M 133.472656 74.675781 C 133.308594 74.394531 132.957031 74.300781 132.675781 74.464844 C 132.390625 74.628906 132.296875 74.984375 132.460938 75.265625 C 132.910156 76.019531 133.425781 76.773438 134.0625 77.476562 C 134.179688 77.621094 134.34375 77.691406 134.511719 77.691406 C 134.652344 77.691406 134.792969 77.644531 134.886719 77.550781 C 135.144531 77.335938 135.167969 76.960938 134.957031 76.726562 C 134.367188 76.066406 133.875 75.359375 133.472656 74.675781 Z M 142.417969 89.8125 C 141.5 89.671875 140.535156 89.71875 139.570312 89.953125 C 139.265625 90.027344 139.054688 90.355469 139.125 90.660156 C 139.195312 90.945312 139.429688 91.109375 139.6875 91.109375 C 139.734375 91.109375 139.785156 91.109375 139.832031 91.085938 C 140.652344 90.894531 141.453125 90.847656 142.230469 90.96875 C 142.5625 91.015625 142.84375 90.800781 142.890625 90.472656 C 142.960938 90.167969 142.726562 89.859375 142.417969 89.8125 Z M 115.277344 55.820312 C 115.324219 55.820312 115.347656 55.820312 115.394531 55.820312 C 115.679688 55.820312 115.914062 55.632812 115.960938 55.351562 C 116.242188 53.914062 116.359375 52.550781 116.265625 51.324219 C 116.242188 50.996094 115.984375 50.761719 115.65625 50.785156 C 115.324219 50.808594 115.089844 51.089844 115.113281 51.394531 C 115.183594 52.527344 115.089844 53.796875 114.832031 55.140625 C 114.761719 55.445312 114.972656 55.75 115.277344 55.820312 Z M 88.984375 102.054688 C 89.007812 102.054688 89.007812 102.054688 89.03125 102.054688 C 89.335938 102.054688 89.59375 101.820312 89.617188 101.511719 C 89.691406 100.359375 89.808594 99.207031 89.996094 98.101562 C 90.324219 96.003906 91.382812 93.628906 92.75 91.226562 C 90.441406 98.101562 92.351562 102.3125 92.46875 102.597656 C 92.5625 102.808594 92.773438 102.925781 93.007812 102.925781 C 93.101562 102.925781 93.171875 102.902344 93.269531 102.878906 C 93.550781 102.738281 93.691406 102.382812 93.550781 102.101562 C 93.503906 102.007812 89.382812 92.875 101.53125 79.265625 C 108.355469 71.617188 112.898438 64.765625 115.019531 58.929688 C 115.136719 58.621094 114.972656 58.292969 114.664062 58.175781 C 114.359375 58.058594 114.03125 58.222656 113.914062 58.527344 C 111.863281 64.226562 107.390625 70.957031 100.660156 78.492188 C 100.023438 79.195312 99.433594 79.902344 98.871094 80.585938 C 98.824219 80.609375 98.777344 80.65625 98.730469 80.703125 C 94.890625 85.503906 89.714844 92.542969 88.84375 97.910156 C 88.652344 99.066406 88.535156 100.265625 88.441406 101.441406 C 88.394531 101.75 88.652344 102.03125 88.984375 102.054688 Z M 89.171875 107.351562 C 89.5 107.304688 89.714844 107.019531 89.691406 106.691406 C 89.691406 106.691406 89.546875 105.609375 89.546875 103.890625 C 89.546875 103.5625 89.289062 103.300781 88.960938 103.300781 C 88.628906 103.300781 88.371094 103.5625 88.371094 103.890625 C 88.371094 105.679688 88.511719 106.785156 88.535156 106.832031 C 88.582031 107.140625 88.820312 107.351562 89.125 107.351562 C 89.125 107.351562 89.148438 107.351562 89.171875 107.351562 Z M 89.171875 107.351562 " fill-opacity="1" fill-rule="nonzero"/></g></svg>