<svg xmlns="http://www.w3.org/2000/svg" xmlns:xlink="http://www.w3.org/1999/xlink" width="326" zoomAndPan="magnify" viewBox="0 0 244.5 187.499995" height="250" preserveAspectRatio="xMidYMid meet" version="1.0"><defs><clipPath id="bc0c17b2f1"><path d="M 63.917969 41 L 179.859375 41 L 179.859375 148.808594 L 63.917969 148.808594 Z M 63.917969 41 " clip-rule="nonzero"/></clipPath></defs><g clip-path="url(#bc0c17b2f1)"><path fill="#ffffff" d="M 166.351562 95.066406 C 165.816406 95.019531 165.375 95.414062 165.328125 95.925781 C 165.167969 97.921875 164.957031 99.152344 164.933594 99.152344 C 164.839844 99.664062 165.167969 100.148438 165.699219 100.242188 C 165.769531 100.242188 165.816406 100.265625 165.863281 100.265625 C 166.304688 100.265625 166.699219 99.941406 166.792969 99.5 C 166.792969 99.453125 167.023438 98.199219 167.210938 96.0625 C 167.257812 95.574219 166.886719 95.109375 166.351562 95.066406 Z M 163.007812 73.214844 C 162.519531 73.398438 162.289062 73.957031 162.472656 74.445312 C 164.378906 79.390625 165.375 84.894531 165.492188 90.769531 C 165.492188 91.28125 165.933594 91.699219 166.445312 91.699219 L 166.46875 91.699219 C 166.976562 91.699219 167.394531 91.257812 167.394531 90.746094 C 167.28125 84.636719 166.234375 78.925781 164.261719 73.769531 C 164.050781 73.261719 163.496094 73.027344 163.007812 73.214844 Z M 132.867188 114.035156 C 133.191406 114.035156 133.515625 113.875 133.679688 113.546875 C 134.980469 111.273438 135.910156 108.835938 136.394531 106.464844 C 136.511719 105.957031 136.164062 105.445312 135.652344 105.351562 C 135.140625 105.257812 134.632812 105.582031 134.539062 106.09375 C 134.097656 108.277344 133.214844 110.53125 132.03125 112.644531 C 131.773438 113.105469 131.9375 113.664062 132.378906 113.941406 C 132.542969 113.988281 132.703125 114.035156 132.867188 114.035156 Z M 76.8125 122.882812 C 76.300781 123.023438 76.023438 123.558594 76.183594 124.066406 C 76.601562 125.460938 76.859375 126.902344 76.972656 128.410156 C 77.019531 128.898438 77.414062 129.292969 77.925781 129.292969 C 77.949219 129.292969 77.972656 129.292969 77.996094 129.292969 C 78.507812 129.246094 78.902344 128.804688 78.878906 128.292969 C 78.761719 126.667969 78.484375 125.066406 78.019531 123.558594 C 77.832031 123.023438 77.320312 122.742188 76.8125 122.882812 Z M 68.894531 111.527344 C 68.429688 111.273438 67.871094 111.433594 67.59375 111.875 C 67.335938 112.339844 67.5 112.898438 67.941406 113.175781 C 67.988281 113.199219 71.5625 115.265625 74.1875 119.65625 C 74.375 119.957031 74.675781 120.121094 75 120.121094 C 75.164062 120.121094 75.324219 120.074219 75.488281 119.980469 C 75.929688 119.703125 76.066406 119.121094 75.8125 118.679688 C 72.933594 113.875 69.054688 111.621094 68.894531 111.527344 Z M 177.402344 108.183594 C 178.914062 103.402344 179.820312 98.363281 180.050781 93.136719 C 179.46875 85.730469 177.542969 79.738281 174.734375 77.324219 C 173.734375 76.464844 172.804688 76.234375 172.0625 76.234375 C 171.460938 74.074219 170.691406 71.9375 169.789062 69.824219 C 164.332031 57.050781 154.207031 48.113281 140.53125 44.003906 C 134.28125 42.121094 129.082031 42.167969 125.109375 43.351562 C 111.203125 38.105469 94.226562 44.976562 87.792969 54.777344 C 86.285156 54.589844 82.476562 54.476562 77.855469 57.214844 C 74.488281 59.1875 71.957031 63.113281 71.5625 66.921875 C 71.308594 69.429688 72.003906 71.566406 73.515625 72.933594 C 73.699219 73.097656 73.933594 73.167969 74.164062 73.167969 C 74.328125 73.167969 74.488281 73.121094 74.628906 73.050781 C 74.976562 72.867188 75.164062 72.449219 75.09375 72.054688 C 74.835938 70.566406 76.089844 69.21875 77.484375 68.640625 C 78.113281 68.382812 80.203125 67.710938 81.546875 69.660156 C 81.734375 69.917969 82.011719 70.078125 82.339844 70.078125 C 82.640625 70.078125 82.941406 69.917969 83.128906 69.660156 C 84.011719 68.382812 86.820312 67.5 89.234375 69.035156 C 90.859375 70.078125 92.113281 70.3125 92.949219 70.289062 C 92.949219 71.332031 93.207031 72.355469 93.738281 73.308594 C 95.015625 75.628906 97.640625 77.160156 100.289062 77.160156 C 100.378906 77.160156 100.449219 77.160156 100.542969 77.160156 C 103.027344 77.070312 105.117188 75.605469 106.230469 73.144531 C 106.441406 72.703125 106.277344 72.167969 105.835938 71.9375 C 105.417969 71.703125 104.886719 71.820312 104.605469 72.214844 C 104.28125 72.65625 103.328125 72.957031 102.515625 72.65625 C 101.496094 72.285156 101.332031 71.21875 101.378906 70.382812 C 101.449219 69.011719 102.796875 67.523438 104.746094 66.710938 C 107.347656 65.597656 110.132812 65.898438 112.363281 67.457031 C 111.710938 68.59375 111.316406 69.894531 111.179688 71.148438 C 110.761719 74.980469 112.523438 79.460938 117.378906 81.132812 C 117.980469 84.152344 120.421875 85.847656 122.300781 86.566406 C 122.230469 87.703125 122.695312 89.214844 123.832031 90.398438 C 125.085938 91.722656 125.460938 92.742188 124.019531 94.53125 C 123.832031 94.761719 123.765625 95.089844 123.855469 95.367188 C 123.949219 95.667969 124.160156 95.902344 124.4375 95.992188 C 125.527344 96.386719 127.015625 96.363281 128.5 96.015625 C 131.148438 100.707031 130.566406 111.015625 125.019531 116.054688 C 124.414062 114.847656 123.484375 113.921875 122.324219 113.457031 C 123.601562 109.671875 121.742188 106.417969 119.304688 104.886719 C 116.613281 103.214844 113.570312 103.65625 111.710938 106 C 111.433594 106.351562 111.433594 106.816406 111.710938 107.164062 C 111.96875 107.511719 112.433594 107.628906 112.828125 107.464844 C 113.175781 107.324219 113.546875 107.558594 113.710938 107.71875 C 114.152344 108.113281 114.523438 108.882812 114.289062 109.648438 C 114.152344 110.160156 113.6875 110.832031 112.917969 111.085938 C 111.945312 111.390625 110.691406 110.972656 109.296875 109.832031 C 107.625 108.488281 104.792969 108.507812 102.84375 109.925781 C 101.890625 110.621094 99.800781 112.667969 101.308594 116.683594 C 101.402344 116.9375 101.632812 117.148438 101.890625 117.242188 C 102.167969 117.332031 102.445312 117.285156 102.703125 117.148438 C 104.605469 115.964844 106.070312 116.636719 106.789062 117.148438 C 108.019531 118.03125 108.695312 119.632812 108.367188 120.957031 C 108.042969 122.371094 106.648438 123.324219 104.46875 123.671875 C 104.445312 123.671875 104.421875 123.695312 104.398438 123.695312 C 102.402344 120.675781 99.824219 117.820312 96.78125 115.3125 C 89.328125 109.136719 80.25 105.722656 70.703125 105.375 C 70.613281 105.351562 70.519531 105.351562 70.425781 105.351562 C 70.378906 105.351562 70.355469 105.351562 70.308594 105.351562 C 68.40625 105.304688 66.5 105.351562 64.574219 105.539062 C 64.320312 105.558594 64.109375 105.675781 63.945312 105.863281 C 64.085938 106.375 64.226562 106.882812 64.386719 107.371094 C 64.503906 107.417969 64.644531 107.417969 64.757812 107.417969 C 66.640625 107.234375 68.5 107.1875 70.355469 107.234375 C 75.742188 108.765625 88.445312 124.207031 89.027344 140.066406 C 89.652344 140.460938 90.28125 140.878906 90.929688 141.25 C 90.953125 133.171875 87.773438 124.855469 83.730469 118.261719 C 87.75 123.160156 92.324219 131.101562 94.273438 143.085938 C 94.367188 143.132812 94.4375 143.179688 94.527344 143.226562 C 95.132812 143.527344 95.738281 143.804688 96.339844 144.082031 C 97.082031 144.433594 97.828125 144.757812 98.59375 145.058594 C 100.054688 144.710938 101.703125 143.96875 103.421875 142.550781 C 104.816406 141.390625 106 140.207031 107.042969 139.160156 C 109.902344 136.28125 111.78125 134.378906 115.777344 134.886719 C 117.679688 135.121094 118.632812 136.027344 119.121094 136.746094 C 119.234375 136.933594 119.328125 137.09375 119.398438 137.28125 C 118.332031 137.023438 117.238281 137.09375 116.261719 137.511719 C 114.917969 138.117188 113.988281 139.300781 113.6875 140.878906 C 113.269531 143.015625 114.058594 144.804688 115.800781 145.6875 C 118.191406 146.894531 121.488281 145.964844 123.789062 143.457031 C 125.296875 141.808594 127.175781 141.089844 128.964844 141.484375 C 129.941406 141.691406 130.800781 142.226562 131.355469 142.945312 C 130.453125 143.410156 129.753906 144.199219 129.359375 145.246094 C 128.917969 146.382812 128.917969 147.707031 129.265625 148.890625 C 129.894531 148.796875 130.519531 148.703125 131.148438 148.589844 C 130.824219 147.730469 130.800781 146.753906 131.125 145.917969 C 131.332031 145.335938 131.820312 144.617188 132.890625 144.433594 C 133.167969 144.386719 133.402344 144.222656 133.539062 143.992188 C 133.679688 143.757812 133.703125 143.480469 133.632812 143.203125 C 133.050781 141.4375 131.425781 140.066406 129.40625 139.648438 C 128.316406 139.417969 127.199219 139.484375 126.132812 139.8125 C 122.8125 132.03125 115.425781 127.597656 107.023438 128.433594 C 107 128.386719 106.976562 128.339844 106.953125 128.292969 C 107.554688 127.992188 108.207031 127.714844 108.902344 127.480469 C 109.019531 127.503906 109.132812 127.503906 109.25 127.480469 C 119.234375 125.4375 131.773438 132.378906 136.1875 147.496094 C 136.789062 147.335938 137.394531 147.171875 138 146.988281 C 135.398438 138.140625 129.753906 131.21875 122.949219 127.738281 C 124.414062 128.132812 125.898438 128.640625 127.363281 129.269531 C 135.210938 132.636719 140.925781 138.394531 143.175781 145.175781 C 143.757812 144.941406 144.335938 144.6875 144.917969 144.433594 C 144.664062 143.6875 144.382812 142.992188 144.058594 142.273438 C 147.101562 141.878906 149.863281 141.25 152.417969 140.4375 C 154.902344 138.882812 157.273438 137.117188 159.5 135.214844 C 155.136719 137.792969 149.792969 139.695312 143.175781 140.484375 C 142.851562 139.882812 142.503906 139.300781 142.109375 138.71875 C 152.371094 137.929688 162.195312 133.078125 167.464844 126.042969 C 170.972656 121.351562 172.15625 116.125 170.878906 110.925781 C 170.996094 110.832031 171.109375 110.738281 171.179688 110.578125 C 174.105469 104.816406 175.988281 91.652344 172.644531 78.160156 C 172.945312 78.253906 173.246094 78.4375 173.550781 78.71875 C 176.5 81.226562 179.050781 90.09375 178.261719 102.171875 C 178.148438 103.378906 177.9375 105.515625 177.402344 108.183594 Z M 124.390625 140.625 C 123.695312 141.042969 123.019531 141.574219 122.417969 142.25 C 120.464844 144.363281 118.050781 144.78125 116.660156 144.082031 C 115.683594 143.597656 115.289062 142.621094 115.542969 141.320312 C 115.730469 140.34375 116.242188 139.671875 117.03125 139.324219 C 117.914062 138.929688 119.050781 139.046875 120.023438 139.648438 C 120.28125 139.8125 120.582031 139.835938 120.859375 139.71875 C 121.140625 139.601562 121.347656 139.371094 121.417969 139.089844 C 121.675781 138.164062 121.394531 136.863281 120.675781 135.792969 C 119.699219 134.308594 118.027344 133.355469 115.984375 133.101562 C 112.917969 132.707031 110.785156 133.542969 108.925781 134.933594 C 108.695312 133.425781 108.277344 131.871094 107.71875 130.335938 C 116.496094 129.6875 122 135.027344 124.390625 140.625 Z M 102.214844 141.15625 C 99.917969 143.0625 97.78125 143.503906 96.222656 143.480469 C 92.4375 118.703125 78.113281 110.414062 77.484375 110.066406 C 77.4375 110.042969 77.414062 110.042969 77.367188 110.019531 C 76.464844 109.113281 75.582031 108.300781 74.722656 107.628906 C 76.464844 107.859375 78.179688 108.207031 79.851562 108.671875 C 79.875 108.695312 79.921875 108.71875 79.945312 108.71875 C 88.746094 111.109375 100.683594 126.484375 102.238281 141.113281 C 102.261719 141.136719 102.238281 141.15625 102.214844 141.15625 Z M 107.230469 136.398438 C 106.71875 136.886719 106.230469 137.394531 105.699219 137.90625 C 105.140625 138.464844 104.582031 139.046875 103.980469 139.601562 C 102.5625 129.964844 96.828125 119.515625 90.09375 112.992188 C 91.996094 114.105469 93.832031 115.382812 95.550781 116.824219 C 102.261719 122.371094 106.625 129.6875 107.230469 136.398438 Z M 119.121094 124.925781 C 119.050781 124.949219 118.980469 124.996094 118.910156 125.042969 C 117.03125 124.789062 115.195312 124.71875 113.453125 124.832031 C 114.871094 122.859375 115.566406 120.234375 114.152344 117.472656 C 113.917969 117.007812 113.335938 116.824219 112.875 117.054688 C 112.410156 117.285156 112.222656 117.867188 112.457031 118.332031 C 114.195312 121.699219 111.480469 124.371094 110.621094 125.113281 C 110.597656 125.136719 110.597656 125.160156 110.574219 125.160156 C 108.925781 125.460938 107.417969 125.972656 106.070312 126.644531 C 105.859375 126.25 105.628906 125.855469 105.394531 125.460938 C 108.855469 124.695312 109.855469 122.628906 110.132812 121.445312 C 110.621094 119.375 109.667969 117.007812 107.8125 115.660156 C 106.300781 114.570312 104.46875 114.359375 102.726562 115.035156 C 102.402344 113.503906 102.820312 112.269531 103.886719 111.480469 C 105.140625 110.578125 107.042969 110.507812 108.042969 111.320312 C 110.457031 113.269531 112.292969 113.246094 113.429688 112.898438 C 114.917969 112.433594 115.753906 111.179688 116.054688 110.179688 C 116.449219 108.835938 115.984375 107.253906 114.917969 106.304688 C 114.824219 106.210938 114.707031 106.117188 114.589844 106.046875 C 115.84375 105.515625 117.238281 105.863281 118.238281 106.511719 C 120.210938 107.765625 121.675781 110.53125 120.140625 113.6875 C 120.003906 113.964844 120.023438 114.269531 120.164062 114.546875 C 120.304688 114.800781 120.558594 114.988281 120.859375 115.035156 C 122.695312 115.289062 123.648438 117.125 123.765625 118.84375 C 123.925781 121.003906 122.8125 123.882812 119.121094 124.925781 Z M 125.109375 122.164062 C 126.875 121.304688 128.570312 120.027344 130.148438 118.355469 C 130.519531 117.984375 130.496094 117.378906 130.125 117.007812 C 129.753906 116.636719 129.152344 116.660156 128.78125 117.03125 C 127.78125 118.078125 126.757812 118.9375 125.691406 119.632812 C 125.714844 119.308594 125.714844 119.003906 125.691406 118.703125 C 125.667969 118.472656 125.644531 118.261719 125.597656 118.054688 C 132.378906 112.6875 133.214844 101.101562 130.289062 95.414062 C 130.3125 95.390625 130.359375 95.390625 130.382812 95.367188 C 131.332031 94.902344 132.472656 94.183594 133.402344 93.019531 C 133.933594 94.207031 134.792969 95.296875 135.863281 96.109375 C 137.164062 97.085938 138.71875 97.597656 140.367188 97.617188 C 141.320312 100.523438 140.296875 105.863281 137.765625 110.878906 C 136.117188 114.152344 131.613281 121.535156 123.53125 124.507812 C 124.25 123.8125 124.761719 123 125.109375 122.164062 Z M 149.863281 103.820312 C 149.375 103.65625 148.84375 103.910156 148.679688 104.421875 C 145.035156 115.335938 135.976562 124.324219 126.132812 126.808594 C 126.109375 126.808594 126.109375 126.832031 126.109375 126.832031 C 125.527344 126.621094 124.972656 126.4375 124.390625 126.25 C 130.542969 123.90625 135.929688 118.75 139.484375 111.761719 C 142.203125 106.375 143.246094 100.917969 142.316406 97.433594 C 142.363281 97.433594 142.386719 97.410156 142.433594 97.410156 C 145.011719 96.804688 147.261719 94.996094 148.308594 92.71875 C 149.074219 91 149.074219 89.234375 148.261719 87.703125 C 148.054688 87.285156 147.542969 87.101562 147.101562 87.261719 C 146.660156 87.425781 146.402344 87.890625 146.496094 88.355469 C 146.660156 89.167969 146.265625 89.699219 145.917969 90.003906 C 145.289062 90.511719 144.382812 90.675781 143.6875 90.375 C 142.921875 90.050781 142.457031 89.257812 142.339844 88.050781 C 142.15625 86.171875 142.898438 84.617188 144.40625 83.6875 C 145.40625 83.082031 146.636719 82.804688 147.914062 82.851562 C 149.421875 86.125 150.257812 89.632812 150.398438 93.277344 C 150.421875 93.789062 150.839844 94.183594 151.351562 94.183594 C 151.375 94.183594 151.375 94.183594 151.398438 94.183594 C 151.90625 94.160156 152.324219 93.71875 152.300781 93.207031 C 152.164062 89.746094 151.441406 86.402344 150.164062 83.246094 C 150.886719 83.476562 151.582031 83.800781 152.257812 84.21875 C 156.574219 86.960938 158.546875 92.953125 157.691406 100.683594 C 155.996094 116.03125 138.625 126.34375 129.570312 127.714844 C 138.859375 124.207031 147.078125 115.453125 150.5625 105.027344 C 150.628906 104.515625 150.375 103.980469 149.863281 103.820312 Z M 165.910156 124.949219 C 160.824219 131.730469 150.746094 136.515625 140.714844 136.957031 C 138.300781 133.9375 135.164062 131.289062 131.425781 129.222656 C 139.648438 127.320312 151.976562 120.027344 157.179688 108.925781 C 156.808594 109.832031 156.691406 110.832031 156.832031 111.808594 C 157.039062 113.246094 157.804688 114.546875 158.898438 115.359375 C 155.714844 120.515625 149.609375 124.253906 145.195312 125.949219 C 144.710938 126.132812 144.453125 126.691406 144.640625 127.179688 C 144.777344 127.550781 145.148438 127.78125 145.523438 127.78125 C 145.636719 127.78125 145.753906 127.757812 145.871094 127.714844 C 150.605469 125.902344 157.203125 121.839844 160.617188 116.171875 C 161.800781 116.449219 163.03125 116.289062 164.027344 115.636719 C 163.980469 117.101562 163.542969 118.5625 162.683594 120.050781 C 159.546875 125.507812 151.257812 130.246094 142.527344 131.566406 C 142.015625 131.636719 141.644531 132.125 141.738281 132.636719 C 141.804688 133.101562 142.203125 133.449219 142.664062 133.449219 C 142.710938 133.449219 142.757812 133.449219 142.804688 133.449219 C 152.210938 132.03125 160.847656 127.039062 164.308594 121.003906 C 165.957031 118.121094 166.328125 115.152344 165.421875 112.339844 C 165.328125 111.691406 165.050781 110.832031 164.332031 110.390625 C 163.820312 110.066406 163.191406 110.042969 162.589844 110.320312 C 162.125 110.53125 161.9375 111.085938 162.148438 111.574219 C 162.355469 112.015625 162.890625 112.226562 163.355469 112.0625 C 163.355469 112.0625 163.355469 112.085938 163.378906 112.109375 C 163.378906 112.203125 163.402344 112.292969 163.425781 112.386719 C 163.472656 112.527344 163.519531 112.667969 163.5625 112.804688 C 163.5625 112.898438 163.585938 113.015625 163.585938 113.128906 C 163.585938 113.617188 163.191406 113.941406 162.960938 114.105469 C 162.289062 114.546875 161.335938 114.59375 160.546875 114.222656 C 159.570312 113.78125 158.828125 112.734375 158.664062 111.550781 C 158.480469 110.203125 159.011719 108.90625 160.199219 107.859375 C 161.472656 106.722656 163.496094 106.328125 165.214844 106.859375 C 166.492188 107.253906 168.164062 108.347656 168.929688 111.273438 C 170.160156 115.964844 169.113281 120.699219 165.910156 124.949219 Z M 169.972656 108.625 C 169.042969 106.835938 167.605469 105.582031 165.816406 105.027344 C 163.519531 104.304688 160.777344 104.863281 159.011719 106.417969 C 158.175781 107.140625 157.574219 108 157.203125 108.90625 C 158.363281 106.417969 159.175781 103.726562 159.5 100.871094 C 159.617188 99.871094 159.6875 98.894531 159.6875 97.945312 C 159.6875 97.921875 159.710938 97.875 159.710938 97.851562 C 160.5 86.449219 157.085938 80.785156 154.089844 78.042969 C 151.304688 75.488281 147.613281 74.351562 143.964844 74.957031 C 143.457031 75.046875 143.105469 75.535156 143.175781 76.046875 C 143.269531 76.558594 143.734375 76.90625 144.269531 76.835938 C 147.332031 76.347656 150.46875 77.300781 152.8125 79.460938 C 154.277344 80.808594 155.832031 82.945312 156.855469 86.308594 C 155.878906 84.800781 154.648438 83.570312 153.183594 82.640625 C 150.003906 80.621094 146.148438 80.414062 143.386719 82.109375 C 141.25 83.40625 140.179688 85.660156 140.4375 88.261719 C 140.691406 90.839844 142.109375 91.789062 142.945312 92.140625 C 144.128906 92.625 145.523438 92.488281 146.636719 91.8125 C 146.613281 91.859375 146.589844 91.90625 146.566406 91.976562 C 145.777344 93.71875 143.964844 95.132812 141.992188 95.621094 C 139.671875 96.179688 138.023438 95.414062 137.046875 94.671875 C 135.699219 93.648438 134.792969 92.070312 134.722656 90.535156 C 134.699219 90.09375 134.351562 89.722656 133.910156 89.652344 C 133.46875 89.585938 133.027344 89.839844 132.890625 90.28125 C 132.214844 92.183594 130.730469 93.230469 129.617188 93.765625 C 128.453125 94.320312 127.292969 94.507812 126.339844 94.53125 C 127.527344 92.140625 126.316406 90.375 125.203125 89.214844 C 124.183594 88.121094 124.113281 86.84375 124.207031 86.613281 C 124.390625 86.355469 124.4375 86.03125 124.320312 85.730469 C 124.207031 85.429688 123.972656 85.21875 123.671875 85.148438 C 123.507812 85.101562 119.585938 84.082031 119.167969 80.414062 C 119.121094 80.039062 118.863281 79.714844 118.492188 79.601562 C 113.964844 78.300781 112.734375 74.398438 113.058594 71.449219 C 113.199219 70.242188 113.59375 69.035156 114.289062 68.011719 C 114.3125 67.988281 114.335938 67.988281 114.359375 67.941406 C 114.429688 67.875 114.453125 67.804688 114.476562 67.710938 C 115.425781 66.433594 116.84375 65.503906 118.75 65.410156 C 119.257812 65.386719 119.675781 64.949219 119.628906 64.414062 C 119.605469 63.902344 119.144531 63.507812 118.632812 63.53125 C 118.027344 63.554688 117.449219 63.671875 116.9375 63.808594 C 116.125 63.066406 110.921875 58.609375 104.304688 60.699219 C 103.816406 60.859375 103.539062 61.394531 103.679688 61.882812 C 103.839844 62.371094 104.375 62.648438 104.863281 62.507812 C 109.507812 61.046875 113.429688 63.484375 114.988281 64.667969 C 114.382812 65.039062 113.871094 65.503906 113.40625 66.015625 C 110.179688 63.761719 106.464844 63.996094 103.933594 65.085938 C 101.308594 66.203125 99.542969 68.292969 99.429688 70.402344 C 99.3125 72.449219 100.21875 74.003906 101.84375 74.5625 C 102.097656 74.652344 102.355469 74.699219 102.609375 74.746094 C 101.984375 75.140625 101.238281 75.375 100.449219 75.417969 C 98.382812 75.464844 96.339844 74.304688 95.363281 72.539062 C 94.484375 70.914062 94.644531 69.035156 95.875 67.246094 C 96.175781 66.804688 96.0625 66.222656 95.644531 65.921875 C 95.203125 65.621094 94.621094 65.738281 94.320312 66.15625 C 93.785156 66.921875 93.4375 67.710938 93.207031 68.476562 C 92.878906 68.523438 91.859375 68.59375 90.210938 67.546875 C 87.539062 65.828125 84.195312 66.269531 82.339844 67.828125 C 80.898438 66.503906 78.808594 66.15625 76.765625 66.992188 C 75.324219 67.570312 74.234375 68.570312 73.652344 69.753906 C 73.421875 69.011719 73.351562 68.128906 73.445312 67.199219 C 73.769531 63.949219 75.929688 60.605469 78.808594 58.933594 C 83.988281 55.890625 87.980469 56.820312 88.003906 56.820312 C 88.398438 56.914062 88.839844 56.75 89.046875 56.402344 C 93.902344 48.414062 108.53125 40.566406 122.347656 44.511719 C 121.464844 44.953125 120.675781 45.464844 119.980469 46.023438 C 112.105469 43.792969 100.753906 46.835938 95.410156 52.6875 C 95.0625 53.082031 95.085938 53.660156 95.480469 54.035156 C 95.667969 54.195312 95.898438 54.289062 96.109375 54.289062 C 96.363281 54.289062 96.617188 54.195312 96.804688 53.988281 C 101.472656 48.878906 111.15625 46.09375 118.351562 47.578125 C 117.515625 48.554688 116.890625 49.597656 116.449219 50.691406 C 115.753906 52.476562 115.636719 55.3125 116.9375 57.539062 C 117.890625 59.210938 119.46875 60.257812 121.488281 60.558594 C 123.4375 60.859375 125.296875 60.488281 126.574219 59.492188 C 127.710938 58.609375 128.386719 57.261719 128.523438 55.589844 C 128.640625 54.382812 128.339844 53.3125 127.757812 52.523438 C 131.402344 51.132812 140.226562 50.828125 149.097656 57.191406 C 148.75 57.144531 148.378906 57.097656 148.007812 57.074219 C 145.171875 56.890625 142.316406 57.703125 140.714844 59.140625 C 138.554688 61.09375 137.8125 63.738281 138.71875 66.222656 C 139.53125 68.382812 141.410156 69.894531 143.410156 69.941406 C 143.5 69.941406 143.570312 69.941406 143.664062 69.941406 C 146.753906 69.941406 147.703125 68.222656 147.984375 67.476562 C 148.472656 66.132812 148.054688 64.550781 147.007812 63.738281 C 146.148438 63.066406 145.035156 63.066406 144.035156 63.738281 C 143.59375 64.042969 143.5 64.621094 143.78125 65.0625 C 144.082031 65.503906 144.664062 65.597656 145.105469 65.320312 C 145.546875 65.015625 145.753906 65.179688 145.847656 65.25 C 146.195312 65.527344 146.425781 66.222656 146.21875 66.851562 C 145.917969 67.664062 144.964844 68.082031 143.5 68.058594 C 142.269531 68.035156 141.0625 66.992188 140.53125 65.574219 C 140.226562 64.738281 139.761719 62.601562 142.015625 60.558594 C 143.015625 59.652344 145.21875 58.792969 147.914062 58.980469 C 150.675781 59.164062 153.183594 60.417969 154.949219 62.507812 C 154.996094 62.554688 155.042969 62.578125 155.089844 62.625 C 155.996094 63.648438 156.898438 64.738281 157.78125 65.921875 C 158.0625 66.316406 158.339844 66.6875 158.59375 67.082031 C 158.78125 67.363281 159.082031 67.5 159.382812 67.5 C 159.570312 67.5 159.757812 67.457031 159.917969 67.339844 C 160.359375 67.039062 160.476562 66.457031 160.175781 66.015625 C 159.894531 65.621094 159.617188 65.203125 159.316406 64.808594 C 146.566406 47.414062 130.476562 48.785156 126.0625 51.269531 C 126.0625 51.269531 126.0625 51.269531 126.039062 51.292969 C 125.109375 50.992188 124.113281 51.0625 123.300781 51.527344 C 122.324219 52.082031 121.8125 53.128906 121.859375 54.359375 C 121.882812 54.871094 122.324219 55.265625 122.859375 55.265625 C 123.371094 55.242188 123.789062 54.800781 123.765625 54.265625 C 123.742188 53.753906 123.902344 53.382812 124.25 53.175781 C 124.691406 52.917969 125.320312 52.964844 125.808594 53.265625 C 126.457031 53.683594 126.757812 54.453125 126.667969 55.472656 C 126.574219 56.632812 126.15625 57.492188 125.4375 58.074219 C 124.578125 58.746094 123.253906 59.003906 121.8125 58.769531 C 120.375 58.539062 119.28125 57.839844 118.609375 56.65625 C 117.632812 54.984375 117.75 52.78125 118.261719 51.433594 C 120.257812 46.230469 127.898438 42.308594 139.996094 45.953125 C 153.300781 49.96875 162.75 58.304688 168.070312 70.707031 C 174.082031 84.636719 173.085938 101.078125 169.972656 108.625 Z M 138.324219 77.648438 C 137.046875 78.855469 136.1875 80.367188 135.886719 82.015625 C 135.792969 82.527344 136.117188 83.011719 136.628906 83.128906 C 136.699219 83.152344 136.746094 83.152344 136.8125 83.152344 C 137.253906 83.152344 137.648438 82.851562 137.742188 82.386719 C 138 81.132812 138.648438 79.972656 139.625 79.042969 C 139.996094 78.695312 140.019531 78.089844 139.671875 77.695312 C 139.296875 77.300781 138.695312 77.300781 138.324219 77.648438 Z M 112.339844 98.964844 C 114.359375 98.964844 115.984375 97.316406 115.984375 95.320312 C 115.984375 93.300781 114.335938 91.675781 112.339844 91.675781 C 110.320312 91.675781 108.695312 93.324219 108.695312 95.320312 C 108.695312 97.339844 110.34375 98.964844 112.339844 98.964844 Z M 112.339844 93.554688 C 113.316406 93.554688 114.105469 94.34375 114.105469 95.320312 C 114.105469 96.296875 113.316406 97.085938 112.339844 97.085938 C 111.363281 97.085938 110.574219 96.296875 110.574219 95.320312 C 110.597656 94.34375 111.386719 93.554688 112.339844 93.554688 Z M 112.339844 93.554688 " fill-opacity="1" fill-rule="nonzero"/></g></svg>