<svg xmlns="http://www.w3.org/2000/svg" xmlns:xlink="http://www.w3.org/1999/xlink" width="326" zoomAndPan="magnify" viewBox="0 0 244.5 187.499995" height="250" preserveAspectRatio="xMidYMid meet" version="1.0"><defs><clipPath id="60127f04db"><path d="M 66 39 L 177 39 L 177 148.113281 L 66 148.113281 Z M 66 39 " clip-rule="nonzero"/></clipPath></defs><g clip-path="url(#60127f04db)"><path fill="#ffffff" d="M 130.667969 94.449219 C 129.570312 94.164062 128.433594 94.867188 128.167969 95.960938 C 128.039062 96.488281 128.125 97.058594 128.410156 97.519531 C 128.695312 98 129.15625 98.328125 129.679688 98.460938 C 129.835938 98.503906 130.011719 98.527344 130.164062 98.527344 C 131.105469 98.527344 131.9375 97.890625 132.179688 96.949219 C 132.464844 95.851562 131.785156 94.734375 130.667969 94.449219 Z M 130.691406 96.574219 C 130.625 96.839844 130.339844 97.015625 130.074219 96.949219 C 129.945312 96.90625 129.835938 96.839844 129.769531 96.707031 C 129.703125 96.597656 129.679688 96.445312 129.703125 96.3125 C 129.769531 96.070312 129.964844 95.917969 130.207031 95.917969 C 130.25 95.917969 130.296875 95.917969 130.339844 95.941406 C 130.578125 96.027344 130.753906 96.3125 130.691406 96.574219 Z M 90.925781 129.5 C 90.902344 129.5 88.867188 129.28125 86.234375 127.527344 C 85.882812 127.285156 85.402344 127.394531 85.160156 127.746094 C 84.917969 128.097656 85.03125 128.578125 85.378906 128.820312 C 88.359375 130.816406 90.707031 131.035156 90.792969 131.035156 C 90.816406 131.035156 90.839844 131.035156 90.859375 131.035156 C 91.253906 131.035156 91.582031 130.726562 91.628906 130.332031 C 91.671875 129.917969 91.34375 129.542969 90.925781 129.5 Z M 130.578125 87.257812 C 129.441406 86.972656 128.257812 87.699219 127.972656 88.835938 C 127.839844 89.386719 127.925781 89.976562 128.210938 90.460938 C 128.519531 90.941406 128.980469 91.292969 129.527344 91.425781 C 129.703125 91.46875 129.878906 91.488281 130.054688 91.488281 C 131.039062 91.488281 131.894531 90.808594 132.136719 89.847656 C 132.269531 89.296875 132.179688 88.707031 131.894531 88.222656 C 131.589844 87.742188 131.128906 87.390625 130.578125 87.257812 Z M 130.644531 89.472656 C 130.558594 89.78125 130.25 90 129.921875 89.910156 C 129.769531 89.867188 129.636719 89.78125 129.550781 89.648438 C 129.460938 89.515625 129.441406 89.339844 129.484375 89.1875 C 129.550781 88.925781 129.789062 88.726562 130.074219 88.726562 C 130.121094 88.726562 130.164062 88.726562 130.230469 88.75 C 130.382812 88.792969 130.515625 88.882812 130.601562 89.011719 C 130.644531 89.167969 130.667969 89.320312 130.644531 89.472656 Z M 100.898438 136.382812 C 104.867188 135.964844 110.148438 134.191406 113 128.097656 C 114.554688 127.789062 116.179688 126.410156 116.835938 124.785156 C 117.667969 122.726562 116.859375 119.875 113.746094 118.410156 C 113.460938 118.277344 113.132812 118.320312 112.890625 118.539062 C 112.648438 118.757812 112.582031 119.085938 112.671875 119.371094 C 113.085938 120.535156 112.671875 121.367188 112.234375 121.871094 C 111.683594 122.527344 111.027344 122.703125 110.851562 122.683594 C 110.457031 122.617188 110.457031 122.15625 110.457031 122.023438 C 110.480469 121.652344 110.257812 121.300781 109.886719 121.191406 C 109.535156 121.105469 109.164062 121.257812 109.011719 121.585938 C 108.792969 121.71875 107.9375 121.542969 107.453125 121.457031 C 106.796875 121.324219 106.183594 121.214844 105.679688 121.324219 C 105.085938 121.457031 104.605469 121.871094 104.339844 122.484375 C 103.96875 123.320312 104.054688 124.390625 104.582031 125.246094 C 105.285156 126.453125 104.933594 126.804688 104.429688 127.109375 C 104.054688 127.351562 103.574219 127.351562 103.222656 127.132812 C 102.742188 126.804688 102.566406 126.035156 102.761719 124.984375 C 103.046875 123.363281 102.566406 121.828125 101.359375 120.511719 C 99.914062 118.933594 97.546875 117.882812 95.703125 118.011719 C 95.417969 118.035156 95.15625 118.234375 95.046875 118.496094 C 94.9375 118.757812 94.980469 119.085938 95.179688 119.308594 C 96.976562 121.324219 96.539062 123.144531 95.617188 124.085938 C 95.089844 124.613281 94.300781 124.941406 93.820312 124.523438 C 92.613281 123.492188 93.226562 122.179688 93.292969 122.023438 C 93.425781 121.785156 93.402344 121.519531 93.292969 121.28125 C 93.160156 121.0625 92.941406 120.90625 92.679688 120.886719 C 92.308594 120.863281 91.914062 120.601562 91.648438 120.207031 C 91.429688 119.875 91.210938 119.328125 91.453125 118.582031 C 91.78125 117.554688 91.519531 116.828125 91.253906 116.390625 C 90.707031 115.492188 89.546875 114.878906 87.792969 114.59375 C 87.550781 114.550781 87.308594 114.636719 87.132812 114.792969 C 86.957031 114.945312 86.871094 115.1875 86.894531 115.425781 C 86.957031 116.214844 86.5625 116.875 85.863281 117.160156 C 84.984375 117.507812 83.515625 117.222656 82.070312 115.40625 C 81.347656 114.507812 80.515625 113.058594 79.835938 111.480469 C 80.535156 111.875 81.191406 112.074219 81.652344 112.140625 C 82.046875 112.203125 82.441406 112.25 82.835938 112.25 C 84.941406 112.25 86.957031 111.21875 87.8125 109.597656 C 87.921875 109.378906 87.921875 109.09375 87.8125 108.871094 C 87.703125 108.652344 87.460938 108.5 87.222656 108.457031 C 85.707031 108.28125 82.203125 107.863281 82.683594 101.332031 C 83.144531 101.113281 83.539062 100.851562 83.890625 100.519531 C 84.414062 100.894531 85.03125 101.15625 85.664062 101.308594 C 86.71875 104.488281 88.382812 106.550781 90.574219 107.449219 C 91.453125 107.796875 92.308594 107.929688 93.074219 107.929688 C 94.519531 107.929688 95.683594 107.492188 96.207031 107.273438 C 101.558594 108.347656 105.21875 105.652344 105.964844 102.539062 C 106.445312 100.542969 105.589844 98.878906 103.816406 98.417969 C 103.550781 98.351562 103.265625 98.417969 103.070312 98.613281 C 102.871094 98.8125 102.785156 99.074219 102.851562 99.359375 C 102.851562 99.402344 102.71875 99.644531 102.238281 99.863281 C 101.316406 100.257812 99.191406 100.367188 97.109375 98.261719 C 96.207031 97.34375 95.550781 96.269531 95.179688 95.042969 C 97.589844 92.519531 98.203125 88.550781 96.648438 84.367188 C 95.703125 81.824219 96.363281 81.121094 97.195312 80.75 C 97.898438 80.441406 98.355469 80.792969 98.511719 80.96875 C 98.816406 81.273438 98.992188 81.824219 98.730469 82.347656 C 98.621094 82.570312 98.621094 82.832031 98.730469 83.050781 C 98.839844 83.269531 99.058594 83.421875 99.300781 83.46875 C 100.59375 83.664062 101.820312 83.3125 102.761719 82.457031 C 103.617188 81.691406 104.144531 80.574219 104.253906 79.410156 C 107.761719 78.402344 110.085938 75.992188 110.699219 72.75 C 111.09375 70.664062 110.675781 68.5625 109.691406 67.398438 C 110.566406 65.734375 110.433594 63.605469 109.273438 61.546875 C 107.738281 58.808594 105 57.183594 102.300781 57.402344 C 100.59375 57.535156 99.035156 58.347656 97.960938 59.53125 C 99.648438 54.269531 104.277344 50.851562 108.703125 48.703125 C 108.066406 49.929688 107.738281 51.179688 107.71875 52.40625 C 107.695312 56.703125 110.105469 58.523438 111.53125 59.222656 C 112.582031 59.726562 113.765625 59.96875 114.929688 59.96875 C 116.484375 59.96875 117.996094 59.53125 119.050781 58.675781 C 120.714844 57.359375 121.375 55.300781 120.738281 53.566406 C 120.167969 52.035156 118.699219 51.132812 116.921875 51.199219 C 114.6875 51.308594 113.832031 52.667969 113.789062 53.808594 C 113.765625 54.117188 113.8125 54.421875 113.898438 54.6875 C 113.328125 54.335938 113.085938 53.589844 113.066406 52.933594 C 112.976562 50.433594 115.390625 47.167969 120.890625 45.851562 C 124.179688 45.0625 127.707031 45.019531 130.910156 45.261719 C 128.234375 46.859375 127.796875 49.664062 127.707031 50.585938 C 126.328125 52.40625 126.042969 54.554688 126.941406 56.550781 C 127.816406 58.5 129.726562 59.925781 131.566406 59.96875 C 133.011719 60.011719 134.195312 59.265625 134.941406 57.886719 C 135.074219 57.644531 135.074219 57.339844 134.921875 57.117188 C 134.765625 56.878906 134.503906 56.746094 134.242188 56.746094 C 133.625 56.769531 133.230469 56.484375 133.058594 55.871094 C 132.707031 54.6875 133.363281 52.800781 134.875 51.859375 C 140.421875 48.460938 150.351562 49.117188 160.039062 58.214844 C 160.324219 58.476562 160.765625 58.5 161.070312 58.238281 C 161.378906 57.972656 161.421875 57.535156 161.203125 57.207031 C 154.363281 47.125 144.125 41.597656 129.964844 40.304688 C 129.855469 40.304688 129.769531 40.285156 129.679688 40.285156 C 129.679688 40.285156 129.660156 40.285156 129.660156 40.261719 C 128.058594 39.933594 122.535156 38.902344 117.996094 39.101562 C 108.636719 39.515625 100.59375 42.234375 92.636719 47.648438 C 90.3125 49.226562 88.273438 50.871094 86.5 52.558594 C 75.472656 61.570312 68.566406 74.414062 67.03125 88.816406 C 65.5625 102.539062 69.179688 116.128906 77.007812 126.144531 C 82.421875 133.074219 89.324219 136.558594 97.613281 136.558594 C 98.664062 136.558594 99.761719 136.492188 100.898438 136.382812 Z M 96.035156 99.425781 C 98.578125 101.96875 101.535156 102.121094 103.222656 101.179688 C 103.617188 100.960938 103.925781 100.675781 104.144531 100.367188 C 104.734375 100.9375 104.582031 101.902344 104.496094 102.253906 C 104.011719 104.203125 101.382812 106.898438 96.320312 105.804688 C 96.144531 105.761719 95.945312 105.78125 95.792969 105.871094 C 95.769531 105.890625 93.511719 107.054688 91.1875 106.109375 C 89.566406 105.453125 88.296875 103.898438 87.398438 101.53125 C 88.078125 101.484375 88.777344 101.332031 89.480469 101.046875 C 90.160156 100.785156 90.792969 100.410156 91.363281 100.015625 C 92.109375 101.199219 93.777344 103.238281 96.667969 103.722656 C 96.714844 103.722656 96.757812 103.722656 96.800781 103.722656 C 97.171875 103.722656 97.503906 103.457031 97.566406 103.085938 C 97.632812 102.667969 97.347656 102.253906 96.933594 102.1875 C 94.433594 101.769531 93.050781 99.820312 92.546875 98.964844 C 93.292969 98.152344 93.777344 97.210938 93.90625 96.269531 C 93.929688 96.246094 93.949219 96.226562 93.972656 96.226562 C 94.410156 97.386719 95.113281 98.484375 96.035156 99.425781 Z M 129.835938 41.839844 C 140.707031 42.828125 149.167969 46.398438 155.480469 52.691406 C 147.085938 47.363281 139.042969 47.519531 134.085938 50.542969 C 131.851562 51.902344 131.0625 54.554688 131.589844 56.308594 C 131.828125 57.097656 132.289062 57.667969 132.925781 57.996094 C 132.554688 58.300781 132.113281 58.433594 131.632812 58.414062 C 130.382812 58.367188 129.023438 57.316406 128.367188 55.890625 C 127.972656 55.015625 127.53125 53.238281 129.089844 51.355469 C 129.199219 51.222656 129.265625 51.023438 129.265625 50.851562 C 129.265625 50.652344 129.285156 46.027344 135.074219 45.894531 C 135.140625 45.894531 135.226562 45.875 135.292969 45.851562 C 138.929688 46.445312 141.472656 47.253906 141.539062 47.277344 C 141.957031 47.40625 142.394531 47.1875 142.503906 46.773438 C 142.636719 46.355469 142.417969 45.917969 142 45.808594 C 141.519531 45.65625 130.273438 42.125 120.5625 44.425781 C 114.183594 45.9375 111.421875 49.863281 111.53125 53.0625 C 111.597656 54.882812 112.605469 56.21875 114.140625 56.484375 C 114.886719 56.613281 115.585938 56.417969 116.089844 55.957031 C 116.308594 55.761719 116.398438 55.429688 116.308594 55.144531 C 116.222656 54.859375 115.980469 54.640625 115.675781 54.621094 C 115.519531 54.597656 115.34375 54.3125 115.367188 53.960938 C 115.390625 53.304688 116.023438 52.867188 117.03125 52.824219 C 118.152344 52.777344 118.984375 53.261719 119.335938 54.179688 C 119.664062 55.035156 119.53125 56.417969 118.128906 57.535156 C 116.902344 58.523438 114.378906 58.917969 112.253906 57.886719 C 110.894531 57.226562 109.296875 55.761719 109.316406 52.492188 C 109.339844 50.476562 110.523438 48.242188 112.582031 46.378906 C 115.9375 43.332031 121.042969 41.6875 126.898438 41.6875 C 127.839844 41.707031 128.828125 41.753906 129.835938 41.839844 Z M 87.769531 53.523438 C 87.792969 53.503906 87.835938 53.480469 87.855469 53.457031 C 87.855469 53.457031 87.878906 53.4375 87.878906 53.4375 C 89.523438 51.902344 91.386719 50.390625 93.511719 48.941406 C 101.207031 43.683594 109.011719 41.050781 118.0625 40.65625 C 119.09375 40.613281 120.191406 40.632812 121.285156 40.699219 C 117.824219 41.378906 114.753906 42.671875 112.363281 44.558594 C 112.296875 44.558594 112.253906 44.535156 112.1875 44.535156 C 104.757812 45.128906 99.519531 49.03125 99.300781 49.183594 C 98.949219 49.445312 98.882812 49.929688 99.144531 50.28125 C 99.300781 50.476562 99.539062 50.585938 99.761719 50.585938 C 99.914062 50.585938 100.089844 50.542969 100.21875 50.433594 C 100.265625 50.390625 104.449219 47.277344 110.480469 46.3125 C 110.457031 46.335938 110.433594 46.355469 110.433594 46.378906 C 101.84375 49.820312 96.824219 55.144531 95.925781 61.742188 C 95.398438 65.667969 97.414062 67.09375 98.3125 67.53125 C 98.90625 67.816406 99.5625 67.949219 100.199219 67.949219 C 101.230469 67.949219 102.238281 67.574219 102.894531 66.894531 C 103.769531 65.976562 103.882812 64.726562 103.222656 63.453125 C 103.027344 63.082031 102.542969 62.929688 102.171875 63.125 C 101.796875 63.324219 101.644531 63.804688 101.84375 64.175781 C 102.191406 64.855469 102.171875 65.40625 101.777344 65.820312 C 101.359375 66.257812 100.527344 66.5 99.671875 66.347656 C 99.628906 66.324219 99.605469 66.28125 99.5625 66.257812 C 98.246094 65.535156 97.675781 64.285156 97.984375 62.816406 C 98.355469 61.109375 100 59.246094 102.433594 59.046875 C 104.824219 58.851562 106.929688 60.605469 107.9375 62.402344 C 108.921875 64.15625 108.964844 65.953125 108.066406 67.160156 C 107.9375 67.332031 107.890625 67.53125 107.9375 67.75 C 107.980469 67.949219 108.089844 68.144531 108.265625 68.253906 C 109.011719 68.757812 109.558594 70.621094 109.1875 72.550781 C 108.878906 74.195312 107.71875 77.109375 103.332031 78.140625 C 102.960938 78.226562 102.71875 78.558594 102.742188 78.929688 C 102.785156 79.871094 102.414062 80.769531 101.753906 81.382812 C 101.46875 81.648438 101.03125 81.933594 100.4375 82.019531 C 100.484375 81.273438 100.199219 80.53125 99.671875 79.960938 C 98.859375 79.125 97.699219 78.90625 96.582031 79.390625 C 93.621094 80.707031 94.828125 83.90625 95.199219 84.957031 C 96.472656 88.378906 96.472656 92.828125 92.703125 95.105469 C 92.480469 95.238281 92.328125 95.480469 92.328125 95.742188 C 92.285156 97.144531 90.792969 98.789062 88.84375 99.558594 C 87.988281 99.886719 85.839844 100.5 84.304688 98.941406 C 84.128906 98.765625 83.890625 98.679688 83.671875 98.722656 C 83.429688 98.746094 83.210938 98.898438 83.101562 99.097656 C 82.597656 99.953125 81.257812 100.476562 79.878906 100.347656 C 77.816406 100.171875 76.109375 98.703125 75.210938 96.3125 C 74.089844 93.375 75.164062 91.03125 76.414062 89.910156 C 77.292969 89.121094 78.34375 88.816406 79.285156 89.035156 C 78.914062 90.546875 79.484375 91.972656 80.820312 92.828125 C 82.265625 93.726562 84.570312 93.746094 86.015625 92.015625 C 88.230469 89.363281 86.847656 86.449219 85.597656 84.585938 C 86.191406 84.5625 86.78125 84.453125 87.351562 84.277344 C 88.667969 86.207031 89.261719 88.269531 88.976562 90.132812 C 88.777344 91.378906 88.230469 92.453125 87.460938 93.003906 C 87.113281 93.265625 87.046875 93.746094 87.289062 94.078125 C 87.441406 94.296875 87.683594 94.40625 87.921875 94.40625 C 88.078125 94.40625 88.25 94.363281 88.382812 94.253906 C 89.457031 93.460938 90.246094 92.015625 90.507812 90.371094 C 90.839844 88.222656 90.246094 85.878906 88.84375 83.707031 C 90.421875 82.917969 91.714844 81.648438 92.261719 80.179688 C 92.875 78.558594 92.480469 76.980469 91.167969 75.859375 C 90.882812 75.621094 90.488281 75.597656 90.203125 75.816406 C 89.917969 76.035156 89.808594 76.410156 89.941406 76.738281 C 89.960938 76.804688 89.894531 77.089844 89.65625 77.285156 C 89.28125 77.59375 88.691406 77.59375 87.988281 77.308594 C 87.242188 77 86.804688 76.429688 86.847656 75.773438 C 86.894531 75.289062 87.199219 74.722656 87.964844 74.523438 C 89.085938 74.238281 90.050781 73.472656 90.574219 72.417969 C 91.058594 71.5 91.167969 70.402344 90.925781 69.371094 C 92.042969 68.628906 92.679688 67.464844 92.65625 66.171875 C 92.613281 64.660156 91.648438 63.386719 90.070312 62.773438 C 89.785156 62.664062 89.480469 62.730469 89.261719 62.929688 C 89.039062 63.125 88.953125 63.433594 89.039062 63.71875 C 89.085938 63.847656 89.039062 63.871094 88.996094 63.914062 C 88.800781 64.046875 88.296875 64.066406 87.921875 63.78125 C 87.398438 63.367188 87.332031 62.46875 87.726562 61.328125 C 89.195312 57.25 94.851562 53.523438 94.914062 53.480469 C 95.265625 53.238281 95.375 52.757812 95.132812 52.40625 C 94.894531 52.054688 94.410156 51.945312 94.0625 52.1875 C 93.996094 52.230469 93.535156 52.539062 92.875 53.042969 C 92.8125 53.0625 92.746094 53.0625 92.703125 53.105469 C 91.496094 53.851562 90.378906 54.730469 89.347656 55.648438 C 77.378906 65.40625 80.449219 75.289062 80.578125 75.730469 C 80.6875 76.058594 80.996094 76.253906 81.324219 76.253906 C 81.414062 76.253906 81.476562 76.234375 81.566406 76.210938 C 81.984375 76.078125 82.203125 75.640625 82.070312 75.226562 C 81.984375 74.984375 80.84375 71.148438 83.011719 66.039062 C 82.816406 67.816406 83.1875 69.351562 84.109375 70.492188 C 84.261719 70.6875 84.480469 70.773438 84.699219 70.773438 C 84.875 70.773438 85.050781 70.710938 85.183594 70.601562 C 85.511719 70.335938 85.554688 69.832031 85.292969 69.503906 C 84.570312 68.628906 84.328125 67.398438 84.570312 65.886719 C 84.765625 64.726562 85.226562 63.476562 85.929688 62.226562 C 85.773438 63.847656 86.542969 64.679688 86.957031 64.988281 C 87.8125 65.667969 89.039062 65.753906 89.851562 65.183594 C 90.050781 65.054688 90.203125 64.902344 90.335938 64.703125 C 90.816406 65.097656 91.078125 65.625 91.101562 66.214844 C 91.125 67.070312 90.574219 67.859375 89.675781 68.296875 C 89.304688 68.472656 89.128906 68.910156 89.28125 69.285156 C 89.609375 70.117188 89.566406 70.972656 89.195312 71.71875 C 88.867188 72.375 88.273438 72.859375 87.570312 73.03125 C 86.277344 73.363281 85.378906 74.390625 85.292969 75.664062 C 85.203125 77 85.992188 78.183594 87.398438 78.730469 C 89.347656 79.519531 90.445312 78.6875 90.839844 78.292969 C 90.859375 78.273438 90.902344 78.226562 90.925781 78.183594 C 91.058594 78.710938 90.96875 79.214844 90.816406 79.632812 C 90.179688 81.296875 87.878906 83.074219 85.25 83.074219 C 85.203125 83.074219 85.183594 83.074219 85.140625 83.074219 C 82.046875 83.027344 79.550781 80.617188 78.082031 76.277344 C 76.480469 71.5 78.714844 62.027344 87.769531 53.523438 Z M 78.210938 125.179688 C 65.5625 108.984375 63.964844 82.371094 78.695312 62.863281 C 77.269531 65.753906 76.503906 68.496094 76.21875 70.90625 C 76.128906 70.972656 76.042969 71.058594 75.976562 71.167969 C 66.574219 88.421875 70.804688 111.613281 80.339844 124.0625 C 80.734375 124.589844 81.148438 125.09375 81.589844 125.578125 C 81.742188 125.75 81.960938 125.839844 82.15625 125.839844 C 82.332031 125.839844 82.53125 125.773438 82.683594 125.640625 C 82.992188 125.355469 83.035156 124.875 82.75 124.546875 C 82.332031 124.085938 81.9375 123.625 81.566406 123.121094 C 72.777344 111.613281 68.65625 90.722656 76.152344 74.304688 C 76.238281 75.226562 76.414062 76.058594 76.65625 76.78125 C 76.851562 77.375 77.074219 77.878906 77.292969 78.382812 C 76.742188 79.324219 75.320312 82.109375 74.925781 85.921875 C 74.878906 86.339844 75.1875 86.734375 75.605469 86.777344 C 75.625 86.777344 75.667969 86.777344 75.691406 86.777344 C 76.085938 86.777344 76.414062 86.492188 76.457031 86.074219 C 76.742188 83.445312 77.554688 81.320312 78.144531 80.070312 C 79.835938 82.898438 81.917969 84.015625 83.605469 84.410156 C 85.90625 87.433594 86.257812 89.363281 84.875 91.03125 C 84 92.082031 82.574219 92.058594 81.675781 91.511719 C 81.238281 91.25 80.316406 90.460938 80.996094 88.902344 C 81.171875 88.53125 81.019531 88.09375 80.644531 87.894531 C 79 87.019531 77.007812 87.347656 75.429688 88.75 C 73.804688 90.195312 72.402344 93.179688 73.804688 96.859375 C 74.945312 99.820312 77.117188 101.660156 79.789062 101.878906 C 79.964844 101.902344 80.140625 101.902344 80.316406 101.902344 C 80.601562 101.902344 80.863281 101.878906 81.148438 101.835938 C 80.910156 107.6875 83.734375 109.289062 85.707031 109.792969 C 84.765625 110.515625 83.320312 110.890625 81.984375 110.625 C 80.734375 110.386719 78.5625 109.421875 78.144531 105.671875 C 78.101562 105.257812 77.707031 104.925781 77.292969 104.992188 C 76.875 105.035156 76.566406 105.429688 76.613281 105.847656 C 76.742188 106.964844 76.984375 107.863281 77.335938 108.632812 C 77.335938 108.675781 77.335938 108.71875 77.335938 108.761719 C 77.972656 111.613281 79.613281 114.746094 80.886719 116.371094 C 82.835938 118.867188 85.050781 119.152344 86.453125 118.605469 C 87.484375 118.1875 88.1875 117.355469 88.40625 116.304688 C 89.195312 116.523438 89.742188 116.828125 89.960938 117.203125 C 90.050781 117.355469 90.160156 117.617188 90.003906 118.125 C 89.675781 119.175781 89.808594 120.226562 90.398438 121.082031 C 90.730469 121.566406 91.167969 121.9375 91.671875 122.179688 C 91.453125 123.1875 91.5625 124.589844 92.855469 125.6875 C 93.929688 126.605469 95.574219 126.367188 96.757812 125.136719 C 97.960938 123.886719 98.511719 121.871094 97.414062 119.765625 C 98.402344 120.074219 99.453125 120.6875 100.242188 121.542969 C 101.117188 122.507812 101.449219 123.558594 101.25 124.722656 C 100.855469 127.023438 101.796875 128.03125 102.390625 128.425781 C 103.222656 128.996094 104.386719 128.996094 105.285156 128.449219 C 106.292969 127.8125 107.210938 126.628906 105.941406 124.480469 C 105.632812 123.976562 105.65625 123.429688 105.789062 123.121094 C 105.832031 123.011719 105.917969 122.878906 106.027344 122.859375 C 106.226562 122.8125 106.773438 122.921875 107.191406 122.988281 C 107.804688 123.097656 108.527344 123.230469 109.164062 123.144531 C 109.40625 123.625 109.84375 124.0625 110.566406 124.195312 C 111.445312 124.347656 112.605469 123.800781 113.417969 122.878906 C 113.964844 122.222656 114.292969 121.457031 114.378906 120.644531 C 115.609375 121.738281 115.804688 123.144531 115.390625 124.195312 C 114.839844 125.554688 113.417969 126.539062 112.429688 126.585938 C 112.144531 126.605469 111.882812 126.78125 111.773438 127.042969 C 109.273438 132.765625 104.386719 134.433594 100.746094 134.804688 C 91.539062 135.792969 83.976562 132.546875 78.210938 125.179688 Z M 94.851562 70.554688 C 94.214844 70.601562 93.621094 70.863281 93.183594 71.34375 C 92.746094 71.828125 92.527344 72.441406 92.570312 73.078125 C 92.636719 74.347656 93.6875 75.355469 94.960938 75.355469 L 95.089844 75.355469 C 96.40625 75.289062 97.4375 74.152344 97.371094 72.835938 C 97.304688 71.5625 96.253906 70.554688 94.980469 70.554688 Z M 95.8125 72.921875 C 95.835938 73.382812 95.484375 73.800781 95.003906 73.820312 L 94.960938 73.820312 C 94.5 73.820312 94.125 73.472656 94.105469 73.011719 C 94.082031 72.792969 94.171875 72.574219 94.324219 72.398438 C 94.476562 72.222656 94.675781 72.132812 94.960938 72.113281 C 95.417969 72.113281 95.792969 72.464844 95.8125 72.921875 Z M 143.03125 139.691406 C 143.03125 139.691406 142.042969 140.308594 140.378906 140.984375 C 139.984375 141.140625 139.785156 141.601562 139.960938 141.996094 C 140.09375 142.300781 140.378906 142.476562 140.683594 142.476562 C 140.792969 142.476562 140.882812 142.453125 140.992188 142.410156 C 142.769531 141.664062 143.820312 141.03125 143.863281 141.007812 C 144.238281 140.789062 144.347656 140.308594 144.105469 139.933594 C 143.863281 139.582031 143.402344 139.472656 143.03125 139.691406 Z M 137.242188 64.175781 C 136.628906 64.769531 136.039062 65.425781 135.535156 66.148438 C 135.292969 66.5 135.378906 66.984375 135.710938 67.222656 C 135.839844 67.3125 135.996094 67.355469 136.148438 67.355469 C 136.390625 67.355469 136.628906 67.246094 136.785156 67.027344 C 137.242188 66.390625 137.746094 65.800781 138.296875 65.296875 C 138.601562 65.011719 138.625 64.507812 138.339844 64.199219 C 138.03125 63.890625 137.550781 63.871094 137.242188 64.175781 Z M 139.171875 128.6875 C 138.097656 126.496094 136.410156 125.378906 134.414062 125.488281 C 134 125.511719 133.671875 125.882812 133.691406 126.320312 C 133.714844 126.738281 134.085938 127.066406 134.527344 127.042969 C 136.234375 126.933594 137.242188 128.25 137.792969 129.367188 C 139.152344 132.152344 138.910156 136.097656 137.769531 137.390625 C 137.484375 137.71875 137.507812 138.203125 137.835938 138.488281 C 137.988281 138.617188 138.164062 138.683594 138.339844 138.683594 C 138.558594 138.683594 138.757812 138.597656 138.910156 138.421875 C 140.621094 136.515625 140.730469 131.867188 139.171875 128.6875 Z M 124.398438 84.671875 C 124.640625 84.738281 124.902344 84.761719 125.144531 84.761719 C 126.570312 84.761719 127.796875 83.796875 128.148438 82.414062 C 128.5625 80.75 127.53125 79.082031 125.890625 78.667969 C 125.648438 78.601562 125.386719 78.578125 125.144531 78.578125 C 123.71875 78.578125 122.492188 79.542969 122.140625 80.925781 C 121.941406 81.734375 122.074219 82.570312 122.492188 83.269531 C 122.90625 83.972656 123.585938 84.476562 124.398438 84.671875 Z M 123.632812 81.273438 C 123.804688 80.574219 124.421875 80.089844 125.121094 80.089844 C 125.253906 80.089844 125.363281 80.113281 125.496094 80.136719 C 126.328125 80.332031 126.832031 81.1875 126.613281 82 C 126.414062 82.808594 125.558594 83.335938 124.75 83.136719 C 124.355469 83.027344 124.003906 82.789062 123.804688 82.4375 C 123.609375 82.109375 123.542969 81.691406 123.632812 81.273438 Z M 104.164062 111.636719 L 104.035156 111.636719 C 103.375 111.679688 102.742188 111.964844 102.300781 112.46875 C 101.863281 112.972656 101.625 113.609375 101.667969 114.265625 C 101.734375 115.601562 102.828125 116.632812 104.164062 116.632812 L 104.296875 116.632812 C 105.679688 116.566406 106.730469 115.382812 106.664062 114.003906 C 106.597656 112.6875 105.503906 111.636719 104.164062 111.636719 Z M 104.210938 115.097656 L 104.164062 115.097656 C 103.660156 115.097656 103.246094 114.703125 103.222656 114.199219 C 103.203125 113.9375 103.289062 113.695312 103.464844 113.519531 C 103.640625 113.324219 103.859375 113.214844 104.164062 113.214844 C 104.671875 113.214844 105.085938 113.609375 105.109375 114.113281 C 105.128906 114.617188 104.734375 115.078125 104.210938 115.097656 Z M 174.355469 83.925781 C 173.960938 82.613281 173.476562 81.296875 172.929688 80.027344 C 172.25 78.273438 171.328125 76.519531 170.234375 74.875 C 164.644531 65.863281 155.589844 59.089844 146.890625 58.128906 C 140.203125 57.382812 134.679688 60.253906 131.324219 66.214844 C 129.351562 69.699219 129.527344 75.707031 132.398438 77.941406 C 132.441406 79.324219 133.167969 80.96875 134.21875 82 C 134.304688 82.0625 134.371094 82.128906 134.460938 82.195312 C 131.257812 89.496094 136.410156 94.648438 137.902344 95.917969 C 137.726562 97.410156 137.878906 100.105469 139.523438 102.097656 C 140.816406 103.65625 142.722656 104.421875 145.179688 104.378906 C 146.953125 104.335938 147.851562 104.839844 148.136719 105.320312 C 148.246094 105.519531 148.269531 105.714844 148.160156 105.890625 C 148.007812 106.132812 147.679688 106.242188 147.285156 106.265625 C 146.890625 106.242188 146.539062 106.550781 146.492188 106.921875 C 146.339844 107.996094 146.910156 109.355469 147.984375 110.429688 C 149.125 111.570312 150.59375 112.203125 152.128906 112.203125 C 152.390625 112.203125 152.632812 112.183594 152.894531 112.160156 C 155.941406 111.746094 158.066406 110.054688 158.617188 107.644531 C 158.945312 106.199219 158.617188 104.75 157.804688 103.851562 C 158.289062 102.757812 158.289062 101.375 157.761719 100.148438 C 157.105469 98.613281 155.746094 97.582031 154.078125 97.363281 C 152.871094 97.210938 152.347656 96.488281 152.367188 95.875 C 152.390625 95.152344 153.203125 94.339844 154.957031 94.207031 C 157.828125 93.988281 159.382812 91.972656 159.644531 90.066406 C 159.777344 89.078125 159.582031 88.203125 159.121094 87.523438 C 159.820312 87.085938 160.390625 86.40625 160.765625 85.550781 C 161.574219 83.707031 161.335938 81.449219 160.128906 79.542969 C 158.921875 77.636719 156.554688 76.539062 154.078125 76.738281 C 151.953125 76.890625 150.242188 77.988281 149.519531 79.632812 C 149.429688 79.828125 149.429688 80.027344 149.519531 80.222656 C 149.585938 80.421875 149.738281 80.574219 149.9375 80.640625 C 150.023438 80.683594 150.503906 80.902344 150.460938 81.121094 C 150.417969 81.363281 150 81.734375 149.476562 81.734375 C 148.796875 81.734375 148.292969 81.054688 148.050781 79.894531 C 147.765625 78.449219 148.074219 77.175781 148.925781 76.210938 C 150.109375 74.875 152.238281 74.195312 154.625 74.390625 C 161.53125 74.941406 165.960938 80.792969 168.152344 92.277344 C 167.429688 92.125 166.683594 92.105469 166.003906 92.257812 C 164.445312 92.5625 163.351562 93.574219 163.109375 94.757812 C 161.246094 95.0625 160.105469 96.664062 159.777344 98.261719 C 159.40625 100.015625 159.996094 102.210938 162.101562 103.0625 C 162.429688 103.195312 162.78125 103.109375 163 102.824219 C 163.21875 102.558594 163.21875 102.164062 163.023438 101.878906 C 162.847656 101.640625 162.933594 101.375 163.023438 101.199219 C 163.175781 100.894531 163.570312 100.542969 164.050781 100.542969 C 164.621094 100.542969 165.191406 101.046875 165.628906 101.945312 C 167.824219 106.328125 165.851562 114.746094 158.878906 120.90625 C 158.441406 120.292969 157.847656 119.789062 157.148438 119.4375 C 156.820312 116.523438 155.085938 114.308594 152.652344 113.695312 C 151.382812 113.386719 150.132812 113.695312 149.234375 114.570312 C 148.402344 115.382812 147.984375 116.566406 148.203125 117.597656 C 148.269531 117.925781 148.554688 118.1875 148.882812 118.210938 C 149.234375 118.253906 149.542969 118.058594 149.671875 117.730469 C 149.738281 117.554688 149.804688 117.574219 149.871094 117.597656 C 150 117.640625 150.199219 117.816406 150.15625 118.101562 C 150.132812 118.253906 149.957031 118.34375 149.410156 118.5625 C 148.664062 118.867188 147.523438 119.328125 146.800781 120.753906 C 146.210938 121.914062 146.273438 123.207031 146.953125 124.328125 C 147.699219 125.53125 148.992188 126.300781 150.375 126.320312 C 150.636719 126.320312 150.898438 126.191406 151.054688 125.949219 C 151.183594 125.707031 151.207031 125.421875 151.074219 125.179688 C 150.789062 124.65625 150.8125 124.390625 150.835938 124.347656 C 150.855469 124.328125 150.988281 124.21875 151.339844 124.152344 C 151.535156 124.109375 151.734375 124.238281 151.863281 124.503906 C 152.5 125.621094 151.929688 128.492188 148.355469 132.984375 C 147.394531 132.109375 146.011719 132.066406 144.914062 132.875 C 144.675781 133.074219 144.566406 133.378906 144.652344 133.6875 C 144.71875 133.949219 144.9375 134.148438 145.179688 134.234375 C 145.179688 134.605469 144.695312 135.617188 143.183594 136.800781 C 143.796875 135.175781 143.953125 133.140625 142.855469 130.925781 C 142.328125 129.871094 142.503906 128.929688 142.941406 128.601562 C 143.164062 128.425781 143.425781 128.46875 143.710938 128.710938 C 143.863281 128.863281 144.082031 128.929688 144.300781 128.90625 C 144.519531 128.886719 144.71875 128.777344 144.851562 128.601562 C 145.640625 127.527344 145.375 126.191406 144.191406 125.269531 C 143.25 124.546875 141.914062 124.238281 140.839844 124.699219 C 140.355469 123.648438 139.390625 122.574219 137.835938 122.59375 C 136.804688 121.566406 134.832031 121.214844 132.773438 121.695312 C 130.558594 122.222656 128.058594 123.933594 127.6875 127.066406 C 127.359375 129.917969 128.871094 131.933594 130.535156 132.632812 C 131.761719 133.183594 133.011719 132.984375 133.714844 132.175781 C 133.976562 131.867188 133.957031 131.429688 133.691406 131.144531 C 133.40625 130.835938 133.34375 130.507812 133.515625 130.246094 C 133.691406 129.980469 134.175781 129.808594 134.875 130.136719 C 135.25 130.3125 135.972656 132.109375 135.554688 134.628906 C 135.25 136.515625 134.132812 139.628906 130.25 140.570312 C 130.382812 140.132812 130.46875 139.691406 130.492188 139.234375 C 130.625 136.886719 129.375 134.871094 127.3125 134.125 C 125.648438 133.511719 124.617188 132.613281 124.375 131.496094 C 124.179688 130.640625 124.507812 129.960938 124.660156 129.828125 C 124.945312 129.542969 124.96875 129.128906 124.726562 128.820312 C 124.484375 128.511719 124.070312 128.425781 123.71875 128.625 C 119.730469 130.859375 120.933594 133.402344 121.8125 135.265625 C 122.03125 135.726562 122.226562 136.140625 122.335938 136.492188 C 121.703125 136.097656 120.890625 135.945312 120.035156 136.054688 C 118.4375 136.273438 116.792969 137.457031 116.726562 139.320312 C 116.703125 139.671875 116.945312 140 117.296875 140.085938 C 117.601562 140.175781 117.910156 140.066406 118.105469 139.824219 C 118.304688 139.957031 118.613281 140.351562 118.589844 140.832031 C 118.523438 141.644531 117.296875 142.5625 114.007812 142.71875 C 105.65625 143.113281 97.261719 139.671875 97.171875 139.628906 C 96.800781 139.472656 96.382812 139.628906 96.1875 139.976562 C 95.988281 140.328125 96.097656 140.765625 96.40625 140.984375 C 100.855469 144.144531 111.421875 148.023438 123.105469 148.023438 C 127.992188 148.023438 133.058594 147.34375 137.96875 145.632812 C 146.210938 142.785156 151.84375 139.363281 155.414062 134.9375 C 155.523438 134.914062 155.65625 134.871094 155.765625 134.804688 C 173.082031 121.894531 180.03125 102.867188 174.355469 83.925781 Z M 137.484375 144.1875 C 126.238281 148.089844 114.03125 146.445312 105.65625 143.636719 C 108.242188 144.097656 111.136719 144.40625 114.074219 144.273438 C 118.984375 144.03125 119.96875 142.191406 120.101562 141.097656 C 120.253906 139.890625 119.511719 138.773438 118.675781 138.378906 C 119.070312 137.9375 119.664062 137.65625 120.234375 137.566406 C 120.605469 137.523438 121.832031 137.457031 122.226562 138.75 C 122.316406 139.035156 122.578125 139.253906 122.886719 139.296875 C 123.191406 139.34375 123.476562 139.1875 123.652344 138.925781 C 124.550781 137.390625 123.851562 135.902344 123.214844 134.585938 C 122.621094 133.3125 122.164062 132.347656 122.777344 131.363281 C 122.796875 131.515625 122.820312 131.691406 122.84375 131.84375 C 123.105469 133.007812 123.980469 134.585938 126.765625 135.59375 C 128.476562 136.207031 129 137.828125 128.914062 139.144531 C 128.828125 140.503906 128.039062 142.257812 126.019531 142.738281 C 125.605469 142.847656 125.339844 143.265625 125.449219 143.683594 C 125.558594 144.097656 125.976562 144.363281 126.394531 144.253906 C 127.621094 143.96875 128.628906 143.265625 129.351562 142.324219 C 135.316406 141.554688 136.738281 136.886719 137.046875 134.890625 C 137.441406 132.414062 136.980469 129.433594 135.488281 128.734375 C 134.019531 128.03125 132.792969 128.535156 132.203125 129.324219 C 131.761719 129.9375 131.699219 130.683594 131.960938 131.363281 C 131.71875 131.386719 131.414062 131.320312 131.105469 131.1875 C 130.054688 130.726562 128.9375 129.414062 129.175781 127.21875 C 129.527344 124.261719 132.246094 123.382812 133.078125 123.1875 C 134.855469 122.769531 136.367188 123.164062 136.804688 123.824219 C 136.980469 124.085938 137.289062 124.195312 137.574219 124.152344 C 139.105469 123.886719 139.566406 125.859375 139.609375 126.082031 C 139.675781 126.367188 139.894531 126.605469 140.179688 126.671875 C 140.464844 126.738281 140.773438 126.648438 140.96875 126.410156 C 141.539062 125.730469 142.613281 126.035156 143.183594 126.476562 C 143.335938 126.585938 143.511719 126.761719 143.621094 126.980469 C 143.03125 126.847656 142.4375 126.980469 141.933594 127.351562 C 141.015625 128.054688 140.464844 129.675781 141.410156 131.582031 C 143.382812 135.527344 140.289062 138.421875 140.160156 138.554688 C 139.875 138.816406 139.832031 139.234375 140.027344 139.5625 C 140.246094 139.890625 140.664062 140 140.992188 139.824219 C 145.222656 137.851562 146.867188 135.351562 146.625 133.863281 C 146.625 133.839844 146.625 133.816406 146.605469 133.796875 C 146.867188 133.816406 147.109375 133.949219 147.261719 134.125 C 147.632812 134.496094 147.832031 135.222656 147.21875 136.011719 C 147.019531 136.273438 147.042969 136.691406 147.21875 136.976562 C 147.304688 137.105469 147.285156 137.675781 146.777344 138.050781 C 146.449219 138.3125 146.382812 138.792969 146.648438 139.144531 C 146.910156 139.472656 147.394531 139.539062 147.742188 139.277344 C 148.3125 138.816406 148.707031 138.160156 148.773438 137.433594 C 148.796875 137.324219 148.773438 137.238281 148.773438 137.128906 C 154.363281 132.304688 156.839844 126.300781 154.671875 122.8125 C 154.453125 122.441406 153.96875 122.332031 153.597656 122.574219 C 153.222656 122.792969 153.113281 123.273438 153.355469 123.648438 C 154.890625 126.125 153.046875 130.75 149.125 134.695312 C 149.101562 134.585938 149.101562 134.496094 149.058594 134.386719 C 154.429688 127.832031 153.660156 124.722656 153.070312 123.714844 C 152.609375 122.902344 151.800781 122.484375 150.964844 122.59375 C 150.132812 122.726562 149.585938 123.054688 149.300781 123.625 C 149.167969 123.867188 149.101562 124.152344 149.125 124.4375 C 148.730469 124.21875 148.378906 123.886719 148.160156 123.515625 C 147.917969 123.144531 147.613281 122.355469 148.074219 121.433594 C 148.53125 120.535156 149.191406 120.25 149.871094 119.988281 C 150.527344 119.722656 151.339844 119.394531 151.558594 118.40625 C 151.800781 117.246094 151.054688 116.371094 150.21875 116.105469 C 150.109375 116.0625 150 116.039062 149.890625 116.039062 C 149.980469 115.910156 150.089844 115.777344 150.199219 115.667969 C 150.503906 115.382812 151.164062 114.945312 152.171875 115.1875 C 154.078125 115.644531 155.394531 117.53125 155.523438 119.988281 C 155.546875 120.292969 155.746094 120.578125 156.050781 120.664062 C 156.597656 120.863281 157.367188 121.300781 157.804688 122.265625 C 158.460938 123.691406 158.289062 125.839844 157.277344 128.492188 C 154.691406 135.59375 148.75 140.285156 137.484375 144.1875 Z M 157.894531 131.144531 C 158.242188 130.464844 158.550781 129.785156 158.8125 129.0625 C 159.316406 127.703125 159.625 126.476562 159.757812 125.378906 C 168.503906 120.117188 172.886719 107.316406 170.210938 100.894531 C 170.035156 100.5 169.597656 100.300781 169.203125 100.476562 C 168.808594 100.628906 168.613281 101.089844 168.789062 101.484375 C 170.914062 106.59375 167.667969 118.125 159.777344 123.492188 C 159.734375 123.097656 159.667969 122.703125 159.558594 122.332031 C 167.429688 115.558594 169.53125 106.308594 166.988281 101.222656 C 166.003906 99.273438 164.710938 98.964844 164.03125 98.964844 L 164.007812 98.964844 C 163 98.964844 162.058594 99.558594 161.597656 100.457031 C 161.574219 100.5 161.554688 100.566406 161.53125 100.609375 C 161.160156 99.953125 161.113281 99.164062 161.246094 98.503906 C 161.488281 97.320312 162.363281 96.160156 163.789062 96.179688 C 164.03125 96.203125 164.226562 96.09375 164.382812 95.917969 C 164.535156 95.742188 164.601562 95.523438 164.578125 95.304688 C 164.46875 94.515625 165.34375 93.902344 166.265625 93.703125 C 167.953125 93.351562 169.972656 94.207031 170.714844 96.882812 C 170.824219 97.300781 171.265625 97.539062 171.679688 97.429688 C 172.097656 97.320312 172.339844 96.882812 172.230469 96.464844 C 171.769531 94.777344 170.871094 93.636719 169.839844 92.957031 C 168.984375 88.136719 167.777344 84.191406 166.15625 81.101562 C 166.15625 81.054688 166.15625 81.011719 166.136719 80.988281 C 162.496094 72.8125 157.9375 70.578125 153.574219 69.371094 C 153.15625 69.261719 152.742188 69.503906 152.632812 69.921875 C 152.523438 70.335938 152.761719 70.753906 153.179688 70.863281 C 155.546875 71.519531 157.671875 72.441406 159.601562 74.128906 C 158.113281 73.382812 156.488281 72.921875 154.714844 72.769531 C 151.84375 72.550781 149.234375 73.425781 147.722656 75.117188 C 147.109375 75.816406 146.691406 76.605469 146.496094 77.503906 C 146.496094 77.527344 146.472656 77.527344 146.472656 77.546875 C 144.960938 81.515625 146.496094 84.101562 148.269531 85.109375 C 148.90625 85.484375 149.605469 85.660156 150.265625 85.660156 C 151.382812 85.660156 152.433594 85.175781 153.15625 84.234375 C 153.421875 83.90625 153.355469 83.402344 153.027344 83.136719 C 152.699219 82.875 152.195312 82.941406 151.929688 83.269531 C 151.121094 84.300781 149.890625 84.257812 149.015625 83.753906 C 148.640625 83.554688 148.292969 83.226562 148.027344 82.808594 C 148.597656 83.183594 149.148438 83.226562 149.410156 83.226562 L 149.429688 83.226562 C 150.613281 83.226562 151.710938 82.414062 151.929688 81.382812 C 151.996094 81.101562 152.082031 80.265625 151.25 79.585938 C 151.863281 78.796875 152.894531 78.292969 154.167969 78.207031 C 156.074219 78.054688 157.894531 78.886719 158.792969 80.3125 C 159.734375 81.800781 159.929688 83.488281 159.316406 84.871094 C 158.921875 85.746094 158.242188 86.339844 157.453125 86.492188 C 157.105469 86.558594 156.839844 86.84375 156.820312 87.195312 C 156.796875 87.542969 156.992188 87.875 157.324219 87.984375 C 157.980469 88.222656 158.175781 89.058594 158.066406 89.800781 C 157.914062 91.007812 156.949219 92.453125 154.800781 92.609375 C 152.082031 92.804688 150.8125 94.339844 150.769531 95.765625 C 150.726562 97.320312 151.972656 98.59375 153.835938 98.832031 C 155.394531 99.050781 156.050781 100.082031 156.316406 100.695312 C 156.730469 101.660156 156.664062 102.824219 156.183594 103.503906 C 156.050781 103.675781 156.007812 103.898438 156.050781 104.09375 C 156.09375 104.3125 156.203125 104.488281 156.402344 104.597656 C 156.949219 104.949219 157.367188 106 157.105469 107.230469 C 156.90625 108.0625 156.117188 110.078125 152.699219 110.539062 C 151.40625 110.714844 150.089844 110.253906 149.125 109.265625 C 148.578125 108.699219 148.246094 108.105469 148.117188 107.644531 C 148.730469 107.492188 149.234375 107.121094 149.542969 106.613281 C 149.9375 105.957031 149.9375 105.167969 149.519531 104.46875 C 149.125 103.808594 148.050781 102.691406 145.179688 102.757812 C 143.226562 102.800781 141.738281 102.230469 140.75 101.046875 C 139.390625 99.402344 139.28125 96.949219 139.546875 95.699219 C 139.609375 95.390625 139.480469 95.105469 139.238281 94.910156 C 138.976562 94.710938 132.835938 90.109375 135.863281 82.898438 C 136.148438 82.984375 136.433594 83.050781 136.71875 83.050781 C 136.894531 83.269531 137.113281 83.488281 137.375 83.707031 C 136.894531 85.417969 135.753906 91.09375 141.363281 94.648438 C 140.445312 96.683594 140.707031 98.066406 141.101562 98.921875 C 141.628906 99.996094 142.722656 100.742188 144.082031 100.980469 C 144.125 100.980469 144.171875 100.980469 144.214844 100.980469 C 144.585938 100.980469 144.914062 100.71875 144.980469 100.324219 C 145.046875 99.90625 144.761719 99.511719 144.347656 99.425781 C 143.839844 99.335938 142.921875 99.074219 142.503906 98.21875 C 142.089844 97.363281 142.285156 96.160156 143.074219 94.710938 C 143.273438 94.339844 143.140625 93.878906 142.769531 93.660156 C 137.792969 90.898438 138.273438 86.425781 138.734375 84.585938 C 139.851562 85.109375 141.277344 85.265625 142.832031 84.476562 C 144.71875 83.511719 145.421875 81.472656 145.089844 80.046875 C 145.046875 79.804688 144.894531 79.609375 144.675781 79.519531 C 144.457031 79.410156 144.214844 79.410156 143.996094 79.519531 C 143.730469 79.652344 143.183594 79.585938 142.613281 79.148438 C 142.109375 78.777344 140.554688 77.261719 141.300781 73.734375 C 141.5625 72.527344 142.546875 70.839844 143.972656 69.984375 C 144.960938 69.394531 146.035156 69.242188 147.128906 69.546875 C 147.546875 69.65625 147.960938 69.417969 148.09375 69 C 148.203125 68.582031 147.960938 68.167969 147.546875 68.035156 C 146.035156 67.617188 144.5 67.816406 143.164062 68.628906 C 141.277344 69.765625 140.117188 71.847656 139.785156 73.382812 C 138.867188 77.8125 140.992188 79.851562 141.671875 80.355469 C 142.285156 80.835938 142.964844 81.078125 143.601562 81.121094 C 143.492188 81.800781 143.050781 82.613281 142.132812 83.074219 C 139.589844 84.367188 137.8125 81.890625 137.746094 81.777344 C 137.59375 81.539062 137.308594 81.40625 137.023438 81.449219 C 136.324219 81.539062 135.753906 81.121094 135.378906 80.769531 C 134.4375 79.851562 133.957031 78.382812 134.042969 77.503906 C 134.066406 77.21875 133.933594 76.933594 133.671875 76.78125 C 131.414062 75.402344 130.929688 70.140625 132.75 66.875 C 136.628906 59.992188 142.527344 59.113281 146.800781 59.574219 C 150.066406 59.945312 153.398438 61.175781 156.554688 63.082031 C 156.160156 62.90625 155.765625 62.730469 155.371094 62.554688 C 149.78125 60.253906 144.457031 60.054688 140.398438 61.984375 C 140.003906 62.160156 139.851562 62.621094 140.027344 63.015625 C 140.203125 63.410156 140.664062 63.5625 141.058594 63.386719 C 144.71875 61.65625 149.605469 61.855469 154.78125 64 C 160.546875 66.371094 165.742188 70.710938 169.050781 75.707031 C 169.992188 77.242188 170.824219 78.84375 171.550781 80.507812 C 171.613281 80.660156 171.679688 80.816406 171.722656 80.96875 C 171.746094 80.988281 171.746094 81.035156 171.769531 81.054688 C 172.207031 82.128906 172.601562 83.203125 172.929688 84.300781 C 178.015625 101.507812 172.425781 118.738281 157.894531 131.144531 Z M 143.621094 118.035156 C 144.851562 118.035156 145.925781 117.203125 146.210938 116.019531 C 146.558594 114.59375 145.683594 113.148438 144.257812 112.796875 C 144.039062 112.753906 143.839844 112.707031 143.621094 112.707031 C 142.394531 112.707031 141.320312 113.542969 141.035156 114.726562 C 140.683594 116.152344 141.5625 117.597656 142.988281 117.949219 C 143.183594 118.011719 143.402344 118.035156 143.621094 118.035156 Z M 142.546875 115.097656 C 142.679688 114.59375 143.117188 114.242188 143.621094 114.242188 C 143.710938 114.242188 143.796875 114.265625 143.886719 114.289062 C 144.476562 114.441406 144.851562 115.03125 144.695312 115.644531 C 144.542969 116.238281 143.929688 116.609375 143.335938 116.457031 C 142.769531 116.304688 142.394531 115.691406 142.546875 115.097656 Z M 124.660156 113.652344 C 124.878906 113.695312 125.101562 113.738281 125.320312 113.738281 C 126.589844 113.738281 127.6875 112.882812 127.992188 111.65625 C 128.367188 110.1875 127.445312 108.699219 125.976562 108.324219 C 125.757812 108.28125 125.539062 108.238281 125.320312 108.238281 C 124.046875 108.238281 122.953125 109.09375 122.644531 110.320312 C 122.273438 111.789062 123.171875 113.300781 124.660156 113.652344 Z M 124.15625 110.691406 C 124.289062 110.144531 124.769531 109.773438 125.320312 109.773438 C 125.40625 109.773438 125.515625 109.792969 125.605469 109.816406 C 126.238281 109.96875 126.632812 110.625 126.480469 111.261719 C 126.328125 111.898438 125.648438 112.292969 125.035156 112.140625 C 124.375 111.984375 123.980469 111.351562 124.15625 110.691406 Z M 116.859375 133.6875 C 118.28125 133.621094 119.402344 132.394531 119.335938 130.945312 C 119.269531 129.566406 118.128906 128.46875 116.726562 128.46875 L 116.59375 128.46875 C 115.894531 128.511719 115.257812 128.796875 114.796875 129.324219 C 114.335938 129.851562 114.097656 130.507812 114.140625 131.210938 C 114.207031 132.589844 115.34375 133.6875 116.75 133.6875 Z M 115.675781 131.144531 C 115.652344 130.859375 115.761719 130.597656 115.9375 130.375 C 116.132812 130.15625 116.375 130.046875 116.726562 130.027344 C 117.296875 130.027344 117.757812 130.464844 117.777344 131.035156 C 117.800781 131.605469 117.363281 132.109375 116.792969 132.128906 L 116.726562 132.128906 C 116.15625 132.152344 115.695312 131.714844 115.675781 131.144531 Z M 123.652344 61.964844 C 124.222656 61.941406 124.726562 61.699219 125.101562 61.285156 C 125.472656 60.867188 125.667969 60.339844 125.625 59.769531 C 125.558594 58.652344 124.640625 57.777344 123.542969 57.777344 C 123.523438 57.777344 123.457031 57.777344 123.433594 57.777344 C 122.273438 57.84375 121.394531 58.828125 121.4375 59.96875 C 121.503906 61.085938 122.425781 61.964844 123.523438 61.964844 C 123.566406 61.964844 123.652344 61.964844 123.652344 61.964844 Z M 123.015625 59.902344 C 122.996094 59.597656 123.238281 59.355469 123.566406 59.332031 C 123.851562 59.332031 124.089844 59.550781 124.113281 59.859375 C 124.113281 60.011719 124.070312 60.144531 123.980469 60.253906 C 123.894531 60.363281 123.742188 60.429688 123.609375 60.429688 L 123.585938 61.195312 L 123.585938 60.429688 C 123.257812 60.40625 123.015625 60.1875 123.015625 59.902344 Z M 106.773438 88.289062 C 106.707031 86.910156 105.570312 85.8125 104.164062 85.8125 L 104.035156 85.8125 C 102.609375 85.878906 101.492188 87.105469 101.578125 88.550781 C 101.644531 89.933594 102.785156 91.03125 104.164062 91.03125 L 104.296875 91.03125 C 105 90.984375 105.632812 90.699219 106.09375 90.175781 C 106.578125 89.648438 106.796875 88.96875 106.773438 88.289062 Z M 104.953125 89.121094 C 104.757812 89.339844 104.515625 89.453125 104.230469 89.472656 L 104.164062 89.472656 C 103.597656 89.472656 103.136719 89.035156 103.113281 88.464844 C 103.089844 87.894531 103.53125 87.390625 104.164062 87.367188 C 104.734375 87.367188 105.195312 87.808594 105.21875 88.378906 C 105.238281 88.640625 105.128906 88.925781 104.953125 89.121094 Z M 119.203125 65.074219 C 119.136719 63.804688 118.085938 62.796875 116.8125 62.796875 L 116.683594 62.796875 C 115.367188 62.863281 114.335938 64 114.402344 65.316406 C 114.46875 66.589844 115.519531 67.597656 116.792969 67.597656 L 116.921875 67.597656 C 118.261719 67.53125 119.269531 66.390625 119.203125 65.074219 Z M 116.859375 66.039062 L 116.8125 66.039062 C 116.355469 66.039062 115.980469 65.691406 115.960938 65.230469 C 115.9375 64.769531 116.289062 64.351562 116.8125 64.332031 C 117.273438 64.332031 117.648438 64.679688 117.667969 65.140625 C 117.691406 65.625 117.316406 66.019531 116.859375 66.039062 Z M 112.453125 134.191406 L 112.320312 134.191406 C 111.597656 134.234375 110.9375 134.542969 110.457031 135.066406 C 109.976562 135.59375 109.734375 136.296875 109.753906 137.019531 C 109.820312 138.464844 111.003906 139.582031 112.453125 139.582031 L 112.582031 139.582031 C 114.074219 139.496094 115.214844 138.222656 115.148438 136.734375 C 115.082031 135.332031 113.898438 134.191406 112.453125 134.191406 Z M 112.496094 138.050781 L 112.429688 138.050781 C 111.816406 138.050781 111.3125 137.566406 111.289062 136.953125 C 111.269531 136.644531 111.378906 136.339844 111.597656 136.121094 C 111.816406 135.902344 112.078125 135.746094 112.453125 135.746094 C 113.066406 135.746094 113.570312 136.230469 113.589844 136.84375 C 113.636719 137.480469 113.132812 138.027344 112.496094 138.050781 Z M 112.496094 138.050781 " fill-opacity="1" fill-rule="nonzero"/></g></svg>